<mxfile host="app.diagrams.net" modified="2022-07-11T16:40:17.494Z" agent="5.0 (Windows NT 10.0; Win64; x64) AppleWebKit/537.36 (KHTML, like Gecko) Chrome/103.0.5060.114 Safari/537.36 Edg/103.0.1264.49" etag="ZNfkNlIzK5OXylSSNRUp" version="20.0.4" type="github">
  <diagram id="C5RBs43oDa-KdzZeNtuy" name="Page-1">
    <mxGraphModel dx="990" dy="570" grid="1" gridSize="10" guides="1" tooltips="1" connect="1" arrows="1" fold="1" page="1" pageScale="1" pageWidth="827" pageHeight="1169" math="0" shadow="0">
      <root>
        <mxCell id="WIyWlLk6GJQsqaUBKTNV-0" />
        <mxCell id="WIyWlLk6GJQsqaUBKTNV-1" parent="WIyWlLk6GJQsqaUBKTNV-0" />
        <mxCell id="XG_kTeU8McAy2guozYfd-5" style="edgeStyle=orthogonalEdgeStyle;rounded=0;orthogonalLoop=1;jettySize=auto;html=1;exitX=0.5;exitY=1;exitDx=0;exitDy=0;" parent="WIyWlLk6GJQsqaUBKTNV-1" source="XG_kTeU8McAy2guozYfd-1" target="XG_kTeU8McAy2guozYfd-4" edge="1">
          <mxGeometry relative="1" as="geometry" />
        </mxCell>
        <mxCell id="XG_kTeU8McAy2guozYfd-1" value="Log into SQL System" style="rounded=1;whiteSpace=wrap;html=1;fontSize=12;glass=0;strokeWidth=1;shadow=0;" parent="WIyWlLk6GJQsqaUBKTNV-1" vertex="1">
          <mxGeometry x="130" y="100" width="200" height="50" as="geometry" />
        </mxCell>
        <mxCell id="XG_kTeU8McAy2guozYfd-2" style="edgeStyle=orthogonalEdgeStyle;rounded=0;orthogonalLoop=1;jettySize=auto;html=1;exitX=0.5;exitY=1;exitDx=0;exitDy=0;entryX=0.5;entryY=0;entryDx=0;entryDy=0;" parent="WIyWlLk6GJQsqaUBKTNV-1" source="XG_kTeU8McAy2guozYfd-3" target="XG_kTeU8McAy2guozYfd-1" edge="1">
          <mxGeometry relative="1" as="geometry" />
        </mxCell>
        <mxCell id="XG_kTeU8McAy2guozYfd-3" value="Start" style="ellipse;whiteSpace=wrap;html=1;" parent="WIyWlLk6GJQsqaUBKTNV-1" vertex="1">
          <mxGeometry x="185" y="20" width="90" height="40" as="geometry" />
        </mxCell>
        <mxCell id="XG_kTeU8McAy2guozYfd-7" style="edgeStyle=orthogonalEdgeStyle;rounded=0;orthogonalLoop=1;jettySize=auto;html=1;exitX=0.5;exitY=1;exitDx=0;exitDy=0;" parent="WIyWlLk6GJQsqaUBKTNV-1" source="XG_kTeU8McAy2guozYfd-4" target="XG_kTeU8McAy2guozYfd-6" edge="1">
          <mxGeometry relative="1" as="geometry" />
        </mxCell>
        <mxCell id="XG_kTeU8McAy2guozYfd-4" value="Extract Input information: &lt;b&gt;BK&lt;/b&gt;, &lt;b&gt;STK&lt;/b&gt;, &lt;b&gt;SLE&lt;/b&gt;, &lt;b&gt;GIT&lt;/b&gt;" style="rounded=1;whiteSpace=wrap;html=1;fontSize=12;glass=0;strokeWidth=1;shadow=0;" parent="WIyWlLk6GJQsqaUBKTNV-1" vertex="1">
          <mxGeometry x="130" y="190" width="200" height="50" as="geometry" />
        </mxCell>
        <mxCell id="XG_kTeU8McAy2guozYfd-32" style="edgeStyle=orthogonalEdgeStyle;rounded=0;orthogonalLoop=1;jettySize=auto;html=1;exitX=0.5;exitY=1;exitDx=0;exitDy=0;entryX=0.5;entryY=0;entryDx=0;entryDy=0;fontColor=#990000;" parent="WIyWlLk6GJQsqaUBKTNV-1" source="XG_kTeU8McAy2guozYfd-6" target="XG_kTeU8McAy2guozYfd-31" edge="1">
          <mxGeometry relative="1" as="geometry" />
        </mxCell>
        <mxCell id="XG_kTeU8McAy2guozYfd-6" value="Update &lt;b&gt;Order Date - &lt;/b&gt;&lt;font color=&quot;#990000&quot;&gt;Bot execute Tracking process&lt;/font&gt;" style="rounded=1;whiteSpace=wrap;html=1;" parent="WIyWlLk6GJQsqaUBKTNV-1" vertex="1">
          <mxGeometry x="130" y="280" width="200" height="60" as="geometry" />
        </mxCell>
        <mxCell id="XG_kTeU8McAy2guozYfd-10" value="" style="rounded=0;whiteSpace=wrap;html=1;fontColor=#990000;" parent="WIyWlLk6GJQsqaUBKTNV-1" vertex="1">
          <mxGeometry x="1180" y="20" width="580" height="70" as="geometry" />
        </mxCell>
        <mxCell id="XG_kTeU8McAy2guozYfd-11" value="Input Files:" style="text;html=1;strokeColor=none;fillColor=none;align=center;verticalAlign=middle;whiteSpace=wrap;rounded=0;fontColor=#990000;" parent="WIyWlLk6GJQsqaUBKTNV-1" vertex="1">
          <mxGeometry x="1190" y="30" width="70" height="30" as="geometry" />
        </mxCell>
        <mxCell id="XG_kTeU8McAy2guozYfd-12" value="" style="rounded=0;whiteSpace=wrap;html=1;fontColor=#990000;" parent="WIyWlLk6GJQsqaUBKTNV-1" vertex="1">
          <mxGeometry x="1180" y="120" width="580" height="70" as="geometry" />
        </mxCell>
        <mxCell id="XG_kTeU8McAy2guozYfd-13" value="Output Files:" style="text;html=1;strokeColor=none;fillColor=none;align=center;verticalAlign=middle;whiteSpace=wrap;rounded=0;fontColor=#990000;" parent="WIyWlLk6GJQsqaUBKTNV-1" vertex="1">
          <mxGeometry x="1190" y="130" width="80" height="30" as="geometry" />
        </mxCell>
        <mxCell id="XG_kTeU8McAy2guozYfd-15" value="Output Files:" style="text;html=1;strokeColor=none;fillColor=none;align=center;verticalAlign=middle;whiteSpace=wrap;rounded=0;fontColor=#990000;" parent="WIyWlLk6GJQsqaUBKTNV-1" vertex="1">
          <mxGeometry x="1190" y="230" width="80" height="30" as="geometry" />
        </mxCell>
        <mxCell id="XG_kTeU8McAy2guozYfd-16" value="" style="rounded=0;whiteSpace=wrap;html=1;fontColor=#990000;" parent="WIyWlLk6GJQsqaUBKTNV-1" vertex="1">
          <mxGeometry x="1180" y="220" width="580" height="70" as="geometry" />
        </mxCell>
        <mxCell id="XG_kTeU8McAy2guozYfd-17" value="Configs" style="text;html=1;strokeColor=none;fillColor=none;align=center;verticalAlign=middle;whiteSpace=wrap;rounded=0;fontColor=#990000;" parent="WIyWlLk6GJQsqaUBKTNV-1" vertex="1">
          <mxGeometry x="1184" y="228" width="80" height="30" as="geometry" />
        </mxCell>
        <mxCell id="XG_kTeU8McAy2guozYfd-30" style="edgeStyle=orthogonalEdgeStyle;rounded=0;orthogonalLoop=1;jettySize=auto;html=1;exitX=0;exitY=0.5;exitDx=0;exitDy=0;entryX=1;entryY=0.5;entryDx=0;entryDy=0;fontColor=#990000;" parent="WIyWlLk6GJQsqaUBKTNV-1" source="XG_kTeU8McAy2guozYfd-26" target="XG_kTeU8McAy2guozYfd-6" edge="1">
          <mxGeometry relative="1" as="geometry" />
        </mxCell>
        <mxCell id="XG_kTeU8McAy2guozYfd-26" value="" style="shape=image;verticalLabelPosition=bottom;labelBackgroundColor=default;verticalAlign=top;aspect=fixed;imageAspect=0;image=data:image/png,iVBORw0KGgoAAAANSUhEUgAAA94AAADQCAYAAADxj7nGAAAAAXNSR0IArs4c6QAAAARnQU1BAACxjwv8YQUAAAAJcEhZcwAAJOgAACToAYJjBRwAAP+lSURBVHhe7J0HoF1Vmba/08+t6ZWEJJTQexdQB+wVFcU2jg3HNuovzjjOPzqO80+xz9j76NhGBLFQpAjSewhJSEggkN6T2+/p5/zv8+2zbk5uCggISdjvvevsvddefX2rvGutvVZi3bp1DfsTkUgkXAU0Go0RFZ63bt1qAwMDNjw8bMVi0fXS6bQlk0m/r9Vqfn/kkUdaW1ubm9m4caPlcjmbOHGiv4uxNyDkA3nbKirbnxPJKG/7+npt3LhxVigMW71e83y+8sqr7He/vcqOP/4U+9hFfyszfXbLLbfYO975Dvvud75rp556qnV3d3t+t8rUTkjUmzfhGuPpBvmZSqX8Wq1W/Z4rZXnJkiV2+OGHe/ndYz7GeEaRsKpdc/nv7Mtf+i9bsXK1ZZRf2XxOpSphnWPG2Vv+8m32uvNfb126B0kvbw1TEVe+ylQDxQO6cT4/U6DMLViwwA477DDLZrNef1IHow94Dm1sjKceKhHWUD1HufGy4XdR2UgklO7eNDZscHDQxo4fZ+VS1T7y0Ytsa0+vXfie99pxJ56oPk/ZZs6YbgNqN9OppNenoF6vex0bFAjvYjwzIB9o1yhPlUrF9dasWWP5fN7Gjx/vZW9/a/cKhYLHl/45caON/5//+R/v1//LZz5jXV0dNqaz3fJtedu6pccuv+oq++rXvmnnvuhFdt5rXmcHHjjb2jva3Z1Esw2xRNWSNCleRiLZjsoR9dS+kX6UT/o969evt/b2ds9/0if0jYKs7C9INJQ/VbUvkoVUpqy8GlLbYlYspRX/jBUrG+2KK6+2z/7rj61Szlq9MWilSp9lc5122mnPsw/+zV/biaccboMDWy2TbJd7z642CVlZtWqVdXZ22oQJE6J6pPnuT8buBCs0FP39/dbb2+uEGiCU2EFo6RCgWt0IAhvsx9g3kEgmLJPJeH6St1TUXAEV7tKlS13v5JNOcpkgf09Up6O7q9seeOABr7h4H+f7vouQd3Ee7hugvNLRf8+Fb7dfXvxT+8lP/se+9/3v27vf/W773ne/Z//8z59pmoyxN4PyFlSMvRNTp061bdu2+QQEBKVYLNnadWu9/E2fPsX6+votl8t7mSQf6aShuKfPxEAm72LsndifyyCEGxmkb8dgw9DQkA8koYYkzxCJQqFoK1askLm0P/ugUb1hnR2d3q+DpO+P2J/zfVdotPA24oxc5FU35SUj2Wb9xCDUhz/8YfvfX1xsv/3t7+zHP/6xXXTRRXbMMUdZuVzerwYj/hS0yki4f0LEG8tkAA0EVwpYGG1npnv58uVOsgIBA4Fwe8GU/UC2eKZQh4YHxT3vY+z9qNfq3qkgz5i5Jv8AhfCRRx7xSvn++++3f/r0p+0NF7zB3vTmN9mFF15oA4MD9vOf/9y2bNky0tGIsfcj5FMon8y2kfcMstBJjMvt3o9UMqWGM2Fjx4yxObNn27HHHmsnnXSSnfmcM+3ss8+yO2691R5++GHvNEX5mRip62k8fQC1Ea88eaZBu0k9S7kLbSd5E660yTGeWVAvUnbGjR9v06ZN97ayVCqJ1HRYqVixSrUiMl4Y6R+FDip1KvlH+Yvr1GceIR/IJ8ocecSkUsir/TGPkMfWOoS2HjLe1dUlkt1hwyLiELCenh5rF+lmkoU2g1WPmCFNSJ/9DcSLtKBcUweTRjyHd/ujLBBHnzzVn1+b8l9WXZZoxrlcKdsY9SkOOeQQm61+xcEHH+zXRiMqI6n0s3PVDu0zZSnck35PSEJIdBKaxETgcAiHyQgamlAhkVmtCnOo8BzcAujTYaBiCyp08mPsvSCPQoecPAxEGrC8gtHRc849x0e+Lnz3hfaOt7/D3vrWt9qH/uZD3gG54447vLOBLMXYtxA6+NQF5Pn+2ODsj6Czn04nfalgUiTcO/4qw23tbb4UKqW6OeQtjWqoowH3onhx3bwXgDbS86glf1qxO/0YTx/aREhqyqeK2rgDDpiuNjJpCxcutAebK8HoqHa0d3heMXDNslXyFYJOu0gbyTXGM4vWckY/B5BPYH9t94gn/TInTbqHZEKs6dNVK1XL5XNKGHOZXbhggS1atMhJ10EHHeT9AWR3f+3Xkee0gaEODjLQKif7E4gf8WLAPYqzNPUT+v/e/0ukPM/DgA15j9mBgUHnhYODQ5FjzzKQdqRD6FO5nv/+iQgJjUMoEpXlVJs3b/aCyTvMPJYKAaFQB0Ee/T7G3g3yjtFNBCtU0owIr1y50u666y4fIT333HPtBS94gb3iFa+w8847z17/+tfbm9/8Zu9oXHfddT5iuj9WVs8WhHogqBh7N6ifKxUGy5KWy2XVSGa8o//oo4/aoytW2PQZM2zs2LHRUkNvcKPGg7JOOfV8rsf5/EzjscpbXBafeQyqP9TR1i6SkrdTTjnFjjrqaP9W9le/utRXBpJHtJkMUv/617+2a6+91pf0smwXffpBtK0xnlmEsrYntb+Buj705bmnDYBQcY9MdnR0+Ds+Kf3+975rDz30kJ111ll23HHHqE/IUvPI3P6GXeX9aLXfgU6AQH6S54y4UD8xMF+TjIAu1VlMulJ/8a69vcOvKF+Z1VwV8GzDruQiddFFF326ef8ngcIXCiYjYBBvlpczKoZ+q5ndKQIyefJkzxgKNcvUAUQOoIe5GM8k9pz+VK7JVNLzno48I/rkGaQbUn3ggQeKeL/Qxo2ZYNlszu0wgk8e33DDDT5Yc/TRR9uUKVO8Y79bJILQxp3JZxKhPIZKhDJKZUzHkbyOy+veDXWFbPWjj9gtt95uW1Tfrly52u646x67/c47bf79C6xYKturzzvPjhRBoLFU8Vb+quOl7KZsJ5W/YeNEZstjPDMg/VevXm0zZszwepMySFkM71rvY/w5oIKhstDQlRovukOhHV0BnVIICt/CdnWP8XauVK7YQw8/bIsfWGz3z7/P7rzjdrv11lu8/zNp0iQ3Q9lrbQ/jevWZBemPojxBPunnkl8MTjJIEszsTyCeYQKM+oTVjHw2+OCDD3p/f9698+zmm26yBQvm28aNm+w5It0vfenLbOKkySJkDNJGfQNPO7nnqeMbdHLdXkZkIJSc6HkfAHEi/0kjBqlDP2h/kwFA7qln7/eNRtkaiYrqJlbFiXgrH6v1IVu3foPddstCpcmALV/+oN1z7x12x513SV4esKHhfps8dZx1drVbXRw9koZnD5AJeA51evgc9wkRbxoEFJUPoxvsVM1Md/g+KYyKPZYiADQ0uMUzBZsry6/QC52HGM8kHk8hUbWpfGMQhiv5tm3bVs/D448/wY48gk58u95FO4JC0sePHyt7CV+mdNRRR9qECeNlfg/fJHptDeKO5DMJ8hfQyADymnxnhcPMmTPjMruXA+Ltu8lKZXNZJwQ9vX1WqlSte8xYO/mUU+3lr3iFZbLR9/oNkWw6X0nZDMTb6g2VQsp8nNfPFGg7Gew64IADvJ6lPHIN7yinKO5j/DmgckD66kqNGN2h0I6ugL5Qu4h3z7YePSXs0LmH2ew5s9UOVq2vt9cq5ZJf+WaWTUdPPvlk/0aWvhRtJfZRcT4+swjtHvlAfjwbiHf4jjma4YxWuiKXtAukASsVGViqVEo+ufKGN77RJk+eagPiBBBv+nM1tR+Yj8oIP/s38d4f4TVcnfaEb7mr6kEgA3xerPxtVJUGFSuWKiLVHdbe3i2ZKdjgUI/19vbbcKGi9OmymQdO1bvcs5J4g02bNvn33Uw4evv8RI8TCzPdLDOBSLHEIFRKdAC4f6zGArMcQeQFU26yoQ+FfdasWe4GeqHQx3imEDrX5GVrfjafVYb4XpRR/f7+Ps/z9vY2ycZA1GFn5NMy6sDTOYx2VOY7EHZ07enp95HTKVMm6V3DOyO7RXyc2DMO8payCkK5pJzSGHNEHMvMyN8Yey9Uc1umUbdquWD5fJva07ST7kojYeVK3dJs/pHOqkFtkjaf3a5ZWo1uJpO0lMp7Q3nPt14tXacYTzNof2+++WY744wzfCSd8kjZI8+4byXhMZ56qCZ8XMeJkU8Qb9rRIfWRUukco5U2MDjs/ZsJE8dZpVBy8sLnHnTOmBWhjaR/BbGjT0QdG+OZReiPUt7IKzYTY+KAnevD+/0J1CH06yGU1C1hwIE+AJNjw0MD1t3ZYYsWLbCJE6ZY97hxLtcNtRXtHV2Mz1qpXPJ0gVrvT8eJEadly5a5LMBXWtNmf6tzOU6sUUtZRvKQTJWsXOuTbGTUX8hZtVa0zq6KbVVfviN7qPQ7VcdVLJWtqs5q2NBQ3VKZurV3sm9Fn2WfhceJAU5wYoCGFWrIzxNKgVDBIGDcBybPSC0Fknsaj8dSkLXQWaCBCu4hvKGDH2PvBkJEB4HRz1BJc4433/2TvxwXxpFjaeUz76igkI++vkFvxBgtHh4uqpBGZ2PG2HsRyn0A5XW0irH3o1aNNj+hjLIzLeUSUI9Th9PZb81Pz3f984xZnkfLQoynH6PLXGuetOrHeOYAad60aaPnDe0hGxnS1o0bP87ybe1qBwf8U63wXTedM1YP8kzbGTr0MZ5ZhLK2J7W/IWySTH/N+3G6h4wjk0FGh9T343NRvunu6e1xWUXmGTiqVqNTF/ZH7Cr/W9X+hhAnZCCKo0WfnakPL03vN/DZabFQtuFC0fMfM/l8zjKSF45RDN+CP9vQKhdBPSF2S8GjkWC0b/r06b5lPDsZohj94VtP9ObMmbNbxXsaGQommUmHrrVTx32YVYux94KjiTo6On3ghMJHBU3HnfxjVJjlKQyu8EyFjNDRwcc8+Yv5TCb6NCHGvonWCmX34F1QrWjVH/0OBLlofd+qB1plZ1duPFngfqsCuwtLAM+tam9AFA7OE6ZcsueCD4CqLmdZYFmdpk2bNltff583qmyslk5HO9tyH+po8jkur888Ql7sudzFeCZBPymdyfrgdCAyfLKRVnmjU0obyKrBiRMn+mQDqwdpP1G0n6gYMZ4J0DeDaFPPQKQg2wzWQq6p/un/85kp17Zmv4+JN/p3mBkaio7Oi7H/wE9oqMLL2BQy6/2IWo39ReABTMC2+/ne9O9LxYLXb9R51G3dko1nI0Ib3dpWPyHiTQMSdi+nYFLQUNyjSOQwMrY7RWeOEWDIWJjdbg0cGRYT770fnlfVqAPI7sjr1q2XfJRtypRpkok270gMSNVqFcvmot2Te3q3WUGFkmXjyEmtXlXlzsiZhNI/AApXYWSJOdiblpkjs0G1ki/CuCsVgNld2X3i2DUJ+lPdHR2ugF3FBRWRr6i8RnZZfFxTftWSKrtSdeVhwxV5G6mEoZrLMl3xXNE7FB8AUebRl/tyN9FISfGNWNNunWc+X9B72YvMBTNN95rik2pIvqQIWfQukimCuye1HTykpJmVysnvNl1ZSo8HCidLpuR39EzYSZdk5EuirNcFV8QtCleI02ilsOPETtfR5tCLVCv0ahcKQ1FehbRONaIlsH0qj4OFoqXz7VZWHbtx0yarqqM0ffo0EfEuX1ImbiBykLAMxFvKN00M9bLSNMafF3sa2KDMbS97OwpDq73R72I89YhSm3SO0trLXrMOoIbasnWbTRg/0RIqU9QNDE6ndb9h/Xrr2bbNjxJra1M5LJdH+ka0mTyH/lHcD9o7EMpTuIYyuL8CuYNoQ56RSwZpw/fszHZDuDifvlyq2FrJ89BQwVc7sm8BS9Db2nJWVj8vtLveFumWMhJKzr6O0fXw/ioPCf+eRu2/7/mi+KpfhEwkk2n1/xOSgZrquh4bGmYFT119f858z1lbPlrRXGRVq8zEiODfeI8WmtB48xxUeAaBWO8JmGmtmHblFo0KJB4w87148WLPTGbMw/Kq/XWpyv6H0Bknf0dXqjy3qoigbL9GMrEzRpvdWxAIF1DYneRQqUiNEJ4QJ8KueEDSnMRxRQXIrNsZjdHxxcyuzCW9QWS5Po0k5ZKRZ8ofZYgBD+63d952lY6kM2FrjRPmApmM/Gb2k5lRlg1R4Y4fN9E2b95mmzdttbVr19qRxx1liXxNUaSBVfmHJMtmqlFVKCPimcSPRnMTvRFCXpHr/JEuadmTkpkEhLfOTvgKRzranMiq4yP7qT6pIb0XGa51653cQY/w1vPyR/Yh9Iqvf0Mmq9DPWkI0nHqJZ923Impb6C43v0cjPPI/ItxZS8qReqpkltmod1Vr1MdKXw1Lql9GCUteep2Kf1mNzxaZVd2mdEhKP1Xt0BUCr/iTKAA/uCcwhBvZ2OGKftMc8LwgPg398o1pZARdrhGivKLrzzd0nubSYQAiwXfZxF86xJ2YRiDGIva8C36NAia2ByTGnxuQLva/oDzT2aUsh/LNPTNLV111le+rwIwU5kP7ihmIG+YYEI/x50FUflRudlE2GOhqRVQKWxGVuehuR7Mx9m7QltKmrhfZpHyxcvOx+sP7K4LsjpbvUDZaMVrOt9vd2ezejmq1ahs3bvRVAdTFAJnYX8HAfwT6a1GfaqS/yKQJ+Uf/hn5kc/LE+0/qy/gkQJhQoW/zLAPtMCeQ0I5PmDDB5SRx//33q63e3miExjvo7eqZDkAgzLsDgtk6UjvajQDcIiAQbM635MpSdDoTuBFvKrI/IRRe8p/7cN0TWs3uLaBCgTw2w+WVSlM1yZFqGF0Fr2iiCsgrJa+suA9xws6u4rZjIxWZ3ZW5hPX3D3njT3mjXNIZoEyxwR12+AZr+5LF0e4CwkLYQpwIP/EJxDuKz/DwoLXl293sQP+g/Gm3rq5xVquyw/JqGzNxrKU7FcaUzMutZD2aJR1NvCHVngaBdI8Qb9IG4p1ycz7TLNLq4chs1rPsVKdE+ukt8kdEu9YlNS4yk94auVmH5GYUk90Qb6WNk2+9De2Jtw26BvIdbfwCaZY7kH+f9VaYRPbr2bV6J3c9LDlpKxxOvEW66+PlZskS6Q3SL+h9xgl3qpp3t6K83xXwjxCMvm5H1FFROkmbtzWuUsSNZ4xHtgi/6HUzHhEJ5zki3jXLjCLeTfuj/NsZkakYf34wKB19qhOdl0rjzZVTQJiBYpCaVWcveMELnACEFWi0nyjaWOqDMIge48+B1rTdsWyMTvWdS87u7cbY+0B7SpmiPFHOINrr1q3ztjb6vjV6/2xDkOI9y3fArsvIvpZqyAB164YNG5x40/ci75GJICPwl/0JDC9GiHLL+00h40ZeteY5L1ueR/rD0eXZBORizZo1PjgeZCWxYsUKXXdMDZ5b9cJ9uOIQFc2egGCOdmO0O7gBUeBKR4NdAhkVOOyww1x4MRd3HGLsfZDst1YyfgtRhUhylXyH1y7qmKe8iHDuasRvB+Id7lv1WoH+ju+o41nmjz4VPjOXFBs6CJSh8I39jmh1h8BCdFvjxDuIN/GRXb1qyI2w83w6lZObCVuy5CH74Ac+JP+zdsll/2ud4zugpDLObLeIq+5Z4sxsq8/xEH8noHLQ/SDNRLzFeBthUIJy72b1zCgq5D+9LbJTYZZZ6ZgekNGWGW+WeqcGo6sIsC8Jl78O6hJclHUId00qkNXWFEBBvIPirQ8YkA6Ei3CniiLum9x0ozZNeiI5yaL0ldY1kfAqo76EV6Q/GaUEM+WqMZtuPkm4Gwqp/kcTb1/W7z62Em4pz3rSk/BIl06iv5XFGHslRrd/DFBDvmkfOf3jox/9qOt95zvf8RViYcYtdPoo+9FSwF3UNzFixPiT0FqO6NvyHGa8Id6hvMbY/0HetxLvXc1472/EO8YTRxika5WVhCqPkdoiNPShsQ8IFUrr9bEEa7QbAa2VEx0DRu8xCzl46KGHPGBHHXXUSEciRoy9D02mE+CijgYkkitlIxigMsY8V6lWchuwg1arw7sC71vNRJ90DA4OeSeAjeoYzKKcseSczjrfY4UCvx2t7hAAwhY9OTxMxCfEJaJpbK5BHFhyXq027J575ttZZ50tf3O2ctUjNm7S+KbZ8Kd7WWcW2UH8Qxr4xV+6inxwX/QLaWYwQCTbtZvEmxnuBHoi3YlhvWcZON+dyTxEHJLc4PgekWQYKXYF91ZXiDcxas0hd16qmUMtBJnBgrJesuqGeMtNv98qxei2iHdDxNu/79ZtXXrVyMORxQNETReO4SItXOMJA09QO962DiK0puIIvR55SawVQ3UQeIyx9yJ8V4kCVRFp2lzaRY4xOuWUU7zzN2/ePJs7d+6IOfRQ1AlBL0aMGE8Orf1ZymEg3qwuYRaL96192xj7L8hrZICl5mFDuaAfEMtCjADkIhBv6grXW716dSMIDMLCfasAcf9EhCi40eoWaHWLygtigB73zHgzenjMMcd4BwP9J+J3jBh/XkimA3kEI8wmEO+gAOYw36R1o2e8R8z/KWg1HzUCw8MFNQJ5H8Bq3TeBd3yuwYqSnTE6jKPj1Eq81eGgQ69yyg6WbKjCJnorV66x5z/vHKurnD744BKbOGmiynwgf1x1507gvjuzHZEh13bFvetBvNmQjPSC7MqBRG9kuM733BBvZrdZyp2XCsSb5fQQb5FxU3zrpLXstPgBSQ3BaYXPcutKtMMVGz4A4N8w8ZjSfUlZyCCAyGtjshzLyS2It+qqetoaTEMDxg3RkwvoJBQHKH9Evp8IiITckvwQtpBWuBaIN+CKfyDEg2e/el2qEBCuYCjGXgnIM20g5Te0ybSF6DHjzeA0ZXrhwoU2c+ZML/M8Q7YxF9rduP2MEeOpRSvxDt94t852xtj/Qf08+hvv0VwnRgxAfRG+8eYEAG/P2VxttMC0Ntaj3/H8eBrzYGZ3whj0q83lsKgHH3zQA3bccceNEO/d2Y8R45mDZLK1CLiIogGl205Ut4NG2WmQXo2SZxjRDnTpTwcFu1ZjOfT2shlmuxjYonPw2NhVnEJ8UJE/lEcn3pWaVStVe+SRFXbGGWd6vJYvf8iPxYmKbLVJ9BTvOjPXug3u835UdJ08jij8gXgLjebmahBtDyMkGwIMyWaAAeLNd+cQ5GinfDO+yWapedQZCkmO9x4TnOHagpQ0PId0jfxtXlsDjkNJ1VdJBgF4bm6u1kq8iQjAQYU7sglx0p3sN98+IfjS/WYijcSJx5ZrKxhMCP55vJoGos1OovsYey8oa2H2GlCWuV+1apUdeeSRXsb51vuAAw7wdpRBt9Ez3+jFiBHjqQPlajTxpr8a49kD6ttn0+ZqMZ44AvHmG282VwNJKoxWhfAEItwKGvygQDCzJ4WHrSroB/sA//A3uMtzLMAx9m60lA0X2/DMQ1AAOXY611RcWssV94HYct+qdoVW96WcfUXnwjYa7KkQucO1VCpa0Y9sG41duOHutMAfCUPTTDMOCRHuRIJZOH9SpyPaxAm/hgtD0mlEZK8ustBgSTa7enOOJ7PQejESNWaQo43PHCP6TRAk/fgcsUh4NEstfy0d3Y88Z5tXnjGfaSr02EAtMhucR+nRsyDkjCuFrTWXRnipW9IdM+eudC+ineBoMb+GUGKHe7mjB47e8IGDRFHPBb8SwmiTt2hH8T9VbQ8hgYtii5vMyKOSflRYUNHGaqMRoqMA+XOMvRdVdezCxqK0h7SPtJMBdP5Zjk754z2rW3iPXrwhaYwYTx9C3zXGswdxnsd4vKBdZkA88GtkZ6cZbxpyGn3gBprvWu8fDyDarQj2W90JZnimI8Gu5uzaeuyxx7p+IOcxYux9aC0LQU6d2rQoyFJA632wi/wzU6vLCPkN11bzAc13wTuexRIXL15oK1Y+YkcccaQdOHOW75VAWZo2bbqdcsqpXr62D2btwg0HGpF7EcI1lGMRev0mIYIqt9Uqo/7R96annnq6k+/1a9fbZB/RE6nmG2y+j+ZjZ5Z+szM4M98sG+cYMK4sExd5bjRELOU13JZJ6pFzv0FYmu/LvXnJDB7h5L2Ub8iGHwodbhJ+d6RpLyBE00FMovih7eRZ5sN52a4fvW4xqh/cZ6cylrRzX89Il6XwvJcJj2tK4ZfZZEn6EKCqXEc/F5ndMSCPGzgpl3UlrISFEHHlV1fBg+7x1o3yaeQeREabj+Ehxt6KqtpgVJixpi0M93ySxVJzyjXLzqdPn+6NOs9suAaYiRndBseIEeOJIfRZwe5mvOP+6rMDyAJ1855mvGNZiBGAvIRdzfmU2vV2tdScBjvotZLjIFgIVXjmHiGkAmIpXDBD5dQqfME9ruEe8wA7mGepOUtVjz/+eDeDHhVajBhPN5Bp5JeRKmSRcsBMEqSW3SyDbB966KG+1JPvK4PMR8s9eR9V0GH5J+9wB3nHTWapIXChPPCe/a8jROUolL+oXDXNSatpxX35/Of/w6697mr7wPvfZy944Qvt4l9cbD/96c9807O/+7uPq8Oe9fBFfqcUTl3dgciR4JaTOMIwohEh0uMuKru4E+LBN6Ynn3yyP29Uukz0iqWoAPcpnIOynJUtNUx+FraIQ1Jk1M+9VtlvdFi90iY3RcpFFGsQac4AVxLwzXhU/tNO9qO0Y3YPgkFabK9b0CdObCwnYx5Wko3ZZ3/fXAkQxQuzZXcvk2Gv8aahhvKDFeNK/wQW9RyRU8h9k0DXi5Z07szAJPYg1NLgqDEGEHxJPWnEBTpM/UacmLGGpDd90w9hJqxJ+RX0PF+bUcNn9LmG/Pa5/Toz6ejXbaCv19ZvWGe5fM6mTptm+TbSGFssRScsOEbakWcNS4UEATHx3qsRyhlXvt+uqh6h4QYMqoV9UCDhHBdI+YaYI9cBuyrLMWLE+NPRWo5ol2j7WjdX47m17MXYfxHqZvI/bJhF3kd9tAixLMQIQF4g3sgKn1K7HsTb71qAQRpxhIula6GigUAgUCg6AoODg7ZlyxZ/d8IJJ9i2bWw6ZE7Cg7k9AX8wg338eOCBBzxgEO+YcMd4poBMshM4Msmulcgi5+RCMv/zP//Tli9fLtnFnNkb3vB6u+CCN/qRPmFTMzZRoHwg38xA8Qxwj/KEe9lsWuWrJlIocin5hxxSDlLJiKRDHCGY5TLkLSqPkGX8jN5F5iFUX/ryF+ySS/7X/unT/2TPfe5z7fdXXW2///3v/TvQ9773A+octHlZZpY6LSJbLjMYQPmis0DZTvDNCb66OdwlDQg/98SFa9BHBVJAmT3hhOM9jBvWrbZJE6hYBkX8NtvAlpWKv9xJTrRaNW/1muKWLFo632ed3VlVRFOtWlD6psfL/5yVq0Nil9FGcJVqwoaHS9bWnrNMOie7SSsq7fJ5iC71CoQVEm4yG2301tXZobDKCUWlVhPRhBdD52sMopDOkOK6zA57nMaM6ZK7kF81mI2ElYpVyygcyZT8gAEzq20DerdV5ntt64ZV4tc5T0djsEBkOmF5y2UmWmf7FOVRFx7Kvl7JiLLbWJ2eZmK/KS9ccbpS4bt80fEU6SpzsOtGSnZliH9FjLjBtasyB2dOifA3qgVDRGq1ii1ZON9+9rOf26TJE+11b3yjzZw1y9PEPWFQQPesJiBNOAWurY1v0Ilv00iMvRah/AWEcoceg39HHHGE61MXzVK+h3ej7bQ+x4gR44mhtSyFNpLONP2DcI53jGcP6MsF4j0yi9mUj7jejTEa4Rtv+K3Lx2jiTaWCoqMPQcAQ10C66bDynlH3H/zgB3bdddfZ2WefbV//+tfVUR52Is4MIEA49wSEEzeptGLiHWNvATIOglzyzMzSRRdd5AT80ksvtanTJou01e3zn/+8HXvscXbaaad7GaESZiVHb++AZTNZGzuuy2UcPd7z3XVVRDGXYxY6I1JVETkd1vuqTRjPMu2oTAwPh12KmaluzvaqvPA9N7O7hUJZhD76xvpf/vXTduutN9uHPvQhO/ecc30UvlAoup/d3WPlX83Nd3V12NBgSX5n3D9mfPv7B70cjhvX7eSvUil5+S6Vok3ZcIv3+Ak5hVSGRgVzDzywyE455WTZq9nqlQ/btCmTxFd7rVZ+1O6642qbf89i69tiNjQAsSVRh2z81LKdcsYJduJzXmZd3YdYqjFNbmbFFYet4UeC0YlpswaEU/7pV57lIn+TVRvs79dz1nLpDktlFCZmoQV2FC+J6KfRkzlL1axYHlQ6Un8lRTqlpzhCfEk3/VhpuKA4tsus2DHHlLFU3GeKIfUQ7D7prbeejUvsskt/ZmvWbbCerUOWyXUoveRPosOOmHumPffs19jBc49R+BRGeVOvigTJmUROhIlVDegT/tbaVs8N5Wu5WFb+FJQW3XpWOks/lY7SGHi8fYZaDteGrKE4ga2bN9oll/zSyuWivfwVr7DZhx1uqRybzUXhZwa+UmooDerW1t6t/E5K/uqWzUVkP8beC+QzlDPAc9CLiXeMGE8vWssS7V5MvJ/diIl3jD8Fo4n3TrUFFQgEIVQkGELImKnr6+vzZbbf/OY37X3ve59deeWVPstH5xxywpK3gw8+2Al4vMFLjH0VyDxyjcxTDpBtCDfXV7/61ZLzibovW7lStL/50N/Yi170It+bgJnlvr4BUeekdXV22dix0Qzo0FDBtm7d5kSYirqrq1PkMGWlcsFJUztnQXZ3WaXKZkl1GxgckFu55sAXjXzCy946kb5isSp3GirErCoxPVesXCo7ma6LWBImiH25XLKC4kBcmN2GdDPDSpwYFPCASRHGMWNEukUAGw124RYxE+HvFgkElH3IYVHEvbe3X8RdbvpAQLT0fmho2Ek6BDmbz4pgqt5Q3FJtCavUB2xbz1rFZ4u15dM2feoEmzZ1rE0Yl7Ff/+pH9r2v/rstvfdWEU+Fh+omURFR3CYyvElpWJSbhKdgFdmvDvZZQ2lujWHr7EpL5YxJ+4Ti26gwK11WY2eWl79piDgzw4mS0pvzjJkphqwrb1JFq1f6rdK3wRJVpXMnhD/yG2JbLQ1ZSelfVToZgw1KM0tkrCZiPrCt1zasWuWr5McpfzuzCcsonJ25hLVLmQ2L7w6Z5SQ3bbKWY3pZ+TG4ScGW/zWFnzwuijwr3Kxth9zn2lI2dnynyHbd0gQno4ZbZksDvVaWqktOZEHhV5iSstOWtLritHXTStu0frmc7LNshmX5MtOQuxWFodAvN4qWbUtb95hOJ90AGXHBiREjRowYMWLEiPG0YpfEm443nX463XSu6axDRFha3turzqfI9+zZs+0jH/mIL21Fn454f3+/M/uuri6fLYsRY18Eqz0YnWJAKexDwHJxRrhvu+1WX9WREUOCELc5QU667F/9+2vsQ3/zEfv3f/+cylDaenoGRYIb9s1vfNve//4P2rx599rWbVvst7/7tcz8m33961+1T//zp2zW7Fk2ZeqBdthhR9qjKx51Ik75+/73v2+f+tSn7eKLL7HPfvbzduxxx9sxxxxnf/u3H7fFix+xVSs3qZylrau7U+S2X/dRub3uD9fZp/7pU/Y/P/qRD4JBvlmyfvvtt9spp55qp59+us05aK4dccRx9t3v/I/KdlllvWL33Xefffzjf2sf+vDf2Cc+8fcq4wfZC1/wYrvjjntlpqQw/4e9730fsKuvvk6Eu+hlvL0976SbiVonqiWRSx5SIrwio2PGtdthhx9ir3rVK+y9H3y/vfv9F8r/Y23GjLG2fu1yW7Jong1s2SxCCmmsspJb7sotkWNriDxWtlq2o2GZ9rSI8rANb1khTr1RfhRE8uuWEAFN2KDVCltsePP6pjt8iy2SWt6m8KC2WKI+JPPssD5syWzFsmPEcDMKZ1kku3eDNURS2QwurfTMdeQskxN7F7NvVBpW7y1Zqpq1Me1j7bA5h9mbzn+zfeCjH7eP//Mn7f/+2z/aq9/wapsyc5LcE/FObpFSfEyqsFLXtXJmk0g4G7LJj1TZCXkiTThFqKuDMqcw1oasRjj6N/k95nJt7BzPrD8DDjJb6ZNZuW9s3AbBlnyVei2TKCi+ck8kXwaUjKqPazIvIs+u8ixPLw2JxBeHJdMZuRePxseIESNGjBgxYjzdSF100UWfbt7vAIi0z3ap0w4RoZMdNnBhR9WzzjrL33GOKCTltNNO82c2GsAe9h8LYTkGV+xu3rzZl+5MnTp1ZMY9RoynG4FsI5PIJrLPwBM7CKMuvfQSmzxlkh04c6bLK7LKMVsPPbzcbrv1Njf/8pe/RGUl5aT25ptvtpUrH7VTTjlJJPtAWyFyfemll4mIz7NTTz3J/ulTn7TXvOY8W7bsQfvd7y63k0852caNG2/33nuvXXLJpbK7yjdK+z//5yN24gnH2y9/eancWGlvfONrnGjfO+9um3//vfb85z5X5P1w3d9v1133B+vs7LIXv/gl1tPTY5dd9lv7l3/5F/v6175ub3rTm+xd7/orG9M9zv74x1usWCraiSceb4XCkN1z7912yS8vEzGeYV/96tfsgje8weOTSmXs+uv/aFu3brVjjz1GpHyWk7hNmzbZt779LaVWwv72oo9ae7Zdt5DAHlvx6EJb9chq68hOtIPnnmCT5swViU6ojijaQbOm2KYNPbZ2ZY9NHnewjZt4gG3Z9JDddeuV9sdrfms3Xvd7m3f7DbZw3i1W6t9m02bMEWGs2IOLbtT739jah1dYZ67dOsdmbGhonS2590675fqbbcu6VTZtnMLbabbiwXn2ix9/19atWGpju3K25qHFdsMVv7INy5dZuX+rXX/l7+zOW2+2hffPt20i/x35dmtr7xIxFyn3b+0T0V8yY4WhIVty953Ws2WbzZh6sM04+BBr60qIoCctle5wM1btscHNi23pglvs1huusOuuvcSWPXCdLVt6tzhw3TK1imXSItIQ/kTZBrautQfuvtluuOZyxfdyu/O2G2zZkvlWGNhs49qTSiuFQWYrQ9ts0yOL7Z7b/2DXXHGp0uWPtmnlQyLUw9a7baN1d+Zt7hGHWueYLhvYtNEW3n2bXX/dtXbnLbfaQ0uWSI7rNn3mLEup7mZQxDeni5fC7fUI7WMr0GMvFT7tAh/+8Ie9zQW8G21nV27EiBHjT0coS6FfwGA7/WH6AHE5e3YBGWDCMeQ/aJWBWB5itIK6Av4cZGUndotABcINECAUy8+xxBJUiDGbSbFsFrLMEtyZIiF864AHwU6MGPsq+OY2fJcNWEr+iU98wju6ixcvsX/4h/9rr3rVq+x/f/EL27J1i896Y3bMmLEqG7NFdodseLjs5JTytGbNWq+kmc0eFomrVot2xJGH2ktf8hI7/PDD7KCDZtmb3vxGW7p0icjsRlu3fq2XIcracccdL+J9pp18Etez7DXnvc7umzffFi16yGeeWe6N277MW8WOpezjxrHTasLKlbIfe/GVr3zF3vD6C+TPwSLOR9nBIsFnnH6mr05ZuvQhW7N2nZVKLInfYhMmjrW3vOXNdvTRR9mcObMVnwNswoQx9t73vsc++cl/tDPPPN3a8nmfRWdAgjE2HyfjJ6uKxb+XZkUAy9/NyiWORiIVs5YQgc+NG2/TDzvE8pm0yPZGKw0MiofWRJo32IP332uPLl1gw33rpFbbow/dbVdf8VO78w+XWXHLoyKwPbZu1QJ7aPEdtm3jcrNar/X1rrQH7r9JJPNuW7roTuvfutIa9QEbkhsDW1ZbujZo2XzdiuUeke9FtuCuG23JfXfYI0vvt7Ui5cuWLLDbb77B7rnzNtu2eb3VRZD5BKBUHIqWh9eKlqgWLJ2oWDvfR9eZZSfSFcWzJMItc3rft2293X/XDXb9NZfZkgV3W+/m1bb60UU2/94b7arf/tRuv+lyhfkhkd9e27puqd174xV2y/W/seUi5j0bH7a+rY/a8mX32o3X/krE/bcy+7CT+Y1rltgdN19lt954lT28jLjfZ4vn32mL5Uf/1vXWnq1bOlWx+sAmW3LXTbJ7jdxcYKseedAWzL/LHnl4idK9JnlSPlSUX+ym758axIgRI0aMGDFixHi6sEviHUb0mE0DEGuWm0NEwkw27+nsQ8SZEWNWDcXsN8vTIRsxYuyLQO6RaYg0Mo/sM8h02GGH2TnnnGM//OEP7e/+7iKR4w32jW98w26/7Xbr7e3zEVCIKKq9LWv5HBsURruB5+Ue5YhyMWbsGDvo4Dl27DHH2CEHH+K7mrd35O2YY472768HB9lRvep2J0yYYAfNOcimTJ6ispewXLZdRP1w92/Dhi0KY1LEtuTus4M3m6P5LuVyc3Bo0Pr7+zz8LJNnFvz9H3i/vfWtb7MPf/j/2Oc//wW75dZbPdwBbPh2yCEH2ymnnKIynvRN2bJZVrtk7Igj5tpxxx2lMI2XvylPJ+oAZvYZp6uIiKvmsEZZdUiNOoSPsNNWU7jrfkh3WiRWnvCdcaFg3Z0dNn3yVOvMd1qilrBJYyfYWaedZuef/0p73QWvtJedd64955TDLJsctA0rHlCa9NmM2ePtkIMmWi5ZsKKIdW1oowj2KtsqQtvdURf/3WqFgfXWKG21B0VMMyLGE8bkLZcoW5vIZ2c+YdXygGV1//yzTrNXveLFdsrJxyrcFVu3bpUVC0PEQPGpeXpaWsQ71WOJ+hql6QbVbavtvvnX23WX/dB+96Ov2c+//nlbeMv1VtmyybasWGVLFi6x8lDVnnfWi+38t33QznvNX9lLznmF9W/bIiK8SGFd60vgId6PPHi3KtdeO+s5x9n5bz3Pzr/g5fa8M4+zVKPfVjw83wYh3oMbbHDrCtu0bpmN607bGy94jb35bW+0F55ztnW0pW2gj6XpBYW5bEM9G23D6kfkZslOPvE4+f1KO/2UE0w5YD0b1lppqN83o2PCO0aMGDFixIgRI8bTi10S70Cw6byHJd88o3hPhxsFiUCFZ95BWAD3MWLsi0DmkWuIMnKMCmWBGehXv/pVdt55r/bvoNl9/J577nWCm89lZbZuQ0MidiKqCT9XSrxIbrFahLLBPUQYUtvRwaZXGRHTqhNnvrOmjPX09DnRh/yVfOO0nOxzJpV4oIg2y74h4MxkM8XNpm4MhLF7OcUOt8OVjd74Pru9vc3a2vP2F3/xPHv+859nJ59ykr3kpS+0j370g/aGN7zGJowfhwX5lbfu7jH+TTthYTdz4l8u1+RWlDbSNs7ZDoNz0cZs0TvROtbqi/zVLZ1MWy6TjjYL4/xuvkHmDOyE0qZkIsV5EeCMlQoDMj5oY8e12fixbVYc3GarHn7AVj68yHq3rbcU315zNriqlq4xHdbVmbPC0FbbvOERG+5ZZ5WBzVYqbhWRb1h/30rbumW51QtbdL/JOjrzNm76VMt1Kz7MUicavpncIYfNteOee7YdffqpdtRRR1pW4WS3dPKHdCPeNc4aSyu86WGFf8iybTVL6nnt+kds6aJ5tmzRQlty/wJbv2qNDW3rtZ5NW6xn25CNH3+AnXj68+yI4061I48+3U45+1ybNnWyFYd7bNOah23Lygdty5qHbGhgk02b0m0nnXyUHXHSUXbkKUfbKaccpTTIKSwbbWDrGiv0rLVBxbFa7rcpk8b60W0nPOcMO/qMM+zYY4721Q3lUsFlKDO22zonjrVqrWjr162W+702ddJEm3voQb7xXYrBHMWfgYUYMWLEiBEjRowYTy92OfcRSAYdazrddEbphAP0ggLRUtO6b0TF7DfPre9jxNgXgfwi94BvMwIgwREZbrdXvPwVNnHiJJHuASdqnSJB3WO6ZD7txLQqogMPzYn0cFSXk3hpsOFaf++gCLaInkgru5Ank3UrloaN86rTKZHkvAhpedCJfWG4ZtWKiGxGZVNcniXslTJ7L0TL4CH49Qakl+e0JRNp3YsgK/ipVNqJObPnRx11hP3VX73N3v+Bv9b1rfbud7/D3vfe99jzn3e2dXSI6KuI1xQ2P15LqFTKlsk2Bw/kWA0DYKRoUz9IKQ4gxbL8uggyR3kxrSq3WIadTfdavm2L9NYoeEO6dlh5KG+9WyoizCX5MSByvdo2bbjX7r//Brv79j/YvNtvskX33GurVoh49hfZKN0Svo153sZ2T5GbKevtWW8b1z5q/Zs3izgnbPbsMZbO9trGjQ/Y+tVLbKA4ZGOnzrSuabMs1TXBqkrXUiNt2fYxNnXmHGsbP9mSnWNFxMeL7BdFbtlFnfhynnrG0ny3zdFciaz87rZEaqKVat0296jT7KTnv8LOeOGb7JxXvcsOOv4Mq7blbahStTp519Vteb7PZjM3OZHv7vDzyDnOrDjUZ4W+bVZgt/J6RTLT7oMJnnU5dmtvVz5D/MtWLhesVBgUYR+QWRHrbN6SWZnNdFpK16lTD7QxYydaoST5ULjz4ybYYSedbEeInBdFxu+643ZbuGiBDQ8NymnJFRvGsea/WZfHiBEjRowYMWLEePqwE/GGcLSSbsAzy26DQp/ZQO4h3IDjjqKZsbLrYydGjH0RyDFkOxBuBpPYRPDWW2+1tWvX6r3KiYjOvHn320D/oG+ExicWzCrnRbI3b9lk23q2qoyU7PLLL7eFC+8XWWb5eF2kOGXtbR3+bfa999wnN+bjmG3evM6uu+4aO/igI+ygOXNVflS+MjUbGhy2++cvtUUPPCjCP2CbNq23m2+6VX5OtOOPP1rmEiLLdRFxZtY5qxrSBrdiNlokM5vz79OPOeYYu+++ef79ODPuEPhSuWh33nWn3XPvPf4tOCS6LPJJGDl6DLcZRKhA1qxmt9xyi1151ZW+URxEkPcjoKogYYp9Iqh8A51iQ21L1oqWE7Fuy7Mb9xqrN/ps26oeW3jvGlu9stfGivROmsVxZmvs4aU32iOP3GftY/N2PDO6x51qs2YcYelEp1UrDcVN/qXG2ZxDTrKp02fZwECfPbxsmcj3Jps0cZIdfuzBduDscba1Z5UI5z3WX6xY1+QDLdcxSX63i0N3Wi3dZbUU5393mVXkXi1tuVyX4py1zg4R97Tqs2rCciLduXSb3ksGah0K31grVSbbYHGcHXHcX9jpL3iDPefct9nzX/pOO+SEsyw9dqwVE0krNlLWP1xQfbheYeV4sZJVBvskJwOWzbXZ+CkH2JiJUy2b53g3jporihgroViKr+fBgWHlJQOZIusd3TLXaWm+mxczHx6qWF8/GZ2z2nDNNm3pt/7BipXrqpNTORuSLCaTaTvm5NPseS99uU2bM8dWS15vvulme/TBZdZgMER5HCNGjBgxYsSIEePpx07sGNLBTF+Y7QvkGhISLStlV9yIlLMkPSyh5ZxjnjEbk+4Y+zJCGQDIMsR7+fLldtlll9n//u//2u9//3u79NJf6f4XNmvWLDvppJN8tceUKVNs6tQptmjRQvvpT39iV1xxuf36178WUV2hMmNeViDDVRFlSO6qVWt8F/Mrrvi9/eTnF9vFF//SLrzwvTZ79hwvmR2dbR6OZUsftmuuudYu/dUlriDAb33rm+zwww+RuywrF80VUWS2GouVSrTknI3eKLfsenzhhRd6Gf3Nb35tl1xyieLyK/n9G7v2uqvtoYeXedlNio23tXXIjYSTc9+wTQFn07VSqWi//OUv7Dvf+bbit8jfk07UB/gVlXmIbBQGq6REFdt99n5oaMhWrlhuSxfNtyXzFtjd191ht9y6SOnQbocfcYJ1TT/ACo2KDReHrS7SP2bCNDvw0GNsxszDbdz4WYrDOCuWFc+i3E+OsXGTD7XucTNEOku27KHVtnVb0SbPONjGzZxts+YcbMOlqi196FER7nHWOXaq6jCR7HrWavWMVXStNqREVn06WkS5JpXNieCKaCcg98zgMynsSnGRvUYVO52WEPGvJ0kjVgV0yj73OUuLKLePGS9yn7NV6zbYPfPuscUL5tvC++bbfXfPs4HBso0dP93GzzjEuqfNsa7xByi52m316q02797FtmzBMnt44cN2//3LbGCIfQCmWdfEmdY+cYZ1y2w602Xr1m6xe2+7xx5c8KAtXrjM7l+41Lb2Dll71zgPe//mXlt41zxbunS5ZbrG2vRZB1lGpH3duo2yy5FpCmqGHdujVQwxYsSIESNGjBgxnj7sdJwYHW0INh3pQLBRzHDTgeYoE44QWrlypTqJ99sDDzzgnfuJEye6OTrrUSc+sr8nhPfBn/g4sRh7A5BH5J3VG9xDqtmxf926dXbjjTfa9ddfb/fcc49NnjzZPvShD/lO45SZYO7RRx+1m266ycvGW9/6VnvBC17g7rJhGeWE2fM1a1bbkUceYRMnT7Af//gntmLFWv/++n3vuciXkHe0JezeeffamtXb7OijjvdvpC+/8jKR9dX2vLPPsY/+nw9aqVy1fFvKHnroIZH0DjvppBO97FBGIdmcNDB37lz/Xptz99mU7cc//rHddtttHv5HHnlEfv6FvfKVr/RvyhlggFATB44MpAwSL/QYAFi1apW/O+GEE9wf3lEX/OAHP/D7j37kI9bePc5nVRvVkq1bs9IeXr7c1qzfILsb7IH5D4k0rlA6Dlv3mOl27Aln2HEnn25jJk9Rojesf6DP1q/fZMuXrbEl9z1sq1dusb7+ig0N12zSlFl2yCFHW7Z9gsh9xvq2srncVtva02+5tk6be9SxNvWgQ61eqNqjK9fauo39NmbSIXbkMafY5GkzLZXO2fq16+zhh5aLpObs8KOOto6JU+Vvxjav3WS33XGvgp2xuYceYeOkn+BAcUdV+mUbHhywZcuW2zYR3dmzD7GpBxxo6VxeJFbk3ZIi7nnlRZtVlFZr165WnixVXO8XqZ5ny5Y+IlmZZYcddoJNP+hwy7PsvZL0GexNW/uVRqtsyf1LbPmDjyrs6yyd7VT4TrBZR59o+bGTrVio+bfjGzb0yN0VtnTRYo+HMkhmczZx0mQ7kOPN2jqUpyt9JcV9d91nSxYts3Sq3Y4//hTl2anWNWGKJVJpxRlF3bvn+jnGM4vQPrYCvfg4sRgxnn6EskRflfv4OLFnL5CB+DixGI8Xo48TS4hMMEU1AjrbrcvJIdEIEc8Qb3Yuv/jii+3KK6/0zjadda7YmzZtmr3zne+0F7/4xa6H3T0huItdOvYQlfHjx6ujeLzbjxHjmQSyiWJWl7KArLOigxUe3FMeWGJOgQrmwkw5BQw7nPs9Z84cr6AB9q666iqVnyt8o6z3f+A9Vq0NyW7ZcpkuEea05bIZy2QH7Rvf+prdeMNCe8Pr3mznv+HlViwNigSXbUzXJP/me+u2AZs8hWXadSsUCypHbLSW97KDXgDli/ANDw87wQ6NQogX71EMNKAII4MKHKmGe5jHLA0NdQNuEE/0HnzwQTv99NPd/RUig5PHjjerFPW/yR56+F5btOh227JtjdUaVSsV6pbNjLNpk+basUedZgcffqylOzl+jE3XBmzrpqW2cN6ttnTJQ1av5q27c6LiOtaGBgp2wPQD7aTnnGVtEybLfMrWPfSgPTDvHluz5lHr6srbiaceZ7MOmmEb162we+fdbqvXbbFJM4+zE059rs2cNcfSibotXjjf7rnzDt9t/nnPO9umzzlI4U7YJpHdK664xto7xtlZZ7/Aps86VNw0J1qqNGwUrFbdZtvWrrDbb7vT1qzbYMeLxM496ijr6GIpeF7pUFUiJ5RnIkWb19r8e2615Q89YH09m/3c7kkTp9spJ5xtM2Ye7N9hJyQvSmjr3bDBljyw2JY+uER52WNt+ZyTqMOPOMIOP+ZYa1ddaKmkVQYGbPPqtbZw4UJbtHCRCH7eDjxwmh089yBbtmyxyPsme85zTrNDjj7aBxfuVjgfeuhRyVy7nXjCGQrv6TZu3GRLsYw+1+7p59/gx8R7rwXlqbXzxnPQY6DtCMkIYCUOq27Cu9F2Wp9jxIjxxNBalmj3aC85KYR2nsFonmM8e0D/Z/369d4XIv9BkI+43o0xGqtXr3auAL91+RhNvBGY0FGnU04lA7EIM9mQDcygh/DRER8zZozbCUSbmWve825PwB38wW5MvGPsTUAukckw20uhQSbRR84pD8gv5QEzNMAo3oMg2+EaBrAoEyxX/8MfrrOzzz7T3vZXbxUHG7Ke3k02dfJMq9cioltt9NkPfvA9u/vOh+xVL3+dvfwV51oyzc7iSZHulPX31Wz8BDZxi77VJjxsoBb8o+ziJ2FnxhtQlkMcMMcoHEQ7DB5gNgwiAIg274KbXAOC3oIFC7y8UoY3rt9oE8dN9G+V+bbZEoO679ODiDUbwbFsO9GlAOetMaywdnbomQ4LxHvILC3z9WEp+ZPqlr7CIk47vHmL4mzWNXWa/MnJLAEQKa6WrVYcFD2uWqZbBD5R1gsZLPZZsVi1bPcspRlLwRWfRl1kvmi1csG9TLeJ/HriyYN8m6xwFnq7pXKdildaZFskRmQ6ldH7hsLWKCtoJbmrvB4/2TiPnJluwLnf+pUeQdM94ZB5K/Ur/rq2q2GuEL5mfEle4kCwlEeNcsmS2ZzVCgWRYznSJnLM9/OEj7zg3tNeCcsGdwld2bgvIzImv/HXkphloABz8qMmVdeLBuFkeblUSooj3TCPsRh7LUaXN56DXky8Y8R4etFalmLiHYO+Uky8YzxejCbeO9UWaFKxAIQnCBBXZvroxCNozMwwG4ZZlpvSAeB4IzrrdN5j4hxjXwWVKorGlMLCEvJAWJk1huQi9zxTBigLNMAAIh4d87W9Iu7t7XX7YSCKK2QdfWaX2cxsyqTpctNs7dqNIsTDKpgZa8t3itTVxL/KItcFG1DZUpUufxPiiiwXFp9SCeaosWKRDb2iM7sJF/7RKBC+sPQ8xIGZbMxRljknnLDzDkV4iCPmiCfmKNPYCe+IY1iGH+Lo4FacsFpUHVLj++m89ET6U2MUh3aRZ5Zmi3hnxpjlukQ4FXhIaFL6mK2LmKbHWiM5xhpF2a/kLJHuso4pB9uYGYdaUvbEna06pLQvqX5Jdel/ikj3FDmi9K9CyuVf+xTLj5st0i2/LG+VitKbMOk+0zFBpHucwpe18rASPEUYc5YfO8FS7QoX5JTl2EoLSHK9wtngIrmJrCXbxlj7mEkiurIjMlsp1uQuS9HZtT5thUER82GZlT+WUHjyE8w6JuteRJr4Sb9Rzci9htVKVL15eT1GSTJJ6THGUmMVj86J8lvpIHPFwSqLB5QuLHtvs3o5ZZVhEXvSKyM3E8r3/pLSoyYCzkAC5vQuqXcZueE7oCscPstNmEiHouIe1e8xYsSIESNGjBgxnj7sNOMN6EyHTjodbBBG9JhJozMO8aBjDylhZo1OfyAqdPbppENe9gT8wQ/sYTae8Y6xtwD5DeQzkHAIMwQUuefKQBT6lBFUKCOUh1AukGPknHd8pgHJpexw7ncqlbBx40S4dE0kGk6q6yJcCZmtVAZsm8wzu83O352dbXrPLHzdhgZKNoYjqER0t27d5udz4z+7qjPoRfkMAwSQa+IBCANknzJKXLBDWFCEkXJL+Q5xDfa4thJs0gM7mFmyZImddtpp7tbqVetsCns9wFMZY0hBQlV/JNgxndlZxTPVbrViytKhfOMFtwlO2R62cmlQJDZpbdluEcSGeLAIY1V+4z2qeXQZG9SRTqkMmiK/dWZ+eSc/mf2Vo+VyWv5kfeYaj1TbyA3esfkcdRN6yq9qTWZrvpt4Lt9hOaVh0mfiAeaYxRZZVfg5Oi2RzCiszT0sZEyxUpqUXcHZkzJbqxTketUyHOHFJm51kV9mnn1GmjDoqn8mqTnGDHlLp/nEION+e3ITVoyFtJfhRkNpWStJPsqW65JM1NlBXmnLcW813StdOU6uoTRMMoiQyOhd0qpFzifXu4z00033Yuy1GF3mvPw09eIZ7xgxnl60liXaPtrIeMb72Qv6QPGMd4zHi8ec8aZSCR1yKpNAHFpVmAXkPZ18FCQEfcgGM2KPRbpjxNibAamMlm+n/MozoFwg7xBc5J/l2sg6pJUyEMoBetgDmMMeJBhii5vsgM5sc1L3nOVdEZHkzGjO8pYvImB5mzxpqh1wwDSRwZzKVc3JZnReOEva67ZtW5/KYZf73dXV5WEMZY/yif8MEIRyS7gDEaecYj7Ek/gQRkD4MMMsOXUBwC5u4TbvUcSF95BG7LpSe8PCa3FUqype4rI+GyyaLj2lB+Qvm2QzcSuLV/oibZltpFQVJXOWyXdbrk2kW+bKIt5qwpQZMgQ5l5FhOVih4sriTkJuN6wg0jxUZCZYhDiRtZLM1OrUWyKeXsWxWV7CKhy3Jofq9bTvat6wnPxQXNKsDOhUuo5RWsiO8osN4pXkCrfMKwCKquyIEPOddDI6LpHqE4KL+8lkVnnWrnTJSz/j7qczLJcn70SNRYYh63XlA3HlWlXE6yxnz6Ut39UujiyZUtokMpF+Az9ktiqyXpFZRdNKFZFvxSvT3nS7qjpYUa8Q33SH5KnDEkpH4s6SeRKPne/TIvQpSLcPQsSIESNGjBgxYsR4uuEz3nSyA7hH0bEGdKbD+3ANhHy0PnqBcGOGzn54B7hvfQ6EJGDZsmVORo4++uimzvZRpBgxnk4EOR0tf0G+Q/mAwIbyENBql/vWK2SVK99jQ+tYAK2Xuoq8iSAFYg5ZgtCBSkWsT05yFJmblP1Ij3sRZ5E1ZjtDeUK1lj/uUYE0hzLH+9EI5kGIGyrY4T64ix4nG7BbO8/nnPNCP6vaP0NO1kQQmfEmjFF6eBxh0LBuKc4aJ4qJBDPumCdtMaVfkc26HqN0bYZTelXpJeW/B1H2onBEM9jpjOok/dV1jz+NeptsQjyjeoz0Tqaog6J0TySj+gj3pCFApgX5g/+AsDHr7eaZRfYPqqN3surYnozSIB5yv95QPiYVBsW9XsePjN4SbwZBCKVuFX/CkMA/9PSc9G+19ewm5HBTP4LCrbhCnrGHf8QLs54c5I2b0xsPv3QVXtxnUMfdw13lDW7F2HuBXLaWT54DWM3C6QqAFSeHHnroSL3RWg/FiBHjqUMog9S5tIPsZRQGvXfVlsbYf4EstOZ/a30dy0KM0eBEJFZHjJxAooZbMrO9UQ/3rdegwjMdctSeQCd/tL3We9A6s87M24oVK/yYIpaaI7yhMxEjxv4HygAMlasqap+d5JlyJZLUYLYWgs7O48wqV33Dr3SaM6fTKjciYCJzzNCyxLkiM5QXyhZlKSyDd2LWLG9PFfAHBdhpmyPTIAPpTEb6kFQBwupxGwW0nAQSR66CmxMZdJLbROSI30bXptrBDubdwUi1GueViLcv73a4hlTTH7ePamLkFj+aVwfuBn8IM3rhHWGJBgoABHgkTO6HazfBAyqyE4Fn7h/PFei+0bwPYeJ19NMCmXFzrQp/Udgj70KcYuyLoH1kU9Pf/OY3flRgWIWDPuWdss81bj9jxHjyoFzRp+VKm0pZC5sIQ7zAU93Oxtg7gQyALVu2OPFmFWGQDRDq3hgxAG3w2rVrnXjTZoPEsmXLJCM7CgnPQW/0fbhS+ewJdMxbzezKjWAmjNRzrjDHGB133HEjFR1CHCPG/gfKgcqH19X6YRYYvQS7aUnmfaMsZj5LUiK6FZWHajT7nM0lrVavWqVkqvQ7mkeJyYrKEoql4yjKGANk4f6pAuUSBdhY8YorrvDv18eM7bZ0lhnmpl9RO9QC4hk0w72Ua4Xw7S6czXogvA7OuMYou/iv9EzUWerfJB7Si/6iGeLt9puQVqhpdn4V3E/4uxC9yOTIQxPRs89g7+DQdjeeKKD4YSY+BMInvncKw0hIo3t/HZ71MDKQEGNfBeWcTRzf+973+ndjlHMG3CjnKNpTrnH7GSPGk0cg3OFKWaPtCzOe4KlsY2PsvQgEO8x4h8/3gj7XWBZiBNAGM+PNfhAjM96tm6u1Ck8rghCFK2Z2ZW5PGO0GgBBQiQVwJjCdiLDUnHfxiH2M/ROUgyD7sGYpGFKSb7x1X8vrmrBydcCSKZHpdJvMZGVLZhJVK1eKVhJH7+jo9E53VoS3tZNNOWNgC4JM49Ba7p4sWusByijflbPRyAEzpllbO7NuIV6hjuAaVEC4D2GOniOXieXo8LbaHY1gdvuVJeZJZsfRklX4KretlDNcAa4TknANCHbAiJlWB9AMz9w3gX+tfvHEa4ZSngiIEd+Ij7YdvIzc3o7W55HwBrQajLFPgnI9b948H6QO5T6UR67oxe1njBhPDUa3eZQrBr5YWcZ+Kn9qfzjGvg3kIRBv8p9nZKBVTmLEAMhCmPEOxDv10Y9+9NN+1wIabQyPVuiHBp2Gn+vu1O7Q6h6jhkEPO2EEkY2nAHqhUxEjxv4FKmgp6mf/5rlZUSdKaOg/43oNKxvHiTXYPMs4O7xhtQbL0VkNIpIrgsnyc/+uWOWFih/FfSizXEOD8FQg+BHKLeV4/Yb1Nn3aFEumWr4fdi8DnQ0NUYg3ZqRGwsV7vlEO5uWHzCRJA8U5iZ/NqzPJcMUtLgpL9K20XPC0jJ5H+UqSjtyPhtvSi1blaRleose9bhL4H1RA87bVD8LDHeZ3ps2PH0jCrsK+w3PzJgpjK4Kp3dfLMfYtIJfVatWXroVyH/RDeed9TLxjxHjyCOUrlC2uHLNJ+YJ8B/0Y+z9CXjPhQN+ndWIjloEYuwIbFSMrzHojI8nWznpQYSnp7sg1nfmwnHV3igoJc1x3p/jGm84BbuIvwE6whzsxYuzXgE3tAMqBFOVB/5BqSDaz2iomXlb45judSqrCZydyiG507F/YMyGU21DOKGNPFVrLKQj1BMcJ+jt/D6FuIXnEsVV5/IKZ5pVbosIn2O5FMCu4m8HtUVdu3SxXwV81B+v0vkGiBb9cSW+HP2mFv9Z3bjd6S+DChmxOwzmKrFWRB01/MMd9WNLu7kjppf8/OYWLkdvhr9WfHQ2H+O4cXo9LM1yx2ndVtbmiJbS5od2kgadziIoRI8aTR2t5CsQrqPAc49mBkNejZaBVxYgR0Fo3hPvE5s2bG62CwgsadNAqRK3X0LHfE1oFMmD0fas/uMc53hMnTvTN1eg8RCTjqSMNMWLsPaAAoigTafEkEWwYZ3qbtEUcq126qgOd7jdLFS3ZaJcZjimriJsO+e7cmVS3yDaberAKpeYkvbWMAcoghPypGMTC7VBxBFIP2Nhp8eLFdvRRh1kmy3vqBoWDWXv/xloqkGhmun338lCuFVc2lvNl4diJtALvxhbkMrqG5+1X7vhzPf24nWAAQsxDxORlRvWMHMc1dHgG/Da9jK7RS4fvSt78Jjoyoxf+Lly5xaZU8xLdq55004Suxd0nDNWncqCqa2vNG7m9fTdzrjvGLrqPVAB5EmIcY18EbTAnChxyyCH+jWHQCwPXoe0cXR/EiBHjT0foy9IvDeWK5aPMdvN5JGUutI0x9m+Q99S1red4o4cMoD+a98R4dgNZ4Mz/Hc585xvvViFBaMKO5eiHd633e0Zkxmd+hF3Z35UeldmCBQs8YBDvQBTC+xgx9i8EMiT5hrg5V9Vzsk83IqI1EW2Ro0ZyUPolKwwlbeuWurhkzWbOble5qFuhkLS2Nsi4qGQyYT3btvnMM98ccSxfVWbLzbO7d4Wm748boUHh2nrPMpqVK1faIQfPsrZ2lrbLZcj0yOZmInl4Bnjnx4xBvgHvAvHWYwgUj7py61ec1E905Vl+81JwvXBtmo0syh/8QoOwylGSWfRE99EzwCh3rjCK/aZqSKPO0WhN0+5CYL6Y8SsuhMCg9MNgiC4QfZDi6LBg/gminhSZStQiUYm0mq7vTLxduX/8YCMEGhscS8c12Iqxr4EOHgPVc+bMGdncB4TOH8SbNjRuP2PEePII7V0rWjdMisvZswvUrxs2bPBl5gy8xIixJ4RvvAPxTl100UWfDpVGuFLJ0IDzzDVSNOo8Y4ZGPvQiIzvbzUVLzDm7lr4AboVOwXbQCWRJe7Tk0XUkyGxWQOCmTZvms2n4v7PdGDGeLEIjuWu53K70K/kLHdnt8hrsP1WQe8FZJ6XMEIuMSgOCXalV7PobbrGv/Oe3bfGSBXbc8UdYe1u79fYOqrx0WFJlpb9/wP77u9+3733ruzY8VLBDDj3UUpm0DRdLMttmCZZNN6MFIYT2OhXTs3vrr6FrI8Z2UPyG0VxQrUbLXJkBoKxyrEp7e15hIcwRufN4NM8jrzfqrvDM31PXuOJ9ZMY9IjDNR15jp4G/+vM6RX/UC66axoF/484yas+jKJ8SqosSSYUjwfneqMgvbAaqyrBAUKq9/F3kqhR+NMPCT3Sr3+ZzFP6m4pm6kYrS9YJFThSXOyFugGvr/eO9BiXgJqHdHpvo1/0KxjwcXFvCxDnkupIHI+kYq31OgWKx6J3+sLScdpdr+ISLMhm3nzFiPDmEPkAoX6Ed7O3t9feQL97FePaAyUkmOej7kP8A2Yj6iduPFosRA5ng1B/aaVbIUHeotmCJDAQXoYk6tYzi5XI02jUbGhpQQ16UJTptdevr77Hvfu/b9rznPddOPuVkXZ/n6re//a3MVSydyloqmdmuUqhox+VIFtUpVrcfNbquwu+gAlr1YhWrp0QhVzvJFrIfKeScK/J/7bVX24te9CI7+uhjfEBo1qyD7L55C7ziDd9UY59nVGik0QvyixmWYwez2xVlTyRW9uBElEYZU5mTu/qrqTwOcl/LWluu00rlAdu2bbONGTPRypWETZo0RR4krVxtWFdnl2VrKRvc0GNV2clmcxwbYKmOdqvInWqhLLadsOLgkEh6vw1XKzbUKNtgaSiKh1KkprCUFfatvQM2XK76RO5wqSx9yD+z6kmr6lqp1rzBCSBemzdt8AGARCIt92oKX8XjQJxWrFph//L/PmNHHnWEffzjf+dhjog5M+IQY3lEcjUZcL0u4lAetK1b19jX/uuzSvepNmPGNJs2fbq99GWvsbvunqf6I+LphGfV6rX2lf/6TztA5qZPl1mpN77xArvvgUetv9KwggJRkqpIkVa+PF92MwpfWvVQSoqF4dE30HI1OO6A0EZ/0NookAp3olUpDiL5rohbMzMjm3qU8h9U0Gi9f5xXZCalh4wUV9Tov8hwq2oJs6vwjMMx9mUUCgUvh63kmrqHmW4GsMGO9U2sYhWrP1XRdw2DW6FMUe5QlDWureZjtf8r5CGoMCADuI/lIVatKtQVqCAv6pnt2AGj4Wa3xmKx4JaYGp8yZZJlshlbseJRu/rq36uySdv//cd/sG98/Wv2sY991J773LPtc5/7gl1//Q2+/KK3t8+q6pw76L2jAvx7yRgx9gJs768KQS5FvvW7Zetmu/jiX9jPfvYzO+qoI+2HP/yh/fGPf7Qf/veP7Bvf+IatXLlaBSilMrHCPvCBD9jXv/51n4GChFLAKEcswYbUhoabK8Dc8PCwz0pB1geHWE7Of8Jy2Q5rcLSY7lPphDrQnbrLiHSX9WyWy6VFzquWzeTdfYaxEikR6lLFLrjgzfb9H/3I3vaut1u2LQ+VjGbDh4d8EIz45vLt1tnRYcO1oi9FZwQupY57eTh6xnxnd4fKe8qGixXpMccsqiZ9iHeoQEKFEq4eF4Wx0UiKEHBVXVKv2S9+8XN794Xvsu//9/esT4Q/lWlWOa0KjDw3jEnq9RtW2Le/9iX7hdL/Fz//qV166e/smmtusEmTJtln/t+/2VVXX29VZdkjK1bad77zPfvNb35n3/rWN+zGm6+1G26+0lasXGo//OnP7MFH1luhalZSYlSkiB/5VlN4o/l9OcJMvMuC/+wYLgc5Q57sRrWQ7e0qwogzI/F7EsovUVh2VCOvm+BpdHhaVYz9Aa2EezQolzFixIgRI0aMvQs79cJosCHWEAUAQejt63UiccABM+zss892dfrpp9m5555j55xzjh199FF+piEbLDG7DVlnmVuMGPsi6NB2dXX5zDDfcR100EF2xBFH2pQpU+2MM86w9773vTZ58mTJetIHqbZt2+YbbXAcHqSasgLJZuUIs1KQ60BSIeLoYQY9Rsz5RpPnLVu2OGH15eOyXy6X3C5EEYKczWYsrbLZ2SEyLqJHOOl6+9iWyPf4aRPtwIPn2FiVv1q97kSab79Z/s0kZ7m3x3q3brZ6jZn5iHgqVL4kHZcKhaLV5WaxWLX+gYLIPf6K9IvUF8sVvS/5gBphY4CBsDGTH+JHnbGtZ5tIe1bxytry5Q/bLbfconTIe5r9xTnPs2XLlkWJvFuwpLxo69c9bHfeeasdesiR9pwzn2snn3CSHXv0kfbc551h2/o22LoNj1qhNGTz599v8+9bbGeefq7qoxfZ7BmzbfbMifbmt55nf7zhOlu0aLkVFJ9ypeEq4iN1z4ed0DpAGCNGjBgxYsSIESPGU4idiDcd6kAKwvmEw8MFJ+CQ6ZkzZ/qGLrxDjyVtkBC+NYOE8A049nEnRox9Fcg/xHvr1q0u9x0dbVLtLt/HH3+siHmn/frXv7bPfvazdtttt/mnFh/72MfsX/7lX+y6667zcoNatWqVXXTRRfbmN7/Z3vCGN9i73/1ut4e7EHa+/cAcpPvBBx+0d73rXW72ggsusK9+9au2evVqDwskHsLLd0WQXWa777nnHnvXu99l//Pzn9rWvm0iqrfZFz/7H3b1VVeJZJbtwWVL7Nvf/7b97Gc/tqsv/539/cc+au99z4X28b/7W1u/co1l5W6tIrJdKdnSpQ/av/2/f7O/fMtf2V+/9332rr96h731zW+xj130MXvggcVOyn/y05/aF7/4RfcX0k+6hJl8L++KR0d7h2Wkxyw+Zwy/6U1v8nQ56aSTPJ7UFXsGxH/Q1q571LZu67OXveQ8qxbbzGpp6++r2JlnnWFdne12z7xb7NGVS6yvp9eKww077tgzrVZut3RGZhslO/XU42y4b4tt3rjRKiWRbCfVEbEmvGHzxh3Qyru3G48RI0aMGDFixIgR40ljl+sOmXVj6SiKjjUzVnRUq9VoQwFAp3toeMg74AAycMABB/hMV5j1ixFjXwRLpJFrjuqZMmWK/fKXv/RPKQYGBiXfSSdu7GfAINTJJ5/sZHLq1Kkie6faKaec4vdsvDJ//nz753/+Zy9DvGOlyMEHH2w333yz/fd//7c9/PDDPoBFeZk3b559+ctf9u/ITz/9dHvuc5/rpJud/iHoEO2hoaERwsgu4p///OdFypM2edoU3xR85aqVNn/ePXq33OqNqpVEqu+Zd5f96Afft7tFyk8++UQ794Xn2l133WG/+fWvbO3qVaoAGrbgvnn2u8su8/idePIpdvTRR1uxXLarr7nOJk6abOPHjbX+/j67+6677Pbbb/dVAKQPAwIo0sPrgagqcIJNOPnu/IQTTrDnPOc5PnBA3dHWFn17uns0lP4lGxwckKor/WcYR5krmqpzkjZ+Qpel0kkbHN5m6zc8YmvWrZZ/OZs181CfoU+nM5bJJmzaAROsrSOrcPfa8HDRsmnZl2JVeTIh4q08CXVXTLJjxIgRI0aMGDFi/LmxE/GmEw1RCEtJufIM0WbDprCDY1YEm3u+cb322mt9uSykg2/B0adDHiPGvggGjZB9Zmnf9ra32bhx4+1HP/qRyPfn7Atf+KJkfpUvueb9i1/8YpsxY4YT63e84x32ile8wo488kifLb/00kudIL/2ta+1973vffbBD37Q3vOe9zhhv/HGG+2mm27ywS3KEEuyIeC4ceGFF9r73/9+O++889wsZZCl0ZRBVphAxr/3ve/5Evi/evvb7YzTn2Nd3d1WqZWtWClY3aqWdhKasmq9ojKZtpNPOsHe9Fdvtfe890I77tij7O577hCxX2GJes0WivQvWbTQzjr7LHvnu95lb5ebFyqcKZV7BgAOOGC6E+dzzj3Xzj//fJs7d66Ta9KI8BM+6oSIvEKc614/8MwSduoPFGR8l0u8R6FWY2l4UW4m/Fv2XC4i3qlkykqlYevoatj4iXmZGbLBoQHVPWOtu2u8pdixW2DpfCaXslxHzoaGB0S8S3LLnMAH8KU0m9rFrDtGjBgxYsSIESPG04GdiDezQHSm6UhDoOkwVypVX1aOfiDekJPBgUHfcOoPf7jeXvKSl9hhhx1mJZEH3ntHPEaMfRBBdpnJhkh/9KP/x17+8pf7Ifhf+tJ/2be+9S2fkYWwQZYpF5QbSCUrPyCl3N9666320pe+1A499FAnnZiZOHGiPf/5z/dl2IsWLfLZ7OXLl/tMMmanT5/uZQ78xV/8hQ9mcS530MMOs+WE5SMf+Ygde8yxIsgpqydEzmsVK5QLXqozuYzKaMWS6YQdd/Jx9sKXvtgSIqR838y30gN9vdbTs1lhZ7dzhb/KIFvV2vJZV4qEl2VINfPCEyaMt9ecd54vHT/88MNH6gDiFGaOGxDubPR5CnrEOSLLJU+PKA7NWeY9gPTk/HFmsDs6Oq3CSnHpy3kFlQ3gmG1nKX/DkvKLe75NL5dkCIPJrOzwHTubppE3HC/mUXICz7VRb7idiHSj0bw2LyMqRowYMWLEiBEjRoynALsk3qEjzaw1nWdmnpjdKhSG/TtuOsYbN220a669xu6++2478cST7PWvf73PemMukPQYMfZFQBBzIpCQS5aCn3jiifbJT/6jfeYzn/Hl4uxqzkaCyDnvmQ2mXLCUmvIC8WSpOaR69uzZTpxxC/LJuwMPPNAJdihrkNtHH33UNyUMA1ut78Iz34XzHfiSJUt8kKsgYswMeE1/5WrJUtmUtXXIfppvriGoCYUv4wQyzTprdvDWPeW5XCqKEBd9M+5x48f5QMLlv/mNXf37K+13v/utff/737fn/cU5NnXqFIU56UdU4xZL2wkT8Qj1A9cQVpD1QYZod3cUdQH1AgQ8mNk95K6IcyrVpvSqW7HERnQKuaokVqlzDOHWrWUrFvnuvcvDPzCwVWYHLJNl8IN6J2PlQt0Kg0PW3dVhXR1Zuar05LhEveWsb9KHz2K2Y0eWDQ/nvHPn4zFixIgRI0aMGDFiPEnsRLzpSI8bN9Y7y3xXyoye+tROqsePH+9X9Jihu/jii70D/o//+H99wzXuu7q61SFmqflOTseIsU8AEomMQxZZ3p3L5Z3gzpp1oC8Vp4xAvPv6ev0eMgnBhGBjDoLNZmkQc3YwbyWbuE3ZwjyEHfcpVxB4CD9mw07o3GMW4o0/7LR+5pln+nJvlrH/5te/tt6+HsuKqHa2dUZhkfuFYsEKpeEmaWzYEMeVVSvilmg0bPPmLX6kWLfKMqx2cKDfw7pq9Rr78hf/U6T7v302+2tf+6odNGc2jjRnh5l1hrQygxwNDARF2U+7/9E73INoJ1UPkCYd8i/Y4wpIJ55bwWM+12UTxzMwUbd161daJl/3M8aJz9atvVYulm1M1wSbccBBPoBhVrRNW1ZYtk35VijqOWtbNw9apVixSRPHyWyb1f388Wjmm7ix47tXfzjqCSXVvLiWbltVjBgxYsSIESNGjBhPBjuxYzrQdIzp+EMk6OwPioAzo0cnmQ2e+Kb7kksu8VlBvl+dO/dQJw/RBlADIhPRWbkxYuyTENOCvG7evNkV3xyzaRe8DHIbqawTZ8hltbm6A0KHgmjy/TU7/fPtNkftoc9sNte77rrLz7tno7UJEyY44ab8MJtNGWJwC7PMcEPCKXcQc/R498pXvtLLHbueX33tNX7cX6lWtp7ebe6Wk/9axWfCsdMu0mvZDGu4Fci6tSvcfP/N4MKQyvUaEe7x4yfav/y/f7Hv/OC79p3vfDPauC3ZsMGhgqUZRFMYiAfhLipMYcabKwgEOjxnmwMJgIEDFIMMvOd4MtKhp6fX044rG8kR36LIcqKRswki3uPHj7GHl5MmQyLfIuyKz9KlD6t+avhmalMmz7Ix3WOsVOmze+ffYqVq0brGdRqr7ZcuWWldY8bZtGlTLN+W97yjsoPMEwbCwrnjka5UFOyYbMeIESNGjBgxYsT4s2An4g2RYLYudKohApwdPHXKVHWW674h1M9+9nPr7e3z7z1f+MIXWl9fvx8xBFk/cNYMW758hW8uFSPGvgiOwoIE/uxnP7MvfelLvos3Z3SvXLXKPvGJT/iu5YcffpgTb8rJrFmznIyzSznHh1GGIN0cC3b55Zc70YbAUyYg11dccYWb51tv3GD39Fe/+tX2ta99bWTXcJaq//CHP7Tf//73fg+JxS8Gxdj5/MMf/rC98Y1vtPe+60K77sZrrVKoWFd7l9XKNd+5u7t9jOWSOavXGlYullSwRbpFhuWIk8wqy611bevuthkK/9KHltrrzj/fzjzjbHvOqc/x8/nf/Ja/8vPJIdWbN2+1j//9P9i7332hXX/DDU6cCQ9XBuPCbDbfdFNvpKk/9McMNHUFJB/yXVRYyuWiiPZaX1lDvJhhP++880X2/9P9yec7bOYBB9uxRx9v3/z2N2zJ0nnW279NabvCvvud79tRRxxnJxx/qmXTHT7od9DBB9g9995sf/zjNdbTu8Xuu3Oe/dv/+4KdfvoZdvQRB1uOZfZwa6m6wsvpDMlEynL5fDPHA6gOWZQeE/AYMWLEiBEjRowYTy12It50hPnWlE2gWB4K6FBzLjCzXQ888IB3xtnk6cMf+YgdfPAhfvwQm0+xw/Nvf3Ol7wId7MaIsa+hu6vb5h4618499wUu82xwxk7e7GXAyg/O7D7zzDOcNLNx2lFHHeUbqb3lLW+x9773vb5j+aRJk+wDH/iAXXPNNb4JGrPbHLfH0VrMhn/hC1/w77SZRWYTt7/+67+2f/u3f/Pzu48//njfKf2OO+7wb8RZdQL5DqtQILq4zy7pc484wv5w3Q22dctWSycyTrKLQwUnmCz37unps4mTpprlOcYrabVhZquT1tU9hslvmR229lze3vSmN3u4b73tVlu9fqUtXrxApLrqu7ovXLRY5b9q7W3tPqDQlm/zdHKiLYLdrfCRFhBuCDa7muvBFixcYB/5Px/xtHvJS15qV199rR+lNn36DB90uPXW2918Lp/zsPr+EZWa1RopO3DOXHv/+/7Gzj//VXbuC16ktJthRx55lM/Mv/td7xHxPkWEus2OPfZYe8tfvkn+1ex1r7vAZh84x976lncoL/7K3vOuC2361GlWU7qlExwnlhKRjpbGRxGg+msq3Y8m3E1TMWLEiBEjRowYMWI8aSTWrduo/mXoYtIpjTYeYlYobPRULA37DF1F5JsZPWa5IACcZdyo8113lw0MFLwTffBBc33GD7vbv/OmI853nfJHHeSAhLEpU8L9wE1IPUtuIR506GPE+LOglVE1lxibhc0AGy6/fJvMzPHGjZtFXnts3LgJklXz858nTpzsJkvl6MgrCDHEkWXTLAmnPPhSZukj28yWh++aAWWHJeMAfRTmIdccLcbyc8oSO59THhgMI0z4gXuQXDZug7Bv4FvyVN3GdHRarlS3yuCQZdpzlhvXZcMKz9aebVYvF+zwabPFsktinykbKAzahqE+G9PdZf1rN9r3/+sb1jtUtk9+9nM2diL+pRT2qn3729+1737nu/a9731XRPdY27xxo38rPXHiBJHvnMeXcg5Bf/SR5TbzwBleT1RrFZ/ZJl59vXw/XpA5luXz/bVZeztxT3o82Q9iSGEmnTs62m3SpAkiyao3mJlWBgwO91u/7yAfZVtbW6cNe9qM9WPSGvWqZZRX0Xfqcl/JXOwdsMkzD7S27k5LKO2K8pcZ+Hwm62FqyO10Mpqt57t0h+QA91HUUCG3qIVQI2ISI8ZeAOSYTRYZ1KKtZNALhUyDuP2MEeOpA4O1lC9A2aMd5mQR2mImqniO8ewB9SwTkHzWR/6DIB+tshIjBuBTSiaj6c+7fIwm3iiI9/DwkHeqESyINySivb3NiUW5VBbpgFzrOdvmuzmXSjWbMmWKOuYJn5GLhC9y1buxMfGOsbcgiDsYkdHtxJuGlYqzWq1LLiNiXChUnCynkhkRU0xtNxcUz5BRZB8izT3faEPE0QOYg0TzTFmiXFFeINksR0f+Ia+85zOPiNhGx3ZhHj94H4h4uj1viWzOUnI3p7InDu4TuaVE1Yqyk0ylLVUtW0cZUj5oacUh0Za2YY4fq1fs/ttut29+8avW21+wv/vkp+3E008Tqc7YkEjsq1/5Kg/DN7/5DTvxhON8bpjkYrBBAfKwUHYJ/yPLH7IjjzrC6wUftMtFG8cRbso45RnzEPpNm7bYzJkz3DUF2/ODd+Vyzd3OJGSnVraK7G5Ys9FmHXKQwjFs7V0MBNblR8F3bE8klBGsl6+nrKL6h5GS9s42q1UIQ9FSbe1WlQecuQ7RzigMPq+t8DRqDf/GO6eOkwNndGnWUjHxjrFXg/ISE+8YMZ4e0I5RvkBo92Li/exFTLxj/CkYTbx3qi2oQEJlglC5IemhmMViOSjnBkMC+H4TAaQioqGHRDC7xzvIQYwY+yIgj8ySwrYgjwwwMRurojCCYjE6Ggxyzew0ss9zayeYmWrKAveUk0DK0UehTznxzdBEAlnGTTnDLO5BuoMbKPQh27wjXJjNpbOW0bU0XBLhhHwmrFysWLlU9e+t8a8kfy0tct7RbQn5V9azQmKJZNoOnXukvfktb7Xp0w+wv//EJ+wNb3ijnffq19pbLniTzZ412/71/33G5sye5cRTsXLCTz2A3yGuIczc53N5Ty/2hUiIRJM2kHfih3nCzUw3ZtkbgjThCDDSNpslXZKWSCts2brcSNr4CZOtb6vSIpOzwjCbspVsuLTVhkqbFIcBRbeuUHH8W8bSqYwN9YtwZxqWycnBRFX+NHyJOYtvasRbCr9RpK1jVBvZks073MeIESNGjBgxYsSI8USRuuiiv/10894BiaZjzTLxqFNctow6tZAAwHJzOv7RqB+zWA1/bmvrcHJSUqef52jUx60IdIKbXdhwFdRl9186wZhnxg/Sz+ZVdOZjxPizY0RGwxxnBOQPMlgocN51SbLd2ZTTiESnUpBskUTphRFwFM/hCihDkE9IHsST8oT9QPoCEeQaucuJANvdQaGPPcxgL5Bunhu6NhJJS8t8ppFSgCtytWHJXNrqIr5l/FI8Kn1Dlmd5u8prVWS16mFPWVd7p02fPNVmHTjbps860GaKbB937NF2wAEz7XXnn2enn36q/Er5Uu2U3BsZiJN/YcAN9Pb22KTJkzx8rBSPzETlGzPoo0e8GGxg+TlL2rlnEIPPVnhPuiaSItj1QSsr7TvaJrj76VTaehWHXBtHsQ1LI6qjUo02JWJO8VIayL4lG5bKMnCyzZJpBj3kL2kpRYYyeMA37lRDScKOflMGqJmCCr+8kulgJEaMvQKUQzZBZRArlCsU+gC9GDFiPHWgfIGob5vwzVJpv+izhncxnh1ABpiEDPkPWmUglocYraCuoN8eZEWtc9RQt4JGm0516OzT/eQZYeMYJZ4RLHYFxgxHLbFElG9Uc7noyKARd+nhtpBtPyQ3xr4Dss6zzxdXN3+jJ/6aL7eb20ErMh1sPGVwp4JHuB3clwraQbVgRFsi6GIYxNRVRBJRyDNaEF7kmplb5L8kAs3MKd5lRAQLIo+UiawqX8hpuVqzUoWZb8W4VrWqSG4iEFaO95Ie7vL9OI40GjV3G5VRoYSgBuWkmk50s5EP5NUHwPTMcWcc2RU63ZDchCKV0DMrUpz01lRe9cxscSojoi9zlVJZdtLRRmwKa7VeszHjx9nJp59mf/mXb7V3vP0vfYO3d77r7XbKySdajnApbvhBeAgH37mTHoSRq/vvdYbymzCI0HPl7O9o0I5wkobRAEJd76pKw1xb3ipKM9Ijwwy53PHMaODm9uWy6Yb817W9TURa7qRySguZTymOEalW1GSN+GcUt3K17OmAZq2uMOKe3HWiLjeZ+WYwxT0hQ1ACfgQVAaIeI0aMGDFixIgRI8aTR2L58kfUn272PEMP1BFtMsU7Ovx0YKPzjKOZOu/Yq+M6ODDkRAUMDg5ZV+cY74RXqhXfiGk76aJTHnq5EYFjYza+ocU8HWKOY2K2m2+8ATPnvIvxDEFkNMksqrMREcdE1b+7VY75WoUcREakrFIWQRHpaoOASi4KlaqVJS+JVE0kUPktQtSoM2+4+7xk5BBSFu6rPuCzfUY4JaIbkWMFhV3P2Csg7Bvgegqk/E4l2UBLEgYJ9Bf69/ATboiuB0cEVMRLTmRTOUsno2+qeZfKKD71kg2Xh7EdybvcS9ZFrIcr1tnWIZmVG5mkDQ0PWVsu6bPBFRHZovRTstuZUlmR54OJdieVHfUhq1cKVkrkFLm8yCEjXsQvqSil5bcH06MCQeSfzzhIB2LsG4CJXVZIC105CgziPaa72wplln3LjUrdskpjiGhDcYXi1/CHPKIMN5OqXCpasi1rFblTqBYtKx/yKcWfsugDBQlftdLWLpJLmISaIiNnZEY573kezcID0gfy/fBDy2zuYYe7GxBu4pFUOBLKo7rkoSbSzSBETYmfynDOeF3uKE7lquXTkjHJizJbRF1ykmlYsV62TCJvyYLyc1Bxa1eKSZ5K6SErZwtyXfZrGcvU2i1XyZtouGKSNNF6G0j1KCMke8oTRCXFXwLyrj/5XxPZryq9olU8USz5VBy58BqLexKLOOh9Si9CWsSIsTeAMsexgwceeKC3kaE8hgGyaBArMhcjRownh9Z+KOWLtplvfGlD2J8FvVAGY+zfIO/Jb0684TNBNssdXc/G9W6MAD4TZT+IsB8AspFYsmSJZIhOZlShgFCB8Iwhrux2Hl2jRj1q4Nl8KjITzDHbRZvPJkrBjndjm3ZbnyFHVXW2qdQIHDumc+QSRwQRBoh/mPWK8fQjIdKdrEfEsJYYtlq6LGIj4iJ9jmdqU96kE2mrisMyhdnFzKrysr9UsWKjbMlcRSRLFZAIockd3NsdyH++X0auaMwCCeeKfGTSWbkR7PM9sYgayvegJqw0jHznmzdxPMmVZExhhEw7e03WRAgr1hADrSfrVh4qyXrS2kQCcyJ4VRFAyG0qnxaJZmMvmYVxizymxMRSzbRIyw4DD1UlAN8XpxpE3qyUzFlZRC/XKFp7rd+qKge9ybFO38bWt4lEKk0S3SLfCqNocUYpKRYrkpd1eueJLJX04qFyxKNu6yofpE1ChJfZdCeHel+TYiZ5UGmWTWecHJI6bi/qc7t94CS4+cCF9zUpTx9pYNwHLh4DzFiHgTfKOw1QwEMPPWRHHHGUDRWZ0RbRl3NpBkeUjrVaxWediW8jKTvpdqVAc8m+rlkFol4Sma6ULJ+TvGWzNiA3OIc8X1BaKG/Sin9ZeTiUqVklLwJPLlSUBtWEtVdSlg3EW8HrzVStUC9ZmzLfU5c4evwi4h3uI0TXQLxRkG8GL/TkZiHf/hgjxl4C2k9WmHGsIPUjn7NQd4ZOIWUraqNjwY0R48mCMkabF0AfJexnFDZPZaIoxv4P8pz8Dp/GsmlWa96PlpUYz25AuNeuXeuywiAdspFYvXr1SMuMMNFYIzihweYaVAD3TobUyNMR57kqgoACvMMdVMBod7hiv9UOM958s8a5yMEs+jGeIZBVyh6yqNoYUo0jSpLKipgwv6g8g1BVa5bPdLg5Xz8sVRchT+TV6UtBYNUhFCnOJNtEX3ZPvBHG0FkMgy3co++yIKd91hKRciVS10K8fTa8wcxvc2YdM4hO8wpJriuQFRFethbLiJJlGhmFLS2nElYtMCsrM2kRbRE7NsxW9xWHndJBvJ34R+Iq8iiF+8zUCiVm/hW4TKNsuVpB5D5pQ8kun/nurmyTM0qL5BgR9rylRUZTMtNQfCzd1vQBSN7162S4WdxYFg2SzXIG4XTCLr1qLVrqzTFZ7GoekmYETTd2QtPQ6Nc72N0FQlkFTpqb+US4IN5zDztMBLaZd3XFpV6Rm1JJVTRKj5piN1ypWjbXxbCD7Jll5GlG1xTL7htVa1QrsiECnWsXYW6IVMsg/uq9ZVJWzqRtUHYIe1au5xX/jGRQAqpASVb0fiiftpIEpk3mckop0X1CFCkR6REVEG6RE11IW0mca/HKibc/xYixd4Byz06pnCRCO0rHj/oyEG/e03bGA9cxYjw5UJ5o+yhTAXyv2Uq8Q583xv6PUL+yxwYDMBBv+kMB1LlhgiJGDBBOQGADZeRH/floh+WgEBoabyqWoKhcELCgfAZOlQyVEbPSXLGHPm64w6qIQmWECp2AoIJ/wY/gHh2IUMHhToxnHsomy+QyxlFaUBCaF4gJM4OsePB8on+XFnPRS9ofNyNyQ31UhX0+Bqi4gryERg530WfWmw24dpYHnpt6UaBkRlfYK+FBTwo9lkn7DLZbYQ440q8TQJlJt6Ut15n1JdZs+hWh6UArRmt5ZFtJb/NOfgDxT6uVRPaHi1ZWWeHTCi8PKaUlM8CtfwoQyuNOGZCKXInCSVqgmD1GDRWGbGBoQMZEWmUmmB3BThpPDq11BGU2lGVA3pGeIRwsTSeVayrPtbLYs14Sb+oWN49ZGSR9KgzWuBxF2cOMOXFiIMRHXNDFDZ6FkLW+osbTSe/lvwLlwooblVrF01K+unpM7GQEjaBixNj7QD0R2tbQjoZ2NpTTGDFiPDlQxkJflT5u6K9S1oKK8exCyHfkIPSHgmzE9W6MVtAPba0vkI/E2rVr6ac6diY2EbAUwD1T5wgZ5/dyTjF6dKhxECLOsrfQCRiN0X6EAEG2Fi1a5GvgTzjhBLfvHefdhCnGnx/MVCeYcWTwTnVJLVGzSsPnXD3f/NtX8dZGqeYbfUUvpJTtzC+XGyynhoSlRLTkVpOM7gqt3/OT5zR0Qe64Igb45awKbWa7k8yboikNn/EWqUtIjRIZiJx8UEAUdhmtNpk5X1CzjJx11/jp3qUSVkvWZAaijr1GtIxb7idZMl+Vkjlf9a5rosGsbsLKzHgn1UDXK9GMdyJphXSnDJm114dkrmTVRKfcFjmslaxSHHRunm3vxgcPEQSSK7PdTkzRU5p4OeC1ftk7oai0yrblXT8jAi8T283vBri5h+R/3CAv6PCjQrnlfunSpXbY4Uf5ZwiEJKPMSisdk7omCJzShmGEWiOtJMxYocKmdNEaiOpwWelWtazkLCW9Qq1mA3yDnclZd1JyxWw2JJu1Crm0Dcq9SqMqEahbu9xpV2Yk+E5d7uN9SW5wfjcL0qHh7r0UIAlcDl1FepGm0rdFm3vAxdM2mI0RYy8AZe7BBx+0GTNmWGdnpz/T/qK4j+qzphDHiBHjSYHyBChTDH5TzthjgX4qy0d53lV/N8b+B+pXZIAVD3ChkVnMZl8NxHVvjADkhc+oWRkBv0U2Ehs3btyhS4ng0JkeLTitz5AkVBA2Kp0wGxYqn9D4t2K0mwgv5lHcL1y40A8YZ3M13IrxDIPsY/k4H0rrv1SviRQVRGei7/LZkCtVTdiYNhFM+C8knQnNlPJehAsC1UikLZtqLk2X2h2QlSAfyB/yAJAjBnWYWc8GMo4xZ+F42CTePjog5QRct60K1pQSUZedouIwLIKbSeWsXSQ9xXtFsTwgcqw4pdtF9NJqXGURqsfrpNzHdf+OnNXWeEeEAEugpVGVXV6lRAgz9ZLsJ22w3mZ80txZ6rVqcdiKqXZL5jstl5Y/MsE4RUQNE542OBuu7rHAUvPBgQHfWK29s8MJN/mBXVAsF62Db+tHla1WeBJEt08K5AUgr7in3JNP3C9btswOO/wI3z29VJCewpXLJ32zNNKIjRn9aDaO/eocZ8PFmnV2ZJTUIulyM6U8SdSUn8qjeippFT4rUMCzJdkvSR6KRatllc6dGav4ygq5rdTKSgbTIt91kffy8LCVEIGxWfnb5p8mBLkj/q6a6RrSdwRNA2ijQvq22o0RY28BZW7JkiW+uRoNOs+tbWl4pozGiBHjyYHyBEL5oh/Cd5sQb4gXfRTexdj/Qf7Df8SdvO6FswBkInCeWBZiBFB38FlY2FwNOUmsX7++4WSmBUF4RhPngFDxIHQsPYcoMfPNTDcCRyXkxwY1K6uAVn/c8+YzdhBkiDcBO+mkk7xCw5/dhSHGnx/shp3kG2YRXjbF4lzoukgUXxrXlHd1Nhxr1K2tIbajrC4OinDqfb5LHUAx2l7OlJa9tlzeEiK8fLO7OyALrKCgo8gMTsh3ZIBBGB6ZQHckqiL0qFHEmxnvOnITaXOsF5uhJ9OS1xSkjpBnrCCz5WrdEuWKdchtCL1/jM0u6YpjVXFgV/A6cZTTSWmzObtf3TuR7OYy8ZR/rWy+q3lN+sx4Zxt8v520UrbTQ5ZtDFujWLBaplMOiCQrsWqVovyRo5mszDZXD+jRv9XGLylFwBWrSCDgvqoglbAiZ+kr3dtz7bZly2Yb3z3GMvIPMGMb0HofMEI8m2h93pX5VlBOyR/KNfkTOvWU/+XLl9shhxwiM80vqvU+IRLdqBSsWio4kc20tVsjlVdapT25i4yF6EW7kj+nCNcL7CRftWQeWVN86pKvoszU5I9INyy6IrniHHLSXlJmGRH5FDvFibi7yJCVyuuqtNhBnSnwpDIxWnDO7HekiGqIO8YIX4g/ed40MWJvdLrFiPFMgjLIKDrEm9VnraBsoqhTKZsxYsR44qAc7WoiiBlvyh59VkBfJcb+D2SB+jfsah7yP4C6N653YwQgL5yAEFZHgMSaNWt2IN7ch+fQgAcVQIebTjhEm8qGeyogPOAZoQtmRrsdEPxBgLli74EHHvDRI3Y1x26rnzGefqjbJnbUD2MSEcr7bGWpMCgaUrCE8ruRabcEu1hv67Pxk6aIuCSsUquLS5bETevWX1IFJUKaz6Yso7zc0xjg1VdfbTfeeKMdc8wx9sIXvtAHbyDgDOAgsI7QrsGCIHU+xwxlQq5oGOUDa40RGyfI+sdTZscTIq/1shWqKSsl8n72dlpkLa1wZQKr0nVoYNDS+bylFD9cHnFdRnzJsezgD5Pf7r5/gyzv5BF3/DLrXZVc9w7XrL2tzdoyVR94aCSz1tM3aHffdaddd+3vbdbsOfae93/AqV1KCn+azkZxAJDc5i3nbt97/332zW9/W9FM2Fe+8hW5nbNcih3jm4bccoSgFa6A1yNGWl+AFrt7QqgPQhmlDPuM92GH2dCw8qsta2m985GSOitjlP589J1MW6GsBqtn0KZMmSzvE9Y3ULSxbRmRb+VbWSxbaVdL1SRHZWvLdYm456w6VLNMh+yqvtk6vNU6x7b7gJ8ot/IlbUnOTavIqvKmbiWrpoetLvcSyU7FKZo5D+mqEPt9FPftCRCR7igByMfoTSDejztpYsR4WkCZYzPSWbNm7UC8aUtHl88YMWI8OVDewkBzQNgwCeIVl7VnDwJfCWQqzHiD0B9CHmLEAMhL63Firrdu3bodiDcCEyqRIEThHgWuvfZau+SSS3xXPwjSQQcdZC996UvtjDPO8B0emf0GuBvcDvetz8xy4z73uM03axyPAvEOCOZjPAPgqKxKn0hTzoaKHXbXvCV23dWX2f3zbxepHBT5ztuEMRPspSeeZG+54K3WccAUK4p4ZzND4ll1G662WzWRM/HuaDlx5Oou8eMf/9guvvhie8ELXmDvec97PN9Z9cBsLx1L526QN9Ak3hG7hpgiIxBvKb1ikr45Ue8DAMyilos91j/QZ1fecLvdvuARe9MFb7TTjj9C5Ltuxf5eNaA5S2YYOJI8phRakcTIdbkhRdg9/DIfsVyFBdnktnmJbgkNZUZJ52FOWa1SUHqwCiBjff39duNNN9ovL/6FzTnkEPuHT/2T2w9nRTPjzdJ2d6wFlBPUvAXz7Z/++dNWFpH/zW9+Y9VS2bry7bK3vaKHRIbwgChc24HJEaI+Gq0Gd4NQJ1BPhHDxjffhhx/h74krGcBsN8sESFdmB3512W/st1dea4cfd5J95GMftwnju21oqGpj2tLWrrytMePNju9tpGLFBvpKduWvb7Cf/fQyP3Oc9QrHnnK4vevdb7O5hx2qeChHallbv2qL/f6Ka+3qqy4Xkd9g7WMadtTxx9r7P/gJmzRluoeJaKHIQ7/3+JO7TYzEO8rBkH7B3sjrGDH2AoQyB/Gm888zoEyG9jRuO2PEePKgLDGZxMRSa9kaTbxjPHswmngHmaAe5h28KEYMgGyw1Dx84w12qi0QnFDJUJlwzxVB6hdpmD9/vp9fd9ZZZ9n73vc+J0p86/DTn/7UjxSCaGAndAQC8By9oBBOgLC2dhbQD0KMivFMQbTDZ4rLUhX70Y9+bl/72vdssG/YXvGSF9k73/kOe9s7320nnXqq/e6yy+xDH/qA9fQVbFhEsF4dknXOYFeeyxkIaMhb8p4l5QHICu+QGxRyhgoygRxCexikKQwVrC5iXBBB8z0GnCAlrCZPysiNTLKRWrFUgzeL8Mpt5FDxSGVSfk744kWL7YEFS6yeyBtnYRfLHMMjI762m4DKHdmpKNB+Fri0iQNnzpcUNxhbg2+RMYdyX4mf/NEzEutzqiLC2bSoocwPDhZF8ZJWll/5XN7KxbLiULF0Ni+361ausFw9kvmQHqtWrLB/+uQn7ZKLL7aenp6oPCQTNmf2bPv7j3/C/uHv/8HTK5fNyU/5SkBRAqsEGLBgIzZ2PkcXNweGBv0K2DXc7/XPkXDsPh7p191uAHkVyiog3UOdQJi4AvRwLK0wET/cY9f2hDKiUiraovn32SWXXOx5sPCBRb7TfbWRsExW75XOPCczWY5Z8NUB27ZssN/+6mL7xcWX2NnPP9fe+a532Hvf/x5b+uAi+/Y3v6I8vFckumarV62yn//iUrvy99fZC1/yCvvrv36fvevtf2l33PJH+/J//pc9onSkJioqP8tS5Dnywh9p4AngKkaMfQuUVeoAynEoi9yjz3OMGDGePChLlLNQpkIbGiMGaJWHICsxYgQgE6OV95oRnKACKW7VwyBLO1n6izr66KPt5S9/ub3sZS+z1772tXbuuefanXfeaXfddZePAjFTCXnC3mi0uktHIahgNryLsTdAlCVVsYcWL7ArrrxKJLjDXiJyc8EbL7DXnP9ae8mrXmWve+1r7KznnGH3Kv9/fvGlViqXLJGqW1/PJhHOQclT5FJN5A5C6EKn/Ga1BLJGXkP0UHy6ALFD/jALMCupkN8i5lLDQ8OyE3U6MQd1ciUyNVRgN/GIiGMtkZZMMbUpQkxd2KhXnBQ2TOQ+164rhUAEOS+y13SJ78IRxaRILlIoni+/GlYoVaVESP078LqIIseb1W2QDb0U1kqxYGWRXN9ErFyz4YLIr57xO50R2YaXUtyIs5yAkDK7XiyULK17hcSqTfJLGpE+N914oz2yfLkNKR0HBgY8TRgxe85znmOnnXaaXIv2RiB96vKgQWAFL1OpqEyx9H/Dlk3+3XJKpLai8EH0SW+OKHM7ih9pGVaqYB+CTN4w8NFaJnlHw4J5SLkPgOhdKO8YY2VCko5KivQ1W7xokeLyRzv8sMPsuc8/W3IxZJ3teU/jTEbupZNWLJVt67Yelxnis27NSvv95b+1CRMn2mtff4Gd/4bX2qte8xo76YQTbMH998jN+2xwoMc/T7nnvvvtgFmz7cUve4Wd//rz7VUvf7GddNwxdtNNN9niZStsuKQwEjaU0ll8X1cGhZTn5CdKz7uDjMeIsVciqh+jOiMqf3H7GSPGUw3KVowYj4VQD8eIsSsE2UhddNFFn/a7FvCSzjXkJoye88ySX5aST5gwYWRTNabPwS9+8Qs755xzfIMl3j0ehEBwpbPATDpLd6ZOnTrSoYjxTELkt9Frl1/6a7vjnjX2yledZy950Vkif21WaFStv9KwKWPG2WyRowfunmfX3DPfzn3ZuTZ5gtmi+++1eQvX2UOP9Nl99y6wG6+/xtasXmEzZ870gZnf//73duWVV9of//hHW7FihW9UwXXOnDlOKpE7iDjfDn/3u9+12267ze68405bvHiRTZ4yycaM7RZ5Tdqqtavspltusfn3L7SHHl5ul//2Clu/fpPNmDbN2jsgdyJV1WEx6KJI+5Ddc//DtnJz0f7i3BfatMkd/i1yJlUVP1dcRQQr5YoIYJ9dc+0N9qtfX2G33HKH3XP3vbZFpPDQQ2dbb88W6+xsc4J59z332CWX/sauu+46u/2WP9qihfc50Z06Y5be1y1dK/ku3zfcfKf96le/sbtuv8XWrV2t8Cmuq9bYeKXbmWed6Uuz68wiN8vBdddeZ5f/7nc2b948J6IMZqEoE0UR5htEYu9bMN+OOuoon52/9467bOkDi2316lV2/Q032FVXX2X3zZ9vBRHs6TMOsCXLHrSf/PjHdvutt9jiJYvtoNlzrC3f5v4yLjEkUn/XXXfbz3/xv3bzLTfb3Xff7d+PclQR5R2SDiknv+69914ffGMAgDwK5bS3t9fNppJpklH6ZpXisPVv26L0uUb5M9/Ov+AC27hlm8K+xN781r9UGFjZoIZKTJh4NJQGaZH1bKpiSyQ/l15ylb3pLe+yk08/xdK5hLHgoLsjZbfefIuNG9MlWZohuZhnSx5cZa89/02ePx3t8ry8xdpzGfvNVbfY9NlH2sGHHOx5lpJfhI36Rj7qqvA366AI3AcVYcenGDH2DlBPMDhHW0wZdJlu1h8gbj9jxHhqEfqrlDHuWQHKgDN91vAuxrMDyAB9s5D/oFUGYnmI0QrqCnhPkJWdWmcEBsWMFlcECyFjBowOOM++sZEadjreW7dutQULFtiUKVNs7ty53hGAkGM/xr4O5WFl0O6bd4dNnTrN5h56oHW2pVhX7IQlwcxnKm1TZh5gJxx/rEj2o7Z28yYbGu61Rx9dZpf84jL7wfcvs5tuWiDiuMUrKggaBI6BmsWLF/uRHMxaopCx1k8cWEXxk5/8xD9hWLtmja1bs9auueZqu+yyX9mjIumlSsmWP/qICPJl9o1vf8uuFmFdt3adbd66RfZrVhWJbjAj21wazrJmdgZnxptjvJjn5NNolnD7rGe9aqtXPmqXXXqZ3XD9TYrDWluxYp3Nn/+AXfqrX9l1f/iDlavs3F6VzN+neP3RVonsrt+wwR55ZLn94ZqrRBZ/aes2bvK0gdXefMN19v0f/o8tWrxUbq+2pYrz/Pvm27p1631ZPLPOLDevqSxxZBhlra+vz5eXM5tM55pBCdKGMrVx00b73e9+69/Es5S8TWXx9ltute9+5zvy+xK5fZ+tXLnSbhAB//J/ftl+9rOfOJFetlxpqLT++te/brfeequvTMDvLZs32w2K15WXX24bN6x3Mwx2/PKXv7Sf//znnl+h/F922WWeH5ByBuL4vonKxCVFbrG5GQMOmG/UqlZX+jMosGDefDvqyCPtiCOPcrPs7Ng3WPBl3+RBqVK3VDpj48aPt66ODisP9ln/xg1WKyft0LmHWE51VRmDyqtDRKLbsl22ecNG27Reeb1ls+zXbPbBh1i+XfmqfCcvD5lzoAhzQnK32QaHhlWX0VhGKxgIH2nP+fJ6aqqdETedMWLEiBEjRowYMZ4q7HJYHEJNp58rRBvFPcSb5a5slAQpYpM1Oui//e1vfSfqiRMnOlmHmEff5sbYtyGWUhmyR5avsilTZlh393iRKREryUZW5Lgj324VEZiM7g8+aLbkJGtDxYJI3bBVKwV79KGHbXhwwF728hfbv/7rP9tf//Vfu6tf/epXfQb3H//xH50IvuUtb3HixqgQpAgZ4/0VV1whQvuIff7zn7evf+Mbvov38573PJe7u+6+y4k8y7WHCwXr6+2z40443r78lS/bO9/5TpsyVbIomYVMJzj3OQOZL1ulUPLjpVIZCHiA7lJJq5SG7Y7bb7VbbrnZzjj9DPvSF79gX/zS5+wjF31Ecp20f/v3f/Nvxesi3g89vNRnhP/u7/7Wvqawffaz/2EvPvdce/SRFXb9jbf598R9vdvsG1/6km3YtMk++vGP2efk3vnnn+9ktb9/QGUqWmafEelMp9Ieb8raBRdc4BvM4f7LXv4y+4d/+Ad7+zve4efbs5EHo2a+VFzxq1ai/RQeeXS5z0Rj7xtf+4Z/DrBEJP873/62k8zPff4L9rkvfdlmHjjLfieSDTkvF0t2zx132u9Ufjs72+0//uM/7Gtf+5p95jOf8R3KvyMy/+ijj3qZhmSffvrpnv7Tpk3zfAp1RBikY0VMUunkgzJK1d7eHrvt1tsU1rK95rWvta6ubps+fboT76zyA2rL+ezVKm5A2smJhhWHB22od4t15puDO3JsuKwsykGaa5ZLq34qDFqxMGQcX5bM5C2RSVs6qzqqIIPZtCVlrr0tbxW5jfvkNUfSw8sdEHHXHa18vGS7cp0YMWLEiBEjRowYMZ4cdkm8w4w3s450sJndCgQcxZLgX/3qV/bDH/7QrrnmGjfLjuaYgzxgP8b+AJhHxYYGRbI4GBlCpTz2GUORLidbfMer54583soDIsKyk2/j+K+6H8t19l+cZuecc4Kf6408sWSZ2Vw+S2AHe2a3jzvuON8zgN3xkSVIJcSQpdZHHHGEk7/bb7/NbpOCeLLcepPILMFLJtNys2iHHnqo/dXb326cDx0GfTK5jMLLhkMRAS8Vi1YcHBYhT4r8tjmpkvHoVw9DQ/12y8232KSJk5wcL1gwzx5YeK+tW7faxo4bZ1s2b7JFDy6yWrVir33teU6EV69ZbXfdeac9uvxhEU7IaNUWLX5AxDJhAwrjggUL7cwzz7TJU8dbPp+1Y4473l74ohfb7NlzRLizNmbMGCtWilapVWzsmLEeFCfUSisUiAhtwpfes7kcCEtW/HttxX/OzNn2ile80g4/4kifwZ8xc6Y95+yz7bSzzrQLL3yPdXZ0We9Ar7305S/13VjXr13nhf+ee+6xnm09NnPGTL9nST8rDPxosKEhN8sAB/4xcPKxj33Ml7iHfCKslPtQ5n31gPSoB66//nrr79+mcL3EDpedusLK9918tz62u9OXfpcq/qW93MCuHJA8uDv1itInSk++Ty+LMDsxr4t4Zxri1pIvpTff/ifTGeV7wo944xg3ZrzZVR9Szkw6bpJqfgQcCjn28Ea5v0c8DiMxYsSIESNGjBgxYjwWol5uCyBCdPQhHhAsOvuQJTraARClf//3f/fvc//3f//XTj31VPu7v/s7+9a3vmXbtm3z5ed0vGPs6xBdadRsxoEZGx7qs3KpKELTcKKTlIwgERWIjmSDHcTzHe2W888QGj7rPWHSFJt+wGQRYBNJqzuBY9k0hO6EE07wlRHMmkIwmVENgzwQZwZ3WFWBfDFDziz2O9/1TvviF79omzZulj0RP8lYtVa1MRPG2xHHHmtpyWypXPcZXmfVIlf1cslqItRcOxQ+Zl3ZlAw5h1M5IfOY1J1Qr1y52n72s5/bP/zD/7X3Xvg39u63f8j+/mOfsltuvdVOOP10O3DWLBsoDSgMG+1zn/sP++t3X+hh++D732/f/ua3bfkjKxWOnJ8wnstkbM3aLXbo3CMso7jyHXddfnR2dNrYseNEBJM2VIx2EG/LtXkZGy4Me9np7OjwmeHCcMHTKy/i293d7YQRsgtIL9Iwo/TCDt9qD/T2+n1XZ5fe5Xx1Sk9fj/wZsokTJvqS8a09Pe4Xy/ELer79jtvsPxSXD33oQ/aOd7zDCTanFDDIxkAH/mIe/wD+k36QcfKKMOGnf6fNUnOR5pXLl9nvr/i9TKfsyCOOsEeWLrPlDz9i27Zusw7l9QMPLje+xWf2uqOT3c8jdyHnnK2ez7ZbXx+b2FU9nxRNslNxTSkNEyLeOaVv2qoi/8UhpZkvMU8qj9tcZjMyXJB+VhaRC9xIyQ9ZHwFL/GPEiBEjRowYMWLEeDqwE/EGdLAh3hBwOsOQbzrWkCRmuehsY4bvQemcs1SYjZVuv/127+izRJZlrzH2A+TSdvQxh9vWrVtENnusWhTBEcmBqhYlG8Nlzsgu2pIlS+zE555tB86ZY5lsygkQM9ptbR0wW11TLlPIEgScmdQgW5BtyDcz4ZBMnpE9NuqDdH/h81+Q+w/agw8usUWLF9nCB+6393/gfb45GaSPZeASSMvJXlt+O7NiVj4pEpweM8aSbTnfXG1woF/BYedzRUPh8nlPETWIdyab8bC/653vsKuu+q0tXnKHPbD0dlu45HbJ9g32lf/6ih104BzFrdM+8P732bKlS+2/vvF1vV9id9x1h33qU5+www6bY11jxlt/vwik3GIDs8GhAqzSkiorpeEh69m82Xr7+kRm606OKU/9g/02MDjgAxCQaZbPb1GaQ7g7mmWJ9GLXdJaouxmR5n6RbUgwR4KhR5q0i7TznfjWbdtsvMj2lAlTbWzXOEsm0p7GwwpDu9zE7Uqt7MvHL/7fX9o9987zGW92A7+FDevmz/fZ+jAYwnW0CnnoM8gQcIW7If07775HxHqN/frXv7aXvPhldu5fvNBe/orX2ec/90VbcM+99qYLLrB//Od/t/UbNhmnem3ZOqC4FCyZy1vHuDE2dmyX3K7Z1i1bPO7pLDlktnHjJoW/YGOVpxMmjLec5Iuz4zdu3GKMYaSyVGl1yep6KyiekydMsk6lKYB8BwXCQMJ2jH6OESNGjBgxYsSIEeOpwU7EG3IdvrVlRgtFh771HlIE0YZcQ5ggVAcffLDP0GGGDaHojMfY15HR/wRJSZctXjTfHli0xnoLYkCctyzy1ybCNyaVtJ4NG+yrP/yhHXbwHJuU77TCIEdcidSVRThrQy5k5bKsNWdQWV7NN9zMoiIvEDhWVbBTNrOrkDl2tudbYsyNHTfWyqWSHwfFDC2bYkF+U3IvkUpbR3uX3OF4sAjRmdwKtoi0WKnCIFJYFylv6xQpZUZUDK1SNN/IHPMJmauyN0G0Y/+GzRt9NrZE8KsyI+t5+TVR4esvDNlAf8FWrV5rb3/7O+yAA2Y6AW5k89Y1aZopWeyRpYtt4pi86F9K5WK6rVm53GdmYflt3WOsU8SyU+FI1KtKq2FrS+Wsu7PLyxzfSIOCyk9WJJT04ZgxyhNHhMEVGUBoiGh3Kw3GKb3ybXkrlEsi7oM+QAbY6KwtK3dFwteuW2VJWRwY7LOOfJsdPOcg6+vtsUKlJALe7Uv1N2zcoOA1bPLkyZ4PDIAwCEBeQLrJOwh+AOXewyQ9whhmvnO5DktWUyLWf2mXX3O9LVi8RIT+Prt/0QO+E/sn/+8n7bTnnGl/vOY6+95/fdYOOWCa5MjsgIndikuHNYoVq5US1qF0mjKmbmsfXWlZxTmHkr9LFy9V/HttypSpNmPGwb4L/rgxbbZ+9XJLwcx9ErvNlj20WoS+agdMlbwprREJVE3hJm39q2+OdJNplJ62K0ZjWpXrsoZBjvtnC9GtK1613geldHOFADHKw0oAGeK78p3/sOIh8muEFgfJ9Oh/JLytqmlqBxUjxg4IQrGr657etSAYDWqHB8Q1CGRTdFu1g1QHfVQwPsraTop3lD4UnzLVR0w2EQyi3aqC/sgtf1E5bGpsVy3YhVaEVvNSXPBmx7C3+DES6u2hD4GLzEV2ngrs5FbQaFUtt83HCK2ao1ULdqEVodX8Lg2MwmjzT1Y1sYdXEYLG47mO1nsqENxtqnAb5J97R3iBisRl+/OfA63+7U61YCftUe8fE25ekWo6MrqkhOjugBYNbjHTWi+gdrLzBIAbwf0QjhF3g6ZUopFU14BP2BLqXibUfZTSK1fqM3DdKU9b7I84PGKgBdJDGzfozbEmkh71iHv84EYQHFTTTboK2MMODIwrr2PsXUjSWabzHBQkCLBknHs61HTCIdecJfyNb3zDl/9CziHp2Gd2jG9yWT48a9Yst0/HnE47ZCLMLLX6hduYwY2w3BjgH+9b7cV4JgDjYKZwhr3+LR+xM88+yX70P/9u3//+l2zzth6RRuXf1m120/U32Mve+jY766Uvtle/+Byb0N4mUnmQDRfHiWwWLJcoWKpWtmp52PMV4n3KKaf4hnzsjg3YKfub3/ym72wOGUc2+N775JNP9qPE7r//fkuLREOo77zrTvvUP/2z/fGPN1utkrRcuks1S9r6tg00SbRoF7PeevBvuxO6T7VZvaRrhSXKIrfVjVbZ9rB1ZyVvimdCRM3S3fJjnJ3z4lfbIytW2o03Xm+bN6/z87m3bdpsP/nRj+0jH/igZetZG989VaR0vF137R+tv6fHukRmb73pdvvO939iixYulrsKVyZtHROn24nPeb79z3e/YetWrJZbZbv4l7+0r3zlv+zOO2+1BMvOczknxZDCcSKbFZZs63nu4YfZ2PHjbGBo0PpU7tjBnLThm+b2fN6P3kJR/Q+JdG8b6rdkLmOZfNZzju/uS0PDVuwfstnTZiieZh3prMe3T2HmfGxmvF/+yldY98Tx9t3//oHSf7H7wffzHBv24Q9/2GfIIdisZOGZzdtY2UJZhowzYEK9APn2yp9iXEiZQmnZzBgR+6nWPX62iPQ0SzfarC3daflK2mZ0jLP2Qtay5YRddfGVdv5L3mD//sn/sI0b+i3VcYBNOvBUO/Kwk+0H3/qKLbn9PkuXarZ6yXL79S9/a9MPONgOO+YMa+ucbDOmTrFOG7KrL/2hPTjvLt/J/u7r7rMf/s/l9tbXX2AHT+2yTGXY2pQo6YbSL1G3thw72let1JBcNoNMw1ZRy6VayxUdfBQ6UfOna0MKEu3LJZoWUcQ7KOosJ9yY0UsU5Ft+0xmv7UGFv6jT3lS+HB4VddTxjtA0Q7SDaml/96hi7B+gDNJuco1Ww9RG2taRtrM103d3BXs0g+xF8od8IWfc+ys0RgsiSvq855ayxdWDJNVqhXfIcjATZDgoymJZiqEyVEUqlBUPEW5iEIuo4HB45p0bo1RFdr18Ua7Ce4A7zcto5Qg3wS89M8gavIsUdQZ+8MsTSvW5q/Ac1S5RDKK/ET+eILAfgsU1pPOOmlLNyw5areZGpxtosTdaOcJNq19SO5gBQWMHTSHoNe2NKHdLN7tS5J2rpmO6BCdCNIJyE/w0jT7uK2jeM4hNOWvtx/7JwCr2PfxRWRodVp7dB36IDJpcg3I3pJ4KBLeCe1zxg0C0qhZ/W42EoIV3o82NVhEwJEXeteQlLSN1AEQx1AOYdHujHOLCO8KA2UAwuUfvySB4E/IjKPwb8bSpmWQyR+Qb4o1WCP+wXBhWnLin3uKdi80o+34/EsntfgdghzgNSw1JFaR49rBgEDfQGFV58h4t7PQ2r7yK8cwhcFlU4MSJNWvWNEJFwhXFC5YDQ5K455tt7plN+8Mf/uCkiQ2YMEsjDymHKL397W/3pakscwV0AlorqeB+uA8BcXduvtn6fvMbn2Vj1q3VXoxnCupIQBqEzZu3+XLyjRs2iIgVrFyBpojMdXTYnFmzfLfq6QfMkCxk1EhVbNmypbZq1Rrf5GvuoYf6gAogzzmvnXO8IXSsnGClBKsoWCkRCDefNDD4w9FWQdYQifHjxtmhcw+z2XPmWHtHpy1/5FFbJMLIjvqnnnqKpSWPfMvLjtT1OsSUMzcl9ApTsTBsd997v901736f2YbMImUpWTjyyCPt2GOPldmkx3Pp0qU+uCSXjOXg0w84wI495hifkWfVB4MGd4iADol4QkDbZIYrs/GTp0zxfRAgo4ODAyoz1ysuPYp73WfxmfEnbuMVhrNUXgANO/a5Um4Ax4ARFgamZs+e7eEj/RjoopPNDumUHzZFY/d3NjjkMw/SauPGjUqXRV5JUya7WEkgO3fccYd/P49ZjgDku2yOQ+NoN76/pzx7fBT2E0880VcecA/BZrM0ZvfRZ6YZc4SHMFPmu9tFckXuExV5mlLKplnSr6ZAt2xyNzRcsOUPPWz3zZtvb3z96y3XllNcE3b/fQvsrrvusgMkK6efcZryeIzVVNds2bjBN9hjWX5BacCgQ2dXpx1/wvE2bfo0yVrO66RHJAML7l9ggwMDvrQ/qXQmf0885VSbOHmKZXIKk/zx78+VrsgRVzq9jFpvB4Mw4S4gMsmzv22gGNVpmggGR64yrzTZroi/XipcrNjAtT0BZ4JTOxrGLqPrzccmdjAvjHo9guDUaPMx9k2Edpm6kzIbENrVcP+YAvdYQJ7lSNNFl8EAXjVfb1cAI80iUpMBOoNJPXgLIDPos2Ei+qOs+BUFIicj+yieqM8jc80/L4/+MliI0OoQRhSOKBaKgey4vWCgeXEtrtHF0dSK4glaXoZ4bAepE8UqKunbDWMsSrtItd6HuyeK4BPK3dLNDuHd7lUzHSMEsyOWA3jRcv1T04WXwU4wt8P70djtuz1YGnE4usE/TAcFeOOysgdnHg9cclSmQrscQP+Afg3t42P2Vz0M+uHqYZUM6NqaHyGs7hLmmmYdo69PBXA/YHf3Lf6GPI0kPHqVajXbRDDXikiradgv+mk6woxxTTc8hjqAa3Ph4k4I6RbCEexRC+6YQ38agnfBTUBYPE/QaM0sgUmRZCZt2fb8KLv80rNoKEy6BvtBAXc4UkF2QWucaevDYAJGid9IWIIKaHGLOinwerSpd7e3EDGeCVBXVP/xH301KUisW7duhHgDGnEqEzrSkCE618x4c887SNPy5ct9lit8s8s7lprTkcct9CELkINWt0ffo0KF1vbZz1r3l7/cfBsjRowYMWLEiBEjRowYMWLsu+jZtm078d6wYcMOxDug2lzCBgkPy9h4hiQzywQJZ6QPJo8+pLu3t9eJObOPYE/EG0C6g5sx8Y4RI0aMGDFixIgRI0aMGPsL2Cg4EO8k5BdiHcg1M9XMYjPTDSnmmWu4h5BDxiHeYVYbBRnHDkvFMRNmsoNd1GhgJkaMGDFixIgRI0aMGDFixNjfELiyf17NUvOmvhPhQML5DpXvbPmmk29aIduBaEOoUWE2HHNcMQfCjDhmRpPr1mfM8Awpb//c56zrS19qvonQ+NSnmncxnimEARPyHfBMnvHMPYMt5D15zTW8Dwj2kBX0w6AMnycA7IDgD8AOZoKcIU98vgDQr8gNZIdvXPAp2ZQjFO4kpXDNjwlrECa5j2X3g2+JomvwszXc4doa34Agz/gd4gHcz+a7YC+kC8A8+phpHcgK6RbKAc+kU6vfwVzwi2vwjysIg2EB6GMuKMAVf4KdELbgfrjHb8zhPgjhDWEEwX3scY//fJoyZky3f+Nf82+pCafcwH1/ihCuYHvKjr7nSfZkmHsPo2xypjff0AMPs957+rHtvMAmOLWqwk/auNekUdMNdwuLukHpP3oZ2XU0DTWaWhipS4/UceORCzvc7QrRO2xEV1IyUW/aCdo7gDeRD9EHXOG5FdILAQlGAsL9qGtrPFpBCYixb4Pyx8aH7JFBXcMz5SSUzacO1JbUR1EdEUkPgqUrl6aQNUVNiPyOZCwoQH29vY7aLdx4sNMCLxd607xGaIaj6dtohDDtHBb0gt0II9emJZ5H7DdfbndPwCD6wSJwg1I7WAx+7GB7R2v+26rz1CD42OrynnzB/Gg7I9fmC56DmV2mi7AnP1qxO3Pb9YOLOyLS3ZWpVhfDPW937c4TRShrrUef8vwnQ0EcsdUadGkG8Yr2QojaT+SctoQWcHffPz9e4G5wgjC05iXKgV7zodW71vvWkudGw6Nfm5aDG0ojapHgN/ceHz34iSQBTfOOptkRreA+aL0XGk82UYQEe7KMNLTNi3uun2ZYJACuikPDllK/i71mImBGeaX+R119D88vGSVt3Qm3HMHzV2qnfNATdtCL8j6yT567Ozsa9vd+aI9rRtrY9z4H5tHRf7AW4+lB4jOfad5tx5bNm7cvNV+7du1InoQGm84sJBpCTeVCw86yclBVJ5vOOGB2mw4/Gy+xGRt2IEiBeLd21gH34ZlrKznp+PzndyLeHP2DGzGeebAKIuQZeR4GYWh0uKKHbAQC2ErYAO8CqcOdsA8Az4HkoY8eCncwg3zQwURgQ+NWl7kgYxmZQaI4E7tcrlqb7+otHZnBuFf1uteP26UypFpKtBA4wtbaeUWPMKCPnpO7ZjhDmHiPHcLBM/fBLnYwT3yDXcpSSCvMoB8UzwA3cR+9AOzhLnqUM9xmQzueeUeZIwykF++C2yD4j2IAjTJMWIgX1xBe7AP85h164R4/iVsYKAlh4V3IA8ywmdvMmTMs7xuZySBZ0IwXDRFh883NRJJrzej5JkeEoaFw6ioDajToXLDruPxQ+HnPhnnS9vzFnXQqbeVqycOQTWUsn4n8rIp0+34Ues615a2WiigDgQmNe0qtWQLi7XLQgkgsXOGXKz2GIQN5K0izac0v0auRxrD5KkKwr5c468TbNXg5CugFy1xbHWq647dEBuWB0YtgdrQKaLlv9ZakjrFvgzK6evVq36yR8klZCGU9vE/onvKzK5F7vEi6wNHecw2CQ60adSzli+tEJZ036LKpUGRiBE66o7p6pPO4u4C1yidm3Jx+vCcZFHreTfUwYIQwcA3Wvdz5NQqpv8WAo1nYZSDYA1xHjAjYD+5FbgnBEBZDxIEb0IsWS1E9EoWv1d2A4GbT+BOHO970O7obQbjflR+8QxENwsFmUK6hyxNKl9EIhprYlXut9wGjn0GrU8H/SDVT2ElTcI17vU2oXVToMPFEEGyxMWlAaN/ZDJZ2kcEvQFnbHUKIwEh+e10elH7QRCXVTsqt6Fgq9sHHLi1RtEFhXi5wOskTBd7hdYjRiLct9yNlNKDFu/AqGpKOlGqeZjxQMhwii0UGxrGvK3Ght4Hf3NMLa5edNBrNLAsBwRmuwSl/lNmRsPEi+IkdZ6dSTxhyiJNLCBn50eI2fZjmG9dUj8QGNm+1XCpnnR3K/5G+jmqatN6mqOvU/5WesjNyJ8RPEWB/VjaeJH9JPV5iNpJWDKkvrF/844l8x5SPLaCk6be6YiZ4ATCPW1Fy0J/CJroxnjb80z+ZjSLffOPNZqjUH4nly5frGrJM2UNDrWcUjTeKexp0KptAHLhHj84/gAwAOuGtbgSE56DHNXTgwfTvfMcmf/Obfh/Q19vr/sR4ZhEIc2u+hkaGewgjZ7qz4R6dQBQECDMQOK6QNGQjNFK4h3nstcoEZiD5kMRwTjyNW5CrIIPMsLJbdZfbj+zWRahSImW85/gml1lVhN7p0nv3RQytrtoK87hFuLjHP2Q5uO9G5R+K+PCOOFFweE94IL28xx9UKC/oAe4DmQaYgQATJ/zDPm4RX4hz8A9zhIkreyhwpXyFsgi4hnQKpBuEz0TQI27YReFuKLeEgUEzEMgzdggLiniS9sQxmAPEBXcxi1vEA7v4TSdk0sRJvnt8JqO4MPtcUtOhzlAynYnSv15T/5tGSemTUpdefnnYcLym+CpfPLeUXXWFl7xk1/NiqehHnw0NDnujy6x3Kk3eqm7An4rqELnJM+ZrVYUtWbNyNmEVPZPziVrdMvWk5dQRo3NZF0mvVWpO4gGj5b5ZuRSz3IwiEy4Ie3qkVZNbUdZGkJ43hHrv2rrnitaIW24ADb1p3gZzu4K731Tujq6MfKPF2fnEg6PiaIa3m20a2AGRhv/iX9NvvxDXnczH2JdA+eMUAk4AoUyGATrqGsojZQviTflCfJ8ovO70EZ8mxW4KDnKEDuUU9yEJEehuNiwjA2mpQHkaDdWrSQbUIn3kMRECJgO4B3A+yCYXzLhyHW4op1gOPjXDgXK9YDYqm/gfwuCmo389hDfN5yZa7wOCeyByR0oGQ9hA5KaulPumoSg8IYyt8BfyfcfwPWEQFvdle7kmxzwtdUWL8HpHHI0WEEbPXV0xl1IEuEaubccoaw7MBXAf1J4Mh1ekR7gP4dwR0kETe9xKzppO8DDiV5R2TeXEW3Kvtp9n7DQSateczozY/pMQ+aO+hepdL1O4qfJF281gM30TTjoJ+rsDb+jpEldvU6QoViOkTCnibZDe02bU1W5VlVk+5IXMY0gvMwpNVnmklhFLTwh4R577iVi6Ekdcc5nWFQS9PQHKyGFgFIIUARd8gBnlcQLkAUrmPU7qC+qetKDOIC3alQbZyJmo/Eghj2quPXwkEcAHwuTlmrDqhZc/3WMHAW8G4wmBNK4nqvIHGVK5HHFb4ZYakqrI/YT6Ghm9H1q/xboz7TY232EN9Y3Isxoqo4Ak1ecRKHPBHdLET1dAKQK4FR0yijw3nFynJcOkJc8y7nEfHSce3S0poh3SmgtmPe2kuMelpOreiHzHeLqQ/dd/tex//EfzKcLaNWt8JTn1ROKBBx7QNco5rigadRry0Mmmw00HPVQu1WaHm0admW4qJDrqHJFEp52N1rCDudFuBwR3ULhzzKWX2tyf/7z5NsKDS5a4PzGeOZDnkDk6dCjkAPmg4UE+IHHocZwYHUHyEllArzW/nWDJLexxDA6Ekbyn0QoyhBn8wF38QCFPkyZNcqKNmxBBZAK7vJckwdm8gsmowhO3k370Lsgo5DvIHyGqiKghn7hF+JFxwhFILuHEPvc0rDwTDuwQboAdwkDaYIZnwke5IQ7Y5R12wwACbga3uWIOfQYgINaEBzdC2uEmV/wNz8SJ9AKkC5sZYo/0C2EgPCjCzDN+oTCDWQg1Kwi4EmfihOIZ94MibNhBAdwI+Y7ZMIsO1q9fbzNnzLSy4tzV3ukdi/JQweoitxmZx65Lgwh3oS6yn89asSwiL5KeEqGsl6rGWoVoNlukWQ1Qm9KEOHHc2RSOGJQDSRH34cEh7wi1KY7MlBcVFmbH23J5N0+6D1al1521Wo7WWP5W6gpTyvKpjBpNkYBCyQrDBetoa/fXNbWONPR0cqJ7OnJ0CJRP6iHQEMtLSzBwoAaNtEmL6Kf1kFLyeEdALtERwG5F8azL6zJuyTyWuPCLW9yDqNF0A8rjyH+OPgsNJ1dGxXEbMpNqqGOgjqWSTJ4y7o45n6eK4P7wRIOLivwIV3dXYfLOXOR5jH0Q1AfUiRz3R11DvQMot17PofRHuSCXXSF31AVuUrKAwAnoufC1vMMszwi0k2vkUgUAOUrpmdd0dqE4dDjLukdeGzKPfGcoNyoLGSnscLBjOR3JNQNgaepnXX0QSXq+XFJ+8N4JgVRYpUJd4jNihAsz8hWzzKC5PBMGD2NkLyoc0ZUSQniD/BPDiKSLsrndplI4QtpE7QoDoDztDHTpTBM+3AW4RbijeITnaDY+Sl/8wCR+6K9pL6kGK60HQvVEgVspd7yZfl6PbQ8H70lD0jJRpWOPJeWh4uezbpgnru5O1EXHyK7Qqi8bI8/c+7PCAXUP8QvwfGm9SrlkEm7JL5bdSjMeIEEbTPdPYapKP/p0CZlR3hEXmUvJI1I5ib9OuLmnjqR+k71EWvGLVlDhNi63loHHA+Qnk96+OhPQvrISj/aGtps2MpTBXYG8gHRCQsmrXJUyonyRk8gS5aaum6riW1FQK8ok8hFyWm+yS88bOUT7laSxeoJw2dQV9xWckbxqvZKPxHt0PraCMDcYPdCVcHndoKD6qrKQwtKjDPjqMxkoqbPWyJInych/PecrDWsjHTBHOkmfI8ZID8qpSrve8JY8Rkab/uhK+rFyjjSK2u/I2ycC6pRyUq2trmnVdVmFLaW2ta6wFpQvfZmElcSO6QO1qXGvbOyx8cm8jc22W1V9NPKt7O2+iLqeCWuSeo6rFGnpdZznM35RXokVcZefKpvQdeLEPfKK3Hi8JPBF9ecGBwatUVT/Sf2lvOQhrxouo/h3jOm2VHenVbIp1bNK5yz1LWmv9/W0nzvu9dAuEOq+GE8dxv/Xf9mEr3+9+RRh8QMPjEzc7fCN9+MFHW8s07EnwyAQVEB0xHmHYFJJtVZUuwJ2vaKWYO/qG28EL0aMAGQFUoXsIW90MukcIT/MdlcrLGISedO7IFsQRJajYx4zIHwTvDtAVnEzyDlyjP1QQfGe56eissJNUIXINQkt5YoCyjN+oEcYILlRXLevQgnXPQEzgYDjJvdcUaGzQBl+rPiEsHJFhU4+acS554cdfrgNl9UgqJOSUZgSZZV/hrYJH05jX2Yb7WoR1JD1DAwpTnnLkY9UFd4baPpBT1FIpKO4DfUPWFte8VeYG8xwK6wsZa8WFX7dZ9tFoGWU77zxq64OQUUkuZTgrHYRZDVt8sX9oQHM4Cx+6h4rbheFXWmq9vKGPi3NtBotZtGHBwetc8IYd3/btl7rYmCAniF9j9CbUT66wx05U//ICUmN9NIfE/2QYUAYmMEmTbyTgrmqwqz04dz4kjrkNMrkbVFyTZjalEdWVwNfL1tN7zPZnJOnVCJLzNxfYgkNl9fe2MuaB8cV93jvL5v3MfZJUAdwxv/cuXO9HFJ2UZRF4GVTf8hHks6r5IU6BgIRzFL2GeQJ9Qj1ATLCu0q1uReF5BvCgKvFQtFYu9Mh0uEakh+ImxPvppmqBA1ZzellTrLOYBEFrCz/a+pwEyYG2DLqSEKgnHjLPuf902muyT/cwRoiyiwQfvqku8uv6vkys/uSe3UyvW7BDfkfeaXw1CiDCq/ix6BfNkP5ECh7SgvMccVJH0TQH2nhbYr8p74l7vRjdgWKkhcf/MU1L0dQvigNQlHjngHEjPzCSJk6Xu76k+xiv1quqB5pi+Ig4G8AeYwif/ZYx3sw+JHP5IecwG9SAV2Ku6ehHupDipvq2AR1ierHGoN4etFQOlH1ZpLMqUbx2xWQo1D3U2+RdoB7iHRNhIPBU/bZ2BUi0xGo17a35ZFs1Mg73JdMVErD1t4mWZOcDCpPUumc2nbaKfZKifI4x+oqXT33FRePOcuFSQ/PW5WDhNpuwqf6FT9IS/LZU7olvfeEx2dq90AmCDFXZNpXUTWDS9B9xFaNk896i5QViYPSgD8mEohbTnnDgHM2zSq0PcjDYwDv2C+FuLMqhtiRLlE6RvcM9lNXUD7ADvEPmQjx9ghExNjBO+LWRKOi98rjhNo0ZK2nt8/GTJggIwyXmNo79UtkJidZzMo/lyFXvCcPVf/oj3aNMOALCpkOzZiX64AdAvqngQHu3nrRY5Mp1yylvkx3R5eHsyhCvVXXgsww8Ncu3zsU7k75nVMY3b78LkZVqOo/lSUpstUxkmbEqW4VuVEilm5Xqae0aaheyykNvC80OERh8/JfUZnrVbotn3efzb/rXtu2cr1VN26zyZKDSal260hn7ZjnP88mnXGKJaeNtew49QsmtDsBryicbch/JSqzyD5ljnom3OMHZTDGU4hdLDXftnWrjR8/3uvPJ0S8sUhG0TBRQMk4OvMse4M0MIMXMnZPwAxuYS4m3jEeC3SIAmGkPaCRhnwhP3S46DxBTtm2P9/W4SPRJXVs2AAjpYq9AEmTuQ6RvT3Vz8gkCPLJlQoqzG57B/UpAB1hyg8VIu6H2WPAM/EJKwAAYUGfsoY93lEGCd+fghCXMGCGe7hN3PaEkC5cUd65b4YJ4n2IiHfNO/xRo8Nsl3ivWlcpJ9RqStuUD2pQUm3RN1OE3Dsiap+9wZExTxeRy0x7bnsHCUTe26DqF2a6WX7OxnqAcFQUj76B6HjDrIhvVo29zyS4CbkCs65BUUWmxYLVrxmB9w9kNtFUNK94mFJrmq6qq6yO4VCpaKkOdeITUX4wjzKsBjFdYfa9zRJpddSp8xSkQLqLMtdXHrSujPJW8loXocmroUTR8a4ojwtqZEnLrrFj3V2C2ieSn84p79XRLFSKSj7k3CTPw9bd3tVMiqQNq6OQVBpl9FeuKs3UyOZT2ahjIkOKStQRCooqmeBzbYl/jH0LtLmPRbxHgzLCCpdQh1FvotAHuEm9ENp1zDH4gwzjakPEJSejechxoWKVYdWHYzutJLmr5kXcpB9AGa4VytZWT1onA/HiecMQPLkk+mAJldVkSf0IlatEVh1DdWwh+KLUIwQFEaUeoVbycTg05UatxmCa+g2yw74R0vABBAp0Q/4mRjqRuAAo+3JA/+wDQUc2k4vi6KRPRI7wkmYMUuyElnISpVQAT8SJoEE8Id9BNwouwEWeh1RvZdMsE6ajrXaoPdT3u/BTIF/IE/J1j30p0sAHlaVkjAGM8H0oIDWceIeERaldbDBQnVNoVM8yGwnhiYYoI792qB5wfjRaDFRUt4VwRnTx8cHj2JQ/6nTciDxTYOuKhdytMsOXb1f9Sn1OW698ljFMblfYkZR6OsguacILKjvViQy0BJCmtK3kN23g0wGSnDzhSn448Q75EcKaUrgqwyJ3ao8l2wwYZVWmaFGRFx9RIW+SxClqg54woiSP4Okk5+UHAytel7SU5Sh9R4xtt9vSTo68A7wPZtTWK8EVYcKsZzeYsDKTCbon/ZM+6ELZUR9OMjmsdhYSnFK90JZts3JDfZ0Ew3WSL9lG4UzrvTvrT08c5M+w/KUcMOTWrgBWixUrqNzmp0ywLdIrSBE13rNNVpvyMBHN91hVFdWAgoA7Y6S8N0XyACw56VZ9IcUAZUVku9ooe9xKxQHrznX4qiIbVI3rexOkrOfBZXbHlZfb3fPn2ZxDDrbXv/HN1nbwXHUE5B7+PrrOza68+hqbf8O1Nun4w+2Md7/ZbO4Mq6cVduVpZ8cE1W9Rm0DeIv+hXgnYVXsR40ngz0G8ySQsh+W3nNvNGd402Mx64zgdgNAJ2B3IeNyhso6Jd4zHQugcRfWFSAtEWle+9QbIG0Qm26ZGOkFzRXPcEOGuqHPIhmFpVeRqyGhY3MbjB3KK/8jqU1lJ4S6KcoTbdAjCkvMwyECZIm4Qc54xH+y2fue5O4SOBuGnoUMxOEY8Wok7/u8Jrf6iQj1A2CDec0S8C9IbVqNSHS5YpxrCMeosZdXp8f4x4fj/7L0HuJxXeS28pvc5vav3Lttyb2Awxjh0QwhJCCEkuekkgcAFwqUkhBaCgdBygYAxxQV3y7Zkyeq916Mj6fRep/fyr7W/M7IgFJP4fx5yM/toa2a+ssu737Z2lVnzupBmlnT9kMll6FSXESYQ9ROtGrBIUJy1FZGlUSrTEAUEWhmSmSRy2RwCPmsKuhhBDl+aYJRaBAFvkADVKqOT73voGFj96nLQNdLF8hq+YB1mo4I+jX2kIdS0T+sdudH6Tn4ru82I3VgyCn84yHsO1iMLtga8fNlFZ89B5K7p8jbRhI6saBARQHAFmYpG+fJ8nk43PUaNehXZvnJIvG6acL6vDqQM22R4ZATzaGBdHhdBNmGIgAnbNkvwXSjmzOZ1GgHQiIWuq25y+gW95TDLTZPrqzv/AXirompisW/FY6mG/5ZBMv1LgbfklLxljWpZIUWb7aHMK1TkXrxnvjNK70gnSK51LU29pNEeMPrIMO40PbgM5YrZlDNp2GpDKGdT9DQDSJFHs+J1N4E983dKLsh3mg1S4JekXeMvmh4p3mT6GiISE1K2KBTI850Mf+cYJX0qtTS7HFhNW5ffqmkchZJAnorE/yh3ApCmjvpNHVdMU/okU+aagL3bdGJJXsosi+TR2AeVQSVgutlMhrola8Cfx0PJntUv1gOMlcDvKobESd+sP/22Rrz1/YX7+m7pII25O6gEDYAykU+zjCZBAqzLgeHlQWVUqLTVzwxSriYtfjIZAW9ZRuE6vVWhoUEEuigWoR6FRlKpi+F3mZFWJWEXqGMiJjcrayvouyL5SzPLBJA0+8hHWyU65fSb7afOkJ9lXX/iCtNR56nP64HDyfxZR+25oWA6Uk19NJOJ5Suw0AKBDtZAZWP7FRnJ4CSZRW+lbUW+p3dVQepyEwhKcrkS29bqZFFnkt7RZmmSFQO8fxFtK+FFPPKLgkpzOfBWp7RpC33qP6VPNK5lQJrfJBCqafROyoZdndZ5PiPZU+HVQfsL7P0vDUpDy+0yORRJX7t8Aj9lnpfNFGmn2vE/+jiXSKAHK8EYmEq4/PtlD83yu+kt0WV9T9Jms11tbA+tdbbWTlNn8JphZQVd45+R1xdy/4mgq5U7luX7zweB/fFsFBna2XpKTW1ZfodmS/DPbceEI4+U6ZCww8M61VPQvKbwvKQPPh5js6hZ1YWuTkq+agV9StEwCngL3At4F+njqCOzrE5zcUZag0NMZCaBE/c/gpEDxzBn4XzMu/U6uK9YBbeXNFPTe6hFI3FWmp/JPEqjEygMjeD0wYPo6r6IZbfcgCt/521mWr/N5zW+lmxCxceTvykbIr/R2IpqeGnDLwHeP1vb/5IgIKDRR62LldOvhtPootayaoqsjHfFAaiGanipgvhMfCXjoE87AZpDTqG0GpW5pvK6qcgLWblvciZp8KjsnQQxfk395ZNZTX/+JcHkIQeOn+JzdSrpd0VJif+ltP6rQWBYnVdShmbkhWlXHK3K9HL9liMs+dJ9vaO9FHRf72mdt67/oqDn5HAojYrilazqu6EjPyvX/ytBJU/S5Uszarq01ujl81mUcmwvOrbaEM2rERZjq+io8Xm/i+Ui+HSzDlo2IGe6qDX6BaZBg+Tj9Whsio5SFgE6z7XBADwuB3mAQLRA0M5G19puN9u4SLBdoHMfKUbpoyRRJFCWg2ljtKeZvzozRF+C+WyuSJ+9jFSWgJnlEAVdLJjVz6zteIrmM0cnPjY9ZRyCumCY1xysn8VfcqeS6QidzhSdBvIfjbPdLQDMtEhP8YvlcMn5Fq3lUlmwwuNim8go0rEqkV/jBNxets+8+fOtafqknQy3m/ddpEeAdAizDeUeBcp2hJleiJFcYaL2UC0z/XLJGg1UW8jPkUNgogqlz2r4HxSsBs+l0ojPRMgbBMWSM17XKK+WOpjlDpQHbVAov1CdNWIes5yD98rUD9rcUKBU361TB5gugauZ4REn+Ba4TSTho/zUkKf9FCYXn5XslVP0SjMF2Asl8q7AJ9OL07mdmEFJHadZ5iNgQXEyfqkpsRVUFAVzbbZcpri8YHjbPECnXLpLwFXp8IbDE4DTH4DLH2TUSQ4qseXsasMqyaTReyyvcej56aYOCQRDBJJBCwzqutK3xHw2L+tTWUucFKxHdEXRCvomfWKgEW1VOUXdQ/tBw4FyIk59RJrR0SbRmQATF60uCxW9/58JlSJXiv0TKRNoIZ60PgVi1enHT81MyMYSphyXanJZfS8lqO/Ugw63x9BJHRSVemtasjpw1DEq2v7MoPdn0/WzfRzagErDntRnGvVUtChL6uk6wblVA2ZOHViIRJGLxlAmiC5Sf2tzTOVeKaJxZ8UHJjINRabtUqeuz2+mMuthtblspksdHkqhUq6fFxUqny9lUOErcXbRcqaUQ7qcRbacIbvEkNWUY9ooa7E36SOg9VKUhe3oJM97JCM6Dov0VgeZpvyrU0IdUQYw/6yg8laCFiBrJhlpL8upNcVqlUrUHhO5XAZF8nwpyfaMRujcMG2HljSwfZJpOA3fWR34pm2Yr53f1aENdYjNxCg//M2fptOCUZwiGVOQXCv+V4OqVeP2oZl8HZBOyVFmKRu2FP0H6rAw9VUTs2ngk+4Y2yXCeqTYbhVBk1jxw8j9zw0qp6L8VUv/zsxMmo5KEovXmQKvHd60CSPnzmHBleuw5K5XI7R8KTw++lT0c+BlDnaWrZ68UMP3Gig7y1rgvmkdlv7GbViwdAF6CcDHN22DLc+8qBfF76JvxW+Vv6drv7BDrxr+fwvik185aORNjrxAg6KmrxVoWAYHBw0g0IjdLwMD1VANv3KgkrDWeNNJpPKyetfLBrgUqNgFknIZKnLynnr0UnQ4NRVRPeOKTgI2JwHPL1PRFaWkT/WIV0CvnCGBcF17KRSWwLZAdSUoTeWpT+Wh75IvgW19rzhjlbN7VZYXUw69V0lDQbKq9wQMpYhFq5ciqC00iV+AMGgvIeTRZmYy6ASxjDYaYEcuzWfyBI5l+FCA20bnOxejUaZBjjOmkiizzmU6WG7NUmCssTnhplOgUQInjZ+DoMDLuii62b4eRgFUda2ImmGHByE6EE4BAo0UKPJ90/AyQjKcfFcdNbooqiiaMpKPQB6i52GAg4tOhZ+OvL1Qhp8089Fgqn5efrrKeQQJtB10qAtyXJU+ndrSNME42yZEB3C2u4fGWKNddPa1dpZOpMlT89vphAjM+Anq7TNRczyabTqK7MAISjL6vKe0C9EE7AnSajwCOz8ceZZ/OgFnPGVopPW0ftbXwzyleStcoWqbH5VKKlauVcP/80FyLmdaHTlixQJBi9kHQbpEuoP8omd034BtgnCjL6Q7+Zw6h8IeN0LUndrJlwoWSMSAkWFMbnoGD33wg8DJ07yeJ2/nyJd0UlPk1TxlXckbN4A6WPcKWfKn9irwwO0LkLd5U36gQBZFQRsRqePrchbV63JkBcpVfiPGs9EEXVd9BLopBwZYTs3AlsyYaZty5I3eYx0L1BEZdajyUa1hN+/S2c3qHV7UektNNdcaaJOW7v+cWCnf5WKlslaiyixY56eN8pt1m9Zot2kH0sjolyTpGJ2xvs8G0b6i53+1YBXs5/2Z+/LJzOg6P6WvSCNTb4IwdTyYJTSzj/7cSHppgzbRSrqpmKI9TmuBAOssncs8xE+Vx/9DmL1hpvSr3WiXNPpqgIv0dIbtIsCj52izESF94lHmm4eDoMNJe+mg7VM+Wkdu+GI2WEnPtozhbbY509cGn6qjOmg0g6pAnVtmHppxUCbfGlmwXv758f+vMFtcRZMVy6l2cNpcVoeyOkfE7EnyTIR2Sb1Okpn/SlBG6rSgTZMM6hNsR9kudRCrHdVBJ9lR0X5uqNBmNor2gs7UBIz6ZFHZzHb6XHZ1MtNWUqFYzwtkEnSL/6xc+MnGlG0sy1ehntKsGmfZCZ/LR33Ce1nKsz5ZXtNpKHkiMTSrxOLx/1owXQeFDP0M2muWQ51mppMgznLSznpYHj/1WIB6rIa6RJuvIceomQg5Qn/qlkIyjlw2ZfTBTwRVsRJng/Fh+akd0bUTvKEJkxs/chSDnWdQf/06zH/LK+FZ0UaQ7Scxmc8kfSTafYF8U7Yiv/j4qiuHgodlW9GBJa+9DXWL27Fl81OYPnXc5FnxEysj3RVf8D+na6rhvxoc733vez82+/1FBzWaGlINKOddIKAymqaoxn0xDVphBn26du+GZ+9e8/tS+NivXLRq+H84iKXkMJlNP4xh4AUqQFkiTVOy0clRr7lGLLQBi5kupRFx8SqfKkqv8RWXgLhJ8WeHAhVoZRM38aZmcAwNDWHjxo3YsmULVq1aZTqfKvz7nw16X1FypLwqI+oC22Z95ayC1D1FyVnFMdN33ROg1vdfVBY9rzpVnqvsil75rai0ftVQeUfpa6f6xsZ6XssTlBJYxmJwFgtwysGRYyaHk6AaLuZV0gY8ZTpscQJzTcPWyC6NHh/RzDU5U1rbrR1F5QSb63TKTDpy8FVe/WmUjvXSb/WSO/WdeWpE3EXn0GzuNh2nQ0HnTiM8BLVMyXTCqOz65BME4ep7pxGkUbWpU0dT4ZiebtpKdIR0/olG9lg49elrYzatU3WL9qyfvcA06SDYtE2rHAOmrX0FtLFTOps06zpt6nBgPh45VnI0VXZmoSButI5jYZx1SDXFXM661sLqOes3nzQjH3xGI4lynGZ5vSQAP8vzoocVKCGzyV5KXp9Ws1XDf+MgmdMRfg0NDRYvs2EVdV1B1zQCqc2NzLF8RreQR8Uj0n8EIIYRxG+6xii+lR41oMrIBOWE6LlQpiNqo36iDkr3DyBzphMegtvU+Dj6Dx3EipfdjLGjB+HJJWHXjBaqXZt0p3hXAJcypfW6trKmsQqEMg9GW5T6QGBLsqnnyehlyoq1069k3AKvZoM2qXkGbeRWsMth1X3VgzfUgaX6JNIoDY1g4/0PYnJwELXhMPUoUxAtWC8zK5RpSa/IaXfqOuUwk0rDqY5O0UJpiYb6LoH5WWH2smTJEierLHpDUcBbMweUh500sFMvaWaL9Iotk2I5E5g6dw5Hn3wSXWfOYu7KVYA2jmR5FNSGP92e+v5zg54xz5F+WqvNR0nxCslMJ4ChoaE3/w2P4fjm59B17BhpYENNbZiEtcYMpU9MxazkrKhw6bsqPRtlt4yd1Gwft+EZRdFb3FUJvGLipcCbxbRG/UkXtb0YRqOmUlICM+KXXAbZqRHseeh+nDp4CDUeH3zBGsOTJYKygjpGWAZNi9ZrleKxBPy0ctN3TadWfprhYZWCd8XnAuLKjrZBSxD07C8Muv1LHvllQTRRGQ1/6IIpNP9jm+mCNirM0sbk2EhaDuckb9oJiMtD45jYeRCdG59DbGwCjetWskFNCv+5oIKIOcxoNSslwKcOEJVldlDB2kGe9y6r88+svqkDI2/O9p+R9ywArsvaiKxQzBKQpsj7mvXG9mYdjj65Ed3bd8FHrOBvqEdRM+T4vku6R8DaJnvK98c024w2TgmLN4whs4KerxRKH5Rqfr5w/1cN5hi6co7+BvXW4CjGn96KI9/7EcZ274M3HkNg0TzzjJ1ldpBFbRMxXHhqM0489gRyEfo/c5rhrNH+GQ7aefHUTwVjyMWd6iawqOPkQ9rnwmn0Dn9Qr27+3vfRUFuDlXfchODSdhFFTinbiM+kS8gfPYVnvvdDHNuxE+0L5sJXGzBT4TUhAm4Hf9fATXmZ6enDyMgoFl51Jeza14gEEzaTnpGfWfErjS9tiFkNL1nYtg3Yvn32hxXSH/jApX2c/lPAW42lIAd+8+bNeOihh7B//35cc801Zqq5jllQQ6pBf1GoNLY+q8C7Gn5ZMPqdht2pUUE6MSVN1WMwxpdGIzYTwb59e/GlL30FTz+zCbt278XGp57G6c7zCNbUoZ5OqjFosinmzV8cKgpKQU6u+HzXrl1429veZmZ1/FeVlcpcGXFWWvo8ePAgvvzlL+PAgQN4ko7ZM888g02bNqGrq8sIreRL7wg0K0oWBdhfTFlUB3WQKVxet8ud9V8lXO4oCng3NdbBUUzBLQdbAHliBiN7DuDMs8+hZ99+nN+7B+M9F9BRXwt7iIagVLCmjUUTGDpyDP37D+H8jt04/tzzGD17HgGCzEBNo+UgqGd5fAZDR09g56NP4eS2Xeg/ehKZ8UnU+kNmWqkZ4aIBM+XKFpA4chKjTDM3NgmXxw+Hx0OvkwaM5dUuviUD2u0GSOtYH+PwGVrQM6GjkB8ZQ9++o+jcug8t3hAcdbWwUecZw8v3yqMT6Hx+N84+vxf9ew9jYM8hxLp6EHJ64W1uMXa2EIsh6PehnEnCSz7VJlFlOp0aUbORj5PTEZzZvhMHNm/B6QMHcZZ08rAOIa3bpxOkINA9TcBzYuNmnNm8A4MHjrDuJ1CKJxFubiP/8zmNRMnYGyOql9SpYHUsyCFSND4L4+xHNfw3DpK5Xwq8yRNmYyqXQJEdU6Oj8PkDVoekRhupUSUD+i5gLmdbo9zx6RmCnJD1DIFA2cY0bJSVfA6Rzk6M7NqLRGcX4r29mDp/Dn56j8efexZNIR88c8mPfg/GL57HyV07MXSWIJ0KN9BUT2+D5VS2sYyR42PPbkVqeBz+2nq4g9RLGiLnsxaQUteaBbzV8WY8er5bZNELs+tKzTpx+SIC3Yxl6pFs3wB+/P0f0HkvYsGqVXTqG+i4uijvDqoQAhvWSTNhzOi65EXvkh5OdWDlCsglksyGgI7v/IdQEZrLhEdf5exbf6S7fotsqifzoIKmLtGIOr/rt6aYE+RMnT2DU88+i4nIDJbfdAvAdpEeV1AbVtpTul7hF+pmtblpdwFvZsWCyDKKZHpLNTG1yaoMJODIBPY/uxkDFy+iae4cNC9eBJuUIGkkXWNqpeQUrGStYD5n710qI9vJRXrykja3tB7hL94zXy+LJlTS0ogmwa/pDCXQKmv0Tp2RuqZ3CYAysUls/953cJG8tnbFSoTa58I+Oz3edERqR3PyVAWLvVBMqy0U1B1iQJwpD6/rIdJUe2yozGp7az3zpRL+x2C9+gsf+WXBZGt9NfkqXkrO7GauNqMvwCfztjzbi3aJL2mmlW08gpn9x9Cz64A5oaX9FTcLrc2+/J8IKoyYxHRyMIo2ogGjZgiKNroknVFpR4UXvs2Gn6qUGbTlV0XxnsahpT/s/GXOp+ZvMx8rkcb++x80PsGc1jbULVkIew3tq9qCL5oReH6m+4ex5f4fo/9sF1raOqC9I6x2UOH0OftV3xks2D374z8VqOOQhS0VQ/TQUZz7/oPo3boNwakIQvQNwk21OLxtC3oOHULY5oaXIPjC05vRu2MHwnVhdGxYBZtfM2vU+a+5dz9VlkuKQXdondURRznSDAPNGFKdB/bSX6J+XX7j9WjbsBIZD9uDvokznkfmZDf6H92M8a17cGbrDhSoq5ZdeyX8bY0o+9wsuXWmhPL22jxwTSXQST3buGIZQjp2kvSVj2nozLaVbpGu0W9LPqrhJQu/BHhL/n/loDbKZjM4ceI4HnjgATz//PNmNFAjdXE6pl6v74V1Uj8ziPksBqyGanixQYqiAjLNaI4u0lBr5/Lu8xfw6MMP49++/m/GAQiFgobJvV4/9u7dj69++avYtWMn37Hek714gQsrV16IDk2RppI0PYJ0SPxaE02enonG4TGj3XzsUiq/LLyQ038IcpiUlpQiFfbZk6fwKAG+dmYPhAII1dbQWfah8/QZfIt1e/rJp4xTqJ15h4eG4OZ3S2lW8rg8WqFA57q7uxvf+MY3cPr0aePwaPMhbXam7KV8X3j6xYaflm3L5Dnp8NrpZGq99MSFC5g61wl3PguPX5PQyxjauRuHHvwxyoOjcGm0gQC5cGEAo1t2I366y0zn8ro8KIxP4eKzWzC+Y5/lMCazGDl2AlN0wuz5EnzeAJKD4+h5dgeGNu0Bekb5HEuhUeepFLoIUM8+vhEHmFc380yPj7O51F6zQXU2Trg1UmUIYWrAmMxg5sJFnKRzevCBHzOPLZg8dorXaRx1yGjejvxYBMNdvZgeGDZG00MH0j45jej23RikMUbPkOks8Jdc8NAj8eu+0pZHYnbZdSA+Ooxz27fhwv6D8LFNtG7Sx2Kc2/U8zj2/GQkCII1XJfqGcPG5Lejfv58G1W6OHHFEYzjx9CZ0b9uN3GSEaVMujOejBlU9rKBavcDVL55jq+HXJKixKvGyBjQ/KWNiJ3OkF/+00pFuH505OXGKkkU+m8oh3tWNQ+TnzPQkX+S9yvQSAUHKJ1JpFIfHMH2qE127KHNawzgbNENI08SJ4uGtq0Vw/hyjq2aoS2qYdurAETSvWAFXextsWn+YTSF6vgtdW7fgLB3V6f5u5ieW5390NiVw8b4+ytdz6NkxK5sqi5x0nWZAJ9dLHeItUA9rWrbKp2mWlwjAaEZFWTnxuzoIJNvUiQUtVdG0UN6zq6PNjHgTvPCeZrS4smmzZ4LOwzc0Ylo6/cBGMDx47BiOUL+e3rQZkZ5e3leajGXmo/zN6L1FVxPVaTHbcfETbWSUKstdTOHCjq04/tDDGNuyE3nqK52qoI4AlcUXmUKY/pIzFocjrXryZc3smc1X7Vmy0ZkmECMcY5qMyk+jY3rW1J35Sa8wWZ3LLZgjYkvXOPmOCznozHRrqF96h0/kkyhlYiyDnHDSRx13dMQFYk2dNQKqKaxsC5Onqb9VpgnqxaOPPY5TTz2NseMnTQerZlIINJfIH6q3tsez81Mzm0xd+LqJoo9Uk2Ys6Cg4DffFIxg9fAgnH38SFzZvRfJijwHlelbc7cyk4U9k4EtbdsVUVR2Y9ANUS9Xf4Bklq6h2vtRGWlZkzfAwD+bTSA334/yW53Dg/vsJcvaRHHzZjKTykZ+IfN7UXSPBpIOpAK8p6t4sPQy9Lo+6pvt6Xjw2yzca3XcwH3W8qpzKwsxMIBny1OkV8qijSbOonGob1spul91wwqlzmzMF1KitjL1WHspL9ZzlQ0V9Jw2s8uuZSxWafZ6R9/uPHcWJxx5DN3k9fq6L77Gu6nyRbsiKF/m8qq1PQ58X3jV5qAPb8CHv8aspzmywuFCd6lY9dOqHx+2FZpqYhgp44eOnK54mL9JvYDLqRNM55dq4EdQpWo6RGRvBDpbvAPVWeiZqgVP6dpAuEl1ny6JlLJpVcqkzkX+SnZ+UWUaCTjNqrJlwlTafDZe+im/GxhE5fBiJ8+ewauEiLH39GxBeugxIRNBJmp195Gkku2nf+Wy5yDpkk6b8SsQspxO/aHPASr5GZhVZLpaROTCqk5S3VCd90X4H0QSO039YvHAxWhYuNBuoaVPYEmMyEsXAvn2IHjkKt9OLpTY/6qNZ8pQ2o6PWJ+9J4h3yLZiB2x9A45KlqCfdLx45iVIkYdpKm7uqCRQqM5x+IogQipeFn3GpGv6LQTrgPwT1hpgeczKEnPpKT6wceG28oJcGenuwb+9u4/hfffXVZqM1bVYRS6RoyHTMjyZjMo3/kIWu6I4ktdqc1fArBLKLzrE0R8gQqDhkhKjMJydnsG37Tjzw40dQU9+Av//I3+Pjn/gEPvCBv8OHP/wh3PWaO3Dy6GHc9917cZIA1tgTRutTilqqkIpRV6kwyyZaG1Vpo68ClaXWXjl8BN+MJeZZpJOhzawKmRRtFVOR3lcSLJpsb45OUYbXNYEvz5tZpUUjqZyylKO8RiipBDWuo6lJOTo9JY0MlR2osTtx9xvfiPd98P340Mc/gg995MN425vehOTIOH743e+ik46sdg/WOkxJlwxdgcbInPfJ72UapAKdVUURTXLbR0f3a1/7Oi5c7DW9nkUaHuNzGHpSAdP4a/qepFLHiqRnRy8yNAz6re8aSdA75pNfMjKC/K572g1XG9nRFNC31DFEDmQJths3rMNVb38zrn3X23HT774Vi1csw8GnNqF0ccAy8Ok8xnafhHe8gCWrr8Y1b38b7vjzP8KVd96GxMQwujdvYrOotfLI+YDGK5bgtne/DXf9ybtxy+2vQm2aAH/7UaBv2qwPlHaJnrmIY/c/jmzGap9CKsbrTMNDI6NdfN1OlB0st4ufdMq0yZrRU3IM6A1Fh0dx7sgx9HZ3w8dLTS7Sd2qEFWfrBYKAr4Z0ciEdrkPbLTdgw+++Gdf/wW/imjffhbY5LRinU1Om465p8mVthkOD6NKma8wrRyBecoYMvcbPniA4eQbNzS141W+/A6/5w3fjNb+n2RQ5nNv5BCJDfay2DTNnziHJNJfMa8at73oLrv+9N+OaN73a1OkY6ZOeicw6FGpQmlUCcIu3LAUv02o2jaPcKFotVg2/1kFNJGG8TDWZOKtjzG2CygybO01wlrXpvIAUHVACqiyd1EwU9mgE5fP9GHr4aZz57g8xsOV55KfUQTVDXo/T800SxBAsRSeRPHQYoz9+Ghe/+zB6n3we5YR0IXWEQAv/qaNTzqrL50fZH0SUesPl8KHJFkZt3oNQfSvywRDKHvkKZQSSeTTOZBBO6dQCnY2bpo4rIkfnPuOnXHj4TCoL74wAIMvgpK6yJwiAZ+CMx+GJFeCOZWGPU67TU6x3jOVIs45yNgmgtR51JglM87r2ZBBA8lCnEqTWUZeFyf8O5lW2S49nYMun4CXoDqbon8SYh9ZXZxXpkMqRTyYQIwDse+BBTD7yGApnCUa0RMUAf6af1qZQpGuM5aHe1fNIkYZ6n8/Iv9fjwgKm0WzTxGuDmHz6AfR/99+REk0vsB4ZSiR9Kw/Bb2NsAnOSUXhJBxeBJSIEaFNswxQ/qbuz+Tgy5ThVQIr2JoKS6JBifvEUy8HMtLlTtkw8UoDG6WNsq5RsU4kOONvKhzh85RmmzefYFhppBPNFdgQBxwyCXp2nTn2oadsCCgWmq12VSSNkpFMYc6xjTiP2vJ7NIHXqNMZ/8AAmfvggUjv3GLBglr3IL7QRgDjjxNXT5MEp1iNKNksx8r5oQ8c/xbIWdG6km/Ut813SIHd4P0YfYJoPPYLS8VNMk3lGZgjq42iiXVyYdsEzRZqYzgnWI8P3EopZXqM+Y/kFXR3kM7s6FOJ8NxaHTfWVjSrynRKfT46idI6A6skfY/Q730JOtmVGa+xZOHXi8ENTeS1AqXzY1rlJ0oXPFFkmCaA6JMQvekfT2JP81N4bAotiAK3XLzDfImnI9jM8k4iRBkk4+ZyL6aszLE1bMkEfY4ZtFiE/qP3s9Ak8jH6W281o17FSAkwxppWkHMWiCBEolZlAppQyfA3ytdkrQBuXGd7gdz4HLWmoAL9ZRZIl3bRpqe6ljh1G3/fvxfD370Px2DE2xQzBG+vpJFDW8rAUhT7K92KUKdrVUipJ/mP6OsEgrjIxv2nmo7ZS3Wl7HAJ/5CMX9ZCvnIQ/n4CHNLFrA7IkNZbaTx1sbKcQ9USLLQBvgfbRgHfe0/242oG/CV69jQFcefN1WHvrTfBoBoo6BYriRear9izwu3gsFoFd+92IXixDhp5dlvdLGZYtwWe1f0yadFG5J/nOOGOG+YjvmRW/IUY+yUnHqTNrMgrnwBDa6HesXbcebW//bYTvfBUwpx6LrliDVde8CsGW5WaTs5wvixT1Tp76Rp1qwk0+nRUn2YmPs3z81IZyY6TtTIqqIo84/UGWhOqVukAzUKTTBZiHpjFy6jwWrFmFuvYW0tMDXzEMjz2Eko++7sJ6tL/xRiy66wa0a+q40rQ5UbB56Jp44UEtPKWQKQf8HngXtWD+sgUY2H8MpR7ycUIb1jkpn5QW+gFGt5Of1IFrAottiKGo7yRF5dLsz2p4icLPnWouwF2Z5iTgbUbFGLXrcHRmGtu2bcXZM2fx8tteYUbkzp49h7eRQeVQavMLy0F/IVhNa1x2Nrw+dVEuoEYWq1PNq+GXBwEXgUjxixSceuw0It3d04Onn92MsYlJfOazn8O8BQuQnt3wxUPAs3DBPEyMj2L//n1muvH6q6+mvxbFxd4eDA3TMR3sw3EC81F+D4d88HlcfH6MIP0UTtDRGBga4fNJHD5xBqME+W8mCPY56ezSaUrORHHmdCeOHj2FTjprF7t7kKBj1tDUZM63zdHwdV7sRG9/L4aGhnH6bCfOnbtoNFlDTS2dFZvRk3EWVpvGTR07ix3PPIPX/85vonHhXDPA6vd6sKJtLgI0blt3b8dgLoprb74Zc2vqNEsN58934ggN6enTZ9DZeQ6jI8OsednsXJ6hg3DixEns2bMHTzzxJNavv9JMCy9SQIN0lDVakaej0UOguH3nTjOl/RxjT18/5s6ZQ9sktWuDzkA/cfIkenv7zPFtPoLqHNvCTfqqE2GadKipr6PvYkOGBk1n6dbNm4fgorko13hhd1jrmTw0FCc2bsE1110P+9L5NIoEmd/ZiKbwPLTddiuwoInglu1K5yV+8QJmugex5MbrgToXalfPR2D5XDhDHoLaIgI0IsXzo8j0TqDj+huAtrCZUho524sE22nDa18FJx3mQNCDmpVL4GlrIdgQ2Gb6Tuoo8pP0VInl1XpPgVUyGGbY9lOT45izcAFWzJ+PUl8POhbPh/uaK/k+DaTTw/LUwDZvDpxzW+GtddGgpQhwy0hPRzF+9Cja+axjyWJzBrKDtCLcMHTMEKQQ8cNJYDR2cAcmT5/GdXfdDf+SVXRG5ZTT6Yp0obfrJFrmrUJt0yIkz56Fu7+TRnQuvOuWsgzkFbcTIyePG5u96OZbyOc+lotOjMrHepGtjNLVh8qlten2WdBt+rx1w/qvGn7dwmW2U36q8XxmAbcJZBPtzt0/M2nOfi9RCWiKpLOchiNLpzIeQWZgAJP7j2P08a248NDjyE1Nom1+G+ZeuxourTah/srHpxAf6MfEvkMYemwTpvYcAybiCNTUY+4ddDRdZfIZZYTAxYwqEpyk+obRvf8wxnoHsLBpHjAYR+3SVTh28hCCcxsRXjEfDuoV27Ee5A+dhdfrQivz9C3qQNbjpT5zENdEMENdadvfhTaC98ab1sO9oAYzw52YPnUEjokUQYYXyZOdGDu2Fdnxi8QvUbjrwigJLFInOWcIbi4MIkMfZLy3C1PjfcSHMwSxKQw8fxAttXVovXUDXA0+YvYZxKm3pk6dQYz6PE39lurvtka+/ZribkeEOrK4Zy/cx06gNZmGy+1FnHLkokw6PZSTxBTKfRcxSB9lum/EjNi7SD8nG8jmDiBnpz5kO7k0muvQzt59GDvyHJybtqCxawRN2RqkiwHEWX5bmKI+3AXnvp0IFW0Ir7oGqekMZk5eQPT0OTgyBFl+B3KuDIquHIuXR5kANd7ZicmjZ5Du7Ef0TC8C2i2evleG7ZR0EbxRh1G5wcM0XUXqkfIw7FPDyJ6awOSBLkT7+wiwxoDhYxjtOky97UXT4qvQsHAOfT3xTA/10UXMdJ3D2NmDSAxeoP7U+ncXNLU73jeI7I5dqD98DA0ErA7aqxQBQInAzNNIcGCLUP/1YaLrGKbPnELywgCKQwTCZEmnr4Y6lyCT4MlOmtoI8uyFBNvvDFyku/9UJ4ITBFEl2hrSPUBQXvJkECO4r+3Joa1jKTJBBwZGLiJ67hycY1NwE6zY/OQ1R5nlTyAywDoeP4w42zje1YdY3xAKZl0x9Z8ri9zoBeR2Po+a/QdRT3vXxHzGaAfyjG5vmGqTulMgkMAoNT2EyXOHkBrqos3KwkEbrJkBqZFR0u48UgMjFA/yRom2ZIr8fOEipulP+FgWB9uunE8iPdiDkaPHMHP8NDLnB+CMFvi8k43vRpxZjZN+GeatLm43hduXZVsTcDt6BjBF3p+iX1G40Afn+DTyzC/ddQENyxbBd/vVyNqzcOfpC41NIHLyFEZPnMDkhS4k2caYnmZ6pLGm5ZN1SxJe8mWG4NxJWxejr16Qv338CGonSEeHDZOePOlbgC/kx+jzx+CgXDsJlkfPdGJkqAdl0sBVzCJNuk0dO4kYy5dmOqnui6azwK5z1tWZTfsl4G2fHjf5jB2/gMhFyk6EQNzPSgcYCUr7tmyHuzeB1sVr4V8xlzQpkV+GMHW0B4VEnOUgb/vEx040d8xHQ3MjHD4nZnpOML2T1IkZlCjr48ePY+rIMdiHx+DKEFSStlk/QWUpCefkFLLnujDeRfrQB4ufuojCsV6kz1PnEazXtjSyTXWUHhDJZshPbHqNdh84hOy+g6ghbUrhOgwz/3LQCX8oa2aktbTciGDjItg9Mfqe+zE4PIqGOauw4Cr6B0HipHwE2QtnMXxgHybpj2XJi+6BCH0M6ogaD3WAHXmbgzxOv8GuGQzUx9q75eh5nN+7Hwtffh1CSxex7QKwUUY1E8XZ4EHd2g4ElzRSF0xh/OHnUCbvdbz5ThTn0SdyhOEuEIDnmBbbm1gcdmee9iCNww9vx1Vrb2QaTWaDO7VTnjajIPylZSEsgEbCTTlkYxT5U1H9+KZf4LJYDS8i/KprvAWuNSKmIMAtoKPf2mVZL+kop0MHDzDNbaivq8crCLwHhoYwPj6Jm269xbxfI2eAjSjgLifPajAyA69pgyI1tQls9CrwroZfJYinBLoVyGrQcRXnqFz3kHfmz1+A33zb23hfo+CThnd9dAz85NsIjZGWRui4p3UbrkEvHc77H/gRHnv4IRw7egTPbNyIQYLj9WtXo0gef/jhh/Hde7+HLVu3ESx3YSaRQi8NeSSewRteewea6wIYonI9c+I0HnrgETz11LPYd+Awtm4XeO3G8pWLUddQj1giiu9899t49JFHCPwP4vntO3Cehru5oRlLFi6Gi0q1SCWYpJDouJ6JI6ewc+tzuPO33oL6eR1GRlyKdLIKBP89/T3YfHQ3fuO37kaLO4ixnj7c9/3vMt9tpqxbtzyPffv209mwY93a9Wbn8wceeNCsT5+kIdIJBPv3HYCHTvD8efPhcbkJ3LtY38fww/t/hD27dmPX7j2GngsWLkJHRzvpTMM8NY1Pf+azeHbTJsydOxdLly6Fm++q5zRDx2ticgLNzU3UE15MRGcIvK2zc/P8K9mKNKDU5tMJpMcjOPbcFlx7+22wL2hFmfQcffoAwi2LELpyNdDkQ5lGw0YAUaBBGz/dhWVLFgBzawjgXYgTheh4IId2v02XME2HJjk4gjnXrgdWdhCEFBFum4dFG9bD0xzAwGk6T4UUwosWIcC6mF196USW6eAJcJc1MuRyWABHDOUAQq2NmLdiEZrmEyxM0XgT+Na2tsJ11VqU6YCVCHqTdCJNZwn1l591dGtkjuBgpncQA+dOY84rboKXNHLRkcnnNdKcpv6jtqOhdZTpIIwPI3XqAB36FJbffCfr3UKFy/zLKZTGO9F79hTqG5cR38+FP5OCa7QXxcgM3PVNxjmc7uzClscew+vf8XuoWbKQjkGQdHMT01PTaohbInLJSmpEn3VVNEqYTpm5eemBavg1CmRN44fpU/6QWknRBF1j2xbJsBcGB9DS2AgPnWpvKUeAQ/kaHUecDvvwxs04+fATGBsYRoh8fMubXo2Fd9wCV2s9Ey4QFIxgctdBdD/yDLqf34PUTBxNSxbjqte9Gh2vfhnQWmd4xeYmAKQsmqmyOWv9YFPHXMxZsBB1vjBssSLq33o36pc2o/HqFXDPoXPHv8KeU4jvOgYPgXfz9evhoiNpI7DRDv6efA62U90obj2BZjqjoevWw9EWQufmx3H837+F4nmCw9ECncuHcfJ7X0Jk/y5EeK1u7mL4m+oIoii75waR37wbQ48/joOPPYCuPTuR6OtFGz3O+O7TaK+tR91NV8BVH6BOPYrzP34Up6jPux94CIl9+zCxdw/ciSQCK9YS2Dpx5htfx+hWgrKZaZRoK04TyAwM9qKRusDfUoNMXzfSDz+IHV/9Brq309netQ/e3m4EHZTnunY4wjUEb9qQjqFMkJc4j62f/0e49p9FOxVFcSiHs4dPoS83Cc+KJjQKnNAeFEfilGcHRnYfxvkHH8f5ZzbBMzSGcEMt/O1Mk35aSSDm6HH0P/QkTnztu4ht2onBx59DXYFyXROAr72RAJQ6hXT3FRzwUTU6qfPKkQtIEygPf28LTv3oSfTu2YVi13E4B04icuECioUwmlddj/rF85Du60QPbcTR+x9FzzPP4szD38f4zh3wjM0gXNdi9tDo2bEdfT/+MZx6NzaNi0O9GOg8ReCdRdPalXDEx3Dxmcdx4N+/Q3o/ialth5E50Qt7jDq2kTSqDaHoo66lniunxwlCcxj73vcx9NhGeGNpFKkLTx09iom+i5i7qBm2Nj8mt++C5yL1t8OHi/0nsemxH6H76afg6eqF3xuAva2DoN5BwD+II4/cj66vfwPjT23ECNuohzFGfRxwuRCoow/Qdwb9DzyA3J6j8DKv4egUbfJexKk7m1auhidEEG86LwoY6zqBYw/eh2Hm1e7zwLN8GfWqC/1PPYe9//5DTBw4hqaaOgSbmpC4eB6H7r0Xnc9vwaI5pFV9DVK8dn7jUzjA+g388MdIbt2LwGAMnjRFOBiAo7mOwJKGjsFFn6aO9sedyqBwvBMpgtI93/k2Tj36MPInTsE/FYU3kkFAI/zt9Qjccb3ZENTWPYYMZeDMj+7Hwft/iNM6gop8gqEJ1GQdcPtrgXr64hrxdznh9VD+SOfOHz6Ai6RDWzyKukwGp/ftQmfvGRRXtKGFQHPz33wK/oOdcFI+tv7wu9i+ZxMaFrcjmE7h3I8e4vv3Y+TxpxDZuRMTO3YimEzCzffstTVwutm2kQlEd+7Bue+wXN98kO21G5nBUYQpi/45DSRADkNbdsDeG0PzgmXwLWpDemwAFx98Cl0Pb4I9MYXmxbXIjI/ggQ9+Fn2k3fKX3wBfvQ8XvvctnLvve7SREaRGJ7H/u9/DmXvvoywOIDStU0RccHeE4cqnEKc/Jv1wevsmdO7bSb7YgvSjz2Py0HEc6TyNK0znonbzt06vYdERPbAfnUx/knXzpzMYIZ9sO3seLleROi+APX//j4jsGEBdXQe88z0YHDiCsU7qiaYlWHjlevJIEumeTvR9/4c4/APyI+Uguv0gggMz8ASoLymr+Vo/dasLQcqqZjxq1FnT30sHT2Gqvx/tG1bCL99PPaR2F0quErIu8oY9RReB+mJkHJMPbYfH4Ufjm+9CvqONesdNH0vT0pmOs8DX8tQGWZSTeZx+fC+uvOE26lj6GOpdcOgZDfjQ96RXIP9ACxqMD2T8IEYZHGNnrEuzP81nNbyI8Kuu8RZwNoCZYFgbMelBjSrqt44KO0Mn9NlNz0K7Kd/x6jsubdak6ag6X3ju3A4kKLDaCboaquGlDOJNbSgm4K3OIEXx4cDAAHp6egwg1DPi1fb2djTSKVXnkfhW513rzPnoTASJWJTAuQ4Rgsnd27Zj2bJl+P4Pvocvf/lfsWzFSmzeshUP0cG4+pprsJkg8Stf/Spamhqx9/mtSCXjaGmuh3a/HhoeIji/F2vWrsEPf/QDPPvMU/jMpz+JKab7p3/21wSjU2iqazRlPEiwq5khn/zkJ3Hvvd/Fm978ehpCgkCGilKrCKMUnYKuZwoZ5Io5M5Jby/LPX7SQzjDf0zRQpvvc08+Y8zg/+U+fplw+g6eefhxXX3sNttB4Hz9xknTowAc/+EF8lXXQ0WUf+uD/xpNPPIY/+aM/wjwqbHVGfP7z/8Iyj+PZpzdix64dePiRh7F69Wq85z3vwblzF8xU+Foa1Xnz5qGtrc0YKa2rz+WLKGhqFoPaxWxcR13RWlNrZg0UqNa1k7CpT4FGIVJA/uBJ1HS0oNwW5kuamZdGWrue1gRBr55OqKAs7YPPi5rmRiQTmi7GGPYiS2cjKUBOEMDKIB2dRiQ2hnQrlVk90/eXkfLToNSSkk0aocgg6Skjx3fLIS9/M2XNCaVBLcfTKEwTUMTozORIS01z07Q8GqUyDVcx4DQGr5xNzJom1oJkL/jtSLGYmuKr1gvzpltDXd6gaefEaB/cyzpQs3oh08qb7HJ0qLQOS9PYXEzJyfzK41GUxyZMpwY8LL/oqDONyQU1C5eYKauFVBplNx2JK2jQFy3H1O7jmPrMtxD93lM4dc83MYcOcWDxQtjpMWTpyKcdWWSdJfnxBrhZLSP62yAznKaDkWHUAGrlXjX8+gVxgaYiRhjjZOUc+a3EKHkRsqOYkZXtWNYxDwH+0M7ArlQOhXMD6PruI9jxT1/Fqae2w9fcgpd94E/xsq9+Aq433gKsmUc+JdeeH0Lv5+9Dz6e/h8SmE1gQasdr/vR/Yc0//A1Kb7sZqVV1SIULKBAgEdNTlv1wEuSAAIVKFN5lixBctRSJWh8GveQuXwlNr30lvEsXmBEVaS6tT/WVbAhTrALJIh3+AtzpEryZElwzZbRN5xGciiOULsIlV4FMW09H05fK4/jWrXj+h/chxbqvXnsFQpNZ1B3oQ/JrP0aBTq6m9KYPHcbYQ49i+uBR+AslzAuE4OoZwel/fwBzptKYR6fWMxMjCBnB1OHjSBGo1dLJbuloR3tLC+rokHZv3IbxRzeiOD6DgM9vRqvzhTRKDpa1zo9AYy2v5ZE5e5oO/3fQvWMHltc34Kq5C9DG9Iee24+Bex9Feudx2JknH7XkWGtIUyU68l7k407+dCBfF4BTM1ZWzoeLdEvEI5iKzJgjMAdPn0aBerCR+jhsdxJsHkT6qR3AhWEznX7i6e3o/ORXkd5yEIv8Neiorcea1rk498TTOPXjRwjyLiKYiqGhkEMwX4Jd03pnaBu7htD/sDpWdqGBbdHoph4cmYCD6bZOpDCH7RHU8pRYDonzfejbe5DtkEdHWzNuXrUey2xBTBM0pe57FDh8En7qX39TGFm2d8JTgHdeHRrXLYaXYNA2MYrU95/A+NcfgvvkKDpQi1Z7CMXBKfQ+twODG7fCPp6Ez+jAktm8T2u1bQSGNJIYJlAaK+fhXjgX9rltiKsHg8C85Cgiko5herAHEQK6cG0AdUE/hru7cPTxhzG2/XmWP4Yibe30mXNIjNDmEgTOb2pBbaqIqa2HMP7w88gfuwgn28zFezmXD9Okc7alBqFr1yLVVoNE0IWido/W2vmynfnUo77sR+kU26B7gtdYoHgCsef2IHTsAoJnemAfGKGgRjEy3IO+8ydhyyQRoqzkzl5E55e+wbZ5Ai2UhBXzF2BuTT3Suw9jhPyZ2rYf3hn6EfSz51HRd+Sz8JIPbGPTGP3uj9D72DNITY7D2xSEqzGAmaEe9BM4pmYmQfNG3iKQnkyi+N2nMfAv30XhVA8WzJmPJStXIuBwY3L/aQx850mkH9sFW6Kk2ePkwQJtEAXK5kbYE8KixmbU0t5qkL9uQRtaF88ztsw2MglnzyBinV3o3r0ViXIKrjofHNkUho4ew+CRk6hlHh3z56JtTjta/QF079qDia3bUZzSNPccIqTRxe88iNTeE+ShAJb7GpA8dR7bv3UvMD4JTEyYo0bTuRjyQQ9KEzOmzkO799LHaMXq264DCNBdbieuTtixfDID90A/aT2N+W4fOsbTiD2+A0OPbaXey6BpbgPSI2OI8lr5qcNAbwSFE+dx7L4foZ/+zbJ1K/Hmd70DN9/5Knj9XrMMoy1cT3vvZJtS25JGnmwZDuqRUrmImpZ6tC6kn+N3wOlzom1BB4F2iHWbQToSxfRwL/JpdZhphgLbPJVCQBaVvk+WPNj77fvQSd2ypnkxrl11NRrcNRjfdxRD338Q8d37UKTsO0pZRvKaNUJpYp56ze/xGN1pBgH4T/o+R78lST8hT9/ANjurTTv7m/10bE4EnW64vXaUqZ41OFEiTc1K8iT9B/pTGfmPQtVyMAnMFTW7T38aONHmbcrqUhCPXRb086cuVcN/MagpfiLIgdZ6bYEbgefKOcKVXZSnpiYRDARx66234tprr0VjA5mewGZsdBQLFy7E+Pg0HWO5dtVQDS9tUAeQgLVC5VN8Kv6LRqNmh1+BwsvviXfVeaSzrzWiXNJmHzT4U3x+dGwMi1csx5/9yZ+io3WOSb9IB6Wvf5AAsx1XXXEVdF5oOBTEa+66C69585tNWuls0ezc/41vfB1r167FLbe9nEragzEalECgDq993WsJKDPI0igk0glzNNmy1Svw9t9+OxYvXowkr2eoZOk7X9JoFeVGtfgTSlBHp5mzUamQndowLkAVzxeHBwfNtKrffdfv4z1/+z74CXZjiTRSBIFLl69AqCaE3Xv20CeJG/qMUj7TaRqJAB3KgA81BLo6RmfXtm2oCwfxhte9DnE5FvG4WU7yxje+EYMDAxgjjQR0RdMPfOD9+NrXvobbWF+nQ2vCC4aWmk5qaE6DpvXG6jnWjimZcoYggUZNiCGRQ/RoF85s2oYrb7kBjuULAL8bqUIGaa1/1/pr9fxKd2h0nG1XIrjOaR1dQx0JYQNrghq/z0xXL8VTOLB7F04NnkfzzQSmSztQ0BFlTGMqNcV2phMQpJFSBwDTLGqdo8C1UA3Lo41I3DRYGgDOzKQx092Pgtac0yBlMink6AzZSGtbKAwHHTgni6WjjqTZlITaqobv1tCwudI2AvkyTuw6gK2bn0HDikW84aP/VqJxLcJDhydPoJ+ZmkE2SoeJf7YQwUy4Fh51XNaEDZgw6xa1oVoshXJG67HsNOwpOlpZ1F93A2pe/RqcP3YSZzduNiR6/bv/0MyYUCeELxxCNBE3nZ6XBzVFhaf0WYnV8Osb1D7CcOnLojpTzEwGRTKfNoUqUAbSU9OwE8zabT54dYp9JIOaogs3v/xO3PZnf426NesoB35riqeXL2vfB8q4zrmu5zsbXvdWrP6L9wHzl/DdGOXVTmBYT3DiQIYyrE6bdCxJ2ZBcMm9xEnWdfdEcNLz2dlz1nncD166hjBJwENOro037JmgDyrCPQFrObZS1iVL+9D51LBGXqUzWliMf60xl1jCVgC3HsrGIAQK51W+8HVd/8kNY9oV/wnW/8zaECdC7N+0yU1xBkDXWdQ4zvT1YfMUavOZTH8Mr/uXTePmf/BEWzu1AiA6zVI5Gg9HahNU3Xo9X/sG78ap/+CRe+cUvYPVf/TXWrb8OC+BD3+6DKLI8y//oj3HTm16H+mY63ZTfV7//r/j8R9Cwbg2Sg704tX0bAtSXq954N1b/9d/htr/5MG5cdyOKfZOYGRizGkaKQQSwUyfWNuN1H/8srrn+CoQa6tF87VW44e/+Crf9+R9i3poV5lENVtQ016KRunDV770FV/zzR/HqP3kXmjVtl0ClrA0aCYRs5/rRPDCDa+ctx1V/8ddY9YlPYN5fvwdt9Mcmjx1DjnRQm2qdbJltVrYz9WwcmaEhDHSdhzfkwXV/9Ud42dfvwTXv+TO0XHEFfMxDe5kUbaS9p4zmJQtx17veiTd/5CO4+T1/gzXv/QCu/t0/wBUt8xEYnUaJen7e6+7A9e/8TSy9cjkaFjTh6jtvww0ffh9W/PbdcNCejmzdg9aBGF711nfijk/dgxv/+sNYe+2tqIlnMHG6EzbSTzvcu43jTz6ijp9z16ux9q1vgnfJfATXr8Qrmd4rv/BpNNx+i9mpOZnPIFnMonFuK172m2/Cuz7+Ybz9L/4XFi+aDzvBqleAwk2flUD7btrnd/7zJ3Htpz+F1R/433jlO9+FK5oXIjxCnUhwVbtqPVa/9W4zeto0pwlrX3Eb3vSZf8Sdv/87CLLdpSMNMLGXEW5pweKlK9FOWcqcJugjDdBNQHrgOFaW3aifjMGhjTWnpxEdHoCHPLxi5XLQeUbhfDeGd+/HwpIDL3v93djw3r/D8r/9W3QsWwYv9XthlO9pbTLr5aA/4hD40iYxpE3foaOwk5a/8Ttvwdv/5R9w4//5W7S/6ia4wwRTLnVYUJbV8zY6ibEnt6LQ3491r74NL//kR/Caez6Nu//3+3Dtug1InuhGz+Y9BLpRlL1BFCiTeZqKUsCDRW/6Dax89e3UKQ7kQj6s/1/v5Psfw7pbXg6XL4zVwXq4kzGs2rAK7/765/DB+/4vrn7dnVj3qjtw99/9b7z8/R/ElR/7P1jx/vdh6br15NExAvULBJTkJeqQM3v34MLJY2hevRQ3f/zvcevXv4RXvf89WL5uBW0d0SFl0+OhTSymUBjsQeKxRxDb/BxaGuuw+i13AVcvI9qcgG20DzXROJp0MkOd6p1GiG09zx/GPJcfa6+6Bnd/7jP4ja/8M9pXLcIE0ypeuGiUp8tJfZjMYq7Tj3lLVqHm6uvJ91eyTRejY8USvPrP/hcVjQcgsDabCMrvYDs0r1qBtb/5Ziy87RYEmuqw9Iar8eaPfQgr73yFOQ5t3YqFWLGww3RASd7sM1EE6F+FpLUzaSQ6O3H8iU2YU/Jj+Rt+G6v/7uO44W8+hKuuuwXuVA75iRnUFOwI0yuyjDLfUyTfeeiHReMx5LURm+RDM+BIK3oOGC9MYzIfQVFr9LWWnWUNuQnSJ6ZQjvJ6MY8c2zdNedDu+GXtV0M/qZwt0A9j3VhNYzsI4rW/DV0LY2c047hMfjK8L6fm8viTX6vhJQxy/X8iCHzIUVfUyLeAho5O0tFhOuro3nvvNSPbN950E+obG+mgqrtavp/XgHSB9QCde4H0aqiGlzJcDrw1kq0o/hTgrqmpMffFs5pOrU8FgV4BRAHlFHm6obGJILsNbXSG1q9dQwO+yKRTpOHTGZOT4+M4cbwTQRqfJUuWmqlnLpcTIRq8eXPn0sEtQ0dJ6XxYbZRxz5e/ghtuuAFz5szFmnVX4Pbbb8d73/u3SKVS6KdRlFy00CmoIzBubmhCTSCIulAAAT+d5MuCBFFRClH+qWophee1u6l/HShl0wSPKer2NAqROFx07tJ0tso+P/72fe/HlRuuxdz5C7F86Qr8xV/8JXbu3ocsFXiIjoDqZ0aqCeLjNOpFOWjFHL9PYbCvGz/43r1461vejLVrV2NOWwcWLVyMP/iDP0Ca8qwp+5LxGgK7IAG7VLR25hStRAPhPgXNPtDXYLiGOp70YZkFdnVeq5OAPHeuF6nHn0FjqJYOz8tgC/uRoaOuWCYgsMmgyClXb4RGfgmSdQ63ne+CDrzMRJL1tcs3T5VxftN2DBw4jPali7DilXSA6fhr6yX5vT6tv2Z5NXrhiqYRSOThEQCgw6SdyWOnz2HbV76JT7/jj/CB174VH7r77Xj4q99EhI6VNgry5WwEDDbYCWzcoxGEmJ+HyMfGYmm0RhMENTXQR0xs17Bkfxyxh+kEbT+INTfeig3v/H2UvD46ZOO4uGkPPvlbf4D3v+FufORP/hSf+dA/YN+jm5EfnjBHiY2PjLKuTIhtAj+dknAdiViLFJ1VG/nF0d6B3NmzOPOJj+HC3m248f9+AVff969Y8oobcM8/fgLHCMIz03R4CP7bgo1o9IXMzvA6ikZnCcvWShOrzEwdAbagm7FqTP8bBykH8l+O/FkTqoPTzEdmS5ecaKxtgsfhxZmNW3Dog/+EyA+1gRRlKkcZkuddRyd8YSuGWwIYbvah8/nN6L7nK0AX+TAVhK0/A2+sjLqCy+yynycY8NbW0SEn90gOAwFk6bgltJiwnr/XLLIYy2dH1EXfgY6f9JccxxJ9gSIBvma7QLtna3OmInnVXUTRQR8j5EK2I4xSEzm01oYZVwq9hQhsaxdi/d+8C5hPGW5mvf7gzZjy2ohpQvBqtgsdfXtkhuLiRnDlAmDDUqDDD8ctq9H6ztej35fDieFOJO0Eoz4+X2BeW7di6EMfxunfexcu/OVfI71jP+W6iJaSCw7tpKyNoYI+pFmHLOtiOiq0SVYiBnepgCaPB/GLg4h/4R6U/vjPUfrwx+CinUiPRpHWBm/Uf8a51c5Z2nhKGx8RtHnaF2GG+kxOMRU/y8O2cngQDDUixJimr9T0llcBr1wHzOO9JQ3U6Xaz0ZY5Wos6zzU2BQxPYvLZ5zD0N3+J0nv+EtN/+W4kRjpR1LptD21J0IWCp4A4hT8RonQ3k7YNHoy7s4i2elF+1VVAGwt4yyrgutXIzqtDvNWDdB3pI0XW6EWeQGT4q1/ByT/+C/S+5e2IfuKfMH16PwGVNjojLQpsP0cOWXcJ0TQBgqYwmwPLmQbvu8iP8xwE9F/+NtLv/AsU3vcxpB54GOn+Hnhos7QZmXacnxkf5eNJ6Mxxoi3EyJPptjqkm4KIOclXIZaTgFAbSkUIZly15MtbbwINNjCnnToyiEDIDy85LTcxbsCv2RCO9hbfvw/RP/sTdP/W29D32c8jcHEYzQWPpf9pK+m0Mu1a0jhEuyO5UacVAYosm9ooyOfUcePzoLaxBXOCTYgfPw/sPm72P/BNzaA9FKJ/PIzscC/zHIJ7bAJtAoQavY9H4WR52mnInX3DmPnGtzD9N+9F7APvR+TwNkxmJpCwkY6+PAEPgWdmmmSdYDmSQG8nSZlmOUinVfOAVazrshbUvOI6zH3tbXA3hjAyOUJeI70HmfboKBqb2+Ble2IxgWALefaaFQjdcj2aw7UoxZmPQBrrlia4GqKFnKRs5OaSD5sC8LCuHi9538FnJM8Ffs8StLE+svSOtUsA8pCZkqJNBGU1Oi9i6kMfxf63vJVy9JeIPb8V5dgkmrS0TEqJ3xP5OIrzwnDfynJd2UGa5+F/5Xqs+pvfZzux/E1+dA51IV1KY3TbJnRu34z65hBW3fVyYC31SYjpzAmivLge6WICvpAH9ia2FXl0emoYkbFRBFYuQ8Ndr6S8tMMzpwZtd14P1/r5uJgZoZojr7Y0Y5FkrGcMhY3bgcefw/i2nTh64jDG1dm0oJ46h+1cQz3V6EFZPOciXclroB5IkD+jZfoCDWzTAHWXos+FsdFhRKdGUdCmaZkUguSfMP0WN9sdU+NwZ7JoY9u7BieQ/vSXMPiWdyD+ic9geO8OnD97CiPnL6IQpU4RreWg1ZQAAP/0SURBVOTLqqNHtp9Fwbw5GGc6WfqvZuNZtQf1ks/mQaOrHvXuBjhdftjqG4zfm00kUTJHMYbgdjiQoY8Yz8SQI121d5CmvdnGp+GrYXuThuY8cDfryah9hdjSfI66hiC9LIegEi8L+imxUPypW9XwXwii508EARsBGI0W6nw3gW5FjRxq1GxyYgrPPrsJb/+t38aKZatw12+8Dg899CCOHz+OO++4w0yjnZyaugR8qqEaXqqgzhzxpXhLn5XvGs2uq6vDqVOnLv3WPQWNgIuPNR1dO3gvWrAAfi8NOpXbyOAQlYnNzOBw0jH00rHUea6hEE06leE0wboApY2KaYLOz7nTZ81IU6lYMGunR8eTeNvb3o6nnn4aJ0+dxOHD+7H/wB4C94N44MEHcNPNN8DlcGGCzoE6AzS6WqRDlSaoTBJYaddtBSk06V19SmqM48pQUXg6uk87pI9OTuBM1zk0tLUSILfD5fXgT975TuzbewD/56OfwJ79B3Dy9Gl86P98zEyZb2ptNbuS5/huX28vmhvrqds7rONlmJmf4D8c9OMNr70TD/zwPhw4sB+nzpzCiZPHzNnhFy6ex91vfiPCpGeO6WjkWJ0YSk+0lJ5QmO0LeaEidMacrGyTN4jalA0Tm/fg5PcfQtLrxIo/+j3Yl9Og0whoz/dAMGA6I1yTdC5jNGZC8mo7Gh37xDRthAwiHQq2QQeBpTdZwvH7HsL5J5/D2pXrcMvdb6FRbmC7aIxQ9CuYNfFWz4ULXjuNqtbHayRYzjHbPrRkEW7+3bfhPf/4UXz0e9/C33/tHvzW+/4KdQvmmrJrwxUyAvN1w07w4dTu+ZpJQac6VU5D52WqA0ZnBWvdembXQUzu3If6+Qtxw9vfCjsdRsVweysWXH8N/vafP4ePfevb+NAXv4g//6u/xJW33AjnmhVwLl8Bj4sGkYZYR4fICYR2KD/fi4ZADbyahn/iKM5uex45OpzXfPC9sF+5DO62Wsz9/d/GH/3te/DUY08hcuIsaUegPkEe0w64apbL1K+ZVEav0lbkp+5V2qsafi2DREgdJepuIlQw37VRrgb3TLte1n42O4VOTpY0xbx5aH/L3bj6L/8c617/OoKTEI4/vhn3v+kd6Pv3B1HSzv+xNJztbbjxg3+J9X/1LvhvWI3usX5s+sxnceLjnwH2dZIHydvxEiIEuJJ3jVDHyJfxSNTsqaGRsrSTjh5FBH6CFhYuJplw0FnW3FU+oxMckloAoV2xk5Q9HcCtEfkCX5qcQU93F6ZKKZRaw7BrNIty2RCqxwLGuigdRzr40BFCOuLI7zYbNxZZlqIWHVIX6AznZDGPae1WrBEdjRgSyOkMXo0wN1FeXATLOou/d88+HN++AwPdPaYzgAoMuWQK8akoar0hko9lpj6fHh1BUlNypUvoeJvd0lMJlOgEqxNSYwx0/1GkXZiZHsZYZMpsblagrUhGSVtWsSzQVkcQ1NDKJwlFMnkME4hrmYxxeqUztEN1RrtYu5mfE7b5c9jY0jekraZXs25g2c1+FMWy2QC81htAfU2dmfHUM9pP7JVHY20zgg1hlHq7UJqZJgdQ99m12zyZRMt3CHaj0SwyrJOZ7WB64vhJfZYvUEcTLHoJcDEzhZmnNuLwl7+O7r1HESL46mhsgp/8o45fswFdgG3ndyHG8o1EZ5Clfg5p+UFlTQvpE5meQiqZMPomEY9jeGYYiXIGXvqPRQJ2xKaohwqoa1RHToDNyHoS9I6xnSciSSRTeWSoxzQ7SotLSSHTsexupH6n/qWRtnSkk9ddDpJSp4WwbqRVZmwSR6gLn9+4F1OjY2RLJ3yMRdIpob0PtNs4n9fGXVNjYxiYJL1KonENnLki2ymLsqaZszoF8lOBebgWL0Lg6qvJU+SHw2eA/ceMWbC96lbMWbgaAXWu7D+MupEpzGubg9pF8w2NtHN4MhlHcoYgaGQS+UiMpm2aNCsiQRsymSH/JKeRp9w4Az44NTNDvBEOkhwOM7CVVWesCEtbptkBuVSaZkKzGlhf0rpI/oznE0iRV7Wu19ILpE/OelayYR2lx+ep9D388yPI5tISKrs1g4Z52+kTaAaL2Y09WzQzrcpMu6GedGlrIAglndOU+8F+RH78CPruvQ+TA1o37zFTpVk61LnCCNNOOow9nEGR9BaQs+mscQ/lN8hyeJywe8lDzY3kQbvZFHLRquVYfPvL4FvYgV7ydN/ObcCRQ7TTOlWGbUVwa/SP6DA9YdrGp1k0sslhyq14VycipEgPptsfGUVGPfOaT1LMwUley7O9e/YdxI5vfwcjZ87g5rf/Ftb93m8zSdLHVcJ0IYlp2vSkToYgzTQAI12apz8Ys7sonySsBgU0U4h1HiGfxjLMT51y+YzpxPax7ewqR2wGNuoKzXALECyXqMcybOtCOo2QI4wF7QvR2txqlqgVc3xeDqEajnxpdHhbIwLUc0nyr0C1yZe6RWegh0iDsJa0DVHP9M/AS7mTT1PqHebvMeikgxCZs4G+kp+PIU0/c3AKF4+cwpLVK+GgzJnNWyVCzEvsIuAtopp15gosgomzPxUqlxSr4aULl5HYCgI39fX1l0a5NeKl0W/1sNx44434xD98HN/61jfx1a98Gd/69r/hnnvuwZVXXmnW197zpS/hTW96swE6Fae8GqrhpQoVMF3p1JFS1oi21m8vWrQIx44dQ2dnp3lOMy9030Oj3EvQqesC5B0dHdShedTSgdF7AubaiV+j1+r1DoboNPEzpXXAtB4uKlulFyRAbKFy11RtddQ3E/g2NAb5vM9cqw3Voq2llXLQjsaWdixdOp/+qqY022hPwwT7XtobmikqPTcNko/OpEtrmqnRKrpOsTIFSMH8phPg5nN21llH+I0RxF9/7XV0IKmsKWc7du3Gb779t/GKV9yGJUuXIBCuQRPLEa6pRUSOK4PP60NzUzOmaND7B/qQojOp44FUbh3NFqFDrQ3LRBtNsV+wYAFWLF+K+Qvmw086ZUgvOfiij8401yYtmmqueigYv58hnqEzW8ogR+cPLJ9GposnBxB5Yg9yE3HMe+0r4bpxNZ04GnqBY9bQX9+EpmAt/L2DAB0iM2rE9NIzcUx296ODYBZ0AuW4u+hYnH9yC4a27MX8mlYsu/I6eOvo4Kbp9KezdOvLjGxz6h7bTIKGkM4LCeoNh+GurTEgAZ4SDTbbdQ7bZM08gvBm1K7qQGhhExxhOnS2HIEEG5iOlxz6LA1x1OdAKUiHihYzyvuEC2Zkr0THe+bIQZzctYNAxI4Ft94A54IOJNJxxFmJKWSQzs8gPK8J9R1tqGtpQX1bM3x0RnRusBzPFGnbe45OnZxiGeJQDUbGJ1HTyOca6uBpqkeBTm+WzpB2lUU9nY0GP5xNtai7Yj3i1NFFjWroeBQ3HTgdXyYGkk21SGl9tyztC3H2fjX8+gWJQIjtU8t2CrFZPfQRHYzyJyudKtIjgRo6n+Q77QFR0vqOMEHS3EZ4rl+HunfcjcV//odYdfONaPPUoO+5A9j2z/+G1BRBjd0LL/mq/rarsey9v4+rPvwnmHf79ZicmsSmr/4bDv/TF1FO2FHnpR9AT00bovnJl75wLR0ESpndQ971ISt+1ZFd1AUFgmHCCLKVg/fpyrU2wUZdEqEjOnL2LHD6AjDBgp+bBPacxvDRswQe1CetddBxUJhMwdsXxaK+NBZ2xZDYeIQATIA4h9wPHoCXANY8R12NAOtdV48MdXdCo8EX6XyyvKWBCOKn+jDZ1w9PvAhHooxY9yiGz/bAX9uEte98F5Z95nOY95GPIrjhWtgCtSh5QiQ49VEgDHsTadfehjzBdFqSE6TOaG1HifqnSDDcuKwFrr/+Mzg/+ynU3POvaP76V7D8q1/Agj98O1yLWpFg0Waoe+JywnVsIdMoEWCgsRFFddxppJLkBwG3vcg2cNB++OgQE4SbnfRoa5ysFwiwU9r9XSC5rg5RAqgxOurlNStR+8kPoePL/4TGb34JrV/8FK799AdRd+etbFKCqGQZnrSddSedpvLwxGxoKwcRjlAf7jpGWvL6AG3C2VEUB9JwjGXgnKZOSbL9+L3cF8H69QSVf/IeuD/yYbje9kY45i9BinoqJ0BCfe+sCSPQ0Ei7Vwe7g/TJsdI6kow2x9FQjwR1leOdb0Pdv34SLf/+Rcy798tY/rVPYuVfvxNYO4d8mjOj5TrCUuvgkXOgxd+MZpazIetDfZn0SlPHpUivjA1Zlx9Jjw8l9XoIeGjmRG0dMvRP87RDbtp0HYGWPX0WFy5cxKprV6Djs/+Epn/5HBre8XZg2QLMBJxIepkf5aXc3IQSaZwj/7pV9jRBE/OtoXJ3y78QMHGTlwkUbe0NKK5eihmCn8k9RzD09FbEw7QDN61B2+03YSqdwIVtu5A4fZFNF4C9g7aokeXpaICtoxmL5i9G8++9Gw2f/gxavnwP2r/+Jaz5l09h2dvfipA2hZOxV52SrBttmOrRUKcZK37Y+sYBTZEfjCF/6DyyRy+ajdmaGtpox+iDLJ6P4JxW+i2U/fMjBF98doz0PDmM2IlOjDgLKK0gvZtCtEIlQm4HGspONJU8cGftSBBkD9AGTbC+ZfoKhtdtXthIB2fJhel4EgXqFcm3Q7MJXW76Dv2YpF80/62/hWWf/TzmvO99CKxfa0BdpqgBCdbHFULITmA8RT/g5EXKO2WTfJfcdxInvvkDtit5fXgCsUgMvbT3GdrFJW94LVrWrDEnmEwe6qSRLdK/KSMzFSOo9aOUlgJk+SjjzrTOcPfRfWDbyYcINrCtGIdm4KcNXNTcTNPNPC6cYZkSCN9+Axb/3Z9j/ac+hhV/9zfwvfqV8KxdQ8VKP48+kNo8R4CbL1FG5GfprHv6csXGdqT8YSTc1A2apaKOMI8frsZa2BvDsNXQztInKrIMBcpnKUS+DFI3aumYz4+5q1Yj8Id/iHlf+AbCn/scgv/nQ5jzgfei+a474WlhGTWYwOLDQbnXvhj6Tp2x7toNGB4dwfTwEK+Vrc1SafsTZ8/j6L/dj+3v/TxmvvkE7NEU6t1BdH7je9jxj/eg/7FNlOkxuNNluNVnE8sj1zuJia4BXHvTTXAQ1BvgTX/PmjUqwC3v1HIFFM0PRYXLv1fDSx7U3D8RNMKnabkCLZqiKiAuIC0gIxCzbu063HzzzVTQ67Fo4UI66q1Yy2taF76GwrNkyRIzvbYaquGlDpdPNVcQIBZPiueuv/56M7X7s5/9rDkuS/cE0NV7fP/992Pnzp1YuWI5Xv6yW61NzXgvGY8hnUiaHmUdr6Up1E46Yddce60Bqbt37zbLJ4YGBvHwgw9i67PPmB3PNRquAYy73/JGnDpzFjsJflM0wi4abIHY5zZvxRe+8K+mjDk+q+nhThoKlalAgE8LZZxZ5VdRboKwEkb5X4pGNeo2FWWBDtvTT2/Ev33z3+gHtuP3f/cdaAzWYYKGS6Nax44fY/4pGsoyOrsumJ3JL56/YJI2HQt0jLWzu4uOk0bfy5TnVIzODx949Z2vQi0dko0bn8H4+DjpUDIj2qdOn8Ef//GfYmRkFC7qAdH0i1/8Ij71qc/g+PGTZn2i+tZEN4EAddQ5mZemoGcyaTMyNnnmPM7SWclEs1jx6jvh1XFcqqSObIkT4Gp374APxRo/BqbHSPMJ3qMDMh1FvLsPAyMjWHTlWho0GjMC6YH9x7H/sWfQNGcxFt1xF3xtc+m0kp58xcZ208ZlXoJzW5yOr/qV6UgQrpOgBAP0SRQ0KFBgzNJua+O1rKOEmXLWbCSl9ZHqjTc728oh4r8s6zNDkJ0hwFE9qQ1n4UUJUwN9OLj1OZSp7+axfh4aWweNqFu98XxWx3b4avld0/g0AsFoE+jWujIfHT065HmvG8dO0inWGaxqcIKf7XsOwF1bD9+cdoKBOuRCXuKSJCa1/luwTJs1xZLYs3kL5i5ZDE9zA50C1lPnDZPfTJjlq0vB/NZ/jOopUayGX8sgNnCQ9+g7G8BtbdrFKB42ikEfZcSpc9TaZerAsptc6SWfk6e1wY5jYQt8165Fw2+/Cevf+xdYceMNOHrwMNICO5S7gs2FvJzP+e0I3XwF5r/7bVj1Z7+PxlVL0Nffy1SFs+iIUknkTScf06cvkKZcZySjs0BbitBGUCo508hJrpwne1IGly2C56rVmPE7sO/oAez55rew/wMfxZnPfAWnHnoUPczDt2IeXLdsAOYSsLA84awLHXEHPOcn0PPwZhz75D3Y9snPYMuTT2KactpB/RFYtIToo5WgaA4KdLIHBkex86vfwdZPfB7PfO4rOEQd4XfW0weuh6MUQCjUjpzNh77JaXQeO46zTzyJC1u3YTQWxyjrM1AwOy4AlFlXewcS1DWdk5PY8vhT2PHN79Jx7SEYn4vmlSswjCx69u7EhccewoXHH8GJx3+MPU8/guHhPgOs09KFGqF3OsyghToIUg11SNaGsfPUcTzx7W9i348exOT5fupPPm/3CGNY7SpAaXcRUAYwGaY+dNoI5EnfljbUrrsC/qVLcZY68vlNT2DHc09g533fxrGnH8fOPdsQ12ili+AAXgJ66heNQrtDCMxfgcUrrqBqyWPPd36A5//pc9jymS/g3PP7zdHWOocdmmbP5x2eGrahD5OdfUjsPYyjm5/C5mO7cVIbmwWpozUjRzN/AkEUWa+pqThOPrkVpz7/NXQ/+zyK7fNQc/WVGGkI4Mi5Y9iz9Slsffx+bHzgu3h64/3Ye2ovAbMbtiCBn5fASaBJHR4OD2qaOuD21WDgfC/2ff/HOPz5r2Jy216UnKQFyzdFg1hsJuAkIBKdygSNGfJhlHyWJB+aa8EQCmy7oyP9OPP0Ezj96MPoPHkUPdkoRv02JHWUFYFNkc9k6uuQcnlwfMdh7PzgZ3Dx/o0ojcTMbDatxsixbFqyVAyzzsvnI9/ShJGhcfoLSfjXr4B9fgNcqxYiXhNAlPyTzJaQFXCdNwdoCMO+cjGCq1dimD5z35796KftPvfUYzj06P04vHUjxsj7joLG8wW4SFMCSbj8lIOFCCxcgDx5YPeTW7Dp01/Bgc//X5x7bAumRyLkrSBm4kRVlHfbnBZ4VixAhPLVteV5HP74P+P0Bz+F01/6v7hAPi8vbkXNdatga9X+KLTLBLIu2lxXjoCLvOdubkW5ox2n6a888ONH8MSXv4bB3YdoH9nWPvIt27tEWuUo3zr6yhEifzQ2YSKfw5kjh9G/8Wmc37IdvdFpnKceGuX1gtqzbR7mLFmDkKcWg4fP4Pi37sMhyuWeb/4QnTsOEYRTmQUFAoPIeQMo0nb6rroCi+66C/7GZnQ+twtjrK89bYO3phXFUABx6qBSmT5A0o50toyY24sky5bX0gHNWHHW0myHaP9K8NG3swl4J6KYjE6h50InTj39FE7/4Ic4d/+DOP/9H2HqiWesTp/RKDneZTYnM2eEy2YT6OeKDkwlc5gsuchT4jnKoTr9/DWIenwYpT3Pandwlj3r9iHq9SAVZht2NMG9YhnqKKunRofZ9rsw8OQT6Hr4fpze+Ah6Du1CdKSP+jRLOvN9Jmsi/UbzWS6g4/pr6AvNIDI6yvpoHyBqWeoTj43gfjKGnuPnMNA3iBEqjRF3Cf1jA7hw9hSigwTqybQ58tGmc9XpL+Wo80ZjEdRvWG/kTssJ8oUstKGaBbkVNJxS+cagH5X4k1+r4SUM5jgx4yTORgEbgW6BBP3WZyXou9a7FtT7yGZyUwGMj43T2e8iYC9g9dq1aKZAmy3t6cCbpjRASY07+0mvwqw/YNQTalbl8/OOE7scaFVDNVzOq4rqFBL41iwN7WJ+5swZ7Nq1C0888QSepMO2ceNGgs0J3HLLLWbDMG1uJsA5Nj6Gg/v3Gxx4152vhptOWIogW9OKW1vb0Nvbb47V2r1nHw7sP6ClNgiHaxCJRvGG170GtSE32ue00QGJ4tCR4+Yor43PbCYI34tMNof1V6zDkqWLkMmlsHPHdgO+b7zhRrQ0txAbaZp2yciS5KJcLprpP3kq2nNHj2Pfvn04092N7bt34qknn8ImguKhnl6zkdvr3/ZWLKVR91Pha2A2SCfokY1P4UJPP557djOOHD1q1peHaJgWL1qMdevWwiNAbHfg3NnTOHzoCI4cPoQSAZpA/BwaXxdpeLbrPMv/LAH+M2aaeV//AFpaWnDdddeYPRumZ6xjyTR7YMXKlVgwf74ZJZdS1jne8XicPkcIbk0DpewnohGcPLAfh7ftwsTwCFKFPHp6LuDcjt3oowEeGxrCVEuABr0WAV8QWRqjviE6TQQHZ3fuwXhfL5oWzMf8V7/SgM/oUB/2bX4evftPwJHKIzE1jb5TJ3CBbdjDes0ko7DR6fPRYRilwd97/6MYfH43YmfPY2qMBrh30HTMFGica+ob6e/JSaUzIqeCbesiU2gqry2exui5CzixfReObN6G7l0HkRwYpXObw9ZDB9Hb3Ys1K9fAl8zg5OOb0UNnpTAVMevtuy904SDrfOjwEdZ5Ak3BetSEmw2QMms/9UXOiZnKLoNKfchLg9NRnOnswoF9u3D+6CHU1/qx7OW3oWbhctjZvm6PE9l4BH0nOzFy5Bz6dx1l+fZijMb2+jtuRzsNq7M2QNBFbiKoL2sUUow9azHF70XymfxxDUpQcCq3quHXMJgp5QJkJrKlxD+KajS1H2ORjDM0NQ6f1g2Tn3Qua5HtqnYvmbV8BL8+D+yNtfDOa4V/bjN8S+aiXUscNLWUMm9GjMj/2rjRTTASmN+K0LJ5CK9dhvql85gG05ndiEej2No0TUXT5o7SJ5rP41YvIQuUV6cVyySN5uV9OwGV0+ejc2zHWCaG/sFBc65yNDKJlL+E+mtXYvFb7kD99eRdraOkLDrOnEf54ElWOwj3musxGRnG/uF96EpNYuUNt6Pj7rfCvVYbNIWItXz0h11mkOAidVeEMtgwZy4W3Hob+o9dQNuyFfBeuwFO6jhHvojY1Iw59nRqZMTsCN+8ZAU60xnE587BopuuhbM+ALvHbqb46lze3qFpkseP9kVLUbd8Cfx1QaTiM5TxixgZmESU714cG0KE9Q4uXojwwnlwEaBSJdJPYl1sBDka9XYROESS6OwbxlQsgZrmerS1t1J/pDF+/gLOa+Owu243RwKxYdBNmT56/AySBN+N169BePEceLQu2RfA4MQwTvafR3wmiuzgJMaGx1AIBbFowwazg31JpyMQhJop3G62UdAOD8FBjCCja2AIF6dGEaqvwdyVS5GgTZjUTKy169GwYgnZgb4egdnwmX4Mjg9huCGLRKP2zfDDP38J6q7ZAA/tnTol7ZoSPjyF4QvDSBEYNzCNmvVrCJTcBLQl9A72Y3KQOnN82uxhEaNdDXW0YPGVa2AnWBW41S7L2ivFVqa9IK9o2dUgn+0dGzX6q3npXHgXd+Dg1t1w5kJYdc2N8CxsJR0cKE1Nof/cRYyli6hfshItBKuOOp1jnMbpnk709/SQn5xomL8Ug9T38cYwajcsRWhRC20daUMQWoxmMN09QZ16EcvXXsl7S2Cr9yNFns9QV9tQgJtASDuV56djBMujZj2+7+Ub0HwD+Yp/Fy/0Ypz3gnPmoO0VtyBAXgYBjs3vYzEJXONZTA6NYmB0kDp+AhfHRxFh3UOL5qFu4SK4Q/WUHXW4MGqklbbBSR8jRts5NjNNXp2EPZZD45ylCC5ZhUQ2j3hLHVpe+zJDBxdtvMvvxMTkKIbPdSHNvMoEiDWUkQV3/4aRLXtHM9NnabPMSlPpBUrFn+rYSScxSH+mh7KTYNsvW7oaodp2DDxLm+1yYO7vvh7F9jqU6RM5WUZ3hklMxTE6OILxoWFkCeLmrFuDMwTvtvYFaN1wNdwE+j6CUC/1S2SCNrp7BJNjceoHF5bfcDVar9vARJI4uWsfP9yYv3wVwuuWwE3QWpjJY/LskNmQ1rugFvlEBqNHBjCVKWPu619jjnuLsJ7doyOI0bcK0Dfx6hiz6ThylIdzz+9F89wWeF9+jdm4bvLwcSS6epHoHUJpeBresSQK3eOY7BmgHnOhZsUK2P1eM8AoveWkHrOVnYgMjKH3yCnMTMVQu3gZmjZcCXgciA1048i+I8TsPiy98iqEGyivvedxYZR6eOFiLCJotteSD6kno9MRDA0O0F+cRoQ6r5e+jSbwhNcvQWDFQhR1LrzsMJ81xzbSP5Ki1YwSndbSfeECXKEwGijXwkzaXT3QXEdZW47ml1+H8K3XIch61r3yarTdfgPa1iyHn3yn9DJs1+6j9PPoS7Tw+sJXvYpsxsyp8s0yDUWpbYbLTIqJ8kfMxcsDf5vr1fDiw/PPw7Zjx+wPKyT/7u8uDUrbhoeHywIwlVAB3goVcHP5dwEF7Qzt8WjzFT+GKexHjh+HzvJdsWY15s9fZHwEjZBrGqvk3ALbWg/CxpXCNamQz6h41e+ndH2f+QxC//IvyupS0HTYSv7VUA2/LGgdtUa2jxJ8im/MpmnFIlZQwWoH/qZmGiHxML2jialJHDlyGPlsBr9B4C1wGqMR8vlpzAiIDx44hMMEUDOROPyBIK68agN9GjcOHDiCd/zOWxHwZOnUOGlYhrFH09CGxpAnqnE4fVixagVuv+NlcPN+LpfG3r07zTniN15/E9pa2pFJ0bCTrX10zMrmKIcCCsxTwLvn+Fkc3LULw7EIHD4aZIYSge2yeQv5/o1omtuOZCkLL4GjxnMnCSp/8Mhj9CXKiNEANjU1YC4dAcmO1mZff+3VBKMec1TF3t07SJtjVKJFXH3llVi7fj1C4SCmCWIPHzuJQ8dO0Om1Uzl4TAfFNddcg9bWZjpGNDp0Gjdt2kzdkMd1pOUcOqxmYw46Yrl8ASN0aOe3tcBBuddIbzIdMzvqTpy8ANtUEn71TtMZzNNhdeaYx4IGFG5bCX9TG+bkgMKJixg91YPpSEJ7EiFIp2/BqsWoWbSAxsKGxPg4Lpw4i3SPNjARJhAQYHqyCgSm/sXNqL1uOWpq6pE81Y+eHQfgSmXNOr88dU6imDPnyLauXoV2to8zQKBapGMlEEyHxnQQajMjOt7TwwMY7u9BZHzCHOcTztn4bhi9iSn42hpw0xveAFfehovP7UGCTrh6mOXIFAIOzNgzSBHJN8ybhxVySBvbmT69Hi+BCcFRGXTMaOLBNkQ6gtT4pOGhQTqqZiOrch7r1i6mY7YQjjIdaTrjyOcwdfokhugMmKF6ljlBxyJIJ2fFK26Cu62ZziKdKjpvmoInLa0uEdlZ6VkLw4nLrN5tjU2y1uZ7NfwaBqFbmWBFNWCloWRA2agC1wU+dLrvAloph26XdXyMrKlmY2jvfTvvO8zDikygxOuyx0xCJw1UzKpuaVdbdfwJbhSZeFlgyPCPbPPsM9bj5lPFU9AGfi6NxjPknDkUCViUr4tyZdfU2WgKSYLF0e7zmCZwcRWDLEMR3noH6tfMg2fZfNjDYXjsBByRDPL3PoDIl7+NYmAhGv/oA5j0RtBl34dUOYYNS+5E/cKrzcibpjzT4UB2YBATZ89ivH8ADura9pWL0DhvCc48sg3zNXp49RrYCLoKk2N06M9gvI+AjPJdW9eAlrb5uHC+D7aly7HsWoL/MCUiPYNU7wUMdnZhejKHmqZ5mLtqGYJza1HKjCPaeRhD2r055oPbU4s4dbe7pQmNq1ajjuBbm4DpCMVCKc0iJuHT9GwCmpljF9F7dhCFogOtC+eiWSNjiRimOzsxWsxgzmvvQLmVgMHmx0TfAHXXMbMMaK7AYlsNHPTHigI7x49iaGqEatQDT9KOTCKL0IJ5mHfDNXAQYOWo5+m6EzCy3bRTc3EK5ckJTB4bwOCZC0jWeTGvPoy21ibquFFEqdfqV12BZqZBI4DcuRGM7r2ABOtavinI+nhRPBNB2N+OBoIm74IW6p+Y2dAtfqQT4+fHCBSa0HLbrfAv74AtP4Z4fxeGTp1DbjoLO8FvVhtl+jxoXLkMc65aB1tDELFy1uhvD3WuduS3pUpI9o8R9F8wYKemsYFtSf7oCOLY48/Ak2nBCtorz7I6wJ9HaXwEw0dPYyZeQPPydWihrlVHZq7vNM4eeg4J2qrGhqVob1+BkeEZ5ANuNF2xgLaknrQpojQwjsSxPkTOChTlsfJlN8NN8Jdr9yHmkRwU4adl8RcSsE2MIU1wPn6oh4DFgcDNK9FI8OMgIO7fdxzxvnGzYWvjhhVwLGk1+3fatZcIgV76VC8mzncjliN4p63XDGBPQxNaly1D46LF8NYQ1FK4NDvMpn1RWDZtEje1/yBmaE/T0QQCBGPN7YsJsGsRudCN4sJmtL/mGhpA0jXBdHt6MHH6LEHhOBwlgjOC+dCihQitXAnU11CWAsauOQS8Kf9Fp3wP2j3a5+iF8xjr6zOd6g7ms/KaG+F31GHk248j0ViLhe94JVKkiYN2xU8fxE5bFz/ahYmubrPEz0/Zmrt0Ps6dPANvxyrMveIKeBppswox5IZ7MXbuPCaHk+TFOmP/51+5BJ6VbazjMM7sPYjSlAvzl6xAaE0r7WMJ6dPjmN7bjZw9jrrbOsjLZUS2DyKZcWHR7TfB0xxG/NxJjHV1osg6hm+8CWGvD4GJCQLvUXRv2YWOOU0EpOswtvt5DH77RwgW3PAvWEL5boAv5UDy3BB6KXfu6zbg2q98DmigD+bWUV4pmk8tB3QjMTyO8ROnkaZtblhAeb3+ChRYvlxvJ7oOn0Ap7cOylWsRrnFioOc0MdAQGuYswJKrrjK+SmlkFPHTpO3Z87CpjZ1MczIKL3VFy630x1YsMjPo5HN47dQ7bHdnMkX96CYAZ51PHMWu555DbWMr1t10M8ILSbMgNSt9i7wjTx3qgEvHAGqfHfpAGpG3JylHCV7LFTB0oQv7tj2HJPX8b7zj99CwZDV5gPnIIZDtoD63fAIryCbM3rLwmi5Wwqzu/4lr1fDLw0c/CnziE7M/rDA9NYXa2lrKHz20sbGxnwu8FSr3zMOKxrBbI9j6K5WoOCTQRa13YMPZnGRglxnxLmlKLZ/URkQGeKtRbbxmWlLvqVFl3G3wf/azCH/hCyavShB4qKznrYZqeDFBQFCjr9qTQMBb+xNouYSillEI+mjqjjb/keLT1G9NwTZBzilBZjarqeR2Olde8h+foWHUqHquUKKRiqIuTGNWmIbb50SJKDGfFcgnoKLSTqZzZnOWmlq/cVDLJUFDygfBk4OyIceoTCOn9DXoRAliLNDMW5u2+ZhGieUUWNS0ZU3J0zouTfl0u7QpTh6JfNqUx09DUSzqDGeH6UxIE1yb470I4lOpNApMpy4cYro0tqyHRjVMlxflVXW1gmRYJZAipqtNmmkWgcReT2hkXmWQFhAtNcotYC6wnaOS9/m81BdFA7zndrTCls2YfFRejSyYtWuapsVyGbSnfLXFLw1IopHOCA1QDVP30JGhJ8tM+ZDOpPQWUNA52FQWLtbbqfSyvK81YmYUkN/tKhWBKNMveJhevX67UKsDgJWe2liXZFHUGjJSXq+ZMqu6mVpprRjrZYJZa0Wdo+my/JOes+sYpSQj3yEhjYOX1+Zp0nPKQ70EGhJUiuoncfEZ/dQIBt/hLwJnej28p118yyXSWLMCeMc4x6pygTnlqBflJKXi6lVgGowpvq0pqKJdMgFEWE4653BrfRnpqm3Wm9i+rEJcyx8IwBw0wuqdVuemaQMGZmHKkecNXXHzujjeulsNv3ZBzCm+0KfibEMJcJtobGcRnX0X0dE+1+gCdXILUOssfcmGls842M7icYlLRu+Jn5mOuN8nVhZoFnPwHc2EyJEpspQRRXGKeEh8Qvay0jLlkQ7hK/wu4G2mwSs4tFM5pYY8aafO05m4pgIaCdfeBFk9TNBsRnbI42EbopTzLHVLuOCCN1ZE+gcPYfIb30Wpfinmv5dOy+pGYN4IyxZn8guZRpBpeqxOAo1KMi+nfBWCO+3LkKVYZJlnqECAn9cUWeo2VsBJUOPQJlw6sk/TstXBZjrcqDfoDGvDax216AX1KukqsUKOiZUpa6q8k3LnSvKTMc/6ZMOsh0aslA4f0CZolFGzjIX1zdqysDlzTI/tQf1sDv1XA0hP0DGXjtHmT2ZTJZaj7AtSRfBZF8vN24UEdahGy33U/SWWt5SFS/6T3pEOkuNEmpkMtTGc34uEzkWm3nbRH9NG1eQQpp2BW52LMSYaYx2aSb/4jNFLpjfFxjp4/PTfCUbTGebB+1FeL0WRWZxlcUvwDtDRz1IvNbDtgnxPm+Vph2sWBQQysBNo1RHg8SPnipIvEnCxyI4U0xFTSd+LcagzdTxYlm1Bc0kV56JKJD9mNKoseogzSUvTUcTnbUyEFSlHCNxA4EGblnEl4PBpsym2kTY8szHTQC3z4Ktq13KEebF+GtUuNzBNlls2Q/qUVSu5qdfFm7T5hiZRgUS2s4d5E0RNh8uIs4o67ixUJO1KaZaIejVNmqd5Q8xUS5rJ9kgy2A5lopg87V2BvGx3U9qYlDkubfYsd3UQmfy1eRqfM/bGRn4pSQppBUgbrcFWcrKbxSL9lSwjhdYuGmspFWlVkl9AO+toCLHZCnwvizT5TMuX7ORryZtDS7dEP/kXWkbgYaXFH8yWFEWG8pmgnMoH91ImvbThTtK9rDzSpIlmVsi+nhsDFnSgUA/MeC0fPsA28WT4bpyFSgrFs6I+pq2etyR5q7aDdpXANk/+IEB0007K/tiKfpoqP+nB56gwCrzndKRYIJYzyfJRG2V8Cdr7Ejz5AJuPhS0wjXbmI/s9SVq56/idHlKA79jT5oSXpDuAWJAghnWoJY0DYp8c75UztIM5HP32v2Pk3sewONCO1qVrSO4gyvGC2XCsv+ciXDdehas/9zEUGx0oOIsopwl8nepkID8ImYon82xfZl8ISSfmCOJZbgNayFdiAcmmjeViGxbJc3rNQZ+LVOG7lD/t5B+m3MgX0PRv6ohCjR9xymqSMqflhx5Gu2iby8JToMalvihMTGCs6yIGdx9hG9kx/9r1qF23EKW2ALJ+yir1M7UNbXqRebkoa9S5CdJ6Ko+pY2fQfegQYqR168uuw7Ir1sJV18Aykt/EB4yapGSKr3Iq8Df/mShR1adC5VO8U/leDS8u2D72Mdj/8R9nf1lhku0q4K3geN/73vcx8202CHhfAtmMlSnnigr60FTxIhW6djrXmlDtHurRBhhiBjrqWv9pvWM9a8z4rNNX+dTNPAFBxf9379kDz7591o9K+OhHmR6FgulVYzW+mKhQ2f28EirfBRq1wZk6hPIEKk5Nl+Sz2jWc3Er/ia4ANZPO2NaGa3beFyjVM7ounycQ0NnS2myQ4Il2oEjlXDTASwbVbjZM88kgGSank5GjIeBtDx0sAVSloXO5VQ5JgkaH5cVKngSU5ThrZN1svsGglDU9TmunFeRgSyaUhlM9nfwsUOaUn4vG3TlbV2vzMypl5UMZVd1FB/VjqU6aMqgokpUFrllfrdGW7KqzS9cluyUDvKUHflIXGHrzOWtWQcmcox4QyPdoszo5VEwgSwLJDDFvMy9eG9xord3sOkgn6+4jXZ0aodE6KzmwNN5ap5p3l8yxRWm+W9ZILuuncqtdtKa0FKCh09Rqah2Vq0iaa5qg3ASab4v+9JEMGFaeQToidFDLKq+pH+ujPOU8833jFGmKNh/NM2Y1gs1o026sWj/LhrNpbwC1v4wtn3d4PSwX66U1WjSm9KVYJpbPx+sytixEgQ5IyauDVkgvXhGcV9lET3WWsGHMszZt4qIbs9eMg6ao7+odV/n0XbMgdNRRhY5qM9WHjpfW4ot/1Mmi6psM2U6ikiKfNkBKhl7Xf1p2qvHXJPJPU8nllCuq80mfeX3qHltTHYeRmQjqQmF41e58TzPMNY3adLpQzl2UKycdeAH1NPlNG4ZJ00lGNCrqLFDusuQKglQ7vTG9J+QnDCTsqbz0JxbX3n/M3nwXH+l55UE8aHhJioWcxwu6y2/SFeRP7aBcpNzoTH67Rl2kx2YZMUt+Fmd68tR3WSdmTp7B8IkTKLfMRfONtwItBL61ORZPXYINTJMOLwsnWcpSnxQJmByUDfFzid/jlI0o9Yfb7YVTs41YWJ1kZmcZtAmdET11YqmDjTKrNcEZnxOmn47Ou4rm5nMGeJe0VpQ6QwIj3UWxKxm9RDl3h5lmgPeZjjxZ1Zv0UGcHycd01LGqNfCkqWRYOoZlVp5mKQjLVqa+KGs5gGQ/Rz09o85V6g2mJ10vaRU9pWu1Zr6gfKmPZJN0TeC5pKml2lCRNifNOuR5XUtmVFyrc0K8IMde9SWgYBoCsGa5C4FcWZ0PzKvIQssPM8fSUc+Ugw5M+gpIMQ2fq464geBBNFOngcAQCKL028v20Y7npK82q0+QIdSnytZkvnqeMWDpXQFP8SyhClW8x9hBO0Ghg7TRaQuWI8iXpePEZNp1mnSy+UJWeUnflIAmK2dsGdMusU7a9EtBOk8MWgpR13q8bOcwqcd7RrczsnxF1i1P/hQ9HS7SWope7aN3vDZMu0qmj8RLG+vN58z0X+3MXfZp3bMHdn7aREt1KDvI0/ydpj2ICkiZfGj7RHHZMxvTJa3LpgOF5Wf9ZbeM02DAsT71QdqTd3N8X0d+mZlLAvAsh/jARvqVg34zap8OemhfKLesg0QuSjql2HYZtmvWSx7RHg981y5/QbyrTmEJAJ+VACdIuwjTVzez7JabdXeKRgTsNrW9j+2kTgvxSlj7DTBdllecqL0bla9N7SPfxPAOC8mqSY5UxyLtb6yQNef5yx6qQyLD98uinY5pk40sFVg2tq1kwsb3eD9FUFsgfewu6gi2p032zaOOI77jraUuZH3DXrNsJesi7qCcZzx+8hLrzKxkS120/+r8iduScFAesuk08v2TKJ4fQPzwaUSOnka8b9AsefOvW4XG19yG8JoFiHuLTNMBr9dNXhTdRS9G+XT8LLNOOfotOfKQ+k9IXTYf6SVB17P8XiD+SVHHZSWvbD75lTbZ6ZA67sRvLCRpa6Mc5MkDaTaIhmNcBPnSf8rTRb2kzk2jQwJ+hBtaUJxOI8vyZ/uGMD0dYRkc5vSeImmfJn/KB3EW+HwkhanOAQzvPIyJ/cdMp9bKl78CczZcjUIqDWcowKrIA+CfGMcwhDSMFXVHvyv3pV/NM/xunp/9rMYXH23btsG+cyfp+EL4ianm/f39PzHirXD57/9wjw2iDZ/UOyfHX+s70zmCGKcXvlCQgmVDMpUy7xlnne1G1WJFFWh2xFtNK6alvVYmCGjnv89/XlcvBR0fcjmAqoZq+EVBDK9RbQsoWwJQ4R+BVbGyfhaKOhqLBoCKTKPIWl+sT6lVBR0fpiAAruO/JCxyJAsENx4ZuSyVmYsuLHnZBo06u5DL0dFRTzMVqzAUs2akUs+laWjK8BIgFfMEqlSKcnEth40qjppa08x4kc4IXV31alOJy+lSGfWUwLXkSfVRMEqfXwW45IhlCXy1vtN0KjANBSl/s4u6njdXGPi+RvjV8SBgLgNt6mwlhzydlxzzVLpm7Tydq0qeeiabtY4Rc/O6iwbF3OL1dDqLwcEhLFy8gA6ENjgjCIxSduWFsRxmEbWDdaMh13Q9+RasuhW16ZgaRY6xjB3zztsLyKh3nAbJqAf+7ygX4EznCdRJP7ZVhrZZx3+40kUE6IwXaNTi9A4EFhpkwBJ0LwSYWRaBfHMmLusqh69EY2UcPjlHCsbp43MsZ5FtoV3ZM2xbpeXjO/4ceSaaZJ3JI343nQTdo7GUsx2nM0gnVh0H2vlXDqib351mPldRGxjTyPJp6ksZ2Et8ybTVjGZUgFkbx1GVVTlZSGOQRRc6SKZ0fFhXtTGKWku10RRUh0bE1QjqYVeCAhZyCPhdaSjIj7W6uq1HTZp8pBp+PQPZik6cBX7VZJcHNZtpOsrJyGA/5rV1GH4z/GPalv/xq2TTgGLyu5peR3+l+SmMI643Y03KQKNqUhl6l6yjkWP56mZzKUZdpqgJj1nJMypBi6cYmYf5bm7oU/xKTrUzsgDqQNAosAClV2BWZcoTflHWDIhleV1pF+yJArqf/DG6N21E26prsfo3/xDl+XRcvaPIFRNwl+YTCNFpkR5UXVhWiZiXOsmdSNEZpdMf9rE61OkERkHJgJ5VuUWwIoFtjq66Rr6p+7RMJUfHNyH9z9sqtZdvh8oZuDSzJE2d7641wEJTUYvuFPNL0NmnXivWIcCymOm71IdG7tTrQd1Xpu5QlPQVWVn5OtLfkvgSaVEkwbRMQPvgOFk+t2bACDVHBWYJRARmGArSESS8TFGebZJyUW8XUwgzO+1DomPbCjnq8TwBJIGvVqCozWRKnHxXzrPo4yFfODXboFggAKImZYHsedoFvltk2iVtysjymc2+pH9JnqKnjD7nNNPIYW62Fh7SQgCRBGJ5CEhLpI/oWCZwEHhimXJMJmW23s+TNqyXISrfIaiRwi9TNxb5jkYGtXN0Mp+lPvXyNvWw+CkrJUs+of6zOqPFP2xNO3kgy8R5O0emLTszcBZpU2lLaQ3IQ36rX0Sjz2zJnDtKOmscsAb2DGlreJsFdBVZxgJBjy6U4WflXVExEXmQdikn4M2f4vk60i9I21IuZVAiGNesjCzbz09m8EiIRCcC3BRpPsWfcaYnmapnqwdZFi+jaKKZFLIUfIRcSW0se270vG6wTvwqPaznEsw7y7bRMZxsWdi0zpl5ulw+/nLSHtGvlk7nO01MkY8jwTsZm0a+xZUaaaUfTSAdpJy51CBCwCyHURj8miGh1DkimdTiFD8LZqYsmxkj6nxwkccIyNUZx9enNLuLeQaZrp/piM1NATSbRZuPlugf+WQrSW+HBt7IX6yfZoyxQZHJp5HLOkznTZA8ajrvmD+KM9b7qCOzEjCbkXDeJPEd5B22BgkWs/igWINskrwWoH11FpEpx4zPYy8HmJc6bpgEiysfQflGMuMI+QK02Ulktu3D2NYDiHQNEox64QnUwVHXgKVa83zDBtPBNGiLw0GHTZPlnNQlhNdUG+oMY/GMLBAwEdBnmX6YNHPJ/sqX5JOmw4jfk6RVXIMc/AvxvoP6Ta6ClvRpNoEGXByaEenykN3MHArQXWSLsc6M8gU8fM+bo04gXSQP4piSRtz7BtG3Zw/Onuk0x/AtvmotCnV+pEpJOHxMT/5lIoOxY52YvDCIBfOWYN0rWL9FCyn8LJg66DVAwcZTqpeCsp69oOzEJoqVa/pQk/zEO9Xw4sNHPwrbP/zD7A8rRGZmUFNTY77bRkZG1AQmyCG0ALMk9YVQcb7NfbaYRvzUTOGQWNGGRFogxEnG9osPzVpb9daZnknTeC8Ab3Gzrumbxy/hIe/yP001/+k13tqQSrsyV0M1vJhQATUahbVGbS1+VtCeA+I6M0JJXtT0TCtY9wUo83kqSCpGRQF1BY0iKh0ZFFkwIxo2zfaYpiGiSXRpB2saHRpTvSKnWdipQEdAx3H4fTKHgmnKiSpWypxa16hBvl8o5wyIVU+yBbRUSuZFubBKxiAH0pSBbhvLUelYKGTpvGg0iekKlKmuuXzOPOd2eMxzSqoC2s0n3zc0UXVmg+7ppwFjujcb5FNqR3Vdq4x4i67mdRWR33VdvbGaar5q9QpKN51B5uHRKJo8ZHm9tI4aDc7T8hZ4T46J1pSZTOmMyB21aTSGzxrQwTZSr7AIoGl7OlJNVt9DY6SROjmvNMt8zpoCF2I5NVKvqXQZmrOwTVPTmT4dBNHc0FTtpySNUeM1GU1ZGlluTQvUtE95BvJVGDXaTUqxnIwE9mYUjAZUU7wLdDbkPLtzcgBYMdWFtCnS+ZZPJWfPoaEdTTOlBVeZnH4vnU478synKKeOZVDnh4t6UxzCFJi+nicdyIdmeYBH9CPNSANN/00IXEh/8lEdehdkGXyanqayaedpKVN5IaSlesM10imrqtFJU189p5fpgJleeF6qhl+/oKbSyJtgjORaf2oqNZ2ajVzBNiXw7raAt0sjVNo4Se2t9icbUSBM2xueUtCLjGagTYkx6IP4xgLDlSjBVqhkKGPNaJZJ6GIF0CqR2UeNjdfzTKtM3pU8F+TgUzTkPFv+BHmSMummTGg5ih7WTBCBPnuC93WkErm7bM9QTugX+LXzMXWJbYp1S7MoHXxF8sBi8kOTaZSnm7Jr1pNLr9PBNIVWLwPLUnlWM3tN5yZlV2DOZkCj9IgHcYfbdEhouq+NEKqBVA8yH1uegE/ARWlQoNM+Qja7tJIWC9VR7mgLBC5FZ+qdsqLqxLSlT3VUlECkdLGdgCZDImnqe4HE1jIBkdlFB19WyKc0tO9HiR6+k3TiRUNPMkCJdRMwyRHflgl4g6Sfut3MLCABaE3pVmcb665OP51sYXW+sqTUmVpWYjdl5D039WomBZ9mGNjdKBJsCoxpw0kPnXyPS7Nn+D7zn2RbaGy0mcDblfYgx3TMzHt3nklpiq00oI9l8ppZ4aajxiOgXCSYcxPci9FYDP0noyclZfiJOlJAlp956UxG6SlVl7XlI7TB1Hd2TS3OpxDw1KKsdmByomGRmblzMepMOwquMAGMB9r935MlXRw5Aug0yaY2CrIcaiPZO95z0zYQROsYSAV/2QEvAb3qmyOPqiPXrIDivSANn0fGz0bQ5MibGRE51pXkRU2SZZVt8dgRIe2mWHZxLlsO9axqcLaaEo+k2oP1Z/PR5lFv05ZqDa/JpSgjw4fYxjKTms1fZBlJUdZdQike5X0KbIF1kC4oa+M2vq7jBYVfjbw6NGKbprzRF+E9F/nO0F7AW0aXdDbtIB6QoJIGKpBMlmyWsYe8JNuUIt21hKyRqFEmY4DAWp0kjayRlqaI86xOFNKUUR1MmoJdoNFUp5qTL5kp9mw36Nx2deyTP0zvs8WSzJuF92g6On/aacUk0wzSQyaw6CX6ROU8/SsXbZvAOQkkG1ggmHe5xGN8KOtBWR0yfL3sE88TtLIu9MwIhFk2ynkgE2d2TFg9iTrKRMpAxPYSt9A3KlIeJplEltSltoEzRZ6jTKpjSzwle6mixzxaDkC/gplRalhEtRHLrA4K5qlN06K0zaQmS0s/hbQpsv3Ey6ozi85moLyS3pJPsZaOYNQmg/xqeF9UYDJsTvI+5VEslnEWyVusc64M/0QOkT3HcfCprUgSwHlrfBjJzJAMRdQtaMPq667EgivWmz1ztMwGKTEiBTkUNG2uWUxSgSZDfSoqY0bDArNRz+mWqR8jf5pYDb9a0FTznwbelTXeCraBgQHKkUj9QjCO+GXXKt/1KXdUPTTkG8NIWuuo0Tb5pNkClbKdjEuwbKUhBaq2FaepJ0fpWMDbTGmlAhYTyjDXffGLqLnnHpNPJWjqbTVUw4sN4rnKiLeWQSiq40ajt4pkMzOLokQjqGnY4kEFMwWSIZMhCFZHDzWR0jFTmJwazS6Y36FQAPmcnKskAa+cJ20gyOdpLjXqLelw6txFKTA6xrlcHj5Nl6MTISWmkXT152pfLQWHWyqtiGI+S/EowOGj+TbvMm0aQBkY/jSgXIZH67vlonjdWtPJYvI5CaKmyhf4vjocFHRP5bY6EOR4qMOAUsuCqc6OijHmfypzgcZJo/majumUseNt4/gpNz3Kd2ZJZYJsuFlSwjr6fW7TozswOIz5HW3GIZIjpZEVZm38B5o85EmXOPVAJpdFKF1C2EPnmp6CaGUUu/LhexqRiJdyRqeEaThq6ZzIOdKojwCJprwlCzRCpEmW5Q2xYHVMRGDfzDCQU+tyGuDtSEofkSZ81gBe1lvr5sUHZTmwdBI0e8CMuKgI+q4v8mrkYPCrSKxBeTN9TEqunEUu7DI+kztBJ4AOh10/WJZMwAnjB9O5CmaoJ1lgDaqXNd2chtmMJBonVJmpba1RABfroLVdZp2dmS4hWvA/EYbES5PWSf5O0IDGyHN0dVFHh5O+mlmnp+eNM6jCK23zVd8Zec94WTK4LL65rwZR1Pdq+LULaipZPkVxof4UxA6K0lZOyt5Y/zBaWtsJTp0G21jtKgs9G0zb8z8mKHYSi5hn+Ck/VPJUYQexvGRVPHIJiOumbohJDXCVbuPL5Cuxkh7XiLUeozrkBfJxjlwtNaRlHzL05G19CG+k6dl5WW53mvqOfJwOus0okJuIx6aRN1uUbuYM4gUfUv4O+Cg3zfYoM6ETn6un6Fm6Scub5TTL/3aqw4nglN4Ey8f8qcfoplqjzNQ58kG1qZyTgLDkzFMU5H+oc5DJFgm87V46uJqKTyeX+QdLGdQSeWq9qY3OvWqnvLLeDJ3gJMstMFsLj4A39ZgqX/YSvPIZjSSKzm6BnwzrJAJJ17IlJ+1J5CjaLtoaekgkp0A5HeJiBn7qJPlTjoLHWvrNcmvJiJPfRZeiRh4JLkR1J5VRMZNFhvXzugJ8h8Qmo6iDwyyT4TMltpWbPKFlBsyE/0gf6s8k09GJNOGEliR5kKICiRJIywkL510EDNoTpQhPLaG1LUa+KFC/BMkPbrPxo2YzuZiDt5yibs/zGS/LGYTXdP6RBo600XfFtFF6lj6Vg8f8beQHM1OLQftZ6GgvMxWZlzRFXq2mNAs0jk7yho8E8TE/O8FjMes372fVRrQi7mwCfvmdrlrqe5/ZZ8xHOpXtLJNPsxK0wVyAPEm7H7PmM+SDLmQIlsWHAqiyIw4C2hx5I+2zbJbY1kU97Gb5nOIn0rNABKbulgKJ62GePiVHHitpiQLLb/azIo8H+NkgFiTNZdPUBhpQ1zIJF+2GN5tjOXOWHXbRPyb9bSyf1nFr5nnRzwSYj0sdUHpfPEXZU/2d5CUt6yr7PcZ+a2aCLU9+UP8VK1Mi2s8R0GpE3Z5k5Ds2T9DUSTwhntSyaoHbsmaeEZiqnTTrQ+nJfAl4axmKlpfVUGdor4RpiTqzqCN9NRqrDuOc3qe8aIlHSTPEZG+ZiSvjhou6gZcIBGJMl1TTdHSbj76Ml/JImSBNygXKkDeOsoc8hRBKGSfpw3qrbOQPdQYVXJoZQf6TnBZqyC/kJS0XMbKbNMqknCGgF6jn82UP24P0cKZZUZ8DMdIibUvTNyDdGdXxbFOPI21uUWCUPpsZICzxOb8GMUpokU/IegqTlPicnXpMo+9a8hajcstSrvyUCCdlQnsMyOtz5NiOTDdJeY2SppqqXiu2YflyUjDkIabEMkvxWu1QypJe6iTyULo0dV7NrnYn3SUeop9GvdWpESFR5A8FWLfaFNOnKixrfXmWbT05DNRTLkoxFJv8KNepA5F0IzN57JoF4jG+iXSMCiueVP6XdLvyVeMyqniGZxmlxiu3VOpKrIZfLdg//vFfuMbbduTIEfrVpvVNsJxsK/6s3+q+EUjQdNt0Kk0wwN/kmAIVjoC32+VDqCZszj/WKKPWXxm1Sma1iQko/eqBVWpxvi+9LMCw4YknsPbhh608ZsPxY8cugYlqqIYXG8QzFcAtvi3QIGkXTp0vrSUSXrd2G88gkUwbUBcK11qjyORU7eDp8VCR6T2Cmqx5L4NQMGiOLEvGIkilaRTcGT6jaUSWcXE66aDQiRM/Z2lgC3QW/V4CvkIKqXiEvkcJQU2BcgepyARPaaQIvGkykUnGaUxooL10RLVWinJiZ0JOPSNDTflSD6mZLiRHOkMDSACbkRzSeNTVhk35NUpvgCbrYXU8yCOz8zqdGt4LhWrgZRnUIaBzZnO87/F4jTJw0flLppNmRESdDKKdNqjTp+RYG6uJJgbQzQbl2dDQYPLq7u7G3IYW1NJgldwODAZKmLTRgaIj1yBwGvIjFaKTTaPUNEOgn85gzJExo0BhOrE+GUUawQKdcfmL9mwBLaRt40wBsWgMvc4kDRV/e4NwBLzoo5M3QePupVFqpmPSSGNaq83maAQHi2lEYzG0eMIIODS9y44Y9U6SxizHthfo0FnlGa1/4vtBtnkNnSG/g04AaawRlyLbXtPuM2yHAi2TpoU681nYwnRK59XSgBNAjKfgjBTg08YtgSCmWe8J8gRiSbTFCmiUA+ix0WEtYIZOiwYiNLvBqSnwTrYzndMyaWtLp8yGP2HWTZ0AOkc0y+slmnsnecgW4nWdfcv2Lidj5Aq2s9eDPB3R6VScYL5k2s9a303akUXMSL0cDqanI3usIBNKXTw76lMNv76BEm/+5AxVopwjta0GrTTVdrx/BHPa2uCnvspQXsxxYpRJM8DDd8UPdo248nk5XXrfdP4wapTPDAIxL3GFmaVC2XRT97jpfclv1JIy8wT5xUwZ5zuaepoj4tV6Q61L1dpHB+XDnSIP0qkMUbcFyZtlgpwMUWSRMmajnilRH9vC1lE7IeqSaC6JQQ/rx2dr6ZirAynrmkE6lCNIamd+8xEkSKyJdMIVT1AG51DPuKjXKT/yuT2aXJtGIUPHUzqLlSwHfNTtQRQmqK9r65FtCCJD0OeZjsLLNPIE3hm+F2C92oou6nYHBgp+ZGvoqLbJKaeOiU3Bk8wjGA8QzNVYs/JqbEi5koiVp5BNZ+FP1VKP0QGmPBbkHIcIIEOkLYGFNmMMRktomijDm6Aep1wWwi7EGuxI0LPPaT+RNAFt0Y2Q228Q4DSi8FE/2ogp4jP0qYp24gkP6ukxh/l+tJTEZDkOb5ggk6AnyzbN0MY5BXzjBJWRFPUcwRZNUZogxB5wosbhQzBF+5JKIllKmbxHXTk0+muxMELbmCmityaPiUY7QnYfGqO0GxHpfU0Fz8LuSxqgU8qRtwhwpmhXBAKaaK+a8kkkqHciTjcCgRa0OtoJ8qkrC6NIlDIEIWFk3GHaK1q5fIa8moZPIEgWlnXPJrJwUV+WNLJKm6dTKWQvc5kkHDqtgaDEH3Qiy3Lo3OpcgpDHQwAXIvCys665FPmFNC8FqCFrUEfw3UT7mSvF0euYQJw87C81kwY1CGs2gIP1tGcwQXtUztIOE7Bq/NpFHVz2uzFZYBnJl0FiXk+KPquWJdCOlPx2pClseQFavufX3gEuD3KUqxzpr7XHJY3wJmjnUkXUsAFc5Ged8RzXFHB1tFDXB/mIQ/Y6NcM6qcPJi4LXD3+BNitmQ5rpDzmZJ/l4PeuST8Qw2eDCJEF/A/2KtnIY+XQJKfJFgp9uR9DM9Gig3bX5ixhtZX4hgjfynifONqSAlx1uxF0CoXYz9X9ZBPCzjSLeHFJOPke+0iayUdo07biudrD7yJMuP7zRLKbYvrE6VoDy00J+bsxQvkjKBJsrS7ALn5P+C28TB5C9UIjyPb5bU0smpK2OZaeRoh+UocwWcgE01zfT/2Fds1NI5ces2V/lOpTSdjSTbtq9Pc5yzlB/pWvoP9VGCd5pSydJ43iJ7zfCRxvqjE+iTJ4oFQnIfa3Ih9ysT4J2NI92e4Px9UaKU3AQvNflCnDMJExHeLiuDhmvFwP0AZ3y96gzuyeG4eyoRSkWxaIY+TOeRcJFm0z8UusPI0ienymSpwoT5DXKjqsWjYEQZiYHUUsA31wKopi1YYwyF2/wkm8DCMXKyESJfbyaFUfdqw4FdRSQBzQY4C9Th9nI75TjlOSVciHd6mA7mSVxbCMP29ZFf81LGYgmIohFYmgI1aO1pgklyk6JbeYPU5ro+3npM/UNdiOhyTKt9ZhJUmbGYmjyNmJeTRuifLfoZf7U4QbUm3JYAF/2QHZF9kC+iemA4XddV5DNkL2pxGp48aHpX/8VzV//+uwvK+zds8f42saPHhzs56dFaV1QqDjX5rdAcuW6McT8ztsahTNTevmuwLfesVNodJ53iobVS0dRGwaYd2ajWW/JqB5okyaVvNkYiglqxLuW8fKQo2KR418N1fBig/hKQFn8KN4R4BRA1HdN+xP/qiNIowDaUEzPa0Rbo9E6l16gVCPE4m0Bb/UYerVBCtlUI7vqEXZo6k4xaXpxTXcijTiZmSnT0eFzZlSZbKvd/PM04gJzUmICc9JsOn9WolCg4rRRE2qNppkDyuTUp69eZJfWDasr0sgf3WhqcLPmiQaqrCl0zMCaTkzFzXJpQ588HVXVU1GzRXTdbTZzUDkZWXZ1kMmhl4irfAJmEkVRRSNIlEwR0ci19Yx0gaUDNE1KP+WkqMNCfQDKN5XKmqnmSzrmGCArAzJFxzvOLGmaECKttddaVPtA8LOJ9rRMJ2GKHr6WpASp/WUMNH1UgICtYwCAP0cnkIZMhot2ll6MNAXvk6bafVYbr2k7G03v8yRZNn7SAzVHf2iGgIvIQiMQGvBlUmYDIvoIZn2VZVSstXl0Lwj8bUyLLajrLI9oomBG7pUn28vN73Lw++0JtrYLjSU6nky8SIuV4jMJOmvavNjLl5v4vIeOnAnMREVTc1ptrPKpHuQz5qmJD+poKabyZqNK8xzzNzqSBlrrV5W/jXRzsV3pwZlNdNRJofzIvUyRDnk5wzo4WBc3S6cRHLYpo6rC15mvyf5SrIZf06AGU9szGtM8G3VZwbAH5WxqcAT1rW1G3iUjRNqG1+RMKeodw+f6OvuyOrUUxY/iB/GFgqwsReqSU2aeN1FP8AsdN3X8aVhGgCPHxMmJ/LTSl1xria86BYzO4EXpH+0MrBMctJ5YG0wHCGY0OiqZnCFQVWeBj2lpXXKWf2l7DkkCSs3roGuN5gIdZertsuY5q1L8p+Jox+2CdKI8W8kTL+aYj+F6ypL2PkgQ+KlTqpZ6N8A0Sg4raid0OwE0HGGqY79Zo6u1qiUCM3s5TefYBo92Ys5TFqnzBPEzTjr7vizrSbCrXdPNCBrpyI8Ey5DQtGSmI0AXJoH92vFbo6MiDvVC0V+ibmMe1OUaVXVIN2lEiuAqQ1Cv0Ul1kLnomKsOZvM6Kk31kZUJzguuPHWPZmupcVykD+0Tb3rLmuZr0Z2GA1mmpw4AT4nAUiOAOYJNOuWsCiJ6nu8FE7RB/It4i5gmGNdoWxMfcGlaNvWx1uDbHAnDFMUSfTqCvxR9NaZEOubNjt/Siuo8pLaDQyPcad4lKC4H3Ei63IjRnqpI4ikBbo0wu2gwSP5ZpiPxmL7sjFiXTcUoK8Q2JfgA2yHvkaZkCmWCdLZtspwgL2VoU5geX9bE7BIrxyoQ0DNhMmAxqHZg7Upe6lQBGfFKkeUvIk27RKvK8vN5CQHzV2cSS63SEAibJHhTBaLsURg0a0M+rJm9JFusTns2arKQRWQ6Ch/pXO8LwOPwmLaSDJZJ/zRBozZNc1M2BXbsBN5lJi4eiJLeSdKHlEOzZsyRBjPMU+t8g9o5PJ1EKkjQTPuoPU1q8rThAtPqhGdBbZIDFVGzREj6GX8eCWceAaYXZntpRFwAKsHH2IrkZ6BeI94iq5uyQvCvjv9iJkfasLxBrxnhzpI31QmjTrAS7XpE91imEMtkZrSQXhpBN3uwSIOwzJqB4XOwRXJuFOmXOKkIyixLtpwinVhxtk+xrMEE0TyLgEcWPGlYQKumtRzNS75V56BsYoq2LkYeztrUKjnS10e6qNUKbHfaYE0X5PNKt0Twq70NtB+Lh7KjzhjxUZJl8rrpp2n5Df0MtYtmW2gzw5zLQZupMpDm9JdsbhdlLof6NPmTbSy7WiKfaLNSW5Z0IONmPOL2Ev0EygJtr5/yjGQKTs2YdweRr/GbDi/piiCdDG3Ip3bJ02ibzW6lx8lXVic4P1kP6QXNepcaESuaGfH8LnlhdgawI0W9wHzLXtKPP3VqjfblMed1s1KpxAz8zMPmcSAr34Pvl5iok3rFSd53kj/UIW8SVWC6s4Q35VBB9GF0FKPYSvmYawwq5+wtq8zV8KLDz9rVXFPNL63xHh4h8L6MxNLrCmbzJf7lyGha56q7WfOdikK9UpqrQU9d6yHiiTh8BNq1tTUYHR0162cFXJRqBayTpS/7VOCnzQI+AknaXO2n13iLYauhGn7VILBc6TyqhBd+i6fIk/qYvWaxGZUifxuwY37y3uz3yrvWPT2n92V4dF2RGs98WnrNsLb1k18Fx610LNmylL51R2uKVFY6W9LAeswh903GwjLIerSgYyxoiDSNPZel0Y/ZUVdPt5RCGafxdGsnbT7roDYtZtPG8XXSyAjoa8dyl0ZteD+uKUqUOYFl08Gq5+kQqJ7qNCtS8zJnMyqrkKM1kFM/aztMqJBFkfbLKh/B4PkLPVi5dCEdaBorGi0dziND53YkqfdpaGl8M6UaOnmaVkbHmA52TtMdaRg1pcsnY6Xpqbxf0PFDpRwC2rgnyes0UOrQkEulzVdzuagxjmnTkULHx1NjpuzJyReKzpNWOlfbLqeGdM2z7gL+pjeXybHlDKm1FktHHQWoqxw01jamlyeNzO6qdNw1nV7POV3aM4A0YoUTNIYzhSTCoVpifAJcpq1mzfFZzfwrk3YCL3IyvYZAViio9533dGSTwIDWZGsDNrfHzfKUzCwJOcNeu3Qtn0vR+fU5oZ1ixX/0RZiINYopFK5ptOYd6loZ7kyO7c628jis2RSCIGrFSglUD0X9fqFU1fBrG9RYl4efajStabx47hwWLF5iNqgyD5DfrM33ZJotGVa4/FUlqyesp174rPCKSenyvA3j8D9d1APkP1lxSZ7e1acuU0RfAOwKlUwrGfC3vkqXWF/oT8xek1+oyxoh0lRpASdN0hSs8ysH1Uke/+VpMxqn1GQojalfVi3E+/qs9HtJzgXs5YHreeOTCO2ptnbqPb4mEKs/zSaR56Kp4MYr5mN6x3RwEnBIOs3O1rO6Wc6qdmyQDKsuhHoGZOqYJhXdBCXDaKaiV0ppwBO/8VrJrlrrMb2tsisPfihBRYI/EVfayNSZz4hG+lRZRXvzPKNm4ugJzUIwzrvqrSm+vG71A1D3U++ISgKBWdZb5fGygHzMqpcSsvFpfWU+RY3Q8YeKQmqZjhCTIcGjaXnlIzAklEvgqbXb1KZKxaStpyrRJKIbCib92Z/8LtVmGRclyFoI/JoUXOY1cYbax+riVlC3pTpadFP58ymXaq/khGqYoPWD7cs2YgYqg8EhSlC3dc/6aupv0tIPE9XuSoBf1cusQJ9Xnbrq6BweHkGABqmezrRmppm8zDP8yrJXlmGo+QwPsw0E4Iyp4kPiJW3eqaC2MdQsyPazprRf2nBMU5Vd4kPVRYlVgkUQ85KWYen4UfGCtL+KrHqpD0FR6Xr1Re+QLGbzPz0zW94SdYWoptviQM1+kS6RPVMwHUW6pvxNUSx5U4KimXbwl6wYEVPdSUR1hSk9tY9qoccN7xt6iuK6pG5zyRp/6GGVme9LnmTrdZHeCt8WFayU7PK79LwEim0h2ycyiIpmdjd/qy6m8088oR5rPa+ys400WGHlznxYYHV4KW0PnxX4Nx0nrLuay3S0MGFLpqSRSB2mp81yNcI+PTJJfySIQEOdmUmkLEwHmL6JDvqmi6a8l0UFUx7rs3K5wnpqL0MmYSzdYT310+JsVUMv8o4GblhQ0dycYqBrTFQ10vR2zSw2yzuUqIL1uvWpWLl+2WflloIuV25Vw68Yfs453po1Kxwxyx763zKo+mVGs2jYFdxO7VhIxlcDixE0FcLtQSBoTddweuik0nhpOo41WkjD46ZAscUMU1xKVcH6VfleCRVgUw3V8FIEKSbx1OXxhaDvZHtpK/Nd963nFS69c9n3SrB+m2/8J/Nt3E3r92xQqhVdpyg1WPmlPRGMIjQPUSZmi2B8DUX+VLDkxbqgXc5lrBzGOmlEm0bCRyCt93hFU9kSKTqF/KH0XZRNc/SY3qNMmqnqTFzAVQBS4N0YR/3RwXHQ+XLoHEv10KvDgmmm0jomkDVT5xsv6Jrqrc/LQ4U0oovyMD4bnQCb2w6/bG0si2w0gWw2ipx2aWWapRSNdlm9/zQj1CUyli4N+bJc6XQGWQJODzP18P2C3BECbY2WOeiFu73UQ3zP5aGRKcThpuGp0U6huTISGt3hdTk8iaQWQ+XNkoB4Ksb8CmDVtQzbGHmtwdKGTD6WN8CyJ8eHkYtOGUPm0NqrQhaZbMoYOodZ805TpsqSPj6vFy3+OoTY/tm4tZxG7eWmwdbGOO6czlTNsc58n6/IMUhreinrFI3HMBOLGF3pImgXQC8kktS1pIN0JttSI9witNPrQo4OTKqo5Qxye8kuqgDppF75PJ0zt9qadzQeoB5/jbbJlZEDNstal4J5f/azGv4bBDXU5fGnA6+ZDhx+Su7kIJoGJg8qVl5TvDzotx6T5lJ0z0Z9v6TJLn/ZpMsv4n9FXtT/elYaUOBY75t3K2W4POqGIr9rRs2lNPmp9/T+7G0DGnz8X4txtHmg5uqYO1qQWnmvEvnb7F3BP8EpOeh6vzLTQ/Wh6jDRdFapcAQI5o52W9NorfQkL1N0WZbZzRv5p1TM88qHhbM2iFMeWvOte0pvtgz80LsCUAFG7b9g8lOlKsRVGuaScYnN/wIB+hBtlZ9Vet2z6Gv+031VRPQ3d+X6a/dkybnKa9Xz8uf1lOkcMBkySmfI7ph3rFysYwylSlRm6Q3qVT2vfJSn3tNaWJ3zTdrr7RfaSumJBrMVU9A71EtmkzfmJfqr7UR7vSM+0SMm6Esl8hV9mqbRdwVTDqWjlrS0mR5VThrltjTcC4Q1r+kBk7++VFpf6czeY1Sb6A3dMUEvMupD15S+KYO+6B1z32oN/QmgmTbTZdkQ/tYRfmaUXu8oKiFFPib6V5IyaZl3RT1tqOcydNeu5SYbxkrZTNtohp5d3GZ2A+C7fKKSWCXq4dmXtAxKo+embXlJ/+lTdFcb6LFLz/NdyY3hCealaCVn2RFlY/Gb9bh5Rb+N8VTCFg+rXIabjB+k9FR2fjV56wlxm2ZezbYWr5s14PwtKVOs2Cm9Y74wqpiSoSC/BfmM5ErvixtMSZWfoujJ9/SaSmCVm1HX1FbmNz+NzWQ0cmDJlvIw+fA5i0eZtnmWkdf0jEneyL24yZJQcZvZ2I3fNZVfGwRqlFrZmTT1he+YzhorKSuYBGejXlfU99n7ldtKQ7fMZf2nDlVFlYl5yZe7/KQac7QqyyFZrOgQSzuQUnzAzJDUg5VQeVGxUp5KOWafu/zW7KVq+P8h2IaH+8vaMEW9UhYOJ9PIAZdSYYN7KJhOKpd8JoNSIW8cxKLDi1hevXc2M3SuKa55OpdaE5pMxM1od6XN5ZRazsALweo71Rf1kkl50VH/GbuaV0M1VEM1VEM1VEM1VEM1VEM1VEM1/HcMPzXiLbCtaMHkyvpWdevpDGJNKtH5ixod8/nc1kHzTj0njF42ozHC6vrU6I/e1bpa3auGaqiGaqiGaqiGaqiGaqiGaqiGavifHizgbaI1scBMq9Q8BQYdHyCArU2ptIpJgDuTSUI7mmvKpZdR01MFus229Qx+v99sZmWmOlVDNVRDNVRDNVRDNVRDNVRDNVRDNfwPD7bh4dGytQpbaxN4RSPVBNpaapJJx9FYV4tiLmU2WXM77ejt7cfxzm5MJYqwOd1m53G9EwoHsWTJEqxYvgyBQMBMPS8VNRm9OtW8GqqhGqqhGqqhGqqhGqqhGqqhGv5nhcunmtuGh8bNaWIGHmt0m2C5mM8hGPAilYyhqSGMXDqJfCaNcimHXbv24Nv3PYSLQ1OYN3+x2XnP4XRg7vx52LBhA66/7lq0tbWZ9eBFsynQiwPemp5++vRpU7ArrrgC2k25Gqrh/92gfTK1fydloeyGOZ6GwebQnpuM2tW8ZId1fEyW1+Po7DqOr37tPjzww524asNNcLvNGRVMw45FS5fglS+/FcinsG/nDpzv6kI2l8Xg0BAGhoex+qrrEAoFjcxdec0GvP43XoNlC+fB73EgQzl/6KFH8fkv/xsaW9rw2te+Fu961+/D7dKZ5tbsFe1wrk/tiK6+OUV1zkmyJefnui5i5fIlKKbL5uzqYnkMp88exVOPH8LxwyOAPYNoqhfjU2N47Z1vxe+9488QDPkp736MTQ7isScexdate5CIpRDwu5DJRuF1e/Gxj3wOV6xfDfXvnTnbiW995wsYHO6Hy1k2Z3V7nHW44/Y34vWvewNcLg/8ARt6+k/ho3//frhsfpQyeQyMjKFt/kL85u/8Ll5xx2sQDIZYb9ajVIKDesqhjd2iM/AEqeuKZfQNjmLLrv14fttuTI8OoSHogc/lNJujvf/978eGa681JzfkcznYqfu0xGbj00/j3u/di97eXlzL+/9yzz3mpIdUNo1ULI66QBhurwczhTRp4YCP7R0bncChI4fx5HNP48yFLtSGQvCxzvG+EbzzXe/CdXe+Eo5wAE89TNo8+RR0nJ3RnLOTiXSCxLlz5/D5z38et99+O1paWszGltXw/37QDLOzZ89i2bJlxlZKNhVlRxWq9rMaquGlC8ZZnp3FKdmTzzo4OGj2NaqrqzO/q+F/TpCe1RGqmuGr9leo8MflvFIN1aAwMDBgBqQvA94TLwBvRp1vrEPzw3SKIzOTqAv7zGi3wxw7UcITTzyFR59+HotXbcDvvvPdCIfD5jihpsZ644AWCNqz9JKddpvZnO3/a+8sAO0qrvW/jl/NjStxIVhCgODBnRDcpUVqtKWvLbS0jz5aWipU3ivFKV7c3TUElwBR4m43uX6Pn/1fv7XvJIegBdrmT+ZL5u69Z88eXTNnvlkjnnh7eHwUPhvxZuNCkbTEkhmZt2CmXHvdnTLphXly9TU3yqDBXTt2Nma3y3BTTv1AInkl6vpcv3q13H7r7XLltdfKNf+4XUaNGSX5Ip2GiCS1zuXTrRIrZWXJwvly/U23yiNPviCbbzXafjQuv/xSO0aQe+qoO00kyq6deo/5KOIdD5QERIvS0r5QHn/sQVm2JJCdxu4vo7cZLMvrp8n/XfxXufryR+T//u9KOfa4/SWhxP/a66+Xhx9+XEaPHiPHH3+sjBg+QF57daL8989/KYMHjJYrLr9YSWdcbr3tFiXGq2S//XaVTTbpI6+89qZcdskNsnRRq/zs3PNkjz22l0XaGbrrvmtkm1Gbym677S6ZpjZ5+pmJctOtd0ltt15y+rfOlLFjx0p1ZcISwRElQVHbrPZWSVbVyOqGFrn2ptvk6YmvyHbb7yCnnXSs9OvaSd6bPFn+5/z/sWU1t99xh3Sqq9N0RjU/ojJt2jS586675O3Jb1te9ezZSy659FIjweSPHUFC66ll1VTIaMbFJdaWlZcfe1JuvOVmSfXoLP917k9kxNARsmrpEvnLeRfIXCXwp/zwTNlln72lKpa0404g++y0ni/ktZjzcv7558ukSZPkggsuMLJfU1OzloR5fLXhibeHx78P5WTKE28PT7w9/hmsT7y1tVABWbu5mnastQGhw2ibpJXykslkJJvL6A95VD+sss4fxJoOKB09BKytrc1Mc3OzkW87Tsw3RB4eXxgJ6lIiYZWVH3zqY7q9Tbp376KNv0hbO8dmKYmHv8PyFHZsmf5LJOJSW1trPxIY/GhuSUs6Gx4dRqeB48fmKclbrSR9n333ld13311mzJghc+fO13quBK9QMm03myvWr643LWs6nQ4DKgPtAP7b2dfK0murO8tRR50kZ575bRk9ZlONU0k6d+4s48cfJhXJOlm4YLGd153Ltcg7k6dINFItO2y/swwZOtDand69eiuZHCvvvTdF41IvFRUl2XffveTUr58qvXr3srAGDhgoIzcdaT9+jY3N0t5ekk1HDpYf/ehHcuDB46196t63j+x/wP6ySb++smjhQhtMrFTSXdLvOdaLTGOWT0VFpaYhqvnVSeNVlKi2fwMGbSI9e3Wz880HDxsmu+yyi0x6aZK0axnQ1pGntIXPPfecxnGOjBs3Tvbaay/1siQrV62E0lveZFh2Uypanifj2rYq8WZ/DMo2l81J3759bZkOechsof3331/LqVnj2iiFUkHdJSSlbilk2tf6+npZtWqVPPHEEzJo0CD7njyAjNMue3h4eHh4eHh4bHj4EDuGMMe0Y1gshh24yqpKGz23DdboWHd0/ukA0vFsamqyKa2QctzRofRaFw+PLw/UR0gc2nHqF+rsTKag9iJ1nVKSSinN7qjJWa2XOa2jRSV/eQiy1tlKJWVQwIwS6M6dQ62oWlt95sDHKdOmydKlS2U/Jd7Dhw83Mnnzzf8w/wsFzg6PSktLm/z85+fJt751przy8ium7QbUcuo6g23ZDFOv0YBnlcxyumaVRDXuEi2oP+wbkZJ8NqL+cy65pilol/kLp8u8uYtlxNCtlUAOkry2JdFISWrrqmWrUaP0/Xx58823rK3p37+3VKTCQUEIKUcZQuYbGxu1PcpIly6aN5qmkHxqfpE+Bc+QXtJhZ7bztqTv1ZT0XUzjTnvHvhQ5DX/B/PlSrXk2bOhQm45O2Aw4Qo5ra2rlxYkTJaXlQDv44osvyrPPPiv9N+kvO++8s+ZTi+WvnffZkccQYsKJq31J05YrZiWbz8qqlass7ttss61wQi9uyXuIdHVVtab7TVm8YLFpyw36nnggAzfffLMNgnzve9+zeDktDGF7eHh4eHh4eHhseNAenfYOtTPIWlFAJzOdbrcOYHVVjWnFKlKV2iEtyIoVK6W9vd3M36+6UkZtvrnsuP32csQhE+Smm/5hGqaGhgbrEGYyWfPPw8Pj8yOr5DmvdTEeTyrvikhbe5vZUweZVKLcT+vbGsllwxMIIHeQPshkVElaOp2RpuZWmzZemQzP12cJSGNTk81Smfbee7Jg7lwZMmSIEsAx0qtndxmqhPOFFyZaW1BVqWRWkc9DnsMjA3M2/d14oBSKgWSyoX1lpYbX3iQRJbjFQkyKuZi0taYlndHwUxpnjUu6PdDw47LpiBGyqmGprFq9XOOb0HBqpVNtnVRVVWoaolKt7Q7LWKorq41Q5vNMpRVZ3bDamqwabZvqV62S2XPmSCqZkkGDBijp1PxSYk87lNN8a1iyVK9ZWa4El48HDBwk3Xv00PjmNP0tlobW1lYjvDEls0kNc476t2TJYg23Qjpr+JUVSY1HtQ0soI2GWKPtzmrGt2v+XXLJJdZGHn744UaWafsg0917dDet9/KVy6Wmukbdh7OEktGkVMYrZfXKenl/1vs2ctGzZ0+bht7a3mLrwpmOlM1mJJlKGtGGuJt2XssQMNj5/PPPy5577in9+vWzUyQwfqaRh4eHh4eHh8eGi5B4O6PkG22STU8toKkpyur6NdrJz2iHsFp6bTJADjvyaLnh+hvkqWeelTvvuUduue02OXjCBLnwV7+yTX7oyA4a2F87m9UWgIeHx+dHUgkhpCynRCwRZ7OzlEyZ+p4ceuhhMmzYKNOWnnzSyXL9DbfK4sUrTZNs5/CXSpJUJgqJ6941XINELW9qzdj+C106hyT3vXffM213/002sTUo3bp1s426Zs+ercRwrhFuiGmXLp3lT3+6SK6//lrZfffdTIOdzeWVJEckmQi1rO2ZtN2j7M1lA2lr1vfxmJqitLY1yIL5y+S8834lo0ZtITvtsp3GrYuR7WKJ6KK1j5omeE3LGsnodaC2N7RFEE+05JokI+PFUkGaWprkiSeflHcmT5Yddhir+TDKBgKY6h6lWdM01vXuLYmKKrnt9jtl6vT3ZciwEdKzV1+JaD527lyrRDUhNXXqn8a7bc0abfNymkma3kJeyXxcyXdKSsVACpoHJbTWGoE+po2usmniaLp7KJE/8sgjNU2jpAKy3rlzuDxA04JGvmf3nrYWLK4kmtlCTW1Nks6lLU/t1IdIdO2SnbjGhwEC0hzXOJJWtNuFYkFySvQLapqam+Sll16SyZruww47zMInLPzDeHh4eHh4eHh4bJiImrbbuuQh6Lyh7UaDZesQ42oSKe18lqSloUniEpOePXtrp3+4bLHlltbhPPGkk2QLvbLJEB3JOXPnSUtrqFHy8PD4/MgqKSxoXYSYofGtSFXIVltuJb/4xS/kuuuul8suu0x+9/vfyfiD91cS1kXrb0lJYk5K+k2mvV3WrFktaxqV7KXTNsW6ujIkhTklkgsXLpL333/fyPaYMWOs7ldX19hGXd27d5eJEydKWsMHaKF7dO9mbhPxZEd8wo3W2HgNbW4qkVCCGZPmhgYJlADTfiQTUSWkCVm4YJFccfnflWxG5czvfkMJcK3U1XRWfyulVUl0PFFSIqykPRKTTlWdpFQoybQZ0yxOLHOprNTGSvk0gw+VSqZff+11eebZZ6RHz55y0EH7a7yT2mbhJiLt6XYlvxUS03br4QcelOefnyhDho+QfffbV/r26y2rVtXLtdfeKDvvuLPsstMusttue8n3zvyOTHz6Kcu7LnU1Ul2RCtOmzWM8EbMBELTLHJ+4VIn0W2+9JbfddpuM1naP0xyKHUtxGPRgRgHtJ9O+p06fKqeefpoNVowbt6uccsopcuvtt2qZrLEN2thpnnLNKelPxQkzXMfNNPY1a9ZIJp0xjX6Fkn3a1kVaZo8++qgMHjzY1pSjbWdmQlgWnnx7eHh4eHh4eGyo0K6sI95hhy3s6JZMOxPRTnA0qlTb1mNGJJ8paMezIG1taescMrURt2h6ttaO+6svvSSN2unu1aundQg9PDy+GEzLrXUprqQWssw0Y8jZHnvsLDvvvI3ssstYGTt2lBJlNJ9x00Szr3GE6cf6HdrTqioGz1hzHRLo5pZwUIwp0bPnLJCnnpoov7rgt3LUkUfJ8ccdJ7/73e9kycKFctkll8iiRUuUsK/bpfOjyB2P2EWj7O0QlcrqWqmoTkmiQpuXSElmzXpfbr/9Lpk2bbb8+Ec/lp12GS2FYrsS1Bol5l0kiKA9b1ICmbXvNZYS07SklXw2tzbbNPiEEnhIMCTzkUcfkZvZDTyVkqOPOkJGjd5K2tuL6ka0TWKdO8tcovKP629Sgn2DbDt2ezn1jDNk5OabWz7WdqrVOOwq5/3Pf4fmFz+TU79+ivTv10c611ZLXKPQ2qSkV8NOxLTdy2m+a7sGkSbP2NBs2dKlMm/ePLnm2mvl+9//vpx44km2qdvDDz9sAxZnnnmm3HTTTdKvTz/56U9+Ir/4xflq/ke+/e1va3xHS3VNjVRo/Jnu39DQKDFta9OZdstPprLTtnbt0lVSFSlrY8nftnS7vPvuu6btPumkk6R37972joEUjCsjDw8PDw8PDw+PDQ8h8V67xjs82otOHzvvZtJZWzuKtps1prW1deoups9od/RWO3rspgsJf3/mTKnr0kU7v0x1Dc/+9fDw+GKIxbU+KVmEYFGl2OwwJLpRyWYLahe16d65jinhuIUgMo0ZjTdLP7inXrNDOd+yQ3ZRCfqU96ZoXY3KhMMOkVOUeB52+GFy8MHj5cADD5TvnXWW7Zw9d+48rd9ZDStnWm02KIvZWd4hASdOaKIJk4GBTDrXofWFQDbKm2+9KTfceIu8+cYUOeao4+WQCQdKr961RpJFEtK9S3/p2bObzJo7WRYsmqV+Md0a0p2VNatXS2VFhWy++RAl3KS3JC8oqb3pH7dIU1OzHLj/AbLPPntL57paDR+Nb0laWtptkOHuu++W2+64Q/OrWg4cP0G23W47JbvVNsyYTFXI8OFDZb/9DpAD9ttPDjpgP9l1jz2l/+DB0lvJd3VVhSxbslCWLlmkDWQ46MBAJJudkTYGAlgHf95558lZmk+ce37QQQfa5mqcpT1E37Ez+ZZbbikRzYi99txL47q/5qvGd899ZMuRW0hvJeS1XbvaQMqM6dNtXT6DLITFzCHaVLTaXbuFxzQyC2n5ipXy8ksv2dR7ppkTFzTjYTn49tbDw8PDw8PDY0NGx1RzZ0Jtd0E76DHtBBaLgVRUVGnHnl1/RTvxGXnj9bdk9uw51tELtTUNMk8752+8/rrsseee0qVbN9O64Y+Hh8cXgx0RpaQaXmVG/6FZpm4yrdr4lho7xkuJJxrtUPMcfgBhZGfumtpa2/G8qCQNLeqKFStsCnaxmJeDxx8gp3ztZDnp5JPl5K99TY455hj5+qmnSmclho899pgsW7bCNka7++575YYbbrL13xB5SHiJncHV/1Drytn9CSX6GqYUpbFxlTz5xBPaNkyWsWN3lkMPPUI61VVLJNau73Pa5ESktrpOthq1qaysnyvvvPuGku0WJe8FmT13rrz66qsybtdx0qVLjbYpEVm6dJmGf6uldcIhE5R07yvdu/W0OFSgXdeM4OgvyOwVV10vFVU1ctSxx8k2225nO7trsyb5QqBhkzUaA8tX/aYQbkyX1HyprqqUQQP6Sz6Tlncnvy1LliwxYrty5Uq58847ZYcddpC+/frJyM02s7Xdp5Bnar6m+TZhwgTZTO3RiB9+2OEydrux2o6iyU5r66o5ou0ioScTSVsn3qtnL1sT/tbbb8nMWTPtGLNly5bLyy+/rOlJSY8e3W2aua3ZV8ybM8dI+U477ST9+/c3O2YAADcQgvHw8PDw8PDw8NjwEPvx2f/1S+u5w8G50nnTDiqbIrETLzv70skvaaeRdaJPP/2sTHrlVXl/9lx55ZVXtJP4kkydOlVGbbmFTDjsUNuhtzKVUn9C4o3P64Opq+ENnWU6weH6RDRsTFFnCiUdeQ+Pz4aPIxsfJX0bCqBgLt5KlDlLXxGJYqcmYMOyiJJYdhPPqk1eGpsb5fXX35XXX50iiUSlTJ78irz2+mvy6iuvyby5C6Vb185S16nWtM1sVAax5EzuV15/XY459nip0/fRGGGJvPHaa3L/vffIwAH9bO1zVyWwAfGAQGt9hJw/9+yz8s4778i+++4rNTXVcsUVV8obb74hIzfdVIYNGyqxjvoL8W1papEuSiLZiRv/Oft/4sTn5NbbbpelS1ZJ3z6byKJFy+T1N16RV994Xt6ePFm6dRoitbXVUlsXlznzp8vc2Qtkzpwl8sYbr8tbb75u6T/phNNk8OCQZF599dVy+523SnV1Sr/rpGleJC+99IbmyWRZvmyFEtWettb6ppv+Lrfdfq+1I4lkpcyYOUteefV1batel/r6BunXr68kojHb4T0mRXLZiLcmxNqiREWlNDQ1W97NnDFTpk+dIpNenCgNjY1yxje+IZttvrmtX49pXlGGzEoAaxoabM08Z6IfPP5gtYnYdHLIsbWuWjAlDRQSHlO+nIrFpaDt5JSZ0+W9GdNk5vtaVpNekrnTZ8oee+8t2+2yk23+llR3q5YukwceuF/b3Vnywx/+0I4cg5ATX3cFXN29x1cX/F5ynjt7LvBb6crdDbz4308Pjy8Xrl2ljnHPkiBmV9Fn9W3uxgVkgNmErvxBuQx4efAoh1s+6GQl9qMf/+iX2ozYA+CO6afIDdMYIeBosDkiiN16W1TY5i1YJHPnz5eGNfXS2tIiPbp3lXPPPVf6b9JPCvmcJPUbIw9q1pLsDyC0Y+24A1ozOhLsrEyHGbgGzsPj4xHO1AiNuwdckZ0NVX5cPMMOcwRqZtHtiC9EXO9jibiSSc6hVqYWiQkneWUyRWluapSFCxco4Vwmy5WUQbZHDB+qdbG7EkJ90G8LxZK0trVpLzwuO+y4g/Ts0d3IH5NcVixbomEUZc899jCNcDxREZJyDZouO9PX40pOk8m47LX7HkaQm5R4svv5mDFbq189LN6QdD5qbmySTrU1RgLRuGezaZk2fbqGn5Y+vfua5p3dvevrV9gAW0NDk2y26Q7Sq1cXGTS4nxL2hDQ1tJp2feWKFbbr+vHHHS877riz/rhF1V+Rx554TIlGF6nrVKfpb1NCv0KWLV8pq+tXa4xjsunIkUqCA3n22adkk036S7eu3TS8NbJkiebRcvVXTSdtX7bYYnOpTCWVFMelVMgp0a7QrNU2C/GJJWWTAQOlc5euGkaLLF26JMxfbdOO0/iMnzDBpu5TfrRfkG5IDtPwC/k8pWk7wLPhGrvRo91O6o8zm82RN7FYQsOhXRPppmXVb0B/G9BcouHUr6q3ncu3GTNGjjvpJOk/aJC1gdD71Zpn8xculCHDhsoJJ5xgMyFY4+5J98YJ5IL9Brp06aIyFbPfTy8HHh7/Org65fqlHC0J8WIQ1te3jQ8Qb8gU5Q/KZcDLg0c5XFuxdpBm6dLFygAQknWCQsPiUC4+7t6IugrWOlcfxMe/+SCICB1WOg0YtEXspsxO6Tzzjo6lh4dJX1AmjR17Eghbidl9OemGOuKeqxIqs14nveGtc/ufRHkcytJm9us/u/Rhz8DWp+Gj/caXD+rCsAEftP1ohB16CCVtBB3+QEkkx13NnjVHRowYFtqtbT/ctTwtIK9GwzOtvmLtchfi4OLxcd9i7+LMu4+Kt3PDu/B7bMp9XOdruX/AvV3n4suEi8dnCcG5/agUemzc4Pdx4cKFNvPBnfXOABD1jzrq6mD5b7mHh8cXA3WMGUzUMwaSIV0cG1le5zy+2nBlzXI9iBTlz7OXAY+PAnLBkkX2Q2Og3GRl1apVH5AULN26wX81INbAddZZv+iINw0cnYt/V1w8NnQo/XBEDTpiZBvZgHhzVfJkdgoj3M49xLvj2YA7iJZvIP9ZUE9dvaS+uk4IzzNnzpSRI0f6Hx8Pj38DqHNz586VTTrO3+eZ+oih/rk66H8/PTy+OKhX/LZhXF1bvny5DXqxTwfwdW3jgOMr5cS7HLxDRjw8APKyaNEi+52GeFs7ohYf6CVjyfSJTwJC5UjzxwF/Pg3s1ItGG803fk6ZMsUiNnr06E+Ng8dGiHJJNfHCggaOH7z1yR5EG+INATeLdfjXKDM3KvDjQh3nSofDEW8aGQ8Pj38t+L2kzg0YMMBG0j/L762Hh8fng/u9K7+HeDmNt8fGBWSADVd9+Xt8FqxPvGM/+9nPfgn5dQZL1nZDrD/OANy6EfaPMk479knGkW7cEi6bEhG5Pn36fKCR8/AwtvwhUcBCjYlKx70B0o17Xrjr+viQZx6fAjeKC9F2o/tMceWeddtdu3b1xNvD498A1/HjnH5+Q1195He1fGDc/Y56eHh8PlDXqE/u94976hWnZ3BFSeTr2cYD176yYRb9HWY90P4iJ1x5Tzvs4QGQB07/QlZoK3j+SI33p3WecfNphNgJ4icBf4iEczdr1izbFX2rrbayZ+x9g+axFuXiZGKBhZs2vr6s4YDGz2u8vyy4+sgVw48LV+ow014539oTbw+Pfz2oc0uXLrWNSBnAth9zrZv+99LD498DBr4gXV7juXHCl7/HZwX7QbAswS1LiUydOvUDtISRHHbZ/STkcjkznwTe0xn4JPAejRmddzrs8+bNs81ittlmG3tPXBBsD4+QQHd0KtdurOaMytlauw43H1jXrXb2LUbdrHXr8c+A+uiINXWXDj+g/nK2N1PNP8uAm4eHxxcDdYw1pnZkXiJhy7bc76irf+X3Hh4eXxwMNvMbR92iM+3WeLsBaY+vPpwMsNSAZT6Uvxv49DLgsT74fWZztQ9sxKdk9wOSguWnEebPAkeoPwkILwZBRmjpvPfq1cs2VwN876dseKzFB4i3A/flWu8ysr32XmGfOOLNvcc/C+q006g54k0dxTBbxW2u5uHh8a8F9W/BggVrdzV3A+GObGO497+fHh5fDNQl+qn8tjnSxW8fM04c8XZ9WI+vPpw8OOK9lkxp+XMFtL0eHgC5WLx48QdlRZl4KCll+CwNiBOwT8Kn+YMfNFgY7qdOnWqLzyHeXnA9PjuQRWfKO5r+h/DLRPmorqu7gB8hBs2GDx/u662Hx78B1EW3qzmdf/d77H5zee/JgIfHlwP32wfcb5/b1ZzOtPst9Pjqw/V/Pm5Xc+DbXY9yuOPE3FTzKAKyvgHlHevy6eBc3TMqdK50vLky3Y13fPdZGiLcuDD5nsYNw71HCDa6K5/WT167aYXkNeCZfHPg3ZeVh4SNX0wzduXsysmB+9bW1g+8c26/TDi5A/iPIaxcLq950HE2tJFtZ0I4t581PuunkW/JYwfsP80v3hNfvgXlSy9cfDC4wb7cf+DCcH7w7L4H7t2nxcMBd64sHZzfGMqXdy4s7p0dKI8/KG8rgHPnrnyLe5attLe3m936IHwXhpNz7p0fgHuXR+Vw8XT3Ln4uLO751sWD95j1gZuWlpa1fjn32HN19lzb2trsHn9cvF0eAhdeeTjOD94RN9wDvsGsH47z0/nv/HRuXVqdP8C989i4gFzwG0rZUxfdPYbf6vL66eHh8fnhfu+cAa7N9ti44MrftbUO5bLh4VEOJydOPj6SHTuBcsYJlPvIabXoLDPlhh98OgGM/vH8zwif63Ri1o/cxgw6+XSoyQvyhk67W3tPPjkigRs64S7v3PXLQnm5rO83z44guHiWu+GZ+HH9cgApgXRAfEIyRngufJWc0NV6WRAEyBfk5LPHA79JGwa4tJLn5Wn8JJTLsfue/CjPE+em3C34YLpClMeJd/9MvuLW+cX3yBLxcPgo/8rf8678Pe7L4d7xDXnkngkT+SQ8vnFxd6AN4RvsymWc73nHM36Up9sRT9zwLfbl+cSzA24wfOfccO/sCMPZs0tpub/Ojbvir4sfcPauLq4P9w1XN1hGWC6dPBOOS7+LN++dPWF8HFze/TMy6fHVAWVfLvcAOfCy4OHxr4OrX7TNn9Q+e3x1gQy4338Pj0/D+r/LH6uWdmQa4YJQQ7bdD70j167hQfPNeXZ4jP36nQGPfx7kK/nvZhXQcSf/KRe3ttbNQMCNKw/cuHL4MoDfTg5cnJz/XN09x8ARR6d1cVe++XKg4ai0ptNtGoec+Y8plRBmlclYXMNX8qOPxSLhlgm5uSU/iMunx6c8D7mSzxwDgD3pwb9Py1/e4478ghg5DVR53rjyBG4wy5Eol+fYY5w7FzfwWeIBcI+hLF05YpAj/MM4mYJ4OjKK/7jjmXsXx08CfvCNiyP+8h3pAS4ukEve4S/P5K8LDxAnvnHugPPTXQHuAN8if0z9wg/iT1qw5x7/iQd25LELhyv+4wa/cO/secZP5w9+8y35yDfcl7t3eebiC7Ajvrx3cXFh88w97wnH5ZFz59Lp/HPvXfh848IFvHf54eHh4eHh4eHhsWEh7DWuB9eBpONHR851Fh0pwI5OLGeI0vnjmTN86fihNaJj+Fk66R4fDTr6DHYA8pa8hziQr64MyF8GOwDvXBm5jvyXBcJx5IPydZ171+HnPeHx3oXLvYuHk6UvDiUvRSUekaCDKK0jR4RTLCpBTJM35lTfQdDC7yDdRrz121Dr/cn5g5/OX1cPSAfhUi7cfxr4hvi5fMMfvnd+ccXepcGFhx3gmXcY7Fye4g9ywBV/yvP94+DijlvKkntIJGXn/HZ+IF9Ok+rSzjPg+dOAnxgXdwzPDMyUA0KN327ADlNTU2PrYFzaiSNpRTvM1ck/8Ufm+Ya0ES+XNp4JD5A2noELAzsM9wA/mV1CeKzVcmXkruV5g7+UP24BV+KKHy4+2PENhnD4BnvcED/syAvSiVvijnFxJy685xv3zsUZ9y5M4Oo9cXLu3DsPDw8PDw8PD48NC5GlS5d+ZK+9vKNIB48OHZ1JOnm840BwdnWko4jh/O0ePXpYJ71///7mx6d1Auk0ug4mbtlcDQK/9dZbr+08b4xwa05dB9x1tsl/8gWyAhmBqHDlGTeAvHRkw12/CDjirb6+XgYOHGhlg/8uLPyHQLHJD3EbPXq0yQbygJwQd4DdFwekIy8RJdB4m27P6DUqyUSFxgltJe8DJWsQoJB0a1Q1ko5olzrodkT/IVufnDfsGMzmKd27d7e0Q8SoC6Qf81lAmVFe5BcG/1atWmV+9unTZy0pwx1+8uzKmTqHHc9usIU4YOfqDFfKHzn5tDjhlnIByAtpwT8M5cvRKNgPHjzY3JJ+3A8dOtT8pgyJn6uzmPL4z5w503Y155k2wLknvbQTpMHJDZuwQTwxuMXPpqYmc8teAY6EDho0yNoV6gN5htsZM2ZYmnlPPrEZI+0NcSeeyB32tCVuwICwkV3cMVhIfIknaSeNuOO9Swt+Ew/Ki3jxTHowW2yxhaWDsNasWSPz58+37/HLAXeczkDcHCnGDYayomzJf8IjrmzSwpmgwNU1Ns3q1KmThUX9Ii6unvMt/pK/DHSOGDHC2l7CwY6rx1cbyMH06dOt7F29xCC/ADsPD48vB7TV1C/g2n92KmZwmHbet7kbF2hn6TPRh6H8gZOPclnx8ACLFi2yvp/rZ36IeGOJoXMIXKcfQaJx4QrZeu211+TOO++UKVOmWKeTzvDuu+8uF110kXUm+ebTGiP8cu4QZE+8Q9CwQ0KcVpDOPyTbEUDyiqsjaKCcFLpOPQTgi+L73/++kZ3vfe97sttuu1k8XOeeMNjN+uyzz7a43nLLLVZ+kBanrSQtTna+GFjn3iLFUlHzpl5KReQmLtkMU7mLSlJqlTSGAz4OzDaPKPHGhOQb0CB+MvEmzldffbXcd999luZvf/vbpg2FEJJ28v7T0oMf1AkaZsqJ/LnhhhvkpZdekv32208OO+ww6datm+Wha6QpV8jcnDlzZNNNN7UwXR1xgGjR4PMOUuo63Z8G4uOufEPcKB/S8sADD8gVV1xhxPS3v/2tpe03v/mN1cc//OEPawk1bjHcY/CHK/F2xJu4YPCftNx+++0mF42NjRY+ZPKkk06SU045xXZ4dIMB5PVtt91macdPCPIuu+wiZ511lpELwnj77bfluuuuszykXSJPefed73xH9thjDyPoEFDqznHHHWfh444wtt12W/nGN75hee8GEkm/y3OIvUsTBPmRRx6R66+/Xt577z0rQ8qKOP3tb38zUsx3pO3iiy+2QUgaVeQDtwxAnXHGGSY75AXxJCziR71wdRY/8P+SSy6RZ555xtwQf9z86le/km222ca+IR633nqr+UMcAW6RKzp/v/vd7+SYY46xM52Jv8dXH9RjT7w9PP49oN2lfgHqHr+RnnhvvKCd9cTb47NifeL9ka0FDQsdVjrZdBJxiLaFDyFVdAKvvPJK047df//98sILL9iVTigCBzlwHQCPfx5ovSAcO++8s+ywww6y7777yoUXXmgEGFINMaATPnny5LWDHI4QUXbk/ZeV/wgKPyp06mlg6PC7Dh5hEx+eCZd75IZ4AOzpAH5ZP0o0cs8994ySjKNk7Nixst12Y2XXcbvJCSecoMTxKiVY4YZV5SCexC0k3h9893GANJI2ZJ585Z60kHbqw2dJD26oL+47SCbxgOS5+uTKiiuGesOA1p/+9Cd5/fXXra4RNsSROEHCqGvnnXee3HzzzaYldeX/acB/BnAYKMEvOgykjTLDf/ygfLEjTsggjQV5Tpqd+08DccZPNLKPPvqo+UO7wDnfTz31lA2q/fKXv5Tnn3/e4o6/TzzxhNx7770ybNgwI7PE8c9//rM8/PDD8otf/MLiDrl9/PHHbXDgjjvukFdeecUGC/j+L3/5ixF/BiIYCPz5z39ugyUvv/yyvPrqq/LXv/7V0sfAB+ESP9IEUUaTzHcAzTx5Qx4zCMDgByQfPwmL8vnxj39sgwPkGYMJaLZJzxtvvGHxZnCAQZuddtrJwiHu5CH5QFwJd/Xq1ZYe8oQ4EQeIN88MQFBnGKxwpP+HP/yhpYOBENxgSD+DC+QZRJ966smWh4eHh4eHh8eGiw8xCAgDRAFy556dpo+O5Pvvv2+ED83MhAkTTPPGO0g4Z5VBCLlHM+rx+QDxevfdd+Uf//iHLFy40EgFnWvIAMQGYoSW8pxzzrEOOASMsqHMHOmB2H0ZwC8IhiNUEBNH1CARaFxuvPFGufvuu42cQy6QCd59+QgsLpBYBiKmT5+mJGSmEtFfyAvPT5QTTzhNGta0azxD1/Bj5b0dym1HvD+dpEKYv/nNb8pNN91kmn5kHQLtiCf5/2kgfxiEgFxCtsk76gSGPOI97/CTOob/5BkG0k2d4x3PfEOcIGHUNYgXYLo67/n200B4ELevf/3rRoDJR8oSHHXUUSZbP/vZz0wjjX9M8+7bt68RR+JCvSa+nwa0wqQHc+qpp5rmlsEj8gyt8WmnnWb5CaElDvj77LPPGuk/+uijjZiTV6TtiCOOsMEGNNjkBWUBCYVskh/MsEHTzVTt5557zuI3ZswYI+3HHnusxZ34MHA1ZMgQI86UCXWD/ABor0kfbrknj1988UUbpCAuxIP8QObQwFMXSQeGsiBdzi+AHf7ThgLyGDdOG0047nuIOoR9u+22s/gRDoMAe+65pxFtNCpO1vCPeBIv0gn5f/rpp2XLLbe0csJvwvosZeTh4eHh4eHh4fHvhxHvQJkJym9MNEZnP1wDymZW0VJBitl2kXy7ZJpXy/tT35G6mmrZc699tKMKwe4sTc3t0taelV69+6kfce1Qt0gurx1S/NTOZKC84KOMx0cDjdtee+1lnXVHHk4//XQj2hAjOuN00iHnEAmIGcSEjjnGdda/ONixPiq5bJtEI6xXZvo6xCI8Ng6+gYnHkxYv1qK2traoXUHLvqhf5/UKEYAJY5AJwF8GdnK28prYBvY+Z088hxOjcRd+4yZnVFamVM56yaDBg5WsdZfamloZPGiA9O8/wAYHGhoglBl1H4ak2aTgCRlX4qNGc0+vGkLAOvG8hirCKdphmEVJtzdZGiqU3OVjCWlS/yTQuBbT0qTpKympNN/ZqC0gtmosM7DjD+WjeRcPp3InUvFwR/ZMVhpb2iVb1FgokeId5VvQuoZhkAONLveuTB2Bp1zNL/2OZzcNPZ1uVz/CvA0jAMjztD7lzbag8cxp/e3WvU4WLFgu6Vw4E6GyIqq1NScJzaPa2jqpUpMr5aWhcam0Z1pkdVNEMsVaiWm4lZUMPGgitOKWtCyKEc1LjVuE9FsehIhEyOmiygznaSMzlBszMsL1x6QXgsjgAyQ3ov7Mm7dAkqkq6dqth+ZTOAgB4d11111Nxp3mFxmDWCLfEHsGNCDT1JMBAwZY/jAoxLRx/Kirq9W85Og5ZmGwezmzL8Rk1OUn8QFhXossX75CSe089W+gjB69teZ1OKsDQPTZ84CBAgYDCIPv3MCJK0vi6N65wRLeUZbOLYMOblr9/vvvbwMQDDKAAw44wOyZ/YB2HP94z2ADbQH35AsDKYcffrgRb/KE8DAeHh4eHh4eHh4bHozNlJQVOJPTfmhWO3o12skT7dAnokXpXpOSWLZJaqRdmpfOkVlTp8i99zwsXzvtTNn3gMPl8COOlyMOP06mzZgnLW1Zacto51P9Weevdkq1c1/STnlJCYkz2of3UJR32J1h2qvr8NMJpwMPGWMzJzTiv//97410sAYbrd+ll15qnXnIG1qxq666yjRnaOlYa8raVqbe4saRDa503tF0opVkeuyhhx5q018hS0UlLFWVUTURJSAtks+1yfJli+VPf7xITj/tDJn4wiRZtmyVXPzXS+Rb3zpTKiorpKiE9aabr5cLfnueXH3dpfJfZ/9Adtp5Z9l/v33kt7/5jZIuLXslQZmWhZquZvn1hRfLfvscI+N22kPNrrLLjnvKuHGHyXm/+LNkMyGpbEtD4okRNJ3dy9PSzrRy0hFEpV+/IbLD9rtoupslX8hK1GbclmTyO2/ISSefrOkaJzvusKuMP+QIueK6m2VNOq9xKEjTmvly7WV/lNPPOV/Ov+QfcsCEQ+WEI8fL5JefkTdff0nOueD3ctG1d0gbghpo+vNrZNqsWXLwkcebn3vusqvsttPOctlf/0+WzF8ouTYlhVp2gWRkxcqlcuFv/iz77nOY7L3PvvL9H35X6rW8ipGENLdnJVsKJFBCRlkzYOAIE9OOKW/KnqsjcBi3xAA5cEgpqb/2mkvlD7//tfzlf//XNPX77L6XHHrA/nLJxX+UlpzIsjX18qe/XCjfO+sMWdOYk/Mu+D/Zb9+D5Le/OFvmzHhTJr/1qvzml3+QP/7f9dJeiCjB1TwuNUuQHCalRIWmv1njPkcuvPCXcvbZF8hrr0+TkrYcNnghWSXfOUkmkpLJKsnN55Q8M+igJDOCNljzQ/O6WMhLmxJeZBbSO0pJbVJldcbM91W2StKrd3+VnzrJ6j3kG2Lupr6TP+QDBuIK3GwCSDz3kHJkH4P/EH5tejSMqDQ01ktDwxr1PyXdunWRZJK8Do8RA8waKBXZsE/brtaMfp/X+tZJ87mLyhhhxmygA9KLccSfK1PI//jHP1pdo/4cf/zx8uCDD1rdIr5ciSdlSXhcKUe3fABSjvYbkGbSwowA0oPmnG/xh/pPeG6KOzNdWLe+4447WpoZkCEs3Hh4eHh4eHh4eGx4iJpGWvk3WixMqKUON5DSnpyUcllJRQqS1M51ZSQv8WLW7EYM31RO/toZcsrXz5Ajjzle6htb5Jxzf6akOyfxVIX6EVdyjXaswxjxdkZJh5qNEXS8MeWgY00H3JlDDjnE1nOfe+65tq6VzjZuuNK5RkMGoWZdJ1OHWdOKdhBNH9NTL7/8cpk4caL589Of/lRJ8beMnLMJGlPCcUPn/6233rK1q0xVZ+Op//7v/5YjjzzSwmYaLDuIZzItSgJSSkKSskrJ5LXXXCPvvTdVicYeMmTwEGltaZNly1fIlKnTpKhkskJJQFu6VR597El55tmnZeTmA+Tcn39Pdt99B3nuhWflrrvv1bSIKJ+TP/3+l/Lq65NlwpGHyLnnnSX77r2NEs6MJKu6y7Zjd1VyQ96EWncoXkHZUSLJkgfOVY4ouVNCGotoHJo1TUvJSSUz5FFObr3tH3LJpX/VfNlJ8+AcG1wYPWYbefqFSXLzXfcpEVstmRULpXHlYnno7ofkyZfelKOPO1a++d1vyLDNhsmiJQtlyvuzpT6t8h4vSr5phcx9+zW56C//K8M331q+992z5BzN2xOPP0penjRJrrr8apkza46GnZe5c2bINddeLQ/c/6h8/bRvab34sfTs21OefeZZy6vK6mqJarxzmg60yRAsyhdAGiF5bk14+ZIP5MYROcgoQOO9dMk8ufPOu7Q835UddthRfvD9k2X05j3kheeflQceeU4qlagfdNC+stO47ZWIdpIDDzlafnj2D2T8wXtKzx610qTE/P2Zc2TOgpVS0DBiibzmd1by0lXyDJxFCxqBdlkwf45MmzJHVq1uFeY0lNB0F7IS5NJKXIuWlpimizIjfZSfirMCQpiXZcuWKEm9SHr16i2jR4/RctSwogn1GwKssh/XsDT8tva8EvBw0In8gBhDSEk/JJO8oJ4wvZxp4aNGjbJp4a5u4T6bZTYDm+BE5IEH7pclSxcqUR0jAwYO0DwsmhtAfuIfsyQSibi0qCxxjyY+qc/M8ACER9gQYpZ/AJbaXHDBBbbGm7pKXYQA33jjjaYVZwDM1W3ixb0j0qSHQQj3HhmgzcUQJ0DaiZsj+bjje6ahsyacqfjUeeDyhKuHh4eHh4eHh8eGhyj8F+oNbDqu3YbPcIG8kgMm6sY4sknvMclkQoYMHSb77LOvjD9kvBx51KFy0PhD5PWXX5H5CxZI/eo1kkPL0+HTh4yRbowHHXIH18lG60xHnrWraLd/8IMf2GZLkDCm1bKOFaIN8YaAs4Z18803N40Za2fZ4ImNoU488UQ5+OCDbToq63jxmx2SmaJLh5+1+mjP8IM1sfvss4+MGzfOdtw24qed/SZ936IEYZWS8+uuu0kWLlqkhH687LXnXlJVXalkZN0O35AcyHo2l1GiXiljthkt++2/t5J0Nonb1tavPv/CRMkrqWIJw8MPPixbbDlK9th7f9l3/33kkAn7aTpGSu8+/WTzLbZQ8qZETElIY0OLETLuIUeQmyBggzeO08rJnDnzZebMGbLJJv2kX7++5ubee+9R9wXZbbdxMuGQQ2wQ4vDDj5TO1bUy8amnpZEp8epu5Yrl0q5FcODBB8j48eNl9z33lB49uhvpIrxsJi2peERlul5uvfF6Wa5lcuTRR8phhx+q3xyk+Xa0jNl6K3njjdfkySefkqwS9SVLFstrr70qW221lZblfhb+0UceLZuO3ExqOtVpvJU8F8Ip9OjwHbFEm422E5IFaSN8yJQjajxTLkw5dsSbvKhIVUhlRVzzbjPZa++95aAJByjJHqu1WeS992ZKsZRUcrqlHK7lWlFbp3k7SvbZb28ZvfUoJZK1KoQaCzTweEjdtLwuSl7zt6D2MSXflZUVcsrXTpQfnHWabLHFYCnqN9lSTgudb0LNbqHIHgDtJjcZzbd8PpzijV/s//DgQw/ahm0/+tGPpX//TVR2klJXF8oZ7QplGtGwILs8Q0yZeu80vYTBPXWGdfDsPE76DzroINvkjHyCuJJnNnCoOfD88xNl0qRJJns7bL+95m9P9Stt69zZeZwZAqef/g1bPz5lylSV4fDMcQZ1ClpGGPzFED5aagg4/rMue2/Nb2SLekYd4p56yqwR3DPIxYZsDH4xuHXmmWfKQw89ZOkgHAg37iDUwF0B8oA76hczILhnivtjjz1m7wkT2SEuxM/Dw8PDw8PDw2PDhXab1xE/QKeWTh5EJ+y8ou1hjWrMppJm8wWprq2V7t27amccclI0wrfLLjtLTMnKrFnvW2cb7ZX5bcyeMJzZuOE68eQzHe5yQ8eavIc0Q5TRUEOGWQvKMUZ02B05p/MP+eIb/KOs8ANtNeXB1HFIHG6Zpso6ULTZHEHDWlLWjr7zzjs2nReCyDf4BZlnCmtNTa1N+U0pqauv50ijW+T1194wzeJee+1pmjbCJB25XNYMJILwMpmskucesvXo0dK3dz+JRtZtONWIFlDzId3SKtVVnD8dUYIdagObm8KpyNgllZThDj7B2tx8PpzyWyiUNO4Ncscdd8r5v7xAzvufC+Tue+6TgYMGKIE62cjMqvqVpv1dsmSpXHPNNfI/559vG7DdcP31Mu2996RhzRrJaT5LqlJWNzTKgBHDZb89t5eqypQESrQgbDZPWeW1kFcSqfyyqa1dXlOyt+vOu8imwwcaMdPES+du3WW33XeTmtoamTptujQ2Nmm5tMmCBctkl1130byPS0LrDwMmm44cKV01v40Yql0MOdAyczKBYRo5hMut9yXPXJljkA+IHfaAMognkjJI07/tdltrOD21HqakTuNVXV0jK1esVP8sqjYoAL1moC2jsqNZqZVb02EZzRu1IB64UMJdLCpxViuNrVTEK2WcpmeffXaXvlq2oWvqdsy+cXLIEW88U1Z8y7FvixYttqMH2QCPHeghp8gL675TqYQkkgkj7dksenR2gQ/XRDMoBBFF1pAf0o1hl3F2Pycv8I/NydAOA+IBEponkya9LFdd9Xfp1rWnkuLjTcsej7Erf9Tkm03aOKd82LChstnmm0qtlmFlVYUNMranWzWsdstzQDyID/JJHSA+4ZT2cJYKaUcbzmaDlDWbUALqKZtNQtIJiyPXGATAPtTMZ62s+d61vQyyYE+6mdpOGVPe1HcG1TDsaM6gBHBx9PDw8PDw8PDw2HDxoR6bdaghhdprts6z3kPAICJMGa+t66ydW86ZXim5bMY0gnTk0d1FlSDF1G3XLnWS0s609ec/xmzMKCfdHwVIMB19yDdTxU899VTrfDN9lWmufG8kVokAnW7eQTjQxnFMEd+7daOAcHADYeA73KL1xi/uIRF0+PEL8oB7CA6EAuLNZnsQdabgxlQmIAnMeqiuZt1pSfI5ZkGEU4AhbLiH3GBfKnB0FhuFJaVdySsbs6FFzKTzSkYGyaQXnpUbrrlWLv/b1XLnbfeaHzvuOEYJR+hXVKWlrnO1khGVL5YvKJFjwyvILVrQohK2IUMGKrE6Qknh3iqJrLtdpXlUMk0wbjCkJx6Lytjtt5Hxhx4k1ZVK+lVsq2s6Sc9uXaS2CmJLbql0cj645j9ymtB4p9sLkldS2NSSlxHDh0tlUh3qt8RPM0R69Oppgxwlfc6aZlo0v5ii3wkPDYViXutEUio0n8jveKKD8KoXEC3KB/tw4CFq95QNBIy4O2JG+SIbkDvKjI0SyM94PGGbiaUqmEKt5ZMIp683Na7W8lCbICqrVtbbMg/WOpN2LWBNqxruO+pwCE0fa0ICp31VIi3UZ2YgQG47bG1wQt1BsPUFgxEVKnsMtLDmm/xZuHCRPPTQw/LYY48b8USWGVwgLcxYiGmb0b1Hd1mp7cmq+uXqJySXzeDCY9RYBsH59QwekZ5p06bZWd7ILpuQofXFP/II4C/589prr8v1190orS0ZOeigQ2TPPfaRrl17WHwZkNh++x1ME83Mkv/6rx/I2Wf/WAYO6q95WCNdunZS+WqU+tUrtZxoA0NNN3GhXIgLZQTK6zDxc2UGuUY7jSaec8apxz/60Y/McEwghJpBL74hLW7qO1c2cCPtkHVkiHvSRJ2FdBMGAw6E44AdwD8PDw8PDw8PD48ND2HvUQF5xqDtoQNNRy7sxBaVNKDdUjJQVSObbb6FEXE6tksWL1G3USXfbfLcM89InXYmhw8dYn4ESsicsvujzcbbQSRfMYAOvNOaYXh2nWc0XBBlNkfbfvvtjWgxBRnQQUdrxjcA/9CUQuIgZ5BywDeQA95DBFg/jKHTD2GhU084jkg4wk24+Tzat7y6r5Ljjz9GeiiZeOaZZ23qLppdZIRp3cSXKdA2XVoJCiQS8oXcsO67pLIQ7dAyQvDabQ1tXElhqxLRuMydPU/efHWyflcpRxx1uIw/ZC+NAwMJGY27klklveyoztRl/O7atYscd9wxcuFvLpA//P63Sp5+JLvuuoOGJUYqO3dmjXS17LDj9kau/njRH81cdNEf1PxWTj/1ZOnWpatKdFxqO3WWmOaNem9ySbEgu4lYQt8r8S/mpFKzuJQtSms6L7NnzVJCCdHVclJCVtQ4USZZvTJtu1ZNMgUJrgrX8FquihL7Gq0rCZIvOSVMuWzO8oS8MwLdAcqJcmWZAWXDOwx5zTNlC6lD20l+UxfhXDklqwyYYceAR1SJtmmug6zUVqsc5ArSt0+/jnXU4Y7tsZiSPf2WOKK4jur3oRSoHGIirKWnXcCf0CAmcHW+QqPN5nZ8jPwUNCIFJYgQbvKRfHnqySfliccft+PJTj3tNCXfQyx/unTpbP5VVFQasZ4/f55MnfqeynCbpqEgS5cuM5K92Wab2SwMsGzZMjvDG3vIK3sduAEm8oy8RHYhp5dddpksXLBIjj/ueJWN3SycYoHBxLi5Jb7kFe6RK+oI69Braqo0joO07Bpk8uQ3NL/rzR1hs8s4s0NwS1m8+eabRsbxC4PmmhknbICIO1fPKTvC4RqGU7Q4UIYQa5aHUN7YIzNsgki60Hi7eFIvIehshsiadvITv3lPusvvPTw8PDw8PDw8NjxYP1u7bWsNpDmJVrSgnUTtzLHZUl470rmCEoKqWhm19bay3djttZPZJI89/qht9HPvvQ/J008/JYcfdogMGz5YMmnO/M2qx9r7hml8CNbVD283QtA5Xr+TTIccrRaaNdavQnzp3NPhhhizyzn3kBA62ZBsNG909vkW92i66cxDsPEDkgZpQzOGtuzhhx+2aez4wXFNnAGMG8gC7ogPmm2OBeOZDj/EV4OTzTbfUo4+5kjJZNNy6y23Kvl+SUlCi6YjYtpb4sj3xIVdodF619V2kVQC7X3BSBpxJN76iaQqauWdd6bJ1tttI8eeeISSsmPl8KOOlD79+siahtXS1l40rTMb/bW1cfayEiSNUzgLg7O20TomNZ6sgw7z1K76r3fvXlLXuZNN9yU88os4tLW229FVc2bPVcKfVM4Z1TCK0rlW/SpFlEQrwdVn5mDHNVwIeSJSkE7VkLUKGTCwnzz+2KNaFsttozfljdLU2GA7TJMXw0cMk85dOtl05aFDN7Ejn7KZMB8hbu9PnyErly+XdGubknsNR/OWakA5kt8YtJxoz1nHu2DBAhtooFwBhA7ihbaUM6cdKYslUxLX/IYAk05ItnJrI8Awa66USR+m/WfSsmrlcjvSLBJohmkiOEKQTdGiEeyQSabBxyQRZ32x+qH/GYCbPm2GvPfue7buH5DX4U04eARxJA24DZSQT1WC/OCDD9kRXUyzR0aefvoZeeH5F+wKMed4uLFjt7PBoFdfeVUefOBBee65Z+TRRx+1pRCswUbLDJhezo7haPvJA/Yo4Og9NgnkfG1klzrC+esPPfSIktrOmn9Jmfz2u/LixJdMZidPflflqd3khbylbjDFnA38iIsWipVjVXVKXpj4rNxx5+3yxBOP2yaHEG92LWfmCOlkHTebFTIThc3OOFsfWWBqObucU9cIB5JN3SYd3GPIL8qZ8ib+N998s6075zx10s2gAnUUd9RX5JgBL8g3Wn7izsAZ/rr6j5xz7+Hh4eHh4eHhseEh9uMf//iXgZsyqgZSFNEOXHtbqxKnailpB5P1qBDpWDxhZ/1W13WTpSsblBw8Ic8+87TMmD7VOs9/+tNvpUf3btqhbtYOo3bGIZdrfVZij992z19Yv4YL99AXdBohjJAMOtaQiq8qSK+Du4e00LmGbP/kJz+xKap07iEnDG6wNpsOPZufsY6ZY6cgJ2gLyTM64mjP0DxDnCHT5CEdd6auogV84oknbOdl1pnSUcd/7CH1kD/iwHrye+65xzRq/fr2kee0fNE+jt1ue9l7n/2NIL344iRzxznHTDGHbLzz7mQlSd8wEvPa668q6Z2pZH1z2XTEppJSUrhs6QqZOPFlmzVx+GETlIRE5O477pJJr7wnk9T+lYnPyDNPPCUPPfqCrGnNyPZjt5IeSmKjmj9FJXGJZNy04zNmTJU333hbth69jYwYvpmmmzSy+Rhrn9NKIlW6lEB26VJnO7ujWS8pmWRq+rz5i+XhR5+U6UrSdh07RtpWLZUXX35NWqRGdt51d+mhZCuVUqnUvHxr8nvy7vQ5MnDocNlp21FSHSlK33795MkX35BcMSaVWieaWxo0/96Uhx5+TIYOHiGHH3mUdOpcLdlciyxdslIefWii5sEYrSuz5cFHHpCnn3hBVtc3yD777Cnbbjta85/NCgs2w4SygAQyE8ENfjhSxeAKz+zgzZnWrE1mnTRlhnxA3BYsXCxjtttRhgweJMmEyOIF85SUvipNuagcc8zRUlcZlzVrmuSeB5+Vzj26S/fahFRrWlMVlUrmlsqbb0+RRE2dxm2cRApN+u0rsmhlIIcfsY90qY1Ivr1RfvPLP8t99z0rfQYOkqEjBklK2414sWCzARpa2qRbz55SkUpKRmWYTfYee/wJ2xcADfrcuXPkkYcftSnnyCEb0aG17tmzh4zcbKTJ9Ftvvi6PPvaoTNJ0rlixzOLNBoHIMXXjxhtvtDxBXiHBkF0GKJ5//nkbpGAwgtkA1AsGsOrr18h7706VZ5973toq3DY0NsqorbayeoK/DEixzpwBJParYAbHpiOGS4+e3U2GH3zwEXnh+RdtBgm7iDNtnHoC8ae9gmxTX0gTgyLbbLON/OpXvzJCjf+OCPM9dZ166rTT/VSehg8fbkeS4Q/pgXRTPxlwWL+eIs+sIf/a175mpNvlC7NfCAd32GE8vtpAhpAbZkZQ3sgWBnvgZcDD48uF66tRx7hndpJTeLh3HhsHkAE3I9UpRsplwMuDRzloK+inrZUV7cTSDYQWC0eLIS4lJQStzY0yYMAmks+0S6xUkNamBknGY5KsrJJ0ISbFWLVt4kRHtnPnWiV9VbJg/iIkzrSNCCYdWTRIxq6NYYedAoAijemsuKOTQGeWjivaHTRKEMavKkiza7xdBeWZjjMaO7RrF154oWlJncaL3ZDZFRm4qaec5X3vvfdaA3DOOecoUTnGNlGDmHCO97XXXmv+U9g0EOxozu7nEDbsCROt7CWXXGKaROz4no79WWedpaQwJ1ddcYk89NADcv6vLpDtd9hR2lrTctNNN8ujjzwuhx56mBxw4AFy2WVXypx5s+XPf/6jVFVXyJ133yHvTnlXDjxoP9lj3DipTCRlxtTp8vdr/yELl6+RW264TtpXzJRf/PI3svk4dgffTzbpXCHRfJvc9eAzcs0dj8mIwQPlnO99Tfr27mVnSZdURpSCyN133SrPPjtRDtj/UNl7z72UsKFRZ7ZAScNWUqNuMtlWJYAJuee+e+WPf7xYWprYKKsonbv0lFPPOE1OOe1EyadbJEjXy//9+a/y5qK0XHr5/0oqn5ZunSqN4D+tYVx/x0PSWwn1f//4u9I51ibp9jZ5/IXJ8oMfnSvZpkapjDMFvCTn/ORHcsoppyqB6yyFYlpqOgWyaOEK+dF//V5efvVVSVW32rrynXfYX8nza7LjztvL+PH7S6XGMa7kFdJEHYB4U1Y8Q8T+93//1zSc1A3kYOzYsbYTN2eyr0NJ/vyXP8nsefPkpK+dLltutqmkghZ5/9035B+3PSCtiZ7yu99fKHXxnGnC/3zdfXL9jTdL68Jp8v1TDpeTvn6yzJq/VG5St537DpXzzvuhSGax/OXPl8hLU9X9X8+XgT2VeDevkD9ccImsXlOSk755muyw+1hJBCVJ2eBBUeYuXiI9+/aT2iqm6Ivt/RBq0tkoTeVd7Zj1kEyF2mvXEjQ2tkg8yYBHwmY0AMqO9oGBCQgrmmHAoBRaY9c2UA+QYbc+2sk0gxEMQhULDP5pDqlfaPyV81o4blf5igq0xCU7aiwc6MrbIEguzzFeSpI1HDT3sRjr7UOtMqC+obWGRLv6CxgUcJpt7CnPUKNea+ULUafulX9HGrDDHeXMAATtAOnAkFYM7nmPbPDMd24mACDNTqPu8dUHcsBgLAM3Tp6cjABXRzw8PL44aItdm+1+rzmxgt9rBnF9fdu4wG80yi9+u1GWACcf5bLi4QE4zYe+3VpZWbJkiYrJB0fHTXC0Q4+JasdUabZyZp61M6gCVYpAhCr0qaOxibjpja47HQqhyZ69W2cfInTPxls0YBgEGW0eEXObgHn8p0E5aUcOxkRh2npeClWvQUfD0nFZV8Il+4cN/8It+fStWhXyEcmJdhKLeZn06J1y8unfl5sefso2PKsptCkJLckrU5TA//Uqybe1yD133mg/cqsa26Rr9y6SiDA5nI4la6WJgwUYwmQNC8gbhjgg18goO5ATk9CWqCPT0VKb3sclHakyX6v0bUzy6qBk9sSVLdaUqimZTVt4xWiNi4G+IZycGkVJyV+g4UT1OYJbDbdUE2aT2pXsKyVFlof2RRjlDvNFwA4MWlMtbUpzLV1SymodTUkhWqvvA0mViGtMWrSugUrWqRfZnEvtmRVgbpXgaTwTQat+kZS2SKXFulqymhPqNg/RS0o6FkhGw6nUfKrIZKWgpHTK3LkyDM01u9Fr+2GZZdDUhQ2BWnEf2pYXnXPt7IhhxxdfDM7Tj/NorT15A8pjggEd8vPFY+Ph8aUBgs1eBywtYmDHkQEIgBugcc8eHh6fH/SH3YCW66tSrzgik0FfiDeDXxiPrz4YXEcG2N8FMkX5IyPIhiPdvt31cEBWUKA54m3y8bOf/eyXHBeGoJQbdoAuv4+y2ZS6i8bRO0ZNY1TUH3d+4DkvGe12aHjWd/bjj5vw/oMm3CyKzY5C96FBI0QngrWN5aNHHv8ZGGF2+W8MUo0RXkdCzIXBrkZ8y+0YwIlIpi1jppLdrLVcG9bUy8zJk21fgL7Dhsuw4cOlc221rFi0RB5/8il5Y8pU2XzLzeVA26WcPQb0By+pP2ysQdZ/a+PgAloLtVByHhIpXmJwq42gizMXNcQyJIhKVZV4QvbifM435jaGC7WImPaV9d7hh2jVNRbmVsOy8BSEYSSNtd/sBq4+GhnX/9GCumX9NPEgJPNJ/xAHe/xCYHiDKEO8bbAMkq31KVDCWIoySBGRuI04xCRHduhtgjzVuhlCv+dHg83eNJ1R1n+rXT6q3+vbJH5a+hlY0DRQN9U92nrO+Oa71nS7dO3eXZ9JlkuUpXIdyAt3y6uOMuGC/Qe/KnP8udDh6cfBAilzYAWx/gc4wp8wRh4eGwr4XWQ5hTvWkd9pOn7AEW7XEfTw8PhicPXJkSru3Qw1tJ7Y+bq2cYCyps1l1hkzzJABJxPOeFnwcEA2+K1GTiDfPEeUiX9AQkLCiwmtQ823/pij9VRAnCSW1I8T6kLv6ZSu1Xhz5cc/JEihXx8vgEQAwg0QVKbOMa2aTb+c4DoC7vEfgJUB5cOVcig3Hei4LS/lkn2DnRI2rpRxAS2y/ljpc5q1UcWiXH3Z5XL9Qw/bsXRKyaVTqkL6DBsmuxx0sBy8//4ysFs3yeu7Vv22plNNh8YbdBDp8kCNCRMupNdpMIkcxDMkn44/cdWmUW9wG5F8BP2102sqGSXdGldCw0fIeJzdyoC6xS6MB3YdGu+gQ+Md+aDG2xDDDf6m1Gv9UsO3qHTE54uALCA+zkCVY8WMBpfXKMSlEKvQMGOSLOIyIq0aRe4q1XG8QPzVaJRK6tYGIDTtUdOEx6Qtjq4fjXdBYoHe5dWhEu+MXrIaToVmZIpTD0qBvD9/jgzddFNJ0jmx/NMPP5DAjvuOC3Fw4N4ZQN7irPzrz4XyQMrxIY/JufIYuHscEhsXIw+PDQP8brJ3B0uDWGJQsLoc/qYC3tsPvP/99PD4QqAviqIIQKpc3WKqMcQLjSf1zNe1jQPIAzLASSQMurCsDTvKH3uurh328AAsS0FW3OyIiArPB7qnjvCuQ/jsmhTrkuqf0J3awmLWEu91+LA/Hw3XoIHZs2fbek6INwJMZ8JP3/nPIdTqUthavvajYnri8GUHKP7yK0DXCsKp5voVGlSKOcHU7UAKmYxUJypk+bJl8tw7b0pFskI6KcmL5wsSqayQbkMGyYA+fSWWzUkqmVJqG0immJPqZExixAOCa1pvC4ZoKYisdj4hvtBFZNK00JBuJcUlYtIBSxgpCWWvaJQbeoUd3+l/Dcc0yWof3oVu1y6vAIS3lninNAwNK6qkNdquz+pngePTFHHOmNbvSxVqr9+vjS++fzFYKmjwuVf/IMiJQk6jVpBSPCqFBOuY45JC1a1uW8gKDb9aox4vkKa89tb1hySmKTTirT8a7IqufraxHlpdVAdKvJW4R4r6of6gZNR9SLxjkipoeWr5zlk0RwYNHSYJ/Y6sp5jA+in8KHnBjTPA0dwvnj1lgXwAH4pVx5VcXB/4USY7Hh4bAPh9Zaors8NYlsX0x/IOn/246/Nn/R328PD4eLj65OoUBBzijRYL4uXceHz1gQwAppoz8MKGw+Xtrbv38ADIAvt1QbyRFbObPn36B1oLCC8/4iE+usPJDue5HFox6x6r+XCHlWONykn1R4FwcENnAYLNcUns9DtmzBgTXqZyeAH+zwHiYyRIrzbTQQGZLheYjybeCn3W5semaUe0jCHeQSwiaSXQTOyuLsYkUZGS5YU2u9YoEUypSceVZKc0VJYhNLVLnf6oZZT+Nbc3Sy0ba0W0Y2nEmyuBqjGmpwGYthmD3BFp3EC8IcXKOC01uIWga5z0KYS7cylb92YdwnflaZco/mh4WJYq1SixjqaVnLaonYaX764v1K94g14KGmRNaG8DVWEcPuDf5wDTyYuaJyUtpEDDiKm/1bm8JJVU5zSb2pOaZs2D6mxK3caksULJeLQknbT6VpiWLKekuygFLZu8dibipZhU5CDzgTRXhTr9Sv1D2UDKJRENy0h9q1KiXp0NR3+nLJwtQzcdIZF8SaJkf0cWhvKyLpUfJS/cl7viLARkDvPvRVmkPoB/e0Q8PD4R/D7S8Yd4s86U30rA76jr/EEOCh2acA8Pj88P+qEYp/GmnpVrvKlvvq5tHKC9de0vAy+QKWQCuLYX4+EBkBc2vEZW1mq8Z82a9QEJcZpmEOor9boe+eUM4qAEOedT3n1YyDjeyQnjxwHSjRuIN4YjkzhKjM3V3HuP/yC0WI0AhbchjCSVoUM0yu1cqUOojHiXVND0CjnMlQpGvPMrWyTCBno9qpT0KYlTsocGNaMksCWSNe5cVYyb0GaV/uUKeamIq5ygcbZ10hDKjsAtkoSqMuk03gZHvJXsQtZdSoykryN66zYD0/dO1u3lOvtQAx6mx8IzO+pJ2OGNmDZbw9K4S7RN7zW8IjsYqn8QccI0co4b4qrG4m2ff25QR20FufrDFP+4PlXmNY8LWo9jJcky3qDpT0G8I1FpSYWkujofSMqmnxckiBWkqAkr6vuYEu9ETom8PrdV5EPireUQL6LJLrHEvYN4q72GVqXEu6j5N3X++zKU469IlhMAg+ZzeRrLs7cDaOrDfyFC4q2m4/nzAd+IiPPV+ca1/L4MH4iog37/UdYeHv9B8LvJTqlMNafzD/GGFPA7yg+7+131HUAPjy+GciJFnaJfuj7xhpR/Wn/X46sBJwNMNS8n3k4G3CCNhwdAXj401XzJksUf8cscCo0j3iXtkJd3X5nYyq7Q6zq15ej4ljN8DB8lgKFdNBaOHjqBZY0355JutdVWa0cWuXr8Z2C80MiIK0NHojrK1ghTiNA+dKclalen8XbkO9Abm2mtLDFT32pEPNqlUklcTolgXFKSkEw0L+1KnuPK8DrFK6WkDVxbIS2JiqRtfhY1LTYyoWG4wAnOtN4MBqHx7hh5NrLdQbxL0LkOEG99IJ7YxWytN2nRjioadUDlUBlH1tVFqFXWu3iAvEJxtU6Y5jzUeEfQqhvx1mdHvDummkfWTjWHeGvcLSL2UUe+fX4Y8VY/rDaqfxDvZF7jyI508ZIUkwySad5lKyzcVo0mM8arNclxPmJAQPM8UJLO4EJESXYkp+nQaKYr2tXfQIl3pcSKasE6b/Uzy1RzjXhK05hSfwqlory/YJYMHj7CzvaOlvU/rIjWpnFdesNrWID8JffDJ4KmXPSfs/hcQB6ISOh7GAkXEdLScTV0vPu48CwiH/fSw+PfD34bObueGWJ0/ukI8jvqfi/tx12fPfH28Pjy4OoUV4iXm2rs69rGA8dNyom3b289Pg7IiyPe7jixaNjlhGQ4Ezr8aNOxc58KmP63j8sNdggfBpYfQ0PJNRaX+EcY/GLkEMM9nQc3/RwB9kL8BUH2WR46U05EPgmh27VkSP+sI0Zceaem3G8rL/2qzCoMu+PKe8i3XnP5nFR1rpWazp1s8AWq60hWVGUmlUhJnE280kpY1/pVZoC7GjperA0vvDVbd3X34Z/QGOxNx3Noym7NnrPBQ2obrl5f+ylPHffYhYbGl4GqcLDKjHtn/zrsOszaO3sIbT5wtcDWM1zCPyHcbRhIB6jNCveHqxqtomY+iNDmg/WNe+SlQ2Z4VFJNJedf2AZQ4Tteu4G2DqfOgPA+TPtamKX+WZs+B+41TNvMscP+A0463pfHDXyUG/zoyBMXVFg+ZhU6dzf2sA7rrPSv+ROWvQs1xLp3ZvS53A0mdIOtg3uDvf0P7z/4RYd9mVsPj/XA7yQdQOB+o61OKtzVw8Pji6O8fjnD72W58dg4QJu7fnk7mShvgz08wEe1E5Hly5bpXbkQ0ZmOdJBfFSZl1ExRLUGarMMdSIIzg0pKkAt5iScS6pwpbglpbWuTRLLCyPYHhVO/1NsOKmDPoMCGTeo/wkp4U6ZMsV3NWeMNGff4AiCLLZvJeO2cGbOlk4ZGhIaBMtL8twYjdIY1ZVYq5bQM9Rk3QVxyhUDiWuZ2VBR+lAqhc46WAmpfhNAgJ/poGm5zq/6VOAOee5UpOon6SXtbWqrilSo7cclG8/oBG3oRs6hkgpzkI0xHj0mhLSudOtWZlryo8hYrIY/xDpKuMTHCo9+FEVODflbjhmZWI0BwkUhSr/YybBTtDkOkNK2aXjTA2JmuCJlU4qyuNT2cvs1U8oylvyQpyReQb5G4flAstKmfyLDKaqDhqEemCzdVsvpmGnf1O8L2cORDyvwm383eioIy0GfT4mt4+o704I53RNM61xoe8Qckr1DMWl3DJzT3ea0/1MO4xidW1LrHLvIaZjRFByEmkQLaeNH81nqs+c2UcP3I4hDBTtMaIX8IF+22IhvLqH1EkkFCorY5Xegur+7zGnBC/U0WNC6FokydM1M23WykpMgcprCTpyZY9pXGgfiT66HMIQskB3lDY07ceYfrmAWlV+a1axgdybe4ku5INJwJU9R08j4eZymBfap5QTgFjVPW2qEia85j6g9lpOFq6BYmohPTfI46z/UNS2jUcegVceemmNeSVHtt33IlCh4p1UerO5QpjixU/YYV9ubaUNL4xfJpSaa03EmLhZPX9OCCM9M7dshXf0qkSxMYjSFjYZ2Mad2w2RWW9+GgJwjrKDMvkPFwSjHtJ++dG4+vNih3ZogNGjTItC7IRLl8gLBtN6Hz8PD4AiivU66tZXNDThRA40l/1de1jQO0vcgASw3cOd4AmSiXEw8PgEywLMxpvJGNKMQDHuBMKDauoaFLrx1M7aUGRTaH0k6o3ie0462SJ9lM1oRQ/0tMO7/pTF6y2tHlGKaidhTtOKa1Gib9pzdoSiPKHDBx7TASCWdcx9EL7RcERfcBowUEWzNKgLHSsIEPiB7lh8EtRLmgZEECNs8rSE7JX7OyrDZ1C9mi/EqFjJRyuGFwBoIHISqu9R3eFbCTub4rFfK2GR/vKX82R6vSjmJ7uk2JijrU8BGngspXTt3ls1kJckq8lQBVVlfpa/UfwWT37KySavW8BKkkPDbwU9IHwaEhNPIDUVOiiMmpVU7dpvM5yWq6bEd1DZM1zkXyo6RhKdFvVRlt1DDyGvuiEraAadpKKMkT1pZnc42aoHp126p5IdJOfpHmXJulL4Bwq3d5zaBcXu+VhOcLrL1mGECJqnqUp55puKQnr4SXM+xJF3GnfGzfBHWT17gycGCDB0bQ2HOBPMxpWWlaCyGpbGtu1ndGIxnLsDyLkgfqJ7Y2oEBBQO6UuJUYfFGHrNPOp9P6TvO7lNf0FZR/EwbyoN9BgNUdXI/d0KM2fT6i2a9uiDtRUmLOwIhJUUJjoE4grMqrtcw1H7QdKLAzOuWmKCFnHemjveDKrAe9hPe5rA2sFLR9wQSBlmspo9/kwr0iNEzNApKrz2mNg8pOkNb7dslk2o1ca9Q0TzH4Hb4LVDay7Sp7OcKPSEbLJ6v5ntMw0/rO8lPDMFkvplWmW9QfzRuVi0JJ84X8UX9K2TaLX7sKFLUiq2HlNM+oK1Jo1wS36feaBvU3o1atGo+M3rdmi9Laon5qGGF5k1691/hThhR9QeNEWefy7XrPbvgl0Sqg4Wq+qf/sH1/Q+pbLIQO0taEpaLmRp5wlW34lPz02HrAHBnC/m65++d9RD48vF64+cS2/Z+DT17WNB+vzlPXlwcOjHE4+kBnXVnxIPUKHrr293RzA0DmqxLSWSgASiZhUVCSsg8cU4W5du2pHO6okoyDpdEYGDBponuYgRHQAzEcEcZ0w4s/aJ8iAx78OFIAzBvKbcgnz3YiQGi1O7dTT0afDFkhSy5myKUGG1F2yMipZZQmQWBuo0bItFpQ4KRsqKdtRrqSkIxQlSBb/cuohZDqRQOur9CGXMZkBFq6Go76hxzMSV1FZIe3ZtMpaIFXJKiXZeZM9iGo2k9H7lMaj0qY4MwhUVOIWU/8SqYRpTNPtafVZG0P1DQNJScQrpU1lGYFPql9GUCCuHcSFWRtoT9uUaDVkW42IEkdmYTCCwPFZyWRCKlIxjc9qWb16sdSvXiUt7eSBSKqSBdOafxklsWpIVyoZamLb2pW06TWjpCkNKTISqsRMGRV5qBVF3aPVVFKs9SWvBE+ttH6xHj0k1EayNM6kM6ZxKihBhWgGmuHJVFLLADYKoStJZQXT8/FLCaWGG9UOebyiUv0gHMLNWF4m4jFZtWK5tLa12IyDgpJc6q9+ofHM26CJJtsGWWwHeY0LUW/LZKW5PSMtbe1G8hgsgUgymUCzyuIK6SasvBLNjJL7gqZLk2H56X6oMDZIg9Dpy7Bs0Aij0U1IPJ7QMtYfNnWXyWakqVGJr7pFPvkkpelOmXahqHmlkqPftLdrnuo7FRP9riQNjautnQr0o6rqGtM451QeGps0/q0adw0zkYiqeyWzMFwEWMspiiadRGhu5JnVoXGo0DYwqn4RQCqFbIk0p1XCrQHVvFFSHqgxWeJZHeQ0X2gxa6oT0q1HN/VX06x5UdD6E+Z1qLEnKEei0VqyzIIAKhIqRzbeQd3kSEXqTVTa2zKa9/hTMMJF/UDjwvIcrn6WkIeHh4eHh4fHhovYj3/841923BvoONMpdqSb3VLdGaF0Etva2qSttUXvmR4aMcLdrp1ySER9wxq1V+KmHV06lnSs6ahCIkITdia5Gmx6adgZJ9xVq1ZZB5SdzcPvPb4Q4BAgLAQ1zkIJmpJdxl0gBUaWlbiQ5dGolquaIMhLU0ubtBeiSrgKUq3kM6oEpVQIy53yQTPZ1twi9UpmautqTZuazeSMoLMEgSUJzJCAEEA8W1pa7duGhgbbRC+jTAmZYpCHK2WPccCtCwtKbcse1D6qhDFiBDkkycgnZCShZCSjpHDlqpUmw8hUU1MjXxrxzigJz9rZ4BVGvMgF8qUQrVQyVyGVyibzzRrHEvsSMLVYCV+gBD+Rk2VL58lvf/Nnueyal+SIo/aX2kREYiUl9XEl3wwdKGkKIkr4lWsm9F1KSSHxhjQnIVQKdmRPaF4kNf4tmm8MFlQokUTTn9UCYKMWBhxWLV2mxE3roeZdS1urrK6vN+JWU1WjhCwpUf0mpv40rF5t+VW0KeNhfkDC82jIIXh6j4GkUQbUXe67dumiRE2/0/QRR/IQU6Hhh0JDnovV7SbNj2g0ruGklNwr6dWwGUyxARgl+EzXzigZbGxslJ5KMiG7pCNZWaF5E9X8zqg/7VYelHc6kw7fqyEk/MH/5uY2aW1vtXJkUAfCmYwnNcxqmTd3tfTsWaVtUSDL6xfre7TSRWltg5SLEtxai0c8zowByLKSX5UDNPl5tN4aPy1sqa5R/6pCDSHnwacSWh5aPpq5aqEypXkbkB9aji1tWSW62q5pAOmWJmlcvkKSmv9RlaO2jH6r3iSkoM+aCvWDWQxt2aLkolqvtLxzGY2XuolpGUbUj3hM/SbFGsdoPKE5nNC6EZViLitrmrTd1PgwM6OUL0l7s6Zd45YtpTtmYWgdVfsY8ql5w8Coa5eZ7kiZYhgQQeY9Af/qg3Ku13aBdtTqcEdbiT3AzsPD48sD9QtQx7hvbm62PjK/we6dx8YBZKC1tXVt+YNyGfDy4FEO2gr6aE5WPvTrzEvWLDQ1NdnxXnTyIMI9evSQyZMny0/OOUfGjz9Edt11nAwbvqlsudUo2W67sbLTTjvJtltvLfff/4CsXLHCOtAe/2FQ92kAWBxrDQEDHdDNsNhZoq18xbSp8bgSSVNjYrSzn2tXwjNXdtx6R9lqyGby1EOP27rmiqpKCZSUZtrb5Kn775YJBx8oTz77guSVWM99f7ZUKaGtqU4pIUFD16ZkC5JUsGUFrN9H8Hr27GlyxT2auvJOIgQtnU6vJReQcho3iDZa1HYNF1IWMY0jaQpMW15VXW2H1N9y882y6YgRMnjgILuO3nJL2W+fveWB++6TKg2rK+uxIO1hcEb+WvNtsqxxhbRm2iSl/kSLMdMcJ9FwohFXe9bfYjiPL6FkC6INqWWKOPHHoJlNt+ekpbWgJChsnNvSIaGE5jMDoLmlVdOQkU61tUqA60yzm6qqkorqGklreu+56WYZt/OuMmTwYOnTbxMZPnKkjBqzjXzz62fIK888pySsIG0FJYWlvHTTOhlRYhnXOgvpBsQjlaqwvIWAkX+AvGI9khuQAEzTB6lkyjTHEOiW1nZpa09b/lRrWffo3sWINssSWErS2NSqBL7d8tA0wOpvMhmz+s4Ajq23j5WkpXm1NK1ZKZdderFsNWoLGTJkoAwaNFAOOOAAuffee618GxuaNQ7EJSJvvT1Zzv7RT2X0VmOkT58Bst3YXeSSyy7RsGMyfHgPzU8GM6Ly3z8/V0ZusZ0MGjJSho/YQk477bvy1lvvqcwUtPzbVJ5URpMVsssuO8nATQZL/z6byLAhg+XUU0+TiS++bOkFYQ4oNP4MCAQmEBFZvaLeNMv19Wvkggt+Lf00LpsO31wOOWS8/OHXv5LmxhaJJANp0fJVLqwelWT53PflNz//qYzdYZz8/II/W73qUq3ZoPnR3NCopFqJsNaxnLJxliAUJSWtze3SVN9g+2Lc98CD0rffABnQb4j06t1Xzv3RD2TWlGnqVqQtL3LBhb+XISrPQwYNkU369ZMRKteYbbbZxvbDeOyxx2wwi7Jw5e3h4eHh4eHh4bFh4UPEGy0K7JxF4GzcQmeOY0tWr15t5Ppvl1wi99x9t9xwww1y3313y0uTXpSnn35STj75ZKmsqbHOYNdu3XwH8D8NiMRawx/W5CpZ/HCRo7DT8tIb04grGWMqtxLcxQvm2age62EffvhBeeuN10xrimawUglsdecqiRRzsmjFajvSqlf3OvWnKJlCSfS/TdNNVUDqNAB9D9mC5KCZY0YFJBB5gzRAskMizXTilJmJEyfKuHHjTP4IN6F+se47XyradGWm9cJ9+PbtyW/LT37yE/nrX/8qt95yq7zzzjvy2EMPy5uvvyk7bLe9nHfuz+TPf/yTrFyxStasabBwUZeyOVZ1vEp61fWQ6lSVxjUmscqYkifNEM0KtK5VyUq1L0n37t1kwICBUr8qqqZBipoui7MaNpaDgNbUJIwsahZp3CJK9quUwCqZV7fs5F9bU63vU5LLFCWnBC/IodNUUhthyntOitmcDOjaQy76/R/kBa1bE199RZ594VnZcex2cvZ3vi8//N73JRJToq2mwNxqMkDR0NigpLhRmlqabYq2I2GEizb6oYceku22287ylDIg7ymXgobPVH7W6is3lBrN36qqcNO2PIWoaYBkM925Qol2XafqjrIrab6HxB1A8iHdrEUv5bOaD5Vy3/33SVNzk1xzzdXyyiuvyL333WPnDp9zzjny4sRJghadvLrzrnvkmr9fJ3V1XeTyK66S9957R35x3k/lisuvlvPO+42RbnDRRf8nW201Su679xZ54YUn5eK//kmKQVZ++avfyptvTpUePSpl+fIGOVfJ+dHHHCVPP/+YkvKX5Ne/Pl9lr1X+cfOt8vSzk6ShibXUyE1R1tTXS7K6VhOradHkduneUx548BE585tnSlNDszz4yKPywosvapzPlpeeeVTJ9y9V9tolrgS/ZfVKueXSi+W/Tj9TbrrhLgmiFdJLyX5WGXOjykeslJHazp21DGLS2rDGBp8KKgPpQPNS28o5s6bLOd/9jlx3/fVy0113yxvvTpX3pkyVWVMny/VXXSKLFi6RYiQl3zzz+zLpxYnyvLaz706eLG+//bY899xzsttuu0mnTp1sUJSydsbDw8PDw8PDw2PDw4dYGB12OtFosGwtp3bO0UrSoaPD3qgkCW3a1luPNpINQW/Rzv6jjz5qmvHKSu2RKpxWzeM/C0oBAwkMSTckJryWlGhgeG+TuM1CCYiSQJ5bWholiCdkwlFHyTtKbJ947FFZunyZkgF9W8hJPNsqyWgguSAuebWrrauRWIRptfptpiTM8C0oCcyl00Y6INPIE7MqIL7IGtrs2tpau7oNopA/tN5z5syRhQsXhmRfyV9La2u4SZkyRDb/yhULklb/FyxaKI8/8bjt8vtf//Vfss/e+0ifXr1l8y22kGHDhskxGv9tRm8tr0x6SZ5/9jmprq6xMFi73KzEkDXFEG5IYjbdLkE+kIb6JmlY02RxZDo+5J6dCVesWC6d6kpKeKosTVoxpLmpWdpbW2yyADkZ0/S3teU0PTnzm7rU0taydmo3/iWUpCeSiXBdtH5TVBOJJqQikpB8S7tpxLv17iGbDBwoAwcOkvEHHijHHn6kLFqwUK6+5XppCTIS1/xkijSoUfc1SubIS+pqS0uLDZoQHnmLYUBt5cqVVo/RtGNH3U4mkrY+HILN/gyZTE7jXLJn8ijfYdfascYYkFbKCvLKJm6EiWQlKhISVTLNNPP99t9bTjjxWBk1aksl3L1li803k+OOO0bzJqPEeZJeWbNeUhL+ktntrkRy993H2YDfNmO2lp122kEefPBBlRvWvovsteeecuwxx8l2224jI0eMkD1231393NymW0+bNlPjFNP2qEbDOE5OO/VUGTFM827IANluh201f6qVlC+VTLZdaqvDM83j8Zh06tzFakM2nZWCGrTQy5Yul/4Dh8hBhxwi2243RgYNHSY7jdtVxmwxXJ5/8jF5b1aDLFpdknffmyEvPvO8bLvVCDn2yAPUr07SlNE2U/3t1rlay7Oo+cgMjozNaogzC6RYkpZ8SVqbW6Rp6UKpjEXkMC3XXXfdTfpruvtvMkCOnnCQvPzSRJk5d75Iskq69+olw0YMk+EjR6gsDJQBAwbYrKSpU6dqO7y1tbuUPeVpA0EeHh4eHh4eHh4bHD6WeK9/D3ngnjVlTO1lUyLeQ5CmTp1m5Ohb3/qWHa1AB5AOv8d/FvBAptBi0F3ac4cph3XV+ROoKzaagg0mo7aJmbIFOeSwCTJi6GCZPuVdmT5rrqSVm7OxWpBuUaIdSG3XXjJ/BfKgfpQK8vKrk+WiP/9Nvvb10+XYo4+Tb53xDbnhuuuMvAKWMZx44onywAMPGLFmyjbXiy++WK644gobxPnDH/4gV199taxZs0a++93vyte//nV5+tlnZOmKZabxZuMr0sEU6/rVq2Xe/PkyduxYOfTQQ21KNbujM3OeKI0du73su8++kmlrl/fefU+JYkHmz5snd9x6i/zlL3+R31x0oXz9m1+XX/zyf2x6PcdrzZ47R/7057/I4UccK9/8xndtlgfkpmfPXqaBZRf/Uj4vc2bOlCuvuFy++c3vyFFHnyDf+c5ZcvfdD0i6PSMJJZ9NLU3yyGOPyBVXXiEXXnihnPGNb8r3v/8DeeLxJ4zckr9sttUmStSFI9OUxCqZ7d61q1RV1WhcwuOt+g4cLNvtvKu+L8mD996jxDlp2vpSe1qu1Xz63ve+J8cce6wcd/xx8vP//m95+ZVXbB01R15ce+218qtf/cqI+GWXXiYnad5fe801lgd5JYqrlIwzS+D440+Qo488Sk4+8ST505/+LDNmvm95hba7ra1VrtFv/vinP8mbb03WjGWKOWfwhwMJlGFbe5stQSjmsxrnovTp20eGDh0iXTQtTM2nXejXbxPp1KnW1qKzLjuXzcmKFSule/eeMnjwYBsIyKgdJJYZNsuXr5DnnntN/S/K8BHDTWPOoB67olt59OgpNdWaTx2zNRobW20aNmS0orJSIvGI1KlfrLknTmjYI9o0ZXN50/Cz6CCrZRWvqJJossIGFubMnq9xyCuJ7ynFEhv8RaRHz+6yx047yEIlwyvXtEsiWZLhW4yUb3zzVDnu1ONl2122l959+2kpxpVcFyTb2kwlsQ3sKIe4BkZeU2bkWUnjX794oSxbskh69uknhVhK2phAoO4OP+QgrX5ReX/OXFnR2CIFKrDGPqbfkUrqxAsvvGBLK4444gjLE/KW+mUzOTw8PDw8PDw8PDY4fCTxhjTTgaMj5zRmaLTo8PIezSX3rS2tNk2YaaQ9e/WUQyccYlow54/HfwZGtrl2GEg3QLPKc0hHjTuZCUl3YBtJsTkW9xJTQoV9sSR9+vRSAn2E5NJZmfji67Jo6SopoQ1VUtjWmpPm1japrlIKk8/IjLfekBuuv0mSSmT23W9fOfSQg6VH967yyCOPyH333WdyxZRz1nlfdtllMm3aNNN0P/3007ZWlWnREDBI9FZbbWXTmsePHy/777+/9OrDjIoqJbQJYfMwNh9jkzEICNruYcOHS7eu3ZT0tts09zBNgVSlKmTo4CFSU1UtixctktX1qyWvxOvN116XW269WxYsWiDbK6li6m6X7t3lhecnyp2332FxGTduV9lmzGhZvnS5vPEGA0yttrEWU6pnaJjX/v3vpr1kz4MD9t9P+vfvK/ff96DcfvvtklGihTZ52rTpcvstd9j096FDhqzV6pqOuKO+hH9jtic7R4bZ7AAlq9lAyXgqITWahn4at2H6/eKli2ThyiW2MdkTDz8sy5YuldFbby0HaT7ttMsusmzFcpsBgIae2Slbbrmlxm9XS8/OSmYnTJggI0dsaoSVDQ3v1Lg+//zzlgbWMm89Zoy8+eab8o9/3Cxz584zrS1ry9nj4bXXXpPVq+tNY47woA3nvbUTWi4QTaac2273bMbHDAqVOmYUWJuh5B9t/Cb9+9tAHhr4nJLdPr37alnXqX/hZnsVml60usxOWLmyUduZrN5X2OZiAKKfyWVNltgYDqINka9SN6xZZ2d12zSOzc3Yob+QN+lnl3q+Jc6AOMXQ+CeTtoFdY0OjNDU2Sdeu3aVfv342M8F20le5HbnZCDtCsX5Nk8p/Sbp37SxjdtlRBowYaksqGCRh3Td5kdQyY/NBm9nBbABkVa+kOa8VtFnzoWnNKklqnIer3NqZ4lYXI9K5tkrqKhOWNy3NzTbIVVB/GKxgcIw8pLwYBHXTzWl3Xdvt4eHh4eHh4eGx4eFDvTQ6orZpFKSlw9CZo1PHfUE74LA31sA2tzTbdMd3331XdtxhR6nVDiAbO9EJxA+PDQvriHcILVJbK+3OXLbBko6OuxZ1WIZKnNhsasedd5Yx246RKVOny3PPvyxtSpY4UsnOTVZigEYR5nDvnXcaj99rr13kpJOOl6+d9nU5+tijjURBvOfPn2/Tob/xjW/IvHnz5GEljnfqNxDzTTbZRPbYYw/TWO6+++6yi5JIvttzzz3Vr5OUQG4lNZ1qjcQhk1wh7UuVeLMHAWtdAe/sHHEIj6arkMtJZ5VNCArTrNmkDRLEoFFLc6McdPDBcsQRR8qE8ROkZ69e8tKLL8u82XON/J9++qly/PFHy86a/i5dOul3ceHkMjYSI+5olHfaZWc5+ZST5OSTTzR/SMfdd98ly5YtNwKJhn/psiUydrux6tfxcsSRh2sah7tM1vxij+uE0u5wfS7ndjOTxOqR/jNtsRK2LnWdZfCgwZrfOVm4fKESvah0UcK57/77y3HqL7MCTtB82mrUVjJr9myZ+OKLVie33357y9fKikqtpzvISSeeJDsqAWdQYOILL8i777yrebuFfX/y174mJ5x4ommb77vnHtM4IwfMIjj88EPlxBNPkGHDhna0BeymDmGkxEVJalLzninzUSPqEMWOV+auvn6V3HHH7TYrhjixQzo7nrNZG7KHBp2ywz/SzCALRJWyYnd4NMUMePCeuL/26mvy8ssvSX8l8Ztttqm2SVE7I97kA7W2hR3Ic88+a5vijRw5UgYOGGDtl8m2+kM7ZlP2adM0bHbF58xs8qq2tlrjFO5MzwBJdWVK6jqlJKvyxKBHQFuYSIhGxo7PY2kB6UioPxUQcSXJLm/UcyX36ha/1Ip0IIfscF9X18l2V+cV78jDCiX8bNYH0WYtPv7gFZsVzpw5U1566SXZe++9pU+fPpZHyIrVCU2Ph4eHh4eHh4fHhoeQZa0HR7ZdJ45OHXZOo0Inms4eGrQ33njD1nWjeWEtI+QG4N5jwwK0u4MGrAUEEmM9fjr3Wr4OVt7seK2cukbLde+991RSEcgzTz4l78+aK4ESHP3AtNKZvCjxyMsLEydJU/1qmfjc8/L3v18tl152hTz19HOmWYWkukEd1l6jyWbK7KWXXmpavAMPPND2DXBunPyxNhm5Y5My2xCs1DH4A7nSK6QU7S1EhY3FkE1e2ECCmpiSI3YUZ9CI9eUpFgzre/wcOnSg7DVuD6mpVJIVT0jjmgZZtHChkXiIGprnWiWKo8eM0Tj313gh22Ja20kvvqSEf4288uqrttngVVddIw888IisWb3ajgBbpQZAwgYNGSS77LqL9OrV2+JF1IxpaRrJfQg2cUKDz3s761uRiHCGtJJxdZtTt+1K1qJaIBBM0ruD+tmgxP62W2+Riy/+q9xyy80yfcZMWb5ihU2/D8PSktc8hbyRVzxDjJmO/+7kd5TIzbBp50w/v+KKK+WhBx+URQsWSJPmO3WcXc5ZXjLhkPFy9NFHdWy6SPRD/wBtRIiIaYzRhEf1nUsPZf/ww4/IpEmTjOAzOMEaa96x8Rn+2RrlDl8oGzd9mnLDLVyZM7/Jmzlz59iGcY0a1viDD5R+/XpJul3Jvr5jynssGoY75b0p8uCDD0lSy2CPPXaXvn372TRzNuz728UXy5VXXqnXv8lVl11mU7iJCBvNESZpoBjwB1lkNnuKY/W02KglEU1bsb1dStruEW87Y1zri23UrjYcocfg0t+v/rtcpeFcesklcuXlV8n0KVMs74qBGq17aMXD0uYYNEg9gy/sEK9hamBc7bz3XEGWaT4yO4R0Ul+QZ0D8sLMBBQ8PDw8PDw8Pjw0O61jWPwE6pW2tbTJ79myZOm2aaSZHjRplnWWMx38WEASIgDOuRNYRb9fN1w67EppYQklKTN+oNcdjQaaNbCixiFdVKlFN2nebbb6l7Lj9WFm9Yqk89/RTkk3n1K2+KeYlFQsk29pux00tULIxZcpUeeuNt+SN195QYjfL1uPuu+++pp1E6wxJgIBxz6wJiBiabreMgfAhc7znW+xySqqjSlZIH+QIbSBkB60fRJkp58gmxCyp5Nqm52riSd8aCGS6XTp36WwaV+S0prbGdilHe5qIQfoi0tywRlqUyBIPtLwE5sgP+xigoUXJyZRn1iIvXbJE3nn3HXn1ldflrbfe1rROVZKflYMPOUS6aljFoGikyDbEquu8djAB7SznkUO8yfhACpbHCSW4BY1zVTVT6vU9O8Qr+WTn88a2Vpm3cIHENa7d6roYeaYcrrvuWnn6madtGvgUJXXzF8w3gs40c4gY2limgbN5HANj4bpmJdNK2thpfdWKlbb2/bXXXrcds2fNet8GSo486iiNc52WQ8k08EzvZ2aEmx0RpkXJniN8Vi5i07E5eg3yG2h5MRvhySeekIcfeVj22Wcf+fa3v6XfRpVUF21NN6SajdyQUJu6zjR1TTffge7du6v/ES1bxC0q8xfOl9tuv0MWL1kqBx10kOy9914WD8gq5QXxRj6YtXD9dTdpfCPqbrxsPXq0EVjILgMnr2t633pLZfR1vb79lpZ7g1RxXnlVhYYTmPwxU97aNZWRdL4kTa1ZSbKuHWlRQQjUryCvZRyJSUrLk3eIpmaZzQaBzL/99mR5W2XjjdffkHc0PI5bjCtBr6ytDcm7hgNJJwe4b2nLSEbzpkplgXwqaKYygyOtcZ79/mx5+eWXbekFbS6DTMg8ZUEZrBsA8fDw8PDw8PDw2JBAX++fBlqohYsWWqeVDvpOO+1s6yGdxoVOOcbjPwtKwEi4GgqarZnMDoakgCCwtjSWUFv9jy3EKXStHXllrVG1X7O6RUrRpNR17yGHHDpehg0ZIBOffFJmvfeuVFbHpJhukU5J/SpZISUlUeOPOFR+fcF/y1VXXirX3HCNXP33q9T83Y77AhApiC0bqnG2N5tDoVllTTJXZMgRVNyhUWf9LVNz9aXEo0pylDAypZgId6rhTOwuNo3doHGGvIVniCtZUiK9eOkSJU8JGTh4kJFPCBykJaXkM1tUEl3ISklzgI3A2CEcoplVop8ycqUELM8a4xrTWDc0RKS2trPGq9K02L/59YVyBRrNSy+Wa6+9Uq666nI577zzZOSmIywerNW1HduVxUHiCDsksCVNTtGmw1dJUpJqn9dCaSqxM3ZcEkrm8rmMfscZ2QWtaytkpZLRTXr3lXieNBblV+efb7ry//nVBXLDP26Wiy+9VI474XjpP6C/rTsmL9OaD1ydBhnCTr4yYyCp4WwzZhs596fnyo033CB/13L6298ulmuuu07T8N8ybtwuWkZdNC+zNpXaSLYa8jWXUyassA3LrL4zOJKT7j17qf+VRko5uu3JJ5+28/0H9B8gZ511lnTr1lV69OhqcWKtP4Mhy1cuk+YWNM4lC4e124uXLLYy3nzzzTW/4xrfkixavEjuvPMeeemlV2X77XeQo446SsuFWTZRc5PLaV6qvKD1v/bq6+St19+R/fc7SA479EgNq48Rb9aKjx49Rq69/nq5/Mor5Jprr5LLVUYHDBxg+xl0qqtRmVljSxGoDwySFDUeM+cvklwpLgN6d7aBgqKmP9a5q5puwpZm2XSbxAsZqdDqk9e0R4O47LjTjnLZJX+TS6/SOnCN1oUrL5P99tzTdlPv2qeftKbzsnL5colqXiDxNSpT9Y0tktOy6dent9RVVsLGpaTPq5tbZMrUKUbm0Xa7pRXIFnnpBz49PDw8PDw8PDZcfK5eGpo0OsYc4zNQO/hDhgy2M4TpAKJ9qdaOryNOHv9ZQIcwIemGohm9NgOpwIRQV0r0lIXbPaScc5zTra3W8YdYsVP3oE36ys7bj5HVSqhuu/dhJSQpqUkpCUZjl6iQbr37K0FcKQ31q01rCfliSjRTyVesWGHaa+QE8vCDH/zA1lF///vfN+0mu5wzBZjpswziQCIg5shUs5LnGjZWU7ni/Gq02QwgMD28m+0AXmXrXp955hmTTdYbJ5RcQnwnv/uOPP70k1JZUy3baXgkVVNvMopWu1OqVmrVkE+1SuAHDBxkmsPly1fa7tbp9rQNCjQr8UkrueraNZD6+hWaLrTyoTY4l0PLG04bXr6i0bTv+JGKp4xc9urVS6o0/uRjSb+hJDRjJa/fBvmCVCjtiih5as1r2tSNTT9WUl6t5Lm6okpWKOF8/uknZHVTg3zztG/KEM3n5sZGWbVmtfTrv4nma63lGfmINhci5jZHZIo+6+q7dumq3zQpiYtISuOS1/gVC0U7Dm3ZsqWSzaU1fshEmKbGxjUqA3lLR6faGptWv3DhIhvQYNCAOKKp1Vsj9aStuoaz3JP6TUTzq00effgxufKKq9VtSc4445vSrx/T9UOhgyNWVCalf/9+6u88mTVrlvoTtw3SWlpbbBCmU5dOWv5Z/V7TtoZjCx+Xp56aqHKzvZx4wnEyaOBA/Saw48bQeJPmXCYnF1zwa7n/vsfl4IMPlkPGH2IDJgwksZE8U+4xNpjQ3ibpllZNT0ESGpdOXTtLl651smTpQpk7d4bEo2i9c1K/ql5efPVt6TtggGy7ZR/plIxLgWnmbNKm/wMUzZoRnGuPNjzKwEZVrb5nYzdtFzWs9tZ2Jet5qYpHbO19Vffe0qrknfPxUxG01QUbJHn+lTekNVuU3j26S79unaVaZZxlHQuWLJMXJ72k7e0Q2WKLLSwPbfM2TQsGefbE28PDw8PDw8Njw8Tn6qWhWXzk4UfsevDB423NJ2SCjbAgVWyWRMff4z+IdfwaJqV/OCmak7zLygWmCdQKoh1R4h1Nsv5ZCbgSZu3JSyyblgF9O9t086SSVKbiHrTvnnLYYYfJ3CWNsmh5k5LunGTalGBEk/Ld/zpH3pk8WR554CGZOWOG1CvRm7dosdx0881Khi4wUsz08d/97ndGSCHf3/72t23aLNOcWb8KeXREgundTz75pMnTyuUrJJ/NaXzRJmp8SYre9+vb16Ycc8bxueeeu3ZQqKG5SaZOnyaXXXWFLFJiud9BB8jOu+ysH4YEjYEAtJponakI7RklRhrO0GFDbS3tk08+Ie+//77MVMP65BcnvmJxq6kJbLDpa187Xt6fOUPuv/cemT9vtsa12cJ9/rnn5KKLLpLVDUpy9R9TvSGRrD+HF0HW0VZHkglJ1FYbaU1oARSy7ZJTBseAAe5XrlguzasaZNG8BXLTrbfKHQ/eZ7uXH7b/gZJLtxl522TQANvFnA3m5i+eLw8+9KA88OCDdgZ6m+YD4Lxx8pEp+bPVfsmCBdLa1Cg1tZ1kn/32s6PLHrz/QdvNfc3qelm8eJlNWf/2t8+URYuWWFksX7FSfvGL/5Gzzz7bprRDkGtq2MhMJUrTAzlHE+7Or4srWXzzzbfkgQc4hztlm8oNHjzU4sGgBDNlWKoCid9l152kYc1qef75Zy0/582bK48//phNT//5uT+TTTbpbHFgffgll1wpO++8ncrfQWa3dNlizat6qa9vMHLOjvM33HSDPPfcS/L1r58ku++2uxHy+pWrjDyvWRPOqEgpcWaauw2+dK6VIJe1SsCRY1uPGSXZdKtN4ycu82bPkheffU7enjFXdtlrX6nUtNVqFUlqnWhpbpNVa1qkhXPOmxpk5ZKFmlf1slLDaWnPK9lmfwIl4rG4VNfUSkKJfKTEkolASfxQ6TdoqDxw/30ye9Y0WTB7hk0jf/3d6bLVtjvK4AGbSGVUhVyJ+/Jly2XSSy/L1GnTbZo5bS1wM0Ig3FYGvt318PDw8PDw8NgwsXTp0uCfMcuWLgnuv/euYPyB+wb77b17MPXdyUEm0x4sW74iyJVKwex5i4KZcxYG8xYvDxYuWxksXroyWLJ0efjtkiXB8qULA+2cBivULF+2xOyXL18eKGEJnnjiieCNN94ICtpT9vgCUAYUFNXkMfpAfpZy+tBuphRkg4L+LeorLbIgr69yGb3HbSmrpinItS0KHn70jmCrXfcK7n/xnWD+qraguV1pYbEYZNqag+cffzA4YcJ+wU7bbBU8O/HlYE26FBACQf7iN78Pxu25b9CzR88gEYkEA/r1DX5yztmBEt2gpaUluO222wIlTcEjjzwSrFmzxvycOXNmcPrppwd777138I9//ENlKhPMnTs3OPnkk81tZaoiuPKyy4MVi5YExRzp0ZS0tgWtTc1BIZcPCvlCoEQuOPPMM4NINGKma4/uQbIiFRw0YXzw/KRJQVsuF7RksxbP+fPnBL/++Q+DH/zgjGB686pgaSkfLG5YEqTTLUHQXAxuu+LOYNwOewe13eqCUdv1Df7wm6ODc84+Phi69YRg9qr2oLW1XePdENx1yzXBrmO3C5KxyiAaqQ6qa3oHRx93etCq+ak5GWRKheD83/5PcOwpxwQvvjwxUPIdZDNFze9i0N7SFqxcvCRoqF8e5PLtQVNTfXD3zTcFg/v0CgYP6Kd+VQWxeCSIxSLBicceE8yeNoVC6sjlfFAq5oJ3Jr8RDBoyMIhUJoOKrp2CrXbcLjjpm6cH3/vxD4M//vV/gxX1q0wc2lpag5/++Oygc01N0KdLt+D8s88N5s6YbV69+fLrwSnHnRQkU9VBRXUnvVYFY8buGDS3taucBMGK1Q1BfWNLcPLXTw9223Of4L6HHrYY8A6TUcY7ecr0YE1jc5BLZ4JSoRgsXbg4+NFZPwh6dO0WdK6rC/r27qP5o+WiRkli0K17t2DipBeDtJYzonrH3XcHO+6ycxDRtEY0zcM2HRRc/Lc/hnKsgWhSg93H7R9UVFbZ+87dkkGnzgktZzWR2mDbbfYN3nlrfrB6VX3Qu29d0KkuGlSqX9UxDauua1Bd1UX9rg0OPOzE4LUpc4I17SozmjOlYjZYNndG0Lx8XlBMrw4yrSu1PrQGd913X7DjuHFBQuWoVs2Q3j2Cc39+XtCm0WlS06xxeuT+O4ODdhoT9NT41GlYFcmKIJLqGSS7DAtG73lI8MrkaVZGQVGFoVDS9m5FsGTFgqA5s0rlrD3ItBSCKe+8Fxx51OFBNBkNqrukNF+6BMcecXIwa/ocrZ/U07agpbUxeOLxp4PTT/1WcMYZ37Q6A3Iqz0q01977dnPjAW3mlClTrNy5d3KADHg58PD4cuHqF6C+gUWLFgX19fVrnz02HtDGUv6rV6822SiXj/J7Dw+wcOFCkxWAfEQgvh0c/DOB6b1MW161crm0trXJFluMksaWZmlpSUt1XSeJx1K2MZR2qIVjkUwzKRyZpCZgU6ai2REo0yc1Cmu1NWyyxdTirbfe2jRRHp8TlrlqTPlFARRE0JxxtdIjbxOW9yi92UAKjXc8EZaPSE7t0jJ/0RKR2r6SrOwstcmYVMQ49qqg3mSlkM9KS1taZSAtvXr3l1I8KYG+r69vlMpE1DSykWLeNs5iszaOmauqrjFNM2ur2amcTc6YKovmEaCBVqE0bR7aTAzvcZuIxaWutpOkKiptmrC+tCnRIMJ6W5UfpumqXJvs1a9ZLYlUUqoqqiRVWSmVrBMvFKRV37Fuuy6VkGzjcmlXP6I9BoZxLLZKFcd6FRLS3pSTlky7ZBLN+qpeuteWJF/oJPNW9ZEBg1TO21qluqogbQ0tki3ENVuZoq/5qPHieKrK6mppbW+Xuk5V0t7eZFOnu9V1k4oka5+j4dp7rQiB1Y2ibeBG3JmyzoZtrCe3HebRYKqf7MTORnJM22d6PZpmzUjJs4a8qdmmULPhG9rVqlSlrYNn5+zqyirJZbPStLrB8rVhVb1Nd+7SvYdJgWacrX1njXK7hs1mdAX1rLIyae5ZoMDxWhzlxfno5DMaVo2U7XZOuVJXmf0yfMhAW5fORmAlTV86y3T1JtvsDK1+bW2N2odrkQsqdN1YO84sAJURNmHDXV7lSkVN25GSllOtylm1tLUWpE+fKpk9Z5FU12qeRVpFk6dykNT8qZRYpELdx206PfbzFk3XsklItJjSrKuQVfVNkqhIhprtaFJiiSqpTJLQjCSCrFSk4prXRZv2H9e8Q5YzOeRI8yPXJpJtk0K2KBV9BklCy3Xhonrp07WTVEbTkmtcaWUg8UopRFOiPkpbiRKNy6Du1dJJ68vqZUslUdVdKmq0XBJZyeXbVVAqVKb1rdaRbE5lKNtiVXZ1fav07NHXjhhb07BY36dVhrpr/nXS+rFKGhuaZMutNrO6gbwwu4OlGdQp7Dw2DtBOTp8+3TakpP659pL6Cfzvp4fHlwfaWte+Uvf4DVu8eLEtu+zSpYs9e2w8oJ1l5h59IcofOPkolxUPD8BSVZa1wm9NPj4P8S5qB58dlyEDba3aidTOdqWS7YamFptOiYcIpgWAMXKBLfdMEw4JE8Tb3OiVjafeg3h3U+I9erQSh/CYog5qiGN9cFcIS/h23V+PtQizOjT8gXCTdzY3mx8IjrAKyY65IFvVGRwZIhgwFTZWVIKg5Rivlua0SFUyIhVxJcItjZrfbM5VoaSAJeEcZ6REUolPTr3L5ZWgKEkrKtmLs3Gb/iDhNxuKQSQhv0w3dlNl+RFznUbugbtHNgCyxM7jJgtYuQLXK2u9ccuabicVTS3NRvI59g4bNhFrUxLNfSpZYcQ9qTIULeU0JYEsTmeltqpOaljP26JEJqZuYikTtWI8p0RytQT5es2ZTpJPDlRyKNIpofHOa14Y4U5qXrBpmnaANY9yhUDjE1WSSR6mlRjFySEpat5EI3HbQb2kbphuziZd8bjGTMNmnXEQrbB100GRAQo2twvLK5POa94p6a1WMmnLBthwK67ulXyrC8qgoOlhMzylYHY1AqwkGtJbLGqc9NrektEwY0bULDPJZzrr5JXGk3Xf7M7NAEI2k5ckpFRdQrI5c5o8pFhSSU2Dfkv8+Gb61Bmy5ZYjVcTCgTTyGHcmTxpXkxF1SxqSKS1fFbpCAbdM8W/TPFLhs7SKti2WW+oXO3arfKlHGZXBZEUg+UKzyp62GSpbpRK7i6dUxips8IjIxRKar6V2taPtUQLdzs77mn95DU+vHCvGhoKIWkWsICWVi5SS9Ob6VVJVW63Em6PxGKhil3sEICOpGPmo5Zqqk4a2ktYFNVpZ8i2rNU/IaPVM3QfJGsmq0JS0TBl4QMYirUr6EzGNU1LTnVSivEpli4GNzipH1KFAiT9ngLdoWIGGz+CBukvrfaxNTV6TTx2r1PxjY0vWu+dsrwTKkIEswL2VB3lPpnp8pUFZe+Lt4fHvQTmZcu2sJ94bLzzx9vhn8CHircJDX/ozA3Gio659S+0gakc9VzBChdYKzVgMzad1zzsEkd63PXfY2V+IOB3suK0J50gdUcLyzpQp4ZnJo0ZJQjuydB3ogofMUAPsII5BB/HW6Js//A399ViLtVmuf4x0cx/mXwjIdwc6bsK2QvNWCWPE8loJgxp2aEZ7qnwFpqt/2J2b7yFOEHi+hY6HXlmXT3+cQv/WlQxuEDrINyTw0+CIN1f7YeMRs85LFQ2IHbIYpsv5z9nd7plwrUOq39lO6AooudIv/RtIm5LgmMpykjQrMYxqCiDRuC8pIZYgqzcQ95SSqlr1S0kVr0tqD1kMwjwIExz6GmrlaaALGndeaYjKxiBzEFCYWUmNHY8WUw9j6j9kNFJnMRP1O87sEPwpKXHOhRrxeFKfoxkNR4m4krFSRAmwhco/Sks7BUZ0Ffoi0HpDPWWgBXcFJeMx9VNTaFp3AEG3aSgaUeJu67Y77JlNQM5CrsMwiHqYPgY2SAMb2M2cPlM233ykDSQgY+bSCoZBHzXkkaYD2YrGNd80hFIRMsmgW0b9onz4NtykjVwkrwL9jjALlJG2ESUGF4irgnwKU9KR/2ooNnWthhSo3/odslMgv0mikRTc6D0ZQPnoN4VsTmUGzTfHcqlUdAwCRIgvcqH5WIwmJcugisaDYQs2TWOAwwLHU22zOBSOQQv7Vk20oP5afhIuchhuYMcGdKUSM36QSc0LTRf+xOIVlnIGSmKad4RNHlg+6IfICLLsNNzIhJNxh/J7j68mHPFmXws6f8iA6/xzD5ADLwseHl8c5XWK9pe6xn4uzNZj5p6fcbTxgLYXGVi+fLmRKadEQibK5cTDAyATEG83SINsRBGif8awMZRRFs7VzUPQVMDU41K+oEQBcqGdXtRPKpiBdmrZuCo0Hd9jVDbtOKJMVvu92lXVDnDBSId2cNEWqZe5IKfuOjrQCDPkm16qdajVr7X/QkH3WA/Ue+NAemMkAgNdcPehEzM44cZAZw32AnGFgqIZjAiKPb6KMc05nlIv49rQ4N+6zh1u14agjZBpufWdM4DrZyHdwH3nOpRr08S1wxgx7CDdwPlvcVADyeTKbugJJVXOXn22O0gbu0anzJ2mV+8jqP47HGIXjaAB5wzuaktfquN1RIlYJAJZC+Ngm2jpizhX9R43TJHnjGfz2/KMPOFbBjI6CKpCa4DKPfIcSjgfB0q8TVus8o/bOOVCHYCM8U7twiGs0JeQgqoNAydad7SLYMQN36klRsc1nkUNmzrWMeHByCrxIe9sCruCv5whHT6F+cezGZcG8szSQZ7T8ejwx31k/hMqgzXES/01O7S0eb1Xt2oHWdf/lsYwr0hJKEn4iT9xFUDuY5y3HiHfk/o990SecNXobQhuOuSXDpHGN6FlmkrEtGwIR/1TQ+4zKIHUoummPPkWuSYeFhdmNDClvWMgsLKDdOvn6rfGQwl0hPrA1cqI5Rhh6LhDnmD25BPxjyuxjsVYWoG86DPRJ92xlLrFHjkkv5EhfAjT6L5HfpBv8h64+sHVGY+NA8hBubYblMuBs/Pw8PhiKK9Prr2l7nGP8dh4QNlT5gy2lP/2unfu3sPDwbUTTl6077vuR/ozGetYqwc0Oh9h6JRbx7yjLdJPPuSH2tgLSDya8oj2hlvaWqQt3WbaNNMIKpiOCmkIse7a4YPde3wWuBwrN5+Ede7Kv8CE+OCTw0fbbsgIY8xfJG5datddwhvedhDBDpsQH3z6eHyCuzLrULJDcL9WuqkzvMLCLEMi/YnSz2BVmavyJzP4Vxb2Z4HNLujw164dJqzXYTTX4kP+q1t75k/oxzp8wGEHPuRBB5z9x70HH//+w7blbsuNA/ehdLindW/d0zrbj7dx+ODbdfg4u3Vhe3iUw5Fu4Aa2ncaFq7v38PD4/KAeldcvZ8r7tK4eenz18VHl7WTCyYmHh8NHtQ2RyZMn//O/zmVffFxzw+ZJCOLHgamkzBhlrWYxJjLl/RkyZeZ02XrrbWS3XXalJ8FuUZJC26O3a6fFaj8UbV1BDVf0QzG1dO89PP7/gEquCn5UhTiIZqUYb5JCNCrFUletXnSo2/VvVuLKkGNsElaoVIGPSxDLSZBsVPkvSEFqtRahpYWe6VdBQd2zoWFB60PY+AcSt2PeChE16mNI7rFVo3WM/RbQkGNdirCMwz77WNDZdz8wbl0xzxy7NnLkplLSsIOSVtKAgQpFJK2Go7pSIsUavdew4qv1hVbYYje9aOVn6jxu0CnbembIJhXaV2oPj48CdY6prhwRyHRX1vrzA+/qJ4bRdVti4+Hh8aWA+uV++1jjy3GOTB+lvvm6tnGAmUbIAFPNmT7cqVMnK3/gSbfH+kBe+K1mPwi3LCHy3HPP/dO9W/fDzocfR3jRVjth/GgoZWDtqbLq9kJOHn/uGZn+/kw54KCDZMLBhygh0W/zebZO+hDxLio5wKwl3trR/xS+4OGxgcERbyW7SrwLSryLUdY7s5M4xDsdEm+V/VgpJN6RUlJKsawEiQYl6cUO4s2kZke880a+MW4DQ+0iaD3pIN4RiHdIauNaN2NKuDEfJN6fXJPocFCvXefD3XMm94gRwzX+uQ7iHQ4IiCjxhliXKtQ44r1G7bVCF7rqlbnW+h43kHAGEqjkNkXew8Pjo0Cd4xQIiDe72pdvsud+nyHingx4eHxxOC0ng1nutw/iBfGmM42dr2sbByBSgPKHTLHGn/IHru3FeHgAfp+XLl26lnjbb/O77777uSQE2s2HH+qml/n2ycLX0bFWRp0u5eW2e++WWXNny1FHHyNHTTiS7rhp5ZIQBbxx/XB4gwZKE4eVEW81nnh7/H8HJ8TsaB5r10cl3lLVUa/Yjitn9SBS0oaeaSG4ZSO2eE5vS0q8q80KUC1Y3812eKLE2/ZEsFoBsU1IUUk3Oya4Gmnrj/WBUwfMLU5Z4vEJxJuOBZ0P98PC6L+znzNnjgwbNkTt+J46S4xAXv0kPurWyLiGZZvDabil8FgyI9l21B3+4S609vDw+GjQ0WNXZYg3HUGOXXQab0D9hCR4eHh8cbjfPvf7R92CeLnN1bD32HiADDDw6cqf54/qG3l4AIg3syOQFRD7zne+80u7+6ywfrX+0YaHtd7rG44XCu/D0UGe7VpmwjXgEckXtLOtXsVSCXn7vXelsblZRm81WkaO2NSIhB3ChEDTEccAdc+tbQ7VYRH5tPmxHh4bINbKtW2WFqhMQ50ZbrK3+k9/4PUhdNch8Dyoe7TT69zimldMJGfquBJZvQ/BG9yGmxY6W+dvOCUdwxtC/HjQ2XcdjPV/aOrr66V7925qZ6+dd4oOvyHiptFWoPW2l0r/P1B3qfX6bJH4pJh4eGzcoM6tWbPGdtVF++Y0Lq5+ltdVDw+PLwbqk/vNc3WrtbXVCBbky2PjAjJA+TPoyawHZMPZIxu+7fVwQBaamprsd5q2wtqRd95555/q4br+v/pm90YKyuDG2J0grv8eYBcoechxNBW7BFdVyFU3XCvzFsyXE447ScYfdLBNla3UjnlMBRnNnPXfgQbgppqH4SuZV6O3Hh7/H0Ern8o0SypYblGMFsOp5oE24vqWdptp4HGmjmsdkBKaYBV+dRtEC1JQtwWON+sQfIi0TR2XvLrv0Hhb4w/hTnRMNSfUEBwdHtM6yvR0dj9Xx+pOifwn/GDQgDBw5uq2A9qAuXPnypAhg9SNewfJxi/8xhB/NN763tZzc5vSP+rGiLjaGwnnO9y4Cu/h4bE+qHNovDfZZBObyuZIgUN5R9DDw+OLgd89QB1zdW3lypXWka6trTW79X8XPb6aoOwxq1atMtLNGm9n79tdj/VB2+HOfHca78iUKVP+qdaCvrF2/aVAQ6P3+le7ytooIXBKItB2c29TWBWfRLwjybiSByULFUm55OorZO78+XLSCY54B1ITTdkKVvPDyTHtn8UhNEw159+6LoeHxz8P92NaDteIOvuPcvNxWP/bD4NKoBJMA61OOBrMpoPznX7DVyGZLqh0I+m41wv+oe1W494A6ghHZDFZXYx469WC1gpTNtXcTiNT+7VTzc0W4otjrW2fkD73Y8IVQ4MCAeB+5syZMnLkCP0h4lgtXPEjxJU8C59DUq02mm6zc9PRXZDmvgPOrgP/TN6Df9b9Z4VLN/ikMMrf/avi4vCv9t9jwwP1btq0adK/f3/r+Du5RAPn6qR79vDw+PygfaVOAepUoVCwesWGSQx6sW4TbRbG46sPlvUgAwy8uHO8kRFkw/0W+3bXwwFZWbhwocnK2nO8aVDKDY4wNCJOkNxUtvb2dkmn03YGdzShHflSUdra2qRKPVTHsrohnPrGVHROIC7vRwPIQTkRt3Vp6rY9kzY/OFosX1AiHokLZx57eHzZQLbdRkTItgNTpXnngFwzlZMroG64e+QWP/ie+uDuHXjf0NAgLS0t9uze4z/1KGy488ri1BQzWp/y6nda3wWycPFqfRf+yGPX2tIm+RxrojXOpXYJ8u3qTiSTcZRb06GmqYV4FKSofpeKHenQOAcaNkf0ZXPOT3Wj4aTTGgdzp/HJtEu2nbSFhDqTIbwwHcSb+GNPHnDlR4W2AXvuMbQRjvxlc1l1m5fmlgZpaGyweIXpJo3kY1ojzYCAlkexJIW8thXrkqN2RY1D1sKnzSEOq1evtvCBi4cz5CvuAM+AqT24c+VCXDHYcQW8c2l1yGaza+UAv3jvyh37WbNmrY0H9sQRcOVbd0/5OyAHxM/FDeCmPB7lslceZ2fPPeERH2TOhQWwd3lQbu/x1YX9eGsd5PeWe+of9dDJJlMgfefPw+OLwxEp1yd2dY176hnkGzuPjQOuzJ0MONkolxEPDwdkApkpbys+JCFOkFynlSsdOxofplQwul5T18k683T0evTqJa3pNmnPpqXPJv1kzoJ55p5v6T6uoyMfhr3XzjeGLqnbqdx9h11Zf9zD4wvDNY4AsrJgwQKT1a5du5rsQ4gwTCFjJJPpIZAeyBN2kCfqBH5ABgEVCpLOCDiED/LDtzU1NfaeZ9YD8Z0jWyrmUiwoSYoUQ11wNKXhR6Rfny6yYlWTtCpBrqiskGr1I8ZAVqZFv2+XSILZHVpHIzFpaycu5p3Gs0LjFDPC2tbUIvm0+h1VMpxgOjf1KayJVVWctR/RtDCYpnW7OSSoycpKiyMjczQO5IHLJ/KMZ9oADHngOiMY12Zg1FrzqklySrJra6qkc12d5g9pU3fKA3K5dqmqZFO1EPl81uJB9JYvrzeDP2jOXYPFlFryE3uXfxBQ7okL5cg70kE5QHrJe9on7Fzc8Q93+Mk3lBVTxYBz6+D85TvcQHa5HzJkiPmHW2SjPI/4hjxEnoivA3FhR0vyiXjzvYNrY52fDADhD+CZ98gZaSI84oIcEh5l1dzcbPflZeDh4eHh4eHh4bHh4WPXeNPho5PnNC0QbkbXm1tbZPqcWfLa5LdkkXaIK1MV0qid3VGjR8vpp50mDavXSDGvHWHtpPLPNnHq8NNpu2H7xUhJsvoyWqFkISjIbXfdJVNnzpBjjmBX8yNs2yjtXtpU8w+s8cYzNY6gQ0JC4+Hx2YBMQ4YdOVu0aJGcffbZds911113tXeQGcjZyy+/LM8995zssssusvPOO68lgdQL6ogjTRA67CFsEDXcQbSwpz45Yo8b5chq166Si0ZT61mhSlY3Z6WuW6V937AmI93qlHgrQY5Iu7ptlkULZ8u9dz0sd971glaKWsnkspLsVKOkPCODhw2VQw/eT0rZNnnx2afk/RnTpaB1BrKoIUokVSn5XF7rTES2HDNavnX6qTJq800lGcemJJPffkeuu/5maWlLy9e+9jXZbrvtLA/4HkAGMaSHdEAkHcjL6dOny1ZbbaFElDRmNY1o2bNy4413yK033yWc7601XgYO6C8/+N550q17Dxk4qIf6RR2Oafgz1O1N8vKrk9THgvTs2VMmTBgvRx11lIVFPrOL6OWXXy6TJk2ycqFNGjt2rBx66KGyzTbbGOllcJA4T5gwYa3WmXjvv//+cuKJJ8qmm25q+Uuc8ZO0cE/5QGiRAQYeOJf89ttvl+eff97KlrZvq622kj//+c/mH34//vjjcu+995r84A9+8G7w4MFyxhlnyD777GPhuzInXAz+c8VfBnTw47bbbjO5JM9Ha1t6yimnyIgRI0zGbrnlFrnvvvssnnxHWMTVbe6CzO6www7SrVs389uVmcdXF8gZdQ4ZQbYocwwyBbDz8PD4ckDbXv5bSBvMgDC/TUwf5dlj4wHtrFu3S/kDJx/lsuLhAegj0odEwYd8fOSu5rygs0jnjgaFzrbT9s2dP09efu1Vac9mZOdxu8pmm28ulSp8M9+fKVPemyK9e/eWbuo5pDuwBaXqoZqOi4EruzgXaKsS2lEPSjJl+jRZubpetthsC9l8082MnKOQp/sQtQ/UAOeR80xvwn8eHp8NNJpOvpH1N998Uy655BIjWzwPHz5cevXqZY0n8s/04uuvv166d+8uu+22m2k5IUGQHvyCDHGPWwg34Jl7/HP1CMMzV4hoEDCo1SjPPP2cXHTRlTJy822kR+9O6j9a6aiktG5w8nYkwpKMjKxatVhefGGSzJixVM764U9lz312le132lnG7bqjEuWxsuXmI2XgJv1kmJLwbbfb1ogiU8/fmzZVTjntDNnvwANkt93HKUnbXoYPHSKFXEaKatpbmuTJJ56UO+64W7L5cCr+vvvua+kgD8oNHXqMSwugfUBT27t3L7VXGs+69EhRCfKLMmXKTNls5FZy0EH7y9Bh/eTFSRM1va9pPR8l/Qf20HyKydNPvSg33nC75mVJDj54fznowP2lrq6T3H//fUaEIdeEefXVV5tGe88995QDDzzQ4vPqq6/KvHnzjHRCeNEAn3/++dKvXz85/PDDjZBTVqyHZUYCZJ2yhaCShsbGRvvxJA34R7lNnjxZbrjhBjsCgnDIC35cX3jhBXOP1ptG9JVXXjG3DFIcc8wxstdee8nuu+9ugzMQIsKAWEPwuSI3tKEY0kN8INxPPPGEDQwQX7578sknraHu27evDUD06NFDNttsM9l+++3NfwaGINrI3cSJE+WII47QMh9mcScNpMvjqw3qHnUOuae8Xf10ddLLgIfHlwvqF6COcc9vDW0u5Nu989g4gAy4gW+nhCiXAS8PHuWgraA/6GTlQ7/OCAydQjqHCBc/4HQYudI5XbF8uQpcm/Tq00dGbLqpDNFO/p777CWDtNM7ZcoUIxvsVs5U9E9CoHKJcZprFNrlX3zy1x4enw/INYBscU+FQHsJudl7771l6tSpRuYgWLxH7nFLXaBeQKIhpk7ziJ2bGQJJpP5A6rHD4B6yCEHHDXWI97hj6nU21yYLlDi+9upbUlNdJ7k8mmJmm0DSlKBrBSkpGS5k26RYaNN6UZTOnbsaITz4kINk/MH76vUAI2IDBvSXQYMG6f2OcsD+B8i+e+0hm2+xhdTU1si4cePkkEMOVvJ9kOy4047WYa+qqpRURVJmz54l778/U8aMGWOk9q233lpLREkT+YBxcSfdPLt0uB8f7Kj2kO9Mrl369Okth04YL6eccpKGfaAcddQEOfnkk+S1195UsrxIVqxYrv63yuuvv6kkdJlsu+0YOerIw+WAAw60smB0EG0wYZB3EM/jjz9ejjzySPXvEDn22GNtkIQy40xV8pt4MDhy2mmnyWGHHWYac+5J74wZM2zatmvPaKvc4AtXR4whswzCQNqPO+4406hj0JZDyJEX0sxE+uffAAAPE0lEQVT3xA3izfuDDjrISDplwQCkkxdkhbjhljD4FhAGMykGDhwoJ510kqb7ACPfW2+9tW1WBzEHkHHyA7/Hjx9vmvRtt93WtOHsak0+kW7CIwwPDw8PDw8PD48NDx8i3nRIYeZ04uhYY7jHHiSSCanpVGPrT/NoDrVTiTYnEotK3036aUe+wjp/jlh/GtZ3B+H2pNvjXwnk2ZEfiBAaUYgdpBPiCvFmGidkmVFNpjUj/47U8D11hDW21157rVx44YXy61//Wn7729/a9GPe4Se7XmKHVhQCCyCv4dTiW+W1V16S++65Sx5/4ilZ09Aol116mfzqF7+Sl15+XVatgmiHI+tsQMgxXdEoa37zSviUAOeKNhNEq50hEVciT71zA17cSzgI0N6e1rQwUBDGn6GHkAwmtb6mZM6c2bJs2VIjd2hTmUL31FNPrSXbLh8eeughueOOO2wGAO9cnpCHGO7b2aQtKNk68v4D+snmm28uPXugCY9JVXWFaW6rK2ulYU0jUZSmlkYlxDOld6++suWWW0pdXa35g1Z6xx13NHL60ksvWXg77bSTDQ5wJAPpgrDiHyB/yXM00QcffLAMHTrUypSyGjBggE3hJh3EmW/dvUsDxBgiTVvmNOOQeogzfhAfCDXxmTNnjuULZNeRdQx5b+WlhvzlO9wQHsAe2eAd4SAfhAnRJt68J1yINe8Jq3wACJnFDf699957VkYQfuJWnhYPDw8PDw8PD48NDx87H40OJR1EOq+uM4ddr169JZmqsCnns+dqh335MnlZiQrrHbbWTjHEm13PS9r5/qIE2hNwjy8bkBMIEYAoIdMAIsbUbDSpyDKaSM5pxL0js9QHCBffc271P/7xDyNAEHPesVHbAw88YGuQIUvUHUg8WlK0smgoIZEQ7ylT3lO/lCxm0mrYYExk+bKVSqjTylsLtkwDu0JeybaGHYkxhRsNc2BkzsUpp5yOjdgSTEtXN8SDtKhDNeuImC37UEDUsXHfr161UhZoXYYQsraYKdpMcb7zzjvNL6ephXgzJZq4z549274l7/CHdOKWvMrlww3PwtrLNHwG58Ljw0oar8bGNVoIkPWkdK7rLG3qL0S/h5LzHt37qH/MuIkYUUbTS1oID78BBJuwCAMCiqE83AwGygc4co0dcccQX9Jp+aMgXcQf8os77tGIM4UXLTJ5gT3uyXPkgyvvIcTkDeFBgC+99FL529/+ZlPHIcwuvsTDDfIwMEDcCQdi7eQLgo8d8cM908bxl+nmyAzviCvhcU9ann32WfMLrT7adReeh4eHh4eHh4fHhomObnjYOQd0NOkg0pkNO+10CNkxmA5jSbp372bTG9PaMZykJAKCMm36NOv4brHFFqYhoqPqOvofDzRyDus05BiAti587+K2/hWU33t4fDogLsi4I0AQHcgYcgvZQuvNWuE33njD1vBCmtzmGdzzHYaNt15//XXTOKLxvuiii+SHP/yh1RvWIlOHILA/+tGP5OGHH5Z77rnHSDckHDf77be/7LzrODnmuOPkkAkHS8/uPeWH6vaiP/9Bdt9tZyWi4cZmxSJHbanhvC2Nbyye0LqXlkcfeVhuv/Vuuf22e+WuOx6UGdNnG1mjnrJWGrfUDsKC0FGH1cq05IGmHzveTZs+XRYsXCgDBw2SYSOG25Rs1iq/9tprNn3b1WfSjraZ6d6sOw7bhjA/eU8+cl9ZWaV8PzzfOxYlbNqRMP6r61dbvlZWVshWozbVtIS7sGeVuFdVV0kimdK8VT87/IVMkvdogQHPjlATf5a2EE/iPGrUKCtHR3QpY9okwIwDNmaDSKP9hsDiF274hoED8g73kHCWBuCGdPKe8iavIN0Y3mFHO0ieEB/CYGDimmuukRtvvNEGZsgjwuBbR/iRC+JO+ggHf5ATBhpc2nBPXMrjiT3ge9a0P/PMMzbtvE+fPlZGuCM8Vy4eHh4eHh4eHh4bFpR4oylxJiTedAaLJe0AxiPaGWYKqZKVIKcdYkzBppAyxZMu3oqVK60jyW7CTS3N1qnn3ml5Ph58HRrtYqvhHu0i9+VxwoTv7Mr5vx965+Hx2eGIDATHkRU0nWymxVpvtIgQGbSKaB0hRKwFR86ZEowWkinlaBr55sUXX7R1we5oMjTmaHHxl+nbkFU2zPr73/9uWk6mTG+99Rj1T4lVLCWV1bXS3LpayZlSTuXMcRVrjtiuSIm+U4KcSGpdrNH73npfLVOnT7HN3m649ia58/Zb5YlHH5T3Z7wv7W1piWu9wwRK0EvRuOQKSvZy7GuugHhz1bRrlZZshinL02V1Q7MMGjLMji6DALKZGUSVTecgpRimd3/nO9+Rn/zkJ0Y2yR/aCa5uOnYkovepCg0gJqkkZDlp1TOeYBOzFnnxpdfl5pvvkPEH7y977hVumJbPlSRBgiM5bXOyEkRKNmU+n89ZmdCWcHXEnnjQtmB3//33G/lmwzHWX+OG8sEdRJfyYlr83XffbYSaXemZgk7ZU24MnFAukGaILJpsviEP8APtOlfSCOElT3BDfjAYwJrr3//+93LllVda2aL1xo5d8NF8IyfkEXIEKSc85ISp6sgG5Jp44o444ZY8ISz8J52OcBMPBgeQH8qFQZGTTz7Z/HFtNm48PDw8PDw8PDw2TCjL1S55AKGFwIYbq6HVSafbtMMpwiZP6UyrRKIl7fyLzFswWx566D6ZN2+uHHzweNu4aOx2Y2X+/Ply37332bpXOqafDevC/VTzie48PD4bHDmB8HDviA1kC4P8s86ZdbfINFpqCA/uAQQH8sNUYTTZEK9zzjnHtN2s52bqOVOkIU2QOHDuueca8WMaOtOVIeOdOnVWoqnkOKiUuJLVINIuyUROKrQ6xpR82zF6KtpBUFQuzuCUkkHpovdVMnjoYLnr7huVNN4nD917m9x287Vy9JEHS+fOnfQr1oSHA1kRDT9WUSkVWp+ZYh7TtELAqxJxiavfS5cuk3fenS4c+Z1MVcvbb79jpBCiSXrRTjOtmXsIHvn1cQZwQUMfjaBxTkohH9dnUWLZan4/9vBzskm/YfL9s75p8YtG2Qk+ocQ9oWSzUcOqV/KctUE//ETjS96j0eaKHeQa0s0MAjZL22+//UzzSznixsWTK+44ios127iBoGNPmjgm7Oc//7kNJFB2HBMGGad8KTf8wE/STn7w7I6NoWzdQAAGOwz7AzBog+y8++675h8EGbkgHGY//OY3v7F8JRyAXxBtwuEeOSF8SD9hII9O9ljSwKZrDBawuRpLA5ilgXvcOln28PDw8PDw8PDY8KDdcXRgHSYIpzVmMnT+otrxpdNJ55COJesfV8mUKe+ydFR22H6sDBo8SPr26SPjlKiMUkLBjud0NCEmTB/9bIia9i2CJlvJtfsXouNqWu7yK/bOjYfHZwdECRmHqEDCHOHBuCm73LPWG+33TTfdZNOZAdpUSBvnc0OcGHRC8/3OO+8osXzbNKes6eZoMmaE4BfuIEwMZkHs3VRmSGI8ltLw2UyMc71LSrypByK5dEmCImuOWfaRsXXTxVLUiDqUvLomJZ276Hf61NLEWeAhNY8ru2bzw6gSMbTPrPagHhI+4eZyGYlq+vNqB0l7//1ZsmDhYnnzrXfk/F/+Wg499DDbVfvMM8+09P71r3+1tenkGXlCfpEmyCD3GMDV5WlbW7u0tLCRHJrjzqIc2o4Vu+yyy5SIrpTrrr1WuvforEQ/qu1Eve3QnkjGJF9IS0Ulu6MnLY+JMyCv2GyMvCMc1lZDptnUjmO9vv3tb0v//v2NfKIlJl+JC1pkyoEjwE444QQ5/fTTbUo35YEWnd3R0XJDkCk/yCxrq9GoM3DIxmcMrgDCJW2EzTumoLv44B9wZe3IL9PBkRfiiN8uHOLD8V/IA7JHe+l2vSfdpIF70oEWHxnEX/IfDTmzKZAz0kQcHNysAw8PDw8PDw8Pjw0THUx2HRwxoaMXdiaL1sHkns7gKu2QshkU2qhcOiONDY1So53FAQMHmvaFjmKStYn6zacBkuHgqLT7iuuHIufh8QUBOUG2HXlEjiFpGOBknTXDaL4hrEzthbShmYSYUT/QavMN5Aw3kDKIEyQJd84viNpPf/pT08x+//vfN2IOEWtr129bm2XFyhVKMpuVVJdsWnuhECjB4gizqJFYrY5KyJX0qn9oQRsaGzS8jJE1wHppdisnTMInTlx5hoxC/iBs1E1HFkkzbtD6Mojwl7/8xTaEY/CA6dDYP/300/aOqdGkDVD/3YCFI9rOjrAgkpBa3JMnAH8uuOACi++f/vQn24Gb89DxgzXXkFjyG+01m5LhH3lMvNFU0x6Rh1whpOQfa6g5K/vHP/6xjBw5smOGTtrWVfM9cTnvvPPk4osvNncc0wWhJZ6EhV+UP/kAyFeeSRNxYtCEezTWhM133DOFnPaN+EN0+Q5ZcgM27htmPSAvxIt0ukELyoSwAXlL3CkX4s07N6DDTAr8AXyLv8QDd8gOeYwGHxA3/MR/8scRfw8PDw8PDw8Pjw0Lym3ZgRgTdgjpgNJh5EoHn82P2GkYrVxNTScZPmyEpBIVsnTJUiUDYady2pQp8tKkl6SlsUmK2nGsSlVIQr+PlhHrj4NpuzvuQTn59vD4VwCSgnwDSAtkzREi3rmpvZA2jpBCMwopdbtVQxbRmLJu96677rJ1v5AmSC9re//whz8YscUwnRnSx3nS3/jGN2x6MMTq/vvul3gsId27dbf3TGOGgNfXtyiZQtstSrCqJZ5QQljkeK6YrZ8mnLq6TkZK4ViVlRxnRbzD88YhrE77CQmDmFFHGSBAi8wVezS67BbOO6ZIkyamdEPqiA/kEhIK0eU71q8zgHDGGWeYlh8ySDtBWPgBYcQOsOkYfkDaWYsO4We6PRpl3EJYcQ/4Ho02s2TIY96xnp4wLr/8cvnZz35mcYMkk2/nn3++na9N/kNuAekhvazfxr+rrrpK7rvvPvnBD35g69JJE+HhB6QcMDiAHflDvlHuEH6ecc9Z3SwzcDu4M22dpQITJkywzfewP+uss2x9vyO8lAnkHD/QsOMfU/d5JizkivAJjyuG/HCDHvjBhn5ox4855hjb7RzwHfF97LHHbPYFckQ6AX4juxjywMm1h4eHh4eHh4fHhgSR/wdwwkUDZnVqSAAAAABJRU5ErkJggg==;" parent="WIyWlLk6GJQsqaUBKTNV-1" vertex="1">
          <mxGeometry x="414" y="200" width="523.56" height="110" as="geometry" />
        </mxCell>
        <mxCell id="PIh09qYpegACh0HdGueP-19" style="edgeStyle=orthogonalEdgeStyle;rounded=0;orthogonalLoop=1;jettySize=auto;html=1;exitX=1;exitY=0.5;exitDx=0;exitDy=0;entryX=0.005;entryY=0.109;entryDx=0;entryDy=0;entryPerimeter=0;" edge="1" parent="WIyWlLk6GJQsqaUBKTNV-1" source="XG_kTeU8McAy2guozYfd-31" target="XG_kTeU8McAy2guozYfd-33">
          <mxGeometry relative="1" as="geometry" />
        </mxCell>
        <mxCell id="XG_kTeU8McAy2guozYfd-31" value="Update &lt;b&gt;Tracking Code from column&amp;nbsp;&lt;/b&gt;&lt;br/&gt;&lt;span class=&quot;fontstyle0&quot;&gt;&lt;b&gt;&lt;font color=&quot;#ff3333&quot;&gt;UDF_SCAT&amp;nbsp;&lt;/font&gt;&lt;/b&gt;&lt;/span&gt; &lt;br/&gt;" style="rounded=1;whiteSpace=wrap;html=1;" parent="WIyWlLk6GJQsqaUBKTNV-1" vertex="1">
          <mxGeometry x="85" y="380" width="290" height="60" as="geometry" />
        </mxCell>
        <mxCell id="XG_kTeU8McAy2guozYfd-33" value="" style="rounded=0;whiteSpace=wrap;html=1;fontColor=#FF3333;" parent="WIyWlLk6GJQsqaUBKTNV-1" vertex="1">
          <mxGeometry x="390" y="370" width="500" height="640" as="geometry" />
        </mxCell>
        <mxCell id="XG_kTeU8McAy2guozYfd-35" value="&lt;font color=&quot;#1a1a1a&quot;&gt;Update code process&lt;/font&gt;" style="text;html=1;strokeColor=none;fillColor=none;align=center;verticalAlign=middle;whiteSpace=wrap;rounded=0;fontColor=#FF3333;" parent="WIyWlLk6GJQsqaUBKTNV-1" vertex="1">
          <mxGeometry x="430" y="340" width="130" height="30" as="geometry" />
        </mxCell>
        <mxCell id="PIh09qYpegACh0HdGueP-2" style="edgeStyle=orthogonalEdgeStyle;rounded=0;orthogonalLoop=1;jettySize=auto;html=1;exitX=0.5;exitY=1;exitDx=0;exitDy=0;entryX=0.5;entryY=0;entryDx=0;entryDy=0;" edge="1" parent="WIyWlLk6GJQsqaUBKTNV-1" source="PIh09qYpegACh0HdGueP-0" target="PIh09qYpegACh0HdGueP-1">
          <mxGeometry relative="1" as="geometry" />
        </mxCell>
        <mxCell id="PIh09qYpegACh0HdGueP-0" value="Open &lt;u&gt;&lt;b&gt;STK &lt;/b&gt;&lt;/u&gt;input file of related Code" style="rounded=1;whiteSpace=wrap;html=1;" vertex="1" parent="WIyWlLk6GJQsqaUBKTNV-1">
          <mxGeometry x="476.5" y="380" width="243" height="60" as="geometry" />
        </mxCell>
        <mxCell id="PIh09qYpegACh0HdGueP-4" style="edgeStyle=orthogonalEdgeStyle;rounded=0;orthogonalLoop=1;jettySize=auto;html=1;exitX=0.5;exitY=1;exitDx=0;exitDy=0;entryX=0.5;entryY=0;entryDx=0;entryDy=0;" edge="1" parent="WIyWlLk6GJQsqaUBKTNV-1" source="PIh09qYpegACh0HdGueP-1" target="PIh09qYpegACh0HdGueP-3">
          <mxGeometry relative="1" as="geometry" />
        </mxCell>
        <mxCell id="PIh09qYpegACh0HdGueP-1" value="Take all the row with the related code" style="rounded=1;whiteSpace=wrap;html=1;" vertex="1" parent="WIyWlLk6GJQsqaUBKTNV-1">
          <mxGeometry x="476.5" y="490" width="243" height="60" as="geometry" />
        </mxCell>
        <mxCell id="PIh09qYpegACh0HdGueP-9" style="edgeStyle=orthogonalEdgeStyle;rounded=0;orthogonalLoop=1;jettySize=auto;html=1;exitX=0.5;exitY=1;exitDx=0;exitDy=0;entryX=0.5;entryY=0;entryDx=0;entryDy=0;" edge="1" parent="WIyWlLk6GJQsqaUBKTNV-1" source="PIh09qYpegACh0HdGueP-3" target="PIh09qYpegACh0HdGueP-5">
          <mxGeometry relative="1" as="geometry" />
        </mxCell>
        <mxCell id="PIh09qYpegACh0HdGueP-3" value="&lt;span class=&quot;fontstyle0&quot;&gt;Check duplicate &lt;/span&gt;&lt;span class=&quot;fontstyle2&quot;&gt;Item – STK file &lt;/span&gt;&lt;span class=&quot;fontstyle0&quot;&gt;with &lt;/span&gt;&lt;span class=&quot;fontstyle2&quot;&gt;Code – Tracking file&lt;/span&gt; &lt;br/&gt;" style="rounded=1;whiteSpace=wrap;html=1;" vertex="1" parent="WIyWlLk6GJQsqaUBKTNV-1">
          <mxGeometry x="476.5" y="585" width="243" height="60" as="geometry" />
        </mxCell>
        <mxCell id="PIh09qYpegACh0HdGueP-10" style="edgeStyle=orthogonalEdgeStyle;rounded=0;orthogonalLoop=1;jettySize=auto;html=1;exitX=1;exitY=0.5;exitDx=0;exitDy=0;entryX=0.5;entryY=0;entryDx=0;entryDy=0;" edge="1" parent="WIyWlLk6GJQsqaUBKTNV-1" source="PIh09qYpegACh0HdGueP-5" target="PIh09qYpegACh0HdGueP-7">
          <mxGeometry relative="1" as="geometry" />
        </mxCell>
        <mxCell id="PIh09qYpegACh0HdGueP-11" value="1:Yes,2:No" style="edgeLabel;html=1;align=center;verticalAlign=middle;resizable=0;points=[];" vertex="1" connectable="0" parent="PIh09qYpegACh0HdGueP-10">
          <mxGeometry x="-0.5214" y="3" relative="1" as="geometry">
            <mxPoint x="32" as="offset" />
          </mxGeometry>
        </mxCell>
        <mxCell id="PIh09qYpegACh0HdGueP-13" style="edgeStyle=orthogonalEdgeStyle;rounded=0;orthogonalLoop=1;jettySize=auto;html=1;exitX=0.5;exitY=1;exitDx=0;exitDy=0;" edge="1" parent="WIyWlLk6GJQsqaUBKTNV-1" source="PIh09qYpegACh0HdGueP-5" target="PIh09qYpegACh0HdGueP-12">
          <mxGeometry relative="1" as="geometry" />
        </mxCell>
        <mxCell id="PIh09qYpegACh0HdGueP-17" style="edgeStyle=orthogonalEdgeStyle;rounded=0;orthogonalLoop=1;jettySize=auto;html=1;exitX=0;exitY=0.5;exitDx=0;exitDy=0;entryX=0;entryY=0.25;entryDx=0;entryDy=0;" edge="1" parent="WIyWlLk6GJQsqaUBKTNV-1" source="PIh09qYpegACh0HdGueP-5" target="PIh09qYpegACh0HdGueP-15">
          <mxGeometry relative="1" as="geometry" />
        </mxCell>
        <mxCell id="PIh09qYpegACh0HdGueP-5" value="STK:1 , TRACKING: 2" style="rhombus;whiteSpace=wrap;html=1;" vertex="1" parent="WIyWlLk6GJQsqaUBKTNV-1">
          <mxGeometry x="511.5" y="670" width="173" height="130" as="geometry" />
        </mxCell>
        <mxCell id="PIh09qYpegACh0HdGueP-7" value="&lt;table style=&quot;color: rgb(0, 0, 0); font-family: Helvetica; font-size: 12px; font-style: normal; font-variant-ligatures: normal; font-variant-caps: normal; font-weight: 400; letter-spacing: normal; orphans: 2; text-align: center; text-transform: none; widows: 2; word-spacing: 0px; -webkit-text-stroke-width: 0px; background-color: rgb(248, 249, 250); text-decoration-thickness: initial; text-decoration-style: initial; text-decoration-color: initial;&quot; class=&quot;NormalTable&quot;&gt;&lt;tbody&gt;&lt;tr&gt;&lt;td style=&quot;border-width: 1px; border-style: solid; border-color: rgb(0, 0, 0);&quot; width=&quot;550&quot;&gt;&lt;span class=&quot;fontstyle0&quot;&gt;Copy new Item from STK to Tracking&lt;/span&gt;&lt;/td&gt;&lt;/tr&gt;&lt;/tbody&gt;&lt;/table&gt;" style="text;whiteSpace=wrap;html=1;" vertex="1" parent="WIyWlLk6GJQsqaUBKTNV-1">
          <mxGeometry x="719.5" y="760" width="160" height="40" as="geometry" />
        </mxCell>
        <mxCell id="PIh09qYpegACh0HdGueP-12" value="&lt;table class=&quot;NormalTable&quot;&gt;&lt;tbody&gt;&lt;tr&gt;&lt;td style=&quot;border-left:solid 1px #000000;border-bottom:solid 1px #000000;border-right:solid 1px #000000;border-top:solid 1px #000000;&quot; width=&quot;550&quot;&gt;&lt;span class=&quot;fontstyle0&quot;&gt;Update Quantity and relevant details (description…)&lt;/span&gt;&lt;/td&gt;&lt;/tr&gt;&lt;/tbody&gt;&lt;/table&gt; &#xa;&lt;br style=&quot;font-style: normal; font-variant: normal; font-weight: normal; letter-spacing: normal; line-height: normal; orphans: 2; text-align: -webkit-auto; text-indent: 0px; text-transform: none; widows: 2; word-spacing: 0px; text-size-adjust: auto; -webkit-text-stroke-width: 0px;&quot;&gt;" style="text;whiteSpace=wrap;html=1;" vertex="1" parent="WIyWlLk6GJQsqaUBKTNV-1">
          <mxGeometry x="493" y="860" width="210" height="50" as="geometry" />
        </mxCell>
        <mxCell id="PIh09qYpegACh0HdGueP-14" value="1:Yes,2: Yes" style="edgeLabel;html=1;align=center;verticalAlign=middle;resizable=0;points=[];" vertex="1" connectable="0" parent="WIyWlLk6GJQsqaUBKTNV-1">
          <mxGeometry x="630" y="820" as="geometry" />
        </mxCell>
        <mxCell id="PIh09qYpegACh0HdGueP-15" value="&lt;table class=&quot;NormalTable&quot;&gt;&lt;tbody&gt;&lt;tr&gt;&lt;td style=&quot;border-left:solid 1px #000000;border-bottom:solid 1px #000000;border-right:solid 1px #000000;border-top:solid 1px #000000;&quot; width=&quot;550&quot;&gt;&lt;span class=&quot;fontstyle0&quot;&gt;Leave “0” at Quantity&lt;/span&gt;&lt;/td&gt;&lt;/tr&gt;&lt;/tbody&gt;&lt;/table&gt; &#xa;&lt;br style=&quot;font-style: normal; font-variant: normal; font-weight: normal; letter-spacing: normal; line-height: normal; orphans: 2; text-align: -webkit-auto; text-indent: 0px; text-transform: none; widows: 2; word-spacing: 0px; text-size-adjust: auto; -webkit-text-stroke-width: 0px;&quot;&gt;" style="text;whiteSpace=wrap;html=1;" vertex="1" parent="WIyWlLk6GJQsqaUBKTNV-1">
          <mxGeometry x="450" y="790" width="140" height="70" as="geometry" />
        </mxCell>
        <mxCell id="PIh09qYpegACh0HdGueP-18" value="1:No,2:Yes" style="edgeLabel;html=1;align=center;verticalAlign=middle;resizable=0;points=[];" vertex="1" connectable="0" parent="WIyWlLk6GJQsqaUBKTNV-1">
          <mxGeometry x="760.5" y="742" as="geometry">
            <mxPoint x="-291" y="-3" as="offset" />
          </mxGeometry>
        </mxCell>
      </root>
    </mxGraphModel>
  </diagram>
</mxfile>
